<svg id="e7iwc5lptflc1" xmlns="http://www.w3.org/2000/svg" xmlns:xlink="http://www.w3.org/1999/xlink" viewBox="0 0 425.200000 170.080000" shape-rendering="geometricPrecision" text-rendering="geometricPrecision"><g id="e7iwc5lptflc2"><g id="e7iwc5lptflc3"><g id="e7iwc5lptflc4"><rect id="e7iwc5lptflc5" width="16.520000" height="1.160000" rx="0" ry="0" transform="matrix(1 0 0 1 53.82000000000000 150.34000000000000)" fill="rgb(26,22,31)" stroke="none" stroke-width="1"/><path id="e7iwc5lptflc6" d="M69.060000,150.400000L55.100000,150.400000L55.100000,141.710000C55.100000,141.500000,55.260000,141.340000,55.470000,141.340000L68.690000,141.340000C68.900000,141.340000,69.060000,141.500000,69.060000,141.710000L69.060000,150.400000L69.060000,150.400000Z" fill="rgb(26,22,31)" stroke="none" stroke-width="1"/><path id="e7iwc5lptflc7" d="M67.830000,141.400000L56.330000,141.400000L56.330000,141.400000C56.330000,141.120000,56.560000,140.890000,56.840000,140.890000L67.310000,140.890000C67.600000,140.880000,67.830000,141.110000,67.830000,141.400000L67.830000,141.400000Z" fill="rgb(26,22,31)" stroke="none" stroke-width="1"/><path id="e7iwc5lptflc8" d="M66.640000,140.920000L57.510000,140.920000L57.510000,139.490000C57.510000,138.660000,58.190000,137.980000,59.020000,137.980000L65.130000,137.980000C65.960000,137.980000,66.640000,138.660000,66.640000,139.490000L66.640000,140.920000L66.640000,140.920000Z" fill="rgb(26,22,31)" stroke="none" stroke-width="1"/><rect id="e7iwc5lptflc9" width="0.430000" height="8.760000" rx="0" ry="0" transform="matrix(1 0 0 1 61.79000000000000 141.50999999999999)" fill="rgb(51,53,53)" stroke="none" stroke-width="1"/><rect id="e7iwc5lptflc10" width="0.430000" height="8.760000" rx="0" ry="0" transform="matrix(1 0 0 1 66.53000000000000 141.50999999999999)" fill="rgb(51,53,53)" stroke="none" stroke-width="1"/><rect id="e7iwc5lptflc11" width="0.430000" height="8.760000" rx="0" ry="0" transform="matrix(1 0 0 1 57.29000000000000 141.50999999999999)" fill="rgb(51,53,53)" stroke="none" stroke-width="1"/><rect id="e7iwc5lptflc12" width="4.920000" height="0.400000" rx="0" ry="0" transform="matrix(1 0 0 1 59.62000000000000 137.62000000000000)" fill="rgb(26,22,31)" stroke="none" stroke-width="1"/><rect id="e7iwc5lptflc13" width="4.920000" height="0.400000" rx="0" ry="0" transform="matrix(1 0 0 1 59.62000000000000 133.37000000000000)" fill="rgb(26,22,31)" stroke="none" stroke-width="1"/><path id="e7iwc5lptflc14" d="M65.880000,137.630000L58.400000,137.630000C58,137.630000,57.680000,137.310000,57.680000,136.910000L57.680000,134.450000C57.680000,134.050000,58,133.730000,58.400000,133.730000L65.880000,133.730000C66.280000,133.730000,66.600000,134.050000,66.600000,134.450000L66.600000,136.910000C66.600000,137.310000,66.280000,137.630000,65.880000,137.630000Z" fill="rgb(26,22,31)" stroke="none" stroke-width="1"/><rect id="e7iwc5lptflc15" width="3.470000" height="1.160000" rx="0" ry="0" transform="matrix(1 0 0 1 64.17000000000000 150.34999999999999)" fill="rgb(46,44,48)" stroke="none" stroke-width="1"/><g id="e7iwc5lptflc16"><path id="e7iwc5lptflc17" d="M65.470000,133.030000C65.470000,133.190000,65.360000,133.320000,65.200000,133.340000C64.280000,133.490000,63.200000,133.600000,61.980000,133.590000C60.840000,133.580000,59.810000,133.480000,58.940000,133.340000C58.790000,133.310000,58.670000,133.180000,58.670000,133.030000L58.670000,131.740000C58.670000,131.540000,58.830000,131.380000,59.030000,131.380000C60.010000,131.420000,61.010000,131.430000,62.060000,131.430000C63.110000,131.430000,64.120000,131.410000,65.100000,131.380000C65.120000,131.380000,65.250000,131.380000,65.360000,131.480000C65.430000,131.550000,65.460000,131.640000,65.460000,131.740000L65.470000,133.030000L65.470000,133.030000Z" fill="rgb(92,181,72)" stroke="none" stroke-width="1"/><path id="e7iwc5lptflc18" d="M65.030000,131.500000L59.110000,131.500000L59.280000,129.520000C59.300000,129.360000,59.430000,129.240000,59.590000,129.240000L64.490000,129.240000C64.650000,129.240000,64.790000,129.360000,64.800000,129.520000L65.030000,131.500000Z" fill="rgb(94,182,71)" stroke="none" stroke-width="1"/><path id="e7iwc5lptflc19" d="M64.550000,129.290000L59.590000,129.290000L59.740000,127.310000C59.750000,127.150000,59.870000,127.030000,60,127.030000L64.100000,127.030000C64.230000,127.030000,64.350000,127.150000,64.360000,127.310000L64.550000,129.290000Z" fill="rgb(94,182,71)" stroke="none" stroke-width="1"/><path id="e7iwc5lptflc20" d="M62.010000,127.030000L60.010000,127.030000C59.870000,127.030000,59.760000,127.160000,59.750000,127.310000L59.600000,129.290000L62.010000,129.290000L62.010000,127.030000Z" fill="rgb(74,150,67)" stroke="none" stroke-width="1"/><path id="e7iwc5lptflc21" d="M64.340000,127.310000C64.360000,127.390000,64.310000,127.470000,64.250000,127.480000C63.550000,127.530000,62.760000,127.580000,61.990000,127.580000C61.240000,127.580000,60.530000,127.550000,59.840000,127.490000C59.790000,127.480000,59.750000,127.420000,59.750000,127.350000L59.750000,127.320000C59.750000,127.110000,59.870000,126.950000,60.010000,126.960000C60.640000,127.020000,61.320000,127.060000,62.040000,127.060000C62.780000,127.060000,63.490000,127.020000,64.150000,126.950000C64.240000,126.940000,64.310000,127.040000,64.310000,127.170000L64.340000,127.310000Z" fill="rgb(125,189,67)" stroke="none" stroke-width="1"/><path id="e7iwc5lptflc22" d="M62.010000,129.240000L59.610000,129.240000C59.450000,129.240000,59.310000,129.360000,59.300000,129.520000L59.130000,131.480000L62.020000,131.480000L62.020000,129.240000Z" fill="rgb(74,150,67)" stroke="none" stroke-width="1"/><path id="e7iwc5lptflc23" d="M64.820000,129.580000C64.840000,129.660000,64.790000,129.740000,64.720000,129.750000C63.880000,129.800000,62.940000,129.850000,62.020000,129.850000C61.120000,129.850000,60.270000,129.820000,59.460000,129.760000C59.400000,129.750000,59.360000,129.690000,59.360000,129.620000L59.360000,129.590000C59.360000,129.380000,59.500000,129.220000,59.670000,129.230000C60.430000,129.290000,61.240000,129.330000,62.080000,129.330000C62.970000,129.330000,63.810000,129.290000,64.600000,129.220000C64.700000,129.210000,64.790000,129.310000,64.790000,129.440000L64.820000,129.580000Z" fill="rgb(125,189,67)" stroke="none" stroke-width="1"/><path id="e7iwc5lptflc24" d="M61.990000,131.430000C60.970000,131.430000,59.990000,131.410000,59.030000,131.380000C58.830000,131.380000,58.670000,131.540000,58.670000,131.740000L58.670000,133.030000C58.670000,133.190000,58.780000,133.320000,58.940000,133.340000C59.810000,133.480000,60.840000,133.590000,61.980000,133.590000C61.990000,133.590000,61.990000,133.590000,61.990000,133.590000L61.990000,131.430000L61.990000,131.430000Z" fill="rgb(74,150,67)" stroke="none" stroke-width="1"/><path id="e7iwc5lptflc25" d="M65.470000,131.730000C65.490000,131.810000,65.430000,131.890000,65.340000,131.900000C64.290000,131.950000,63.130000,132,61.990000,132C60.880000,132,59.820000,131.970000,58.800000,131.910000C58.720000,131.900000,58.670000,131.840000,58.670000,131.770000L58.670000,131.730000C58.670000,131.520000,58.850000,131.360000,59.060000,131.370000C60,131.430000,61,131.470000,62.060000,131.470000C63.160000,131.470000,64.210000,131.430000,65.190000,131.360000C65.320000,131.350000,65.430000,131.450000,65.430000,131.580000L65.470000,131.730000Z" fill="rgb(125,189,67)" stroke="none" stroke-width="1"/></g></g><g id="e7iwc5lptflc26"><rect id="e7iwc5lptflc27" width="16.520000" height="1.160000" rx="0" ry="0" transform="matrix(1 0 0 1 161.84000000000000 122.12000000000000)" fill="rgb(26,22,31)" stroke="none" stroke-width="1"/><path id="e7iwc5lptflc28" d="M177.080000,122.180000L163.120000,122.180000L163.120000,113.490000C163.120000,113.280000,163.280000,113.120000,163.490000,113.120000L176.710000,113.120000C176.920000,113.120000,177.080000,113.280000,177.080000,113.490000L177.080000,122.180000L177.080000,122.180000Z" fill="rgb(26,22,31)" stroke="none" stroke-width="1"/><path id="e7iwc5lptflc29" d="M175.850000,113.180000L164.350000,113.180000L164.350000,113.180000C164.350000,112.900000,164.580000,112.670000,164.860000,112.670000L175.330000,112.670000C175.620000,112.660000,175.850000,112.900000,175.850000,113.180000L175.850000,113.180000Z" fill="rgb(26,22,31)" stroke="none" stroke-width="1"/><path id="e7iwc5lptflc30" d="M174.660000,112.700000L165.530000,112.700000L165.530000,111.270000C165.530000,110.440000,166.210000,109.760000,167.040000,109.760000L173.150000,109.760000C173.980000,109.760000,174.660000,110.440000,174.660000,111.270000L174.660000,112.700000L174.660000,112.700000Z" fill="rgb(26,22,31)" stroke="none" stroke-width="1"/><rect id="e7iwc5lptflc31" width="0.430000" height="8.760000" rx="0" ry="0" transform="matrix(1 0 0 1 169.81000000000000 113.29000000000001)" fill="rgb(51,53,53)" stroke="none" stroke-width="1"/><rect id="e7iwc5lptflc32" width="0.430000" height="8.760000" rx="0" ry="0" transform="matrix(1 0 0 1 174.55000000000001 113.29000000000001)" fill="rgb(51,53,53)" stroke="none" stroke-width="1"/><rect id="e7iwc5lptflc33" width="0.430000" height="8.760000" rx="0" ry="0" transform="matrix(1 0 0 1 165.31999999999999 113.29000000000001)" fill="rgb(51,53,53)" stroke="none" stroke-width="1"/><rect id="e7iwc5lptflc34" width="4.920000" height="0.400000" rx="0" ry="0" transform="matrix(1 0 0 1 167.63999999999999 109.40000000000001)" fill="rgb(26,22,31)" stroke="none" stroke-width="1"/><rect id="e7iwc5lptflc35" width="4.920000" height="0.400000" rx="0" ry="0" transform="matrix(1 0 0 1 167.63999999999999 105.15000000000001)" fill="rgb(26,22,31)" stroke="none" stroke-width="1"/><path id="e7iwc5lptflc36" d="M173.900000,109.410000L166.430000,109.410000C166.030000,109.410000,165.710000,109.090000,165.710000,108.690000L165.710000,106.230000C165.710000,105.830000,166.030000,105.510000,166.430000,105.510000L173.910000,105.510000C174.310000,105.510000,174.630000,105.830000,174.630000,106.230000L174.630000,108.690000C174.620000,109.090000,174.300000,109.410000,173.900000,109.410000Z" fill="rgb(26,22,31)" stroke="none" stroke-width="1"/><rect id="e7iwc5lptflc37" width="3.470000" height="1.160000" rx="0" ry="0" transform="matrix(1 0 0 1 172.19999999999999 122.13000000000000)" fill="rgb(46,44,48)" stroke="none" stroke-width="1"/><g id="e7iwc5lptflc38"><path id="e7iwc5lptflc39" d="M173.500000,104.810000C173.500000,104.970000,173.390000,105.100000,173.230000,105.120000C172.310000,105.270000,171.230000,105.380000,170.010000,105.370000C168.870000,105.360000,167.840000,105.260000,166.970000,105.120000C166.820000,105.090000,166.700000,104.960000,166.700000,104.810000L166.700000,103.520000C166.700000,103.320000,166.860000,103.160000,167.060000,103.160000C168.040000,103.200000,169.040000,103.210000,170.090000,103.210000C171.140000,103.210000,172.150000,103.190000,173.130000,103.160000C173.150000,103.160000,173.280000,103.160000,173.390000,103.260000C173.460000,103.330000,173.490000,103.420000,173.490000,103.520000L173.500000,104.810000L173.500000,104.810000Z" fill="rgb(92,181,72)" stroke="none" stroke-width="1"/><path id="e7iwc5lptflc40" d="M173.050000,103.280000L167.130000,103.280000L167.300000,101.300000C167.320000,101.140000,167.450000,101.020000,167.610000,101.020000L172.510000,101.020000C172.670000,101.020000,172.810000,101.140000,172.820000,101.300000L173.050000,103.280000Z" fill="rgb(94,182,71)" stroke="none" stroke-width="1"/><path id="e7iwc5lptflc41" d="M172.570000,101.070000L167.610000,101.070000L167.760000,99.090000C167.770000,98.930000,167.890000,98.810000,168.020000,98.810000L172.120000,98.810000C172.250000,98.810000,172.370000,98.930000,172.380000,99.090000L172.570000,101.070000Z" fill="rgb(94,182,71)" stroke="none" stroke-width="1"/><path id="e7iwc5lptflc42" d="M170.030000,98.810000L168.030000,98.810000C167.890000,98.810000,167.780000,98.940000,167.770000,99.090000L167.620000,101.070000L170.030000,101.070000L170.030000,98.810000Z" fill="rgb(74,150,67)" stroke="none" stroke-width="1"/><path id="e7iwc5lptflc43" d="M172.360000,99.090000C172.380000,99.170000,172.330000,99.250000,172.270000,99.260000C171.570000,99.310000,170.780000,99.360000,170.010000,99.360000C169.260000,99.360000,168.550000,99.330000,167.860000,99.270000C167.810000,99.260000,167.770000,99.200000,167.770000,99.130000L167.770000,99.100000C167.770000,98.890000,167.890000,98.730000,168.030000,98.740000C168.660000,98.800000,169.340000,98.840000,170.060000,98.840000C170.800000,98.840000,171.510000,98.800000,172.170000,98.730000C172.260000,98.720000,172.330000,98.820000,172.330000,98.950000L172.360000,99.090000Z" fill="rgb(125,189,67)" stroke="none" stroke-width="1"/><path id="e7iwc5lptflc44" d="M170.030000,101.020000L167.630000,101.020000C167.470000,101.020000,167.330000,101.140000,167.320000,101.300000L167.150000,103.260000L170.040000,103.260000L170.040000,101.020000Z" fill="rgb(74,150,67)" stroke="none" stroke-width="1"/><path id="e7iwc5lptflc45" d="M172.840000,101.360000C172.860000,101.440000,172.810000,101.520000,172.740000,101.530000C171.900000,101.580000,170.960000,101.630000,170.040000,101.630000C169.140000,101.630000,168.290000,101.600000,167.480000,101.540000C167.420000,101.530000,167.380000,101.470000,167.380000,101.400000L167.380000,101.370000C167.380000,101.160000,167.520000,101,167.690000,101.010000C168.450000,101.070000,169.260000,101.110000,170.100000,101.110000C170.990000,101.110000,171.830000,101.070000,172.620000,101C172.720000,100.990000,172.810000,101.090000,172.810000,101.220000L172.840000,101.360000Z" fill="rgb(125,189,67)" stroke="none" stroke-width="1"/><path id="e7iwc5lptflc46" d="M170.020000,103.220000C169,103.220000,168.020000,103.200000,167.060000,103.170000C166.860000,103.170000,166.700000,103.330000,166.700000,103.530000L166.700000,104.820000C166.700000,104.980000,166.810000,105.110000,166.970000,105.130000C167.840000,105.270000,168.870000,105.380000,170.010000,105.380000C170.020000,105.380000,170.020000,105.380000,170.020000,105.380000L170.020000,103.220000L170.020000,103.220000Z" fill="rgb(74,150,67)" stroke="none" stroke-width="1"/><path id="e7iwc5lptflc47" d="M173.500000,103.510000C173.520000,103.590000,173.460000,103.670000,173.370000,103.680000C172.320000,103.730000,171.160000,103.780000,170.020000,103.780000C168.910000,103.780000,167.850000,103.750000,166.830000,103.690000C166.750000,103.680000,166.700000,103.620000,166.700000,103.550000L166.700000,103.510000C166.700000,103.300000,166.880000,103.140000,167.090000,103.150000C168.030000,103.210000,169.030000,103.250000,170.090000,103.250000C171.190000,103.250000,172.240000,103.210000,173.220000,103.140000C173.350000,103.130000,173.460000,103.230000,173.460000,103.360000L173.500000,103.510000Z" fill="rgb(125,189,67)" stroke="none" stroke-width="1"/></g></g><g id="e7iwc5lptflc48" opacity="0"><rect id="e7iwc5lptflc49" width="16.520000" height="1.160000" rx="0" ry="0" transform="matrix(1 0 0 1 259.88000000000000 93.95000000000000)" fill="rgb(26,22,31)" stroke="none" stroke-width="1"/><path id="e7iwc5lptflc50" d="M275.120000,94.010000L261.160000,94.010000L261.160000,85.320000C261.160000,85.110000,261.320000,84.950000,261.530000,84.950000L274.750000,84.950000C274.960000,84.950000,275.120000,85.110000,275.120000,85.320000L275.120000,94.010000L275.120000,94.010000Z" fill="rgb(26,22,31)" stroke="none" stroke-width="1"/><path id="e7iwc5lptflc51" d="M273.890000,85.010000L262.390000,85.010000L262.390000,85.010000C262.390000,84.730000,262.620000,84.500000,262.900000,84.500000L273.370000,84.500000C273.660000,84.490000,273.890000,84.720000,273.890000,85.010000L273.890000,85.010000Z" fill="rgb(26,22,31)" stroke="none" stroke-width="1"/><path id="e7iwc5lptflc52" d="M272.700000,84.530000L263.570000,84.530000L263.570000,83.100000C263.570000,82.270000,264.250000,81.590000,265.080000,81.590000L271.190000,81.590000C272.020000,81.590000,272.700000,82.270000,272.700000,83.100000L272.700000,84.530000L272.700000,84.530000Z" fill="rgb(26,22,31)" stroke="none" stroke-width="1"/><rect id="e7iwc5lptflc53" width="0.430000" height="8.760000" rx="0" ry="0" transform="matrix(1 0 0 1 267.85000000000002 85.12000000000000)" fill="rgb(51,53,53)" stroke="none" stroke-width="1"/><rect id="e7iwc5lptflc54" width="0.430000" height="8.760000" rx="0" ry="0" transform="matrix(1 0 0 1 272.58999999999997 85.12000000000000)" fill="rgb(51,53,53)" stroke="none" stroke-width="1"/><rect id="e7iwc5lptflc55" width="0.430000" height="8.760000" rx="0" ry="0" transform="matrix(1 0 0 1 263.35000000000002 85.12000000000000)" fill="rgb(51,53,53)" stroke="none" stroke-width="1"/><rect id="e7iwc5lptflc56" width="4.920000" height="0.400000" rx="0" ry="0" transform="matrix(1 0 0 1 265.68000000000001 81.23000000000000)" fill="rgb(26,22,31)" stroke="none" stroke-width="1"/><rect id="e7iwc5lptflc57" width="4.920000" height="0.400000" rx="0" ry="0" transform="matrix(1 0 0 1 265.68000000000001 76.98000000000000)" fill="rgb(26,22,31)" stroke="none" stroke-width="1"/><path id="e7iwc5lptflc58" d="M271.940000,81.240000L264.470000,81.240000C264.070000,81.240000,263.750000,80.920000,263.750000,80.520000L263.750000,78.060000C263.750000,77.660000,264.070000,77.340000,264.470000,77.340000L271.950000,77.340000C272.350000,77.340000,272.670000,77.660000,272.670000,78.060000L272.670000,80.520000C272.660000,80.910000,272.340000,81.240000,271.940000,81.240000Z" fill="rgb(26,22,31)" stroke="none" stroke-width="1"/><rect id="e7iwc5lptflc59" width="3.470000" height="1.160000" rx="0" ry="0" transform="matrix(1 0 0 1 270.23000000000002 93.95999999999999)" fill="rgb(46,44,48)" stroke="none" stroke-width="1"/><g id="e7iwc5lptflc60"><path id="e7iwc5lptflc61" d="M271.530000,76.640000C271.530000,76.800000,271.420000,76.930000,271.260000,76.950000C270.340000,77.100000,269.260000,77.210000,268.040000,77.200000C266.900000,77.190000,265.870000,77.090000,265,76.950000C264.850000,76.920000,264.730000,76.790000,264.730000,76.640000L264.730000,75.350000C264.730000,75.150000,264.890000,74.990000,265.090000,74.990000C266.070000,75.030000,267.070000,75.040000,268.120000,75.040000C269.170000,75.040000,270.180000,75.020000,271.160000,74.990000C271.180000,74.990000,271.310000,74.990000,271.420000,75.090000C271.490000,75.160000,271.520000,75.250000,271.520000,75.350000L271.530000,76.640000L271.530000,76.640000Z" fill="rgb(92,181,72)" stroke="none" stroke-width="1"/><path id="e7iwc5lptflc62" d="M271.090000,75.110000L265.170000,75.110000L265.340000,73.130000C265.360000,72.970000,265.490000,72.850000,265.650000,72.850000L270.550000,72.850000C270.710000,72.850000,270.850000,72.970000,270.860000,73.130000L271.090000,75.110000Z" fill="rgb(94,182,71)" stroke="none" stroke-width="1"/><path id="e7iwc5lptflc63" d="M270.610000,72.900000L265.650000,72.900000L265.800000,70.920000C265.810000,70.760000,265.930000,70.640000,266.060000,70.640000L270.160000,70.640000C270.290000,70.640000,270.410000,70.760000,270.420000,70.920000L270.610000,72.900000Z" fill="rgb(94,182,71)" stroke="none" stroke-width="1"/><path id="e7iwc5lptflc64" d="M268.070000,70.640000L266.070000,70.640000C265.930000,70.640000,265.820000,70.770000,265.810000,70.920000L265.660000,72.900000L268.070000,72.900000L268.070000,70.640000Z" fill="rgb(74,150,67)" stroke="none" stroke-width="1"/><path id="e7iwc5lptflc65" d="M270.400000,70.920000C270.420000,71,270.370000,71.080000,270.310000,71.090000C269.610000,71.140000,268.820000,71.190000,268.050000,71.190000C267.300000,71.190000,266.590000,71.160000,265.900000,71.100000C265.850000,71.090000,265.810000,71.030000,265.810000,70.960000L265.810000,70.930000C265.810000,70.720000,265.930000,70.560000,266.070000,70.570000C266.700000,70.630000,267.380000,70.670000,268.100000,70.670000C268.840000,70.670000,269.550000,70.630000,270.210000,70.560000C270.300000,70.550000,270.370000,70.650000,270.370000,70.780000L270.400000,70.920000Z" fill="rgb(125,189,67)" stroke="none" stroke-width="1"/><path id="e7iwc5lptflc66" d="M268.070000,72.850000L265.670000,72.850000C265.510000,72.850000,265.370000,72.970000,265.360000,73.130000L265.190000,75.090000L268.080000,75.090000L268.080000,72.850000Z" fill="rgb(74,150,67)" stroke="none" stroke-width="1"/><path id="e7iwc5lptflc67" d="M270.880000,73.190000C270.900000,73.270000,270.850000,73.350000,270.780000,73.360000C269.940000,73.410000,269,73.460000,268.080000,73.460000C267.180000,73.460000,266.330000,73.430000,265.520000,73.370000C265.460000,73.360000,265.420000,73.300000,265.420000,73.230000L265.420000,73.200000C265.420000,72.990000,265.560000,72.830000,265.730000,72.840000C266.490000,72.900000,267.300000,72.940000,268.140000,72.940000C269.030000,72.940000,269.870000,72.900000,270.660000,72.830000C270.760000,72.820000,270.850000,72.920000,270.850000,73.050000L270.880000,73.190000Z" fill="rgb(125,189,67)" stroke="none" stroke-width="1"/><path id="e7iwc5lptflc68" d="M268.050000,75.040000C267.030000,75.040000,266.050000,75.020000,265.090000,74.990000C264.890000,74.990000,264.730000,75.150000,264.730000,75.350000L264.730000,76.640000C264.730000,76.800000,264.840000,76.930000,265,76.950000C265.870000,77.090000,266.900000,77.200000,268.040000,77.200000C268.050000,77.200000,268.050000,77.200000,268.050000,77.200000L268.050000,75.040000L268.050000,75.040000Z" fill="rgb(74,150,67)" stroke="none" stroke-width="1"/><path id="e7iwc5lptflc69" d="M271.530000,75.340000C271.550000,75.420000,271.490000,75.500000,271.400000,75.510000C270.350000,75.560000,269.190000,75.610000,268.050000,75.610000C266.940000,75.610000,265.880000,75.580000,264.870000,75.520000C264.790000,75.510000,264.740000,75.450000,264.740000,75.380000L264.740000,75.340000C264.740000,75.130000,264.920000,74.970000,265.130000,74.980000C266.070000,75.040000,267.070000,75.080000,268.130000,75.080000C269.230000,75.080000,270.280000,75.040000,271.260000,74.970000C271.390000,74.960000,271.500000,75.060000,271.500000,75.190000L271.530000,75.340000Z" fill="rgb(125,189,67)" stroke="none" stroke-width="1"/></g></g><g id="e7iwc5lptflc70"><rect id="e7iwc5lptflc71" width="16.520000" height="1.160000" rx="0" ry="0" transform="matrix(1 0 0 1 347.76999999999998 73.75000000000000)" fill="rgb(26,22,31)" stroke="none" stroke-width="1"/><path id="e7iwc5lptflc72" d="M363.010000,73.810000L349.050000,73.810000L349.050000,65.120000C349.050000,64.910000,349.210000,64.750000,349.420000,64.750000L362.640000,64.750000C362.850000,64.750000,363.010000,64.910000,363.010000,65.120000L363.010000,73.810000L363.010000,73.810000Z" fill="rgb(26,22,31)" stroke="none" stroke-width="1"/><path id="e7iwc5lptflc73" d="M361.780000,64.800000L350.280000,64.800000L350.280000,64.800000C350.280000,64.520000,350.510000,64.290000,350.790000,64.290000L361.260000,64.290000C361.550000,64.280000,361.780000,64.520000,361.780000,64.800000L361.780000,64.800000Z" fill="rgb(26,22,31)" stroke="none" stroke-width="1"/><path id="e7iwc5lptflc74" d="M360.590000,64.330000L351.460000,64.330000L351.460000,62.900000C351.460000,62.070000,352.140000,61.390000,352.970000,61.390000L359.080000,61.390000C359.910000,61.390000,360.590000,62.070000,360.590000,62.900000L360.590000,64.330000L360.590000,64.330000Z" fill="rgb(26,22,31)" stroke="none" stroke-width="1"/><rect id="e7iwc5lptflc75" width="0.430000" height="8.760000" rx="0" ry="0" transform="matrix(1 0 0 1 355.73000000000002 64.92000000000000)" fill="rgb(51,53,53)" stroke="none" stroke-width="1"/><rect id="e7iwc5lptflc76" width="0.430000" height="8.760000" rx="0" ry="0" transform="matrix(1 0 0 1 360.48000000000002 64.92000000000000)" fill="rgb(51,53,53)" stroke="none" stroke-width="1"/><rect id="e7iwc5lptflc77" width="0.430000" height="8.760000" rx="0" ry="0" transform="matrix(1 0 0 1 351.24000000000001 64.92000000000000)" fill="rgb(51,53,53)" stroke="none" stroke-width="1"/><rect id="e7iwc5lptflc78" width="4.920000" height="0.400000" rx="0" ry="0" transform="matrix(1 0 0 1 353.56999999999999 61.02000000000000)" fill="rgb(26,22,31)" stroke="none" stroke-width="1"/><rect id="e7iwc5lptflc79" width="4.920000" height="0.400000" rx="0" ry="0" transform="matrix(1 0 0 1 353.56999999999999 56.77000000000000)" fill="rgb(26,22,31)" stroke="none" stroke-width="1"/><path id="e7iwc5lptflc80" d="M359.830000,61.030000L352.360000,61.030000C351.960000,61.030000,351.640000,60.710000,351.640000,60.310000L351.640000,57.850000C351.640000,57.450000,351.960000,57.130000,352.360000,57.130000L359.840000,57.130000C360.240000,57.130000,360.560000,57.450000,360.560000,57.850000L360.560000,60.310000C360.550000,60.710000,360.220000,61.030000,359.830000,61.030000Z" fill="rgb(26,22,31)" stroke="none" stroke-width="1"/><rect id="e7iwc5lptflc81" width="3.470000" height="1.160000" rx="0" ry="0" transform="matrix(1 0 0 1 358.12000000000000 73.76000000000001)" fill="rgb(46,44,48)" stroke="none" stroke-width="1"/><g id="e7iwc5lptflc82"><path id="e7iwc5lptflc83" d="M359.420000,56.430000C359.420000,56.590000,359.310000,56.720000,359.150000,56.740000C358.230000,56.890000,357.150000,57,355.930000,56.990000C354.790000,56.980000,353.760000,56.880000,352.890000,56.740000C352.740000,56.710000,352.620000,56.580000,352.620000,56.430000L352.620000,55.140000C352.620000,54.940000,352.780000,54.780000,352.980000,54.780000C353.960000,54.820000,354.960000,54.830000,356.010000,54.830000C357.060000,54.830000,358.070000,54.810000,359.050000,54.780000C359.070000,54.780000,359.200000,54.780000,359.310000,54.880000C359.380000,54.950000,359.410000,55.040000,359.410000,55.140000L359.420000,56.430000L359.420000,56.430000Z" fill="rgb(92,181,72)" stroke="none" stroke-width="1"/><path id="e7iwc5lptflc84" d="M358.980000,54.900000L353.060000,54.900000L353.230000,52.920000C353.250000,52.760000,353.380000,52.640000,353.540000,52.640000L358.440000,52.640000C358.600000,52.640000,358.740000,52.760000,358.750000,52.920000L358.980000,54.900000Z" fill="rgb(94,182,71)" stroke="none" stroke-width="1"/><path id="e7iwc5lptflc85" d="M358.500000,52.700000L353.540000,52.700000L353.690000,50.720000C353.700000,50.560000,353.820000,50.440000,353.950000,50.440000L358.050000,50.440000C358.180000,50.440000,358.300000,50.560000,358.310000,50.720000L358.500000,52.700000Z" fill="rgb(94,182,71)" stroke="none" stroke-width="1"/><path id="e7iwc5lptflc86" d="M355.960000,50.430000L353.960000,50.430000C353.820000,50.430000,353.710000,50.560000,353.700000,50.710000L353.550000,52.690000L355.960000,52.690000L355.960000,50.430000Z" fill="rgb(74,150,67)" stroke="none" stroke-width="1"/><path id="e7iwc5lptflc87" d="M358.290000,50.710000C358.310000,50.790000,358.260000,50.870000,358.200000,50.880000C357.500000,50.930000,356.710000,50.980000,355.940000,50.980000C355.190000,50.980000,354.480000,50.950000,353.790000,50.890000C353.740000,50.880000,353.700000,50.820000,353.700000,50.750000L353.700000,50.720000C353.700000,50.510000,353.820000,50.350000,353.960000,50.360000C354.590000,50.420000,355.270000,50.460000,355.990000,50.460000C356.730000,50.460000,357.440000,50.420000,358.100000,50.350000C358.190000,50.340000,358.260000,50.440000,358.260000,50.570000L358.290000,50.710000Z" fill="rgb(125,189,67)" stroke="none" stroke-width="1"/><path id="e7iwc5lptflc88" d="M355.960000,52.650000L353.560000,52.650000C353.400000,52.650000,353.260000,52.770000,353.250000,52.930000L353.080000,54.890000L355.970000,54.890000L355.970000,52.650000Z" fill="rgb(74,150,67)" stroke="none" stroke-width="1"/><path id="e7iwc5lptflc89" d="M358.770000,52.990000C358.790000,53.070000,358.740000,53.150000,358.670000,53.160000C357.830000,53.210000,356.890000,53.260000,355.970000,53.260000C355.070000,53.260000,354.220000,53.230000,353.410000,53.170000C353.350000,53.160000,353.310000,53.100000,353.310000,53.030000L353.310000,53C353.310000,52.790000,353.450000,52.630000,353.620000,52.640000C354.380000,52.700000,355.190000,52.740000,356.030000,52.740000C356.920000,52.740000,357.760000,52.700000,358.550000,52.630000C358.650000,52.620000,358.740000,52.720000,358.740000,52.850000L358.770000,52.990000Z" fill="rgb(125,189,67)" stroke="none" stroke-width="1"/><path id="e7iwc5lptflc90" d="M355.940000,54.840000C354.920000,54.840000,353.940000,54.820000,352.980000,54.790000C352.780000,54.790000,352.620000,54.950000,352.620000,55.150000L352.620000,56.440000C352.620000,56.600000,352.730000,56.730000,352.890000,56.750000C353.760000,56.890000,354.790000,57,355.930000,57C355.940000,57,355.940000,57,355.940000,57L355.940000,54.840000L355.940000,54.840000Z" fill="rgb(74,150,67)" stroke="none" stroke-width="1"/><path id="e7iwc5lptflc91" d="M359.420000,55.130000C359.440000,55.210000,359.380000,55.290000,359.290000,55.300000C358.240000,55.350000,357.080000,55.400000,355.940000,55.400000C354.830000,55.400000,353.770000,55.370000,352.750000,55.310000C352.670000,55.300000,352.620000,55.240000,352.620000,55.170000L352.620000,55.130000C352.620000,54.920000,352.800000,54.760000,353.010000,54.770000C353.950000,54.830000,354.950000,54.870000,356.010000,54.870000C357.110000,54.870000,358.160000,54.830000,359.140000,54.760000C359.270000,54.750000,359.380000,54.850000,359.380000,54.980000L359.420000,55.130000Z" fill="rgb(125,189,67)" stroke="none" stroke-width="1"/></g></g></g><g id="e7iwc5lptflc92" opacity="0"><g id="e7iwc5lptflc93"><path id="e7iwc5lptflc94" d="M58.560000,123.800000C58.560000,123.800000,57.660000,116.010000,53.430000,118.250000C53.430000,118.240000,49.950000,121.450000,58.560000,123.800000Z" fill="rgb(94,163,198)" stroke="none" stroke-width="1"/><path id="e7iwc5lptflc95" d="M71.890000,118.570000C67.890000,115.940000,66.260000,123.610000,66.260000,123.610000C75.060000,122.090000,71.890000,118.570000,71.890000,118.570000Z" fill="rgb(94,163,198)" stroke="none" stroke-width="1"/><path id="e7iwc5lptflc96" d="M59.610000,115.800000C55.400000,118.060000,61.350000,123.160000,61.350000,123.160000C64.210000,114.700000,59.610000,115.800000,59.610000,115.800000Z" fill="rgb(94,163,198)" stroke="none" stroke-width="1"/><path id="e7iwc5lptflc97" d="M66.390000,115.980000C61.650000,115.340000,63.490000,122.970000,63.490000,122.970000C70.760000,117.790000,66.390000,115.980000,66.390000,115.980000Z" fill="rgb(94,163,198)" stroke="none" stroke-width="1"/></g><g id="e7iwc5lptflc98"><path id="e7iwc5lptflc99" d="M166.580000,95.580000C166.580000,95.580000,165.680000,87.790000,161.450000,90.030000C161.460000,90.030000,157.970000,93.230000,166.580000,95.580000Z" fill="rgb(94,163,198)" stroke="none" stroke-width="1"/><path id="e7iwc5lptflc100" d="M179.920000,90.360000C175.920000,87.730000,174.290000,95.400000,174.290000,95.400000C183.080000,93.880000,179.920000,90.360000,179.920000,90.360000Z" fill="rgb(94,163,198)" stroke="none" stroke-width="1"/><path id="e7iwc5lptflc101" d="M167.630000,87.580000C163.420000,89.840000,169.370000,94.940000,169.370000,94.940000C172.230000,86.480000,167.630000,87.580000,167.630000,87.580000Z" fill="rgb(94,163,198)" stroke="none" stroke-width="1"/><path id="e7iwc5lptflc102" d="M174.410000,87.760000C169.670000,87.120000,171.510000,94.750000,171.510000,94.750000C178.780000,89.570000,174.410000,87.760000,174.410000,87.760000Z" fill="rgb(94,163,198)" stroke="none" stroke-width="1"/></g><g id="e7iwc5lptflc103" display="none" opacity="0"><path id="e7iwc5lptflc104" d="M264.620000,67.410000C264.620000,67.410000,263.720000,59.620000,259.490000,61.860000C259.490000,61.850000,256.010000,65.050000,264.620000,67.410000Z" fill="rgb(94,163,198)" stroke="none" stroke-width="1"/><path id="e7iwc5lptflc105" d="M277.950000,62.180000C273.950000,59.550000,272.320000,67.220000,272.320000,67.220000C281.120000,65.700000,277.950000,62.180000,277.950000,62.180000Z" fill="rgb(94,163,198)" stroke="none" stroke-width="1"/><path id="e7iwc5lptflc106" d="M265.670000,59.410000C261.460000,61.670000,267.410000,66.770000,267.410000,66.770000C270.270000,58.310000,265.670000,59.410000,265.670000,59.410000Z" fill="rgb(94,163,198)" stroke="none" stroke-width="1"/><path id="e7iwc5lptflc107" d="M272.450000,59.590000C267.710000,58.950000,269.550000,66.580000,269.550000,66.580000C276.820000,61.400000,272.450000,59.590000,272.450000,59.590000Z" fill="rgb(94,163,198)" stroke="none" stroke-width="1"/></g><g id="e7iwc5lptflc108"><path id="e7iwc5lptflc109" d="M352.510000,47.200000C352.510000,47.200000,351.610000,39.410000,347.380000,41.650000C347.380000,41.650000,343.900000,44.850000,352.510000,47.200000Z" fill="rgb(94,163,198)" stroke="none" stroke-width="1"/><path id="e7iwc5lptflc110" d="M365.840000,41.980000C361.840000,39.350000,360.210000,47.020000,360.210000,47.020000C369,45.500000,365.840000,41.980000,365.840000,41.980000Z" fill="rgb(94,163,198)" stroke="none" stroke-width="1"/><path id="e7iwc5lptflc111" d="M353.560000,39.200000C349.350000,41.460000,355.300000,46.560000,355.300000,46.560000C358.160000,38.110000,353.560000,39.200000,353.560000,39.200000Z" fill="rgb(94,163,198)" stroke="none" stroke-width="1"/><path id="e7iwc5lptflc112" d="M360.340000,39.390000C355.600000,38.750000,357.440000,46.380000,357.440000,46.380000C364.710000,41.200000,360.340000,39.390000,360.340000,39.390000Z" fill="rgb(94,163,198)" stroke="none" stroke-width="1"/></g></g><g id="e7iwc5lptflc113" opacity="0"><g id="e7iwc5lptflc114"><path id="e7iwc5lptflc115" d="M89.330000,110.730000C86.420000,104.990000,79.390000,112.850000,79.390000,112.850000C90.660000,116.960000,89.330000,110.730000,89.330000,110.730000Z" fill="rgb(94,163,198)" stroke="none" stroke-width="1"/><path id="e7iwc5lptflc116" d="M49.180000,112.350000C49.180000,112.350000,42.730000,104.020000,39.420000,109.520000C39.420000,109.520000,37.620000,115.630000,49.180000,112.350000Z" fill="rgb(94,163,198)" stroke="none" stroke-width="1"/><path id="e7iwc5lptflc117" d="M75.330000,104.250000C69.620000,101.300000,68.490000,111.780000,68.490000,111.780000C80.060000,108.520000,75.330000,104.250000,75.330000,104.250000Z" fill="rgb(94,163,198)" stroke="none" stroke-width="1"/><path id="e7iwc5lptflc118" d="M61.150000,111.700000C61.150000,111.700000,61.700000,101.170000,55.590000,103.180000C55.590000,103.190000,50.250000,106.650000,61.150000,111.700000Z" fill="rgb(94,163,198)" stroke="none" stroke-width="1"/></g><g id="e7iwc5lptflc119"><path id="e7iwc5lptflc120" d="M197.350000,82.510000C194.440000,76.770000,187.410000,84.630000,187.410000,84.630000C198.690000,88.740000,197.350000,82.510000,197.350000,82.510000Z" fill="rgb(94,163,198)" stroke="none" stroke-width="1"/><path id="e7iwc5lptflc121" d="M157.200000,84.130000C157.200000,84.130000,150.750000,75.800000,147.440000,81.300000C147.440000,81.300000,145.650000,87.420000,157.200000,84.130000Z" fill="rgb(94,163,198)" stroke="none" stroke-width="1"/><path id="e7iwc5lptflc122" d="M183.360000,76.030000C177.650000,73.080000,176.520000,83.560000,176.520000,83.560000C188.080000,80.300000,183.360000,76.030000,183.360000,76.030000Z" fill="rgb(94,163,198)" stroke="none" stroke-width="1"/><path id="e7iwc5lptflc123" d="M169.170000,83.480000C169.170000,83.480000,169.720000,72.950000,163.610000,74.960000C163.610000,74.970000,158.280000,78.430000,169.170000,83.480000Z" fill="rgb(94,163,198)" stroke="none" stroke-width="1"/></g><g id="e7iwc5lptflc124" display="none"><path id="e7iwc5lptflc125" d="M295.390000,54.340000C292.480000,48.600000,285.450000,56.460000,285.450000,56.460000C296.720000,60.570000,295.390000,54.340000,295.390000,54.340000Z" fill="rgb(94,163,198)" stroke="none" stroke-width="1"/><path id="e7iwc5lptflc126" d="M255.240000,55.960000C255.240000,55.960000,248.790000,47.630000,245.480000,53.130000C245.480000,53.130000,243.680000,59.240000,255.240000,55.960000Z" fill="rgb(94,163,198)" stroke="none" stroke-width="1"/><path id="e7iwc5lptflc127" d="M281.390000,47.860000C275.680000,44.910000,274.550000,55.390000,274.550000,55.390000C286.120000,52.130000,281.390000,47.860000,281.390000,47.860000Z" fill="rgb(94,163,198)" stroke="none" stroke-width="1"/><path id="e7iwc5lptflc128" d="M267.210000,55.310000C267.210000,55.310000,267.760000,44.780000,261.650000,46.790000C261.650000,46.790000,256.310000,50.260000,267.210000,55.310000Z" fill="rgb(94,163,198)" stroke="none" stroke-width="1"/></g><g id="e7iwc5lptflc129"><path id="e7iwc5lptflc130" d="M383.280000,34.130000C380.370000,28.390000,373.340000,36.250000,373.340000,36.250000C384.610000,40.360000,383.280000,34.130000,383.280000,34.130000Z" fill="rgb(94,163,198)" stroke="none" stroke-width="1"/><path id="e7iwc5lptflc131" d="M343.130000,35.750000C343.130000,35.750000,336.680000,27.420000,333.370000,32.920000C333.360000,32.920000,331.570000,39.040000,343.130000,35.750000Z" fill="rgb(94,163,198)" stroke="none" stroke-width="1"/><path id="e7iwc5lptflc132" d="M369.280000,27.650000C363.570000,24.700000,362.440000,35.180000,362.440000,35.180000C374.010000,31.920000,369.280000,27.650000,369.280000,27.650000Z" fill="rgb(94,163,198)" stroke="none" stroke-width="1"/><path id="e7iwc5lptflc133" d="M355.090000,35.100000C355.090000,35.100000,355.640000,24.570000,349.530000,26.580000C349.540000,26.590000,344.200000,30.060000,355.090000,35.100000Z" fill="rgb(94,163,198)" stroke="none" stroke-width="1"/></g></g><g id="e7iwc5lptflc134" opacity="0"><g id="e7iwc5lptflc135"><path id="e7iwc5lptflc136" d="M105.300000,116.050000C107.080000,109.870000,96.580000,110.820000,96.580000,110.820000C102.030000,121.510000,105.300000,116.050000,105.300000,116.050000Z" fill="rgb(94,163,198)" stroke="none" stroke-width="1"/><path id="e7iwc5lptflc137" d="M92.350000,99.170000C90.440000,93.030000,82.190000,99.590000,82.190000,99.590000C92.630000,105.530000,92.350000,99.170000,92.350000,99.170000Z" fill="rgb(94,163,198)" stroke="none" stroke-width="1"/><path id="e7iwc5lptflc138" d="M45.440000,98.920000C45.440000,98.920000,37.910000,91.550000,35.380000,97.450000C35.360000,97.460000,34.440000,103.750000,45.440000,98.920000Z" fill="rgb(94,163,198)" stroke="none" stroke-width="1"/><path id="e7iwc5lptflc139" d="M34.590000,109.970000C34.590000,109.970000,24.080000,110.610000,26.750000,116.450000C26.750000,116.450000,30.800000,121.370000,34.590000,109.970000Z" fill="rgb(94,163,198)" stroke="none" stroke-width="1"/></g><g id="e7iwc5lptflc140"><path id="e7iwc5lptflc141" d="M213.320000,87.830000C215.100000,81.650000,204.600000,82.600000,204.600000,82.600000C210.050000,93.290000,213.320000,87.830000,213.320000,87.830000Z" fill="rgb(94,163,198)" stroke="none" stroke-width="1"/><path id="e7iwc5lptflc142" d="M200.370000,70.950000C198.460000,64.810000,190.210000,71.370000,190.210000,71.370000C200.650000,77.310000,200.370000,70.950000,200.370000,70.950000Z" fill="rgb(94,163,198)" stroke="none" stroke-width="1"/><path id="e7iwc5lptflc143" d="M153.460000,70.700000C153.460000,70.700000,145.930000,63.330000,143.400000,69.230000C143.390000,69.240000,142.460000,75.530000,153.460000,70.700000Z" fill="rgb(94,163,198)" stroke="none" stroke-width="1"/><path id="e7iwc5lptflc144" d="M142.610000,81.750000C142.610000,81.750000,132.100000,82.390000,134.770000,88.230000C134.770000,88.230000,138.820000,93.150000,142.610000,81.750000Z" fill="rgb(94,163,198)" stroke="none" stroke-width="1"/></g><g id="e7iwc5lptflc145"><path id="e7iwc5lptflc146" d="M311.360000,59.650000C313.140000,53.470000,302.640000,54.420000,302.640000,54.420000C308.090000,65.120000,311.360000,59.650000,311.360000,59.650000Z" fill="rgb(94,163,198)" stroke="none" stroke-width="1"/><path id="e7iwc5lptflc147" d="M298.410000,42.780000C296.500000,36.640000,288.250000,43.200000,288.250000,43.200000C298.690000,49.140000,298.410000,42.780000,298.410000,42.780000Z" fill="rgb(94,163,198)" stroke="none" stroke-width="1"/><path id="e7iwc5lptflc148" d="M251.500000,42.530000C251.500000,42.530000,243.970000,35.160000,241.440000,41.060000C241.420000,41.060000,240.500000,47.360000,251.500000,42.530000Z" fill="rgb(94,163,198)" stroke="none" stroke-width="1"/><path id="e7iwc5lptflc149" d="M240.650000,53.580000C240.650000,53.580000,230.140000,54.220000,232.810000,60.060000C232.810000,60.060000,236.860000,64.970000,240.650000,53.580000Z" fill="rgb(94,163,198)" stroke="none" stroke-width="1"/></g><g id="e7iwc5lptflc150"><path id="e7iwc5lptflc151" d="M399.250000,39.450000C401.030000,33.270000,390.530000,34.220000,390.530000,34.220000C395.980000,44.910000,399.250000,39.450000,399.250000,39.450000Z" fill="rgb(94,163,198)" stroke="none" stroke-width="1"/><path id="e7iwc5lptflc152" d="M386.290000,22.570000C384.380000,16.430000,376.130000,22.990000,376.130000,22.990000C386.580000,28.930000,386.290000,22.570000,386.290000,22.570000Z" fill="rgb(94,163,198)" stroke="none" stroke-width="1"/><path id="e7iwc5lptflc153" d="M339.390000,22.330000C339.390000,22.330000,331.860000,14.960000,329.330000,20.860000C329.310000,20.860000,328.390000,27.160000,339.390000,22.330000Z" fill="rgb(94,163,198)" stroke="none" stroke-width="1"/><path id="e7iwc5lptflc154" d="M328.540000,33.370000C328.540000,33.370000,318.030000,34.010000,320.700000,39.850000C320.700000,39.850000,324.750000,44.770000,328.540000,33.370000Z" fill="rgb(94,163,198)" stroke="none" stroke-width="1"/></g></g><g id="e7iwc5lptflc155" opacity="0"><g id="e7iwc5lptflc156"><path id="e7iwc5lptflc157" d="M111.870000,131.110000C117.240000,127.580000,108.660000,121.460000,108.660000,121.460000C105.830000,133.140000,111.870000,131.110000,111.870000,131.110000Z" fill="rgb(94,163,198)" stroke="none" stroke-width="1"/><path id="e7iwc5lptflc158" d="M109.700000,102.770000C109.380000,96.340000,99.760000,100.650000,99.760000,100.650000C108.390000,109,109.700000,102.770000,109.700000,102.770000Z" fill="rgb(94,163,198)" stroke="none" stroke-width="1"/><path id="e7iwc5lptflc159" d="M29.640000,97.930000C29.640000,97.930000,19.110000,98.460000,21.730000,104.330000C21.740000,104.330000,25.730000,109.290000,29.640000,97.930000Z" fill="rgb(94,163,198)" stroke="none" stroke-width="1"/><path id="e7iwc5lptflc160" d="M27.510000,120.450000C27.510000,120.450000,19.060000,126.750000,24.500000,130.160000C24.500000,130.160000,30.580000,132.060000,27.510000,120.450000Z" fill="rgb(94,163,198)" stroke="none" stroke-width="1"/></g><g id="e7iwc5lptflc161"><path id="e7iwc5lptflc162" d="M219.890000,102.890000C225.260000,99.360000,216.680000,93.240000,216.680000,93.240000C213.850000,104.920000,219.890000,102.890000,219.890000,102.890000Z" fill="rgb(94,163,198)" stroke="none" stroke-width="1"/><path id="e7iwc5lptflc163" d="M217.730000,74.550000C217.410000,68.120000,207.790000,72.430000,207.790000,72.430000C216.420000,80.780000,217.730000,74.550000,217.730000,74.550000Z" fill="rgb(94,163,198)" stroke="none" stroke-width="1"/><path id="e7iwc5lptflc164" d="M137.660000,69.710000C137.660000,69.710000,127.130000,70.240000,129.750000,76.110000C129.760000,76.110000,133.760000,81.070000,137.660000,69.710000Z" fill="rgb(94,163,198)" stroke="none" stroke-width="1"/><path id="e7iwc5lptflc165" d="M135.530000,92.230000C135.530000,92.230000,127.080000,98.530000,132.520000,101.940000C132.520000,101.940000,138.600000,103.840000,135.530000,92.230000Z" fill="rgb(94,163,198)" stroke="none" stroke-width="1"/></g><g id="e7iwc5lptflc166"><path id="e7iwc5lptflc167" d="M317.930000,74.720000C323.300000,71.190000,314.720000,65.070000,314.720000,65.070000C311.890000,76.740000,317.930000,74.720000,317.930000,74.720000Z" fill="rgb(94,163,198)" stroke="none" stroke-width="1"/><path id="e7iwc5lptflc168" d="M315.760000,46.380000C315.440000,39.950000,305.820000,44.260000,305.820000,44.260000C314.450000,52.610000,315.760000,46.380000,315.760000,46.380000Z" fill="rgb(94,163,198)" stroke="none" stroke-width="1"/><path id="e7iwc5lptflc169" d="M235.700000,41.540000C235.700000,41.540000,225.170000,42.070000,227.790000,47.940000C227.800000,47.930000,231.790000,52.890000,235.700000,41.540000Z" fill="rgb(94,163,198)" stroke="none" stroke-width="1"/><path id="e7iwc5lptflc170" d="M233.570000,64.060000C233.570000,64.060000,225.120000,70.360000,230.560000,73.770000C230.560000,73.770000,236.640000,75.660000,233.570000,64.060000Z" fill="rgb(94,163,198)" stroke="none" stroke-width="1"/></g><g id="e7iwc5lptflc171"><path id="e7iwc5lptflc172" d="M405.810000,54.520000C411.180000,50.990000,402.600000,44.870000,402.600000,44.870000C399.780000,56.540000,405.810000,54.520000,405.810000,54.520000Z" fill="rgb(94,163,198)" stroke="none" stroke-width="1"/><path id="e7iwc5lptflc173" d="M403.650000,26.180000C403.330000,19.750000,393.710000,24.060000,393.710000,24.060000C402.340000,32.410000,403.650000,26.180000,403.650000,26.180000Z" fill="rgb(94,163,198)" stroke="none" stroke-width="1"/><path id="e7iwc5lptflc174" d="M323.590000,21.330000C323.590000,21.330000,313.060000,21.860000,315.680000,27.730000C315.680000,27.730000,319.680000,32.690000,323.590000,21.330000Z" fill="rgb(94,163,198)" stroke="none" stroke-width="1"/><path id="e7iwc5lptflc175" d="M321.460000,43.850000C321.460000,43.850000,313.010000,50.150000,318.450000,53.560000C318.450000,53.560000,324.520000,55.460000,321.460000,43.850000Z" fill="rgb(94,163,198)" stroke="none" stroke-width="1"/></g></g><g id="e7iwc5lptflc176" opacity="0"><g id="e7iwc5lptflc177"><path id="e7iwc5lptflc178" d="M121.410000,119.920000C125.900000,115.310000,116.200000,111.180000,116.200000,111.180000C115.940000,123.190000,121.410000,119.920000,121.410000,119.920000Z" fill="rgb(94,163,198)" stroke="none" stroke-width="1"/><path id="e7iwc5lptflc179" d="M15.460000,109.820000C15.460000,109.820000,5.500000,113.270000,9.670000,118.180000C9.670000,118.160000,14.890000,121.800000,15.460000,109.820000Z" fill="rgb(94,163,198)" stroke="none" stroke-width="1"/></g><g id="e7iwc5lptflc180"><path id="e7iwc5lptflc181" d="M229.430000,91.700000C233.920000,87.090000,224.220000,82.960000,224.220000,82.960000C223.960000,94.970000,229.430000,91.700000,229.430000,91.700000Z" fill="rgb(94,163,198)" stroke="none" stroke-width="1"/><path id="e7iwc5lptflc182" d="M123.480000,81.600000C123.480000,81.600000,113.520000,85.050000,117.690000,89.960000C117.690000,89.940000,122.910000,93.580000,123.480000,81.600000Z" fill="rgb(94,163,198)" stroke="none" stroke-width="1"/></g><g id="e7iwc5lptflc183"><path id="e7iwc5lptflc184" d="M327.470000,63.530000C331.960000,58.920000,322.260000,54.790000,322.260000,54.790000C322,66.800000,327.470000,63.530000,327.470000,63.530000Z" fill="rgb(94,163,198)" stroke="none" stroke-width="1"/><path id="e7iwc5lptflc185" d="M221.520000,53.420000C221.520000,53.420000,211.560000,56.870000,215.730000,61.780000C215.730000,61.770000,220.950000,65.400000,221.520000,53.420000Z" fill="rgb(94,163,198)" stroke="none" stroke-width="1"/></g><g id="e7iwc5lptflc186"><path id="e7iwc5lptflc187" d="M415.360000,43.320000C419.850000,38.710000,410.150000,34.580000,410.150000,34.580000C409.890000,46.590000,415.360000,43.320000,415.360000,43.320000Z" fill="rgb(94,163,198)" stroke="none" stroke-width="1"/><path id="e7iwc5lptflc188" d="M309.410000,33.220000C309.410000,33.220000,299.450000,36.670000,303.620000,41.580000C303.620000,41.570000,308.840000,45.200000,309.410000,33.220000Z" fill="rgb(94,163,198)" stroke="none" stroke-width="1"/></g></g></g><script><![CDATA[!function(t,n){"object"==typeof exports&&"undefined"!=typeof module?module.exports=n():"function"==typeof define&&define.amd?define(n):(t=t||self).__SVGATOR_PLAYER__=n()}(this,(function(){"use strict";function t(n){return(t="function"==typeof Symbol&&"symbol"==typeof Symbol.iterator?function(t){return typeof t}:function(t){return t&&"function"==typeof Symbol&&t.constructor===Symbol&&t!==Symbol.prototype?"symbol":typeof t})(n)}function n(t,n){if(!(t instanceof n))throw new TypeError("Cannot call a class as a function")}function r(t,n){for(var r=0;r<n.length;r++){var e=n[r];e.enumerable=e.enumerable||!1,e.configurable=!0,"value"in e&&(e.writable=!0),Object.defineProperty(t,e.key,e)}}function e(t,n,e){return n&&r(t.prototype,n),e&&r(t,e),t}var i=1e-5,u=Math.abs;function o(t){return t}function a(t,n,r){var e=1-r;return 3*r*e*(t*e+n*r)+r*r*r}function l(){var t=arguments.length>0&&void 0!==arguments[0]?arguments[0]:0,n=arguments.length>1&&void 0!==arguments[1]?arguments[1]:0,r=arguments.length>2&&void 0!==arguments[2]?arguments[2]:1,e=arguments.length>3&&void 0!==arguments[3]?arguments[3]:1;return t<0||t>1||r<0||r>1?null:u(t-n)<=i&&u(r-e)<=i?o:function(o){if(o<=0)return t>0?o*n/t:0===n&&r>0?o*e/r:0;if(o>=1)return r<1?1+(o-1)*(e-1)/(r-1):1===r&&t<1?1+(o-1)*(n-1)/(t-1):1;for(var l,f=0,s=1;f<s;){var c=a(t,r,l=(f+s)/2);if(u(o-c)<i)break;c<o?f=l:s=l}return a(n,e,l)}}function f(){return 1}function s(t){return 1===t?1:0}function c(){var t=arguments.length>0&&void 0!==arguments[0]?arguments[0]:1,n=arguments.length>1&&void 0!==arguments[1]?arguments[1]:0;if(1===t){if(0===n)return s;if(1===n)return f}var r=1/t;return function(t){return t>=1?1:(t+=n*r)-t%r}}function v(t){var n=arguments.length>1&&void 0!==arguments[1]?arguments[1]:2;if(Number.isInteger(t))return t;var r=Math.pow(10,n);return Math.round(t*r)/r}var h=Math.PI/180;function y(t,n,r){return t>=.5?r:n}function d(t,n,r){return 0===t||n===r?n:t*(r-n)+n}function g(t,n,r){var e=d(t,n,r);return e<=0?0:e}function m(t,n,r){return 0===t?n:1===t?r:{x:d(t,n.x,r.x),y:d(t,n.y,r.y)}}function p(t,n,r){return 0===t?n:1===t?r:{x:g(t,n.x,r.x),y:g(t,n.y,r.y)}}function b(t,n,r){var e=function(t,n,r){return Math.round(d(t,n,r))}(t,n,r);return e<=0?0:e>=255?255:e}function w(t,n,r){return 0===t?n:1===t?r:{r:b(t,n.r,r.r),g:b(t,n.g,r.g),b:b(t,n.b,r.b),a:d(t,null==n.a?1:n.a,null==r.a?1:r.a)}}function A(t,n,r){if(0===t)return n;if(1===t)return r;var e=n.length;if(e!==r.length)return y(t,n,r);for(var i=[],u=0;u<e;u++)i.push(w(t,n[u],r[u]));return i}function x(t,n,r){var e=n.length;if(e!==r.length)return y(t,n,r);for(var i=new Array(e),u=0;u<e;u++)i[u]=d(t,n[u],r[u]);return i}function k(t,n){for(var r=[],e=0;e<t;e++)r.push(n);return r}function S(t,n){if(--n<=0)return t;var r=(t=Object.assign([],t)).length;do{for(var e=0;e<r;e++)t.push(t[e])}while(--n>0);return t}var _=6,M=/\.0+$/g;function I(t){return Number.isInteger(t)?t+"":t.toFixed(_).replace(M,"")}function E(t){var n=arguments.length>1&&void 0!==arguments[1]?arguments[1]:" ";return t&&t.length?t.map(I).join(n):""}function F(t){return I(t.x)+","+I(t.y)}function B(t){return t?null==t.a||t.a>=1?"rgb("+t.r+","+t.g+","+t.b+")":"rgba("+t.r+","+t.g+","+t.b+","+t.a+")":"transparent"}var j={f:null,i:p,u:function(t,n){return function(r){var e=n(r);t.setAttribute("rx",I(e.x)),t.setAttribute("ry",I(e.y))}}},q={f:null,i:function(t,n,r){return 0===t?n:1===t?r:{width:g(t,n.width,r.width),height:g(t,n.height,r.height)}},u:function(t,n){return function(r){var e=n(r);t.setAttribute("width",I(e.width)),t.setAttribute("height",I(e.height))}}},P=Math.sin,O=Math.cos,z=Math.acos,L=Math.asin,C=Math.tan,R=Math.atan2,T=Math.PI/180,V=180/Math.PI,D=Math.sqrt,N=function(){function t(){var r=arguments.length>0&&void 0!==arguments[0]?arguments[0]:1,e=arguments.length>1&&void 0!==arguments[1]?arguments[1]:0,i=arguments.length>2&&void 0!==arguments[2]?arguments[2]:0,u=arguments.length>3&&void 0!==arguments[3]?arguments[3]:1,o=arguments.length>4&&void 0!==arguments[4]?arguments[4]:0,a=arguments.length>5&&void 0!==arguments[5]?arguments[5]:0;n(this,t),this.m=[r,e,i,u,o,a],this.i=null,this.w=null,this.s=null}return e(t,[{key:"point",value:function(t,n){var r=this.m;return{x:r[0]*t+r[2]*n+r[4],y:r[1]*t+r[3]*n+r[5]}}},{key:"translateSelf",value:function(){var t=arguments.length>0&&void 0!==arguments[0]?arguments[0]:0,n=arguments.length>1&&void 0!==arguments[1]?arguments[1]:0;if(!t&&!n)return this;var r=this.m;return r[4]+=r[0]*t+r[2]*n,r[5]+=r[1]*t+r[3]*n,this.w=this.s=this.i=null,this}},{key:"rotateSelf",value:function(){var t=arguments.length>0&&void 0!==arguments[0]?arguments[0]:0;if(t%=360){var n=P(t*=T),r=O(t),e=this.m,i=e[0],u=e[1];e[0]=i*r+e[2]*n,e[1]=u*r+e[3]*n,e[2]=e[2]*r-i*n,e[3]=e[3]*r-u*n,this.w=this.s=this.i=null}return this}},{key:"scaleSelf",value:function(){var t=arguments.length>0&&void 0!==arguments[0]?arguments[0]:1,n=arguments.length>1&&void 0!==arguments[1]?arguments[1]:1;if(1!==t||1!==n){var r=this.m;r[0]*=t,r[1]*=t,r[2]*=n,r[3]*=n,this.w=this.s=this.i=null}return this}},{key:"skewSelf",value:function(t,n){if(n%=360,(t%=360)||n){var r=this.m,e=r[0],i=r[1],u=r[2],o=r[3];t&&(t=C(t*T),r[2]+=e*t,r[3]+=i*t),n&&(n=C(n*T),r[0]+=u*n,r[1]+=o*n),this.w=this.s=this.i=null}return this}},{key:"resetSelf",value:function(){var t=arguments.length>0&&void 0!==arguments[0]?arguments[0]:1,n=arguments.length>1&&void 0!==arguments[1]?arguments[1]:0,r=arguments.length>2&&void 0!==arguments[2]?arguments[2]:0,e=arguments.length>3&&void 0!==arguments[3]?arguments[3]:1,i=arguments.length>4&&void 0!==arguments[4]?arguments[4]:0,u=arguments.length>5&&void 0!==arguments[5]?arguments[5]:0,o=this.m;return o[0]=t,o[1]=n,o[2]=r,o[3]=e,o[4]=i,o[5]=u,this.w=this.s=this.i=null,this}},{key:"recomposeSelf",value:function(){var t=arguments.length>0&&void 0!==arguments[0]?arguments[0]:null,n=arguments.length>1&&void 0!==arguments[1]?arguments[1]:null,r=arguments.length>2&&void 0!==arguments[2]?arguments[2]:null,e=arguments.length>3&&void 0!==arguments[3]?arguments[3]:null,i=arguments.length>4&&void 0!==arguments[4]?arguments[4]:null;return this.isIdentity||this.resetSelf(),t&&(t.x||t.y)&&this.translateSelf(t.x,t.y),n&&this.rotateSelf(n),r&&(r.x&&this.skewSelf(r.x,0),r.y&&this.skewSelf(0,r.y)),!e||1===e.x&&1===e.y||this.scaleSelf(e.x,e.y),i&&(i.x||i.y)&&this.translateSelf(i.x,i.y),this}},{key:"decompose",value:function(){var t=arguments.length>0&&void 0!==arguments[0]?arguments[0]:0,n=arguments.length>1&&void 0!==arguments[1]?arguments[1]:0,r=this.m,e=r[0]*r[0]+r[1]*r[1],i=[[r[0],r[1]],[r[2],r[3]]],u=D(e);if(0===u)return{origin:{x:r[4],y:r[5]},translate:{x:t,y:n},scale:{x:0,y:0},skew:{x:0,y:0},rotate:0};i[0][0]/=u,i[0][1]/=u;var o=r[0]*r[3]-r[1]*r[2]<0;o&&(u=-u);var a=i[0][0]*i[1][0]+i[0][1]*i[1][1];i[1][0]-=i[0][0]*a,i[1][1]-=i[0][1]*a;var l=D(i[1][0]*i[1][0]+i[1][1]*i[1][1]);if(0===l)return{origin:{x:r[4],y:r[5]},translate:{x:t,y:n},scale:{x:u,y:0},skew:{x:0,y:0},rotate:0};i[1][0]/=l,i[1][1]/=l,a/=l;var f=0;return i[1][1]<0?(f=z(i[1][1])*V,i[0][1]<0&&(f=360-f)):f=L(i[0][1])*V,o&&(f=-f),a=R(a,D(i[0][0]*i[0][0]+i[0][1]*i[0][1]))*V,{origin:{x:r[4],y:r[5]},translate:{x:t,y:n},scale:{x:u,y:l},skew:{x:a,y:0},rotate:f}}},{key:"toString",value:function(){return null===this.s&&(this.s="matrix("+this.m.map($).join(" ")+")"),this.s}},{key:"determinant",get:function(){var t=this.m;return t[0]*t[3]-t[1]*t[2]}},{key:"isIdentity",get:function(){if(null===this.i){var t=this.m;this.i=1===t[0]&&0===t[1]&&0===t[2]&&1===t[3]&&0===t[4]&&0===t[5]}return this.i}}]),t}(),G=/\.0+$/;function $(t){return Number.isInteger(t)?t:t.toFixed(14).replace(G,"")}Object.freeze({M:2,L:2,Z:0,H:1,V:1,C:6,Q:4,T:2,S:4,A:7});function H(t,n,r){return t+(n-t)*r}function Q(t,n,r){var e=arguments.length>3&&void 0!==arguments[3]&&arguments[3],i={x:H(t.x,n.x,r),y:H(t.y,n.y,r)};return e&&(i.a=function(t,n){return Math.atan2(n.y-t.y,n.x-t.x)}(t,n)),i}function U(t,n,r,e){var i=1-e;return i*i*t+2*i*e*n+e*e*r}function Y(t,n,r,e){return 2*(1-e)*(n-t)+2*e*(r-n)}function Z(t,n,r,e){var i=arguments.length>4&&void 0!==arguments[4]&&arguments[4],u={x:U(t.x,n.x,r.x,e),y:U(t.y,n.y,r.y,e)};return i&&(u.a=function(t,n,r,e){return Math.atan2(Y(t.y,n.y,r.y,e),Y(t.x,n.x,r.x,e))}(t,n,r,e)),u}function J(t,n,r,e,i){var u=i*i;return i*u*(e-t+3*(n-r))+3*u*(t+r-2*n)+3*i*(n-t)+t}function K(t,n,r,e,i){var u=1-i;return 3*(u*u*(n-t)+2*u*i*(r-n)+i*i*(e-r))}function W(t,n,r,e,i){var u=arguments.length>5&&void 0!==arguments[5]&&arguments[5],o={x:J(t.x,n.x,r.x,e.x,i),y:J(t.y,n.y,r.y,e.y,i)};return u&&(o.a=function(t,n,r,e,i){return Math.atan2(K(t.y,n.y,r.y,e.y,i),K(t.x,n.x,r.x,e.x,i))}(t,n,r,e,i)),o}function X(t,n,r){var e,i=arguments.length>3&&void 0!==arguments[3]&&arguments[3];if(nt(n)){if(null!=(e=r).start&&!nt(e))return Z(n,r.start,r,t,i)}else if(nt(r)){if(n.end)return Z(n,n.end,r,t,i)}else{if(n.end)return r.start?W(n,n.end,r.start,r,t,i):Z(n,n.end,r,t,i);if(r.start)return Z(n,r.start,r,t,i)}return Q(n,r,t,i)}function tt(t,n,r){var e=X(t,n,r,!0);return e.a=function(t){return arguments.length>1&&void 0!==arguments[1]&&arguments[1]?t+Math.PI:t}(e.a)/h,e}function nt(t){return!t.type||"corner"===t.type}var rt=new N;var et={f:function(t){return t?t.join(" "):""},i:function(n,r,e){if(0===n)return r;if(1===n)return e;var i=r.length;if(i!==e.length)return y(n,r,e);for(var u,o=new Array(i),a=0;a<i;a++){if((u=t(r[a]))!==t(e[a]))return y(n,r,e);if("number"===u)o[a]=d(n,r[a],e[a]);else{if(r[a]!==e[a])return y(n,r,e);o[a]=r[a]}}return o}},it={f:null,i:x,u:function(t,n){return function(r){var e=n(r);t.setAttribute("x1",I(e[0])),t.setAttribute("y1",I(e[1])),t.setAttribute("x2",I(e[2])),t.setAttribute("y2",I(e[3]))}}},ut={f:I,i:d},ot={f:I,i:function(t,n,r){var e=d(t,n,r);return e<=0?0:e>=1?1:e}},at={f:E,i:function(t,n,r){var e,i,u,o=n.length,a=r.length;if(o!==a)if(0===o)n=k(o=a,0);else if(0===a)a=o,r=k(o,0);else{var l=(u=(e=o)*(i=a)/function(t,n){for(var r;n;)r=n,n=t%n,t=r;return t||1}(e,i))<0?-u:u;n=S(n,Math.floor(l/o)),r=S(r,Math.floor(l/a)),o=a=l}for(var f=[],s=0;s<o;s++)f.push(v(g(t,n[s],r[s]),6));return f}};function lt(t,n,r,e,i,u,o,a){return n=function(t,n,r){for(var e,i,u,o=t.length-1,a={},l=0;l<=o;l++)(e=t[l]).e&&(e.e=n(e.e)),e.v&&"g"===(i=e.v).t&&i.r&&(u=r.getElementById(i.r))&&(a[i.r]=u.querySelectorAll("stop"));return a}(t,e,a),function(e){var i,u=r(e,t,ft);return u?"c"===u.t?B(u.v):"g"===u.t?(n[u.r]&&function(t,n){for(var r=0,e=t.length;r<e;r++)t[r].setAttribute("stop-color",B(n[r]))}(n[u.r],u.v),(i=u.r)?"url(#"+i+")":"none"):"none":"none"}}function ft(t,n,r){if(0===t)return n;if(1===t)return r;if(n&&r){var e=n.t;if(e===r.t)switch(n.t){case"c":return{t:e,v:w(t,n.v,r.v)};case"g":if(n.r===r.r)return{t:e,v:A(t,n.v,r.v),r:n.r}}}return y(t,n,r)}var st={blur:p,brightness:g,contrast:g,"drop-shadow":function(t,n,r){return 0===t?n:1===t?r:{blur:p(t,n.blur,r.blur),offset:m(t,n.offset,r.offset),color:w(t,n.color,r.color)}},grayscale:g,"hue-rotate":d,invert:g,opacity:g,saturate:g,sepia:g};function ct(t,n,r){if(0===t)return n;if(1===t)return r;var e=n.length;if(e!==r.length)return y(t,n,r);for(var i,u=[],o=0;o<e;o++){if(n[o].type!==r[o].type)return n;if(!(i=st[n[o].type]))return y(t,n,r);u.push({type:n.type,value:i(t,n[o].value,r[o].value)})}return u}var vt={blur:function(t){return t?function(n){t.setAttribute("stdDeviation",F(n))}:null},brightness:function(t,n,r){return(t=yt(r,n))?function(n){n=I(n),t.map((function(t){return t.setAttribute("slope",n)}))}:null},contrast:function(t,n,r){return(t=yt(r,n))?function(n){var r=I((1-n)/2);n=I(n),t.map((function(t){t.setAttribute("slope",n),t.setAttribute("intercept",r)}))}:null},"drop-shadow":function(t,n,r){var e=r.getElementById(n+"-blur");if(!e)return null;var i=r.getElementById(n+"-offset");if(!i)return null;var u=r.getElementById(n+"-flood");return u?function(t){e.setAttribute("stdDeviation",F(t.blur)),i.setAttribute("dx",I(t.offset.x)),i.setAttribute("dy",I(t.offset.y)),u.setAttribute("flood-color",B(t.color))}:null},grayscale:function(t){return t?function(n){t.setAttribute("values",E(function(t){return[.2126+.7874*(t=1-t),.7152-.7152*t,.0722-.0722*t,0,0,.2126-.2126*t,.7152+.2848*t,.0722-.0722*t,0,0,.2126-.2126*t,.7152-.7152*t,.0722+.9278*t,0,0,0,0,0,1,0]}(n)))}:null},"hue-rotate":function(t){return t?function(n){return t.setAttribute("values",I(n))}:null},invert:function(t,n,r){return(t=yt(r,n))?function(n){n=I(n)+" "+I(1-n),t.map((function(t){return t.setAttribute("tableValues",n)}))}:null},opacity:function(t,n,r){return(t=r.getElementById(n+"-A"))?function(n){return t.setAttribute("tableValues","0 "+I(n))}:null},saturate:function(t){return t?function(n){return t.setAttribute("values",I(n))}:null},sepia:function(t){return t?function(n){return t.setAttribute("values",E(function(t){return[.393+.607*(t=1-t),.769-.769*t,.189-.189*t,0,0,.349-.349*t,.686+.314*t,.168-.168*t,0,0,.272-.272*t,.534-.534*t,.131+.869*t,0,0,0,0,0,1,0]}(n)))}:null}};var ht=["R","G","B"];function yt(t,n){var r=ht.map((function(r){return t.getElementById(n+"-"+r)||null}));return-1!==r.indexOf(null)?null:r}var dt={fill:lt,"fill-opacity":ot,stroke:lt,"stroke-opacity":ot,"stroke-width":ut,"stroke-dashoffset":{f:I,i:d},"stroke-dasharray":at,opacity:ot,transform:function(n,r,e,i){if(!(n=function(n,r){if(!n||"object"!==t(n))return null;var e=!1;for(var i in n)n.hasOwnProperty(i)&&(n[i]&&n[i].length?(n[i].forEach((function(t){t.e&&(t.e=r(t.e))})),e=!0):delete n[i]);return e?n:null}(n,i)))return null;var u=function(t,i,u){var o=arguments.length>3&&void 0!==arguments[3]?arguments[3]:null;return n[t]?e(i,n[t],u):r&&r[t]?r[t]:o};return r&&r.a&&n.o?function(t){var r=e(t,n.o,tt);return rt.recomposeSelf(r,u("r",t,d,0)+r.a,u("k",t,m),u("s",t,m),u("t",t,m)).toString()}:function(t){return rt.recomposeSelf(u("o",t,X,null),u("r",t,d,0),u("k",t,m),u("s",t,m),u("t",t,m)).toString()}},"#filter":function(t,n,r,e,i,u,o,a){if(!n.items||!t||!t.length)return null;var l=function(t,n){var r=(t=t.map((function(t){return t&&vt[t[0]]?(n.getElementById(t[1]),vt[t[0]](n.getElementById(t[1]),t[1],n)):null}))).length;return function(n){for(var e=0;e<r;e++)t[e]&&t[e](n[e].value)}}(n.items,a);return l?(t=function(t,n){return t.map((function(t){return t.e=n(t.e),t}))}(t,e),function(n){l(r(n,t,ct))}):null},"#line":it,points:{f:E,i:x},d:et,r:ut,"#size":q,"#radius":j,_:function(t,n){if(Array.isArray(t))for(var r=0;r<t.length;r++)this[t[r]]=n;else this[t]=n}},gt=function(){function t(r){n(this,t),this.list=r,this.length=r.length}return e(t,[{key:"setAttribute",value:function(t,n){for(var r=this.list,e=0;e<this.length;e++)r[e].setAttribute(t,n)}},{key:"removeAttribute",value:function(t){for(var n=this.list,r=0;r<this.length;r++)n[r].removeAttribute(t)}},{key:"style",value:function(t,n){for(var r=this.list,e=0;e<this.length;e++)r[e].style[t]=n}}]),t}(),mt=/-./g,pt=function(t,n){return n.toUpperCase()};function bt(t){return"function"==typeof t?t:y}function wt(t){return t?"function"==typeof t?t:Array.isArray(t)?function(t){var n=arguments.length>1&&void 0!==arguments[1]?arguments[1]:o;if(!Array.isArray(t))return n;switch(t.length){case 1:return c(t[0])||n;case 2:return c(t[0],t[1])||n;case 4:return l(t[0],t[1],t[2],t[3])||n}return n}(t,null):function(t,n){var r=arguments.length>2&&void 0!==arguments[2]?arguments[2]:o;switch(t){case"linear":return o;case"steps":return c(n.steps||1,n.jump||0)||r;case"bezier":case"cubic-bezier":return l(n.x1||0,n.y1||0,n.x2||0,n.y2||0)||r}return r}(t.type,t.value,null):null}function At(t,n,r){var e=arguments.length>3&&void 0!==arguments[3]&&arguments[3],i=n.length-1;if(t<=n[0].t)return e?[0,0,n[0].v]:n[0].v;if(t>=n[i].t)return e?[i,1,n[i].v]:n[i].v;var u,o=n[0],a=null;for(u=1;u<=i;u++){if(!(t>n[u].t)){a=n[u];break}o=n[u]}return null==a?e?[i,1,n[i].v]:n[i].v:o.t===a.t?e?[u,1,a.v]:a.v:(t=(t-o.t)/(a.t-o.t),o.e&&(t=o.e(t)),e?[u,t,r(t,o.v,a.v)]:r(t,o.v,a.v))}function xt(t,n){var r=arguments.length>2&&void 0!==arguments[2]?arguments[2]:null;return t&&t.length?"function"!=typeof n?null:("function"!=typeof r&&(r=null),function(e){var i=At(e,t,n);return null!=i&&r&&(i=r(i)),i}):null}function kt(t,n){return t.t-n.t}function St(n,r,e,i,u){var o,a="@"===e[0],l="#"===e[0],f=dt[e],s=y;switch(a?(o=e.substr(1),e=o.replace(mt,pt)):l&&(e=e.substr(1)),t(f)){case"function":if(s=f(i,u,At,wt,e,a,r,n),l)return s;break;case"string":s=xt(i,bt(f));break;case"object":if((s=xt(i,bt(f.i),f.f))&&"function"==typeof f.u)return f.u(r,s,e,a,n)}return s?function(t,n,r){if(arguments.length>3&&void 0!==arguments[3]&&arguments[3])return t instanceof gt?function(e){return t.style(n,r(e))}:function(e){return t.style[n]=r(e)};if(Array.isArray(n)){var e=n.length;return function(i){var u=r(i);if(null==u)for(var o=0;o<e;o++)t[o].removeAttribute(n);else for(var a=0;a<e;a++)t[a].setAttribute(n,u)}}return function(e){var i=r(e);null==i?t.removeAttribute(n):t.setAttribute(n,i)}}(r,e,s,a):null}function _t(n,r,e,i){if(!i||"object"!==t(i))return null;var u=null,o=null;return Array.isArray(i)?o=function(t){if(!t||!t.length)return null;for(var n=0;n<t.length;n++)t[n].e&&(t[n].e=wt(t[n].e));return t.sort(kt)}(i):(o=i.keys,u=i.data||null),o?St(n,r,e,o,u):null}function Mt(t,n,r){if(!r)return null;var e=[];for(var i in r)if(r.hasOwnProperty(i)){var u=_t(t,n,i,r[i]);u&&e.push(u)}return e.length?e:null}function It(t,n){if(!n.duration||n.duration<0)return null;var r=function(t,n){if(!n)return null;var r=[];if(Array.isArray(n))for(var e=n.length,i=0;i<e;i++){var u=n[i];if(2===u.length){var o=null;if("string"==typeof u[0])o=t.getElementById(u[0]);else if(Array.isArray(u[0])){o=[];for(var a=0;a<u[0].length;a++)if("string"==typeof u[0][a]){var l=t.getElementById(u[0][a]);l&&o.push(l)}o=o.length?1===o.length?o[0]:new gt(o):null}if(o){var f=Mt(t,o,u[1]);f&&(r=r.concat(f))}}}else for(var s in n)if(n.hasOwnProperty(s)){var c=t.getElementById(s);if(c){var v=Mt(t,c,n[s]);v&&(r=r.concat(v))}}return r.length?r:null}(t,n.elements);return r?function(t,n){var r=arguments.length>2&&void 0!==arguments[2]?arguments[2]:1/0,e=arguments.length>3&&void 0!==arguments[3]?arguments[3]:1,i=arguments.length>4&&void 0!==arguments[4]&&arguments[4],u=arguments.length>5&&void 0!==arguments[5]?arguments[5]:1,o=t.length,a=e>0?n:0;i&&r%2==0&&(a=n-a);var l=null;return function(f,s){var c=f%n,v=1+(f-c)/n;s*=e,i&&v%2==0&&(s=-s);var h=!1;if(v>r)c=a,h=!0,-1===u&&(c=e>0?0:n);else if(s<0&&(c=n-c),c===l)return!1;l=c;for(var y=0;y<o;y++)t[y](c);return h}}(r,n.duration,n.iterations||1/0,n.direction||1,!!n.alternate,n.fill||1):null}var Et=function(){function t(r){var e=arguments.length>1&&void 0!==arguments[1]?arguments[1]:{};n(this,t),this._id=0,this._running=!1,this._animations=r,this.direction=e.direction||1,this.speed=e.speed||1,this.fps=e.fps||100,this.offset=e.offset||0}return e(t,[{key:"_start",value:function(){var t=this,n=arguments.length>0&&void 0!==arguments[0]?arguments[0]:0,r=-1/0,e=null,i={},u=function u(o){t._running=!0,null==e&&(e=o);var a=Math.round((o-e+n)*t.speed),l=t.fps?1e3/t.fps:0;if(a>r+l){t.offset=a,r=a;for(var f=t._animations,s=f.length,c=0,v=0;v<s;v++)i[v]?c++:(i[v]=f[v](a,t.direction),i[v]&&c++);if(c===s)return void t._stop()}t._id=window.requestAnimationFrame(u)};this._id=window.requestAnimationFrame(u)}},{key:"_stop",value:function(){this._id&&window.cancelAnimationFrame(this._id),this._running=!1}},{key:"play",value:function(){this._running||this._start(this.offset)}},{key:"stop",value:function(){this._stop(),this.offset=0;var t=this.direction,n=this._animations;requestAnimationFrame((function(){for(var r=0;r<n.length;r++)n[r](0,t)}))}},{key:"restart",value:function(){this._stop(),this.offset=0,this._start()}},{key:"pause",value:function(){this._stop()}},{key:"reverse",value:function(){this.direction=-this.direction}}],[{key:"build",value:function(n){if(!(n=function(t){if(!t||!t.root||!Array.isArray(t.animations))return null;var n=window.document.getElementById(t.root);if(!n)return null;var r=t.animations.map((function(t){return It(n,t)})).filter((function(t){return!!t}));return r.length?{element:n,animations:r,options:t.options||void 0}:null}(n)))return null;var r=n.element,e=n.options||{},i=new t(n.animations,n.options);return function(t,n,r){var e=arguments.length>3&&void 0!==arguments[3]?arguments[3]:null;if("click"===r){return void n.addEventListener("click",(function r(){n.removeEventListener("click",r),t.play()}))}if("hover"===r)return n.addEventListener("mouseenter",(function(){return t.play()})),void n.addEventListener("mouseleave","freeze"===e?function(){return t.pause()}:function(){return t.stop()});t.play()}(i,r,e.start,e.hover),i}}]),t}();return function(){for(var t=0,n=["ms","moz","webkit","o"],r=0;r<n.length&&!window.requestAnimationFrame;++r)window.requestAnimationFrame=window[n[r]+"RequestAnimationFrame"],window.cancelAnimationFrame=window[n[r]+"CancelAnimationFrame"]||window[n[r]+"CancelRequestAnimationFrame"];window.requestAnimationFrame||(window.requestAnimationFrame=function(n){var r=Date.now(),e=Math.max(0,16-(r-t)),i=window.setTimeout((function(){n(r+e)}),e);return t=r+e,i},window.cancelAnimationFrame=window.clearTimeout)}(),Et}));
__SVGATOR_PLAYER__.build({"root":"e7iwc5lptflc1","animations":[{"duration":1000,"direction":1,"iterations":0,"fill":1,"alternate":false,"elements":{"e7iwc5lptflc92":{"opacity":[{"t":0,"v":0},{"t":200,"v":1}]},"e7iwc5lptflc113":{"opacity":[{"t":0,"v":0},{"t":200,"v":0},{"t":400,"v":1}]},"e7iwc5lptflc134":{"opacity":[{"t":0,"v":0},{"t":400,"v":0},{"t":600,"v":1}]},"e7iwc5lptflc155":{"opacity":[{"t":0,"v":0},{"t":600,"v":0},{"t":800,"v":1}]},"e7iwc5lptflc176":{"opacity":[{"t":0,"v":0},{"t":800,"v":0},{"t":1000,"v":1}]}}}],"options":{"start":"load","hover":"freeze"}})]]></script></svg>