<?xml version="1.0" encoding="utf-8"?>
<!-- Generator: Adobe Illustrator 23.0.6, SVG Export Plug-In . SVG Version: 6.00 Build 0)  -->
<svg version="1.1" id="Layer_1" xmlns="http://www.w3.org/2000/svg" xmlns:xlink="http://www.w3.org/1999/xlink" x="0px" y="0px"
	 viewBox="0 0 425.2 170.08" style="enable-background:new 0 0 425.2 170.08;" xml:space="preserve">
<style type="text/css">
	.st0{fill:#1A161F;}
	.st1{fill:#333535;}
	.st2{fill:#2E2C30;}
	.st3{fill:#5CB548;}
	.st4{fill:#5EB647;}
	.st5{fill:#4A9643;}
	.st6{fill:#7DBD43;}
	.st7{display:none;}
	.st8{display:inline;}
	.st9{fill:#5EA3C6;}
</style>
<g>
	<g id="Dripper">
		<g id="Dripper1">
			<rect x="53.82" y="150.34" class="st0" width="16.52" height="1.16"/>
			<path class="st0" d="M69.06,150.4H55.1v-8.69c0-0.21,0.16-0.37,0.37-0.37h13.22c0.21,0,0.37,0.16,0.37,0.37L69.06,150.4
				L69.06,150.4z"/>
			<path class="st0" d="M67.83,141.4h-11.5l0,0c0-0.28,0.23-0.51,0.51-0.51h10.47C67.6,140.88,67.83,141.11,67.83,141.4L67.83,141.4
				z"/>
			<path class="st0" d="M66.64,140.92h-9.13v-1.43c0-0.83,0.68-1.51,1.51-1.51h6.11c0.83,0,1.51,0.68,1.51,1.51L66.64,140.92
				L66.64,140.92z"/>
			<rect x="61.79" y="141.51" class="st1" width="0.43" height="8.76"/>
			<rect x="66.53" y="141.51" class="st1" width="0.43" height="8.76"/>
			<rect x="57.29" y="141.51" class="st1" width="0.43" height="8.76"/>
			<rect x="59.62" y="137.62" class="st0" width="4.92" height="0.4"/>
			<rect x="59.62" y="133.37" class="st0" width="4.92" height="0.4"/>
			<path class="st0" d="M65.88,137.63H58.4c-0.4,0-0.72-0.32-0.72-0.72v-2.46c0-0.4,0.32-0.72,0.72-0.72h7.48
				c0.4,0,0.72,0.32,0.72,0.72v2.46C66.6,137.31,66.28,137.63,65.88,137.63z"/>
			<rect x="64.17" y="150.35" class="st2" width="3.47" height="1.16"/>
			<g>
				<path class="st3" d="M65.47,133.03c0,0.16-0.11,0.29-0.27,0.31c-0.92,0.15-2,0.26-3.22,0.25c-1.14-0.01-2.17-0.11-3.04-0.25
					c-0.15-0.03-0.27-0.16-0.27-0.31v-1.29c0-0.2,0.16-0.36,0.36-0.36c0.98,0.04,1.98,0.05,3.03,0.05c1.05,0,2.06-0.02,3.04-0.05
					c0.02,0,0.15,0,0.26,0.1c0.07,0.07,0.1,0.16,0.1,0.26L65.47,133.03L65.47,133.03z"/>
				<path class="st4" d="M65.03,131.5h-5.92l0.17-1.98c0.02-0.16,0.15-0.28,0.31-0.28h4.9c0.16,0,0.3,0.12,0.31,0.28L65.03,131.5z"
					/>
				<path class="st4" d="M64.55,129.29h-4.96l0.15-1.98c0.01-0.16,0.13-0.28,0.26-0.28h4.1c0.13,0,0.25,0.12,0.26,0.28L64.55,129.29
					z"/>
				<path class="st5" d="M62.01,127.03h-2c-0.14,0-0.25,0.13-0.26,0.28l-0.15,1.98h2.41V127.03z"/>
				<path class="st6" d="M64.34,127.31c0.02,0.08-0.03,0.16-0.09,0.17c-0.7,0.05-1.49,0.1-2.26,0.1c-0.75,0-1.46-0.03-2.15-0.09
					c-0.05-0.01-0.09-0.07-0.09-0.14v-0.03c0-0.21,0.12-0.37,0.26-0.36c0.63,0.06,1.31,0.1,2.03,0.1c0.74,0,1.45-0.04,2.11-0.11
					c0.09-0.01,0.16,0.09,0.16,0.22L64.34,127.31z"/>
				<path class="st5" d="M62.01,129.24h-2.4c-0.16,0-0.3,0.12-0.31,0.28l-0.17,1.96h2.89V129.24z"/>
				<path class="st6" d="M64.82,129.58c0.02,0.08-0.03,0.16-0.1,0.17c-0.84,0.05-1.78,0.1-2.7,0.1c-0.9,0-1.75-0.03-2.56-0.09
					c-0.06-0.01-0.1-0.07-0.1-0.14v-0.03c0-0.21,0.14-0.37,0.31-0.36c0.76,0.06,1.57,0.1,2.41,0.1c0.89,0,1.73-0.04,2.52-0.11
					c0.1-0.01,0.19,0.09,0.19,0.22L64.82,129.58z"/>
				<path class="st5" d="M61.99,131.43c-1.02,0-2-0.02-2.96-0.05c-0.2,0-0.36,0.16-0.36,0.36v1.29c0,0.16,0.11,0.29,0.27,0.31
					c0.87,0.14,1.9,0.25,3.04,0.25c0.01,0,0.01,0,0.01,0L61.99,131.43L61.99,131.43z"/>
				<path class="st6" d="M65.47,131.73c0.02,0.08-0.04,0.16-0.13,0.17c-1.05,0.05-2.21,0.1-3.35,0.1c-1.11,0-2.17-0.03-3.19-0.09
					c-0.08-0.01-0.13-0.07-0.13-0.14v-0.04c0-0.21,0.18-0.37,0.39-0.36c0.94,0.06,1.94,0.1,3,0.1c1.1,0,2.15-0.04,3.13-0.11
					c0.13-0.01,0.24,0.09,0.24,0.22L65.47,131.73z"/>
			</g>
		</g>
		<g id="Dripper2">
			<rect x="161.84" y="122.12" class="st0" width="16.52" height="1.16"/>
			<path class="st0" d="M177.08,122.18h-13.96v-8.69c0-0.21,0.16-0.37,0.37-0.37h13.22c0.21,0,0.37,0.16,0.37,0.37V122.18
				L177.08,122.18z"/>
			<path class="st0" d="M175.85,113.18h-11.5l0,0c0-0.28,0.23-0.51,0.51-0.51h10.47C175.62,112.66,175.85,112.9,175.85,113.18
				L175.85,113.18z"/>
			<path class="st0" d="M174.66,112.7h-9.13v-1.43c0-0.83,0.68-1.51,1.51-1.51h6.11c0.83,0,1.51,0.68,1.51,1.51L174.66,112.7
				L174.66,112.7z"/>
			<rect x="169.81" y="113.29" class="st1" width="0.43" height="8.76"/>
			<rect x="174.55" y="113.29" class="st1" width="0.43" height="8.76"/>
			<rect x="165.32" y="113.29" class="st1" width="0.43" height="8.76"/>
			<rect x="167.64" y="109.4" class="st0" width="4.92" height="0.4"/>
			<rect x="167.64" y="105.15" class="st0" width="4.92" height="0.4"/>
			<path class="st0" d="M173.9,109.41h-7.47c-0.4,0-0.72-0.32-0.72-0.72v-2.46c0-0.4,0.32-0.72,0.72-0.72h7.48
				c0.4,0,0.72,0.32,0.72,0.72v2.46C174.62,109.09,174.3,109.41,173.9,109.41z"/>
			<rect x="172.2" y="122.13" class="st2" width="3.47" height="1.16"/>
			<g>
				<path class="st3" d="M173.5,104.81c0,0.16-0.11,0.29-0.27,0.31c-0.92,0.15-2,0.26-3.22,0.25c-1.14-0.01-2.17-0.11-3.04-0.25
					c-0.15-0.03-0.27-0.16-0.27-0.31v-1.29c0-0.2,0.16-0.36,0.36-0.36c0.98,0.04,1.98,0.05,3.03,0.05c1.05,0,2.06-0.02,3.04-0.05
					c0.02,0,0.15,0,0.26,0.1c0.07,0.07,0.1,0.16,0.1,0.26L173.5,104.81L173.5,104.81z"/>
				<path class="st4" d="M173.05,103.28h-5.92l0.17-1.98c0.02-0.16,0.15-0.28,0.31-0.28h4.9c0.16,0,0.3,0.12,0.31,0.28
					L173.05,103.28z"/>
				<path class="st4" d="M172.57,101.07h-4.96l0.15-1.98c0.01-0.16,0.13-0.28,0.26-0.28h4.1c0.13,0,0.25,0.12,0.26,0.28
					L172.57,101.07z"/>
				<path class="st5" d="M170.03,98.81h-2c-0.14,0-0.25,0.13-0.26,0.28l-0.15,1.98h2.41V98.81z"/>
				<path class="st6" d="M172.36,99.09c0.02,0.08-0.03,0.16-0.09,0.17c-0.7,0.05-1.49,0.1-2.26,0.1c-0.75,0-1.46-0.03-2.15-0.09
					c-0.05-0.01-0.09-0.07-0.09-0.14V99.1c0-0.21,0.12-0.37,0.26-0.36c0.63,0.06,1.31,0.1,2.03,0.1c0.74,0,1.45-0.04,2.11-0.11
					c0.09-0.01,0.16,0.09,0.16,0.22L172.36,99.09z"/>
				<path class="st5" d="M170.03,101.02h-2.4c-0.16,0-0.3,0.12-0.31,0.28l-0.17,1.96h2.89V101.02z"/>
				<path class="st6" d="M172.84,101.36c0.02,0.08-0.03,0.16-0.1,0.17c-0.84,0.05-1.78,0.1-2.7,0.1c-0.9,0-1.75-0.03-2.56-0.09
					c-0.06-0.01-0.1-0.07-0.1-0.14v-0.03c0-0.21,0.14-0.37,0.31-0.36c0.76,0.06,1.57,0.1,2.41,0.1c0.89,0,1.73-0.04,2.52-0.11
					c0.1-0.01,0.19,0.09,0.19,0.22L172.84,101.36z"/>
				<path class="st5" d="M170.02,103.22c-1.02,0-2-0.02-2.96-0.05c-0.2,0-0.36,0.16-0.36,0.36v1.29c0,0.16,0.11,0.29,0.27,0.31
					c0.87,0.14,1.9,0.25,3.04,0.25c0.01,0,0.01,0,0.01,0V103.22L170.02,103.22z"/>
				<path class="st6" d="M173.5,103.51c0.02,0.08-0.04,0.16-0.13,0.17c-1.05,0.05-2.21,0.1-3.35,0.1c-1.11,0-2.17-0.03-3.19-0.09
					c-0.08-0.01-0.13-0.07-0.13-0.14v-0.04c0-0.21,0.18-0.37,0.39-0.36c0.94,0.06,1.94,0.1,3,0.1c1.1,0,2.15-0.04,3.13-0.11
					c0.13-0.01,0.24,0.09,0.24,0.22L173.5,103.51z"/>
			</g>
		</g>
		<g id="Dripper3">
			<rect x="259.88" y="93.95" class="st0" width="16.52" height="1.16"/>
			<path class="st0" d="M275.12,94.01h-13.96v-8.69c0-0.21,0.16-0.37,0.37-0.37h13.22c0.21,0,0.37,0.16,0.37,0.37V94.01
				L275.12,94.01z"/>
			<path class="st0" d="M273.89,85.01h-11.5l0,0c0-0.28,0.23-0.51,0.51-0.51h10.47C273.66,84.49,273.89,84.72,273.89,85.01
				L273.89,85.01z"/>
			<path class="st0" d="M272.7,84.53h-9.13v-1.43c0-0.83,0.68-1.51,1.51-1.51h6.11c0.83,0,1.51,0.68,1.51,1.51V84.53L272.7,84.53z"
				/>
			<rect x="267.85" y="85.12" class="st1" width="0.43" height="8.76"/>
			<rect x="272.59" y="85.12" class="st1" width="0.43" height="8.76"/>
			<rect x="263.35" y="85.12" class="st1" width="0.43" height="8.76"/>
			<rect x="265.68" y="81.23" class="st0" width="4.92" height="0.4"/>
			<rect x="265.68" y="76.98" class="st0" width="4.92" height="0.4"/>
			<path class="st0" d="M271.94,81.24h-7.47c-0.4,0-0.72-0.32-0.72-0.72v-2.46c0-0.4,0.32-0.72,0.72-0.72h7.48
				c0.4,0,0.72,0.32,0.72,0.72v2.46C272.66,80.91,272.34,81.24,271.94,81.24z"/>
			<rect x="270.23" y="93.96" class="st2" width="3.47" height="1.16"/>
			<g>
				<path class="st3" d="M271.53,76.64c0,0.16-0.11,0.29-0.27,0.31c-0.92,0.15-2,0.26-3.22,0.25c-1.14-0.01-2.17-0.11-3.04-0.25
					c-0.15-0.03-0.27-0.16-0.27-0.31v-1.29c0-0.2,0.16-0.36,0.36-0.36c0.98,0.04,1.98,0.05,3.03,0.05c1.05,0,2.06-0.02,3.04-0.05
					c0.02,0,0.15,0,0.26,0.1c0.07,0.07,0.1,0.16,0.1,0.26L271.53,76.64L271.53,76.64z"/>
				<path class="st4" d="M271.09,75.11h-5.92l0.17-1.98c0.02-0.16,0.15-0.28,0.31-0.28h4.9c0.16,0,0.3,0.12,0.31,0.28L271.09,75.11z
					"/>
				<path class="st4" d="M270.61,72.9h-4.96l0.15-1.98c0.01-0.16,0.13-0.28,0.26-0.28h4.1c0.13,0,0.25,0.12,0.26,0.28L270.61,72.9z"
					/>
				<path class="st5" d="M268.07,70.64h-2c-0.14,0-0.25,0.13-0.26,0.28l-0.15,1.98h2.41V70.64z"/>
				<path class="st6" d="M270.4,70.92c0.02,0.08-0.03,0.16-0.09,0.17c-0.7,0.05-1.49,0.1-2.26,0.1c-0.75,0-1.46-0.03-2.15-0.09
					c-0.05-0.01-0.09-0.07-0.09-0.14v-0.03c0-0.21,0.12-0.37,0.26-0.36c0.63,0.06,1.31,0.1,2.03,0.1c0.74,0,1.45-0.04,2.11-0.11
					c0.09-0.01,0.16,0.09,0.16,0.22L270.4,70.92z"/>
				<path class="st5" d="M268.07,72.85h-2.4c-0.16,0-0.3,0.12-0.31,0.28l-0.17,1.96h2.89V72.85z"/>
				<path class="st6" d="M270.88,73.19c0.02,0.08-0.03,0.16-0.1,0.17c-0.84,0.05-1.78,0.1-2.7,0.1c-0.9,0-1.75-0.03-2.56-0.09
					c-0.06-0.01-0.1-0.07-0.1-0.14V73.2c0-0.21,0.14-0.37,0.31-0.36c0.76,0.06,1.57,0.1,2.41,0.1c0.89,0,1.73-0.04,2.52-0.11
					c0.1-0.01,0.19,0.09,0.19,0.22L270.88,73.19z"/>
				<path class="st5" d="M268.05,75.04c-1.02,0-2-0.02-2.96-0.05c-0.2,0-0.36,0.16-0.36,0.36v1.29c0,0.16,0.11,0.29,0.27,0.31
					c0.87,0.14,1.9,0.25,3.04,0.25c0.01,0,0.01,0,0.01,0V75.04L268.05,75.04z"/>
				<path class="st6" d="M271.53,75.34c0.02,0.08-0.04,0.16-0.13,0.17c-1.05,0.05-2.21,0.1-3.35,0.1c-1.11,0-2.17-0.03-3.18-0.09
					c-0.08-0.01-0.13-0.07-0.13-0.14v-0.04c0-0.21,0.18-0.37,0.39-0.36c0.94,0.06,1.94,0.1,3,0.1c1.1,0,2.15-0.04,3.13-0.11
					c0.13-0.01,0.24,0.09,0.24,0.22L271.53,75.34z"/>
			</g>
		</g>
		<g id="Dripper4">
			<rect x="347.77" y="73.75" class="st0" width="16.52" height="1.16"/>
			<path class="st0" d="M363.01,73.81h-13.96v-8.69c0-0.21,0.16-0.37,0.37-0.37h13.22c0.21,0,0.37,0.16,0.37,0.37V73.81
				L363.01,73.81z"/>
			<path class="st0" d="M361.78,64.8h-11.5l0,0c0-0.28,0.23-0.51,0.51-0.51h10.47C361.55,64.28,361.78,64.52,361.78,64.8
				L361.78,64.8z"/>
			<path class="st0" d="M360.59,64.33h-9.13V62.9c0-0.83,0.68-1.51,1.51-1.51h6.11c0.83,0,1.51,0.68,1.51,1.51V64.33L360.59,64.33z"
				/>
			<rect x="355.73" y="64.92" class="st1" width="0.43" height="8.76"/>
			<rect x="360.48" y="64.92" class="st1" width="0.43" height="8.76"/>
			<rect x="351.24" y="64.92" class="st1" width="0.43" height="8.76"/>
			<rect x="353.57" y="61.02" class="st0" width="4.92" height="0.4"/>
			<rect x="353.57" y="56.77" class="st0" width="4.92" height="0.4"/>
			<path class="st0" d="M359.83,61.03h-7.47c-0.4,0-0.72-0.32-0.72-0.72v-2.46c0-0.4,0.32-0.72,0.72-0.72h7.48
				c0.4,0,0.72,0.32,0.72,0.72v2.46C360.55,60.71,360.22,61.03,359.83,61.03z"/>
			<rect x="358.12" y="73.76" class="st2" width="3.47" height="1.16"/>
			<g>
				<path class="st3" d="M359.42,56.43c0,0.16-0.11,0.29-0.27,0.31c-0.92,0.15-2,0.26-3.22,0.25c-1.14-0.01-2.17-0.11-3.04-0.25
					c-0.15-0.03-0.27-0.16-0.27-0.31v-1.29c0-0.2,0.16-0.36,0.36-0.36c0.98,0.04,1.98,0.05,3.03,0.05c1.05,0,2.06-0.02,3.04-0.05
					c0.02,0,0.15,0,0.26,0.1c0.07,0.07,0.1,0.16,0.1,0.26L359.42,56.43L359.42,56.43z"/>
				<path class="st4" d="M358.98,54.9h-5.92l0.17-1.98c0.02-0.16,0.15-0.28,0.31-0.28h4.9c0.16,0,0.3,0.12,0.31,0.28L358.98,54.9z"
					/>
				<path class="st4" d="M358.5,52.7h-4.96l0.15-1.98c0.01-0.16,0.13-0.28,0.26-0.28h4.1c0.13,0,0.25,0.12,0.26,0.28L358.5,52.7z"/>
				<path class="st5" d="M355.96,50.43h-2c-0.14,0-0.25,0.13-0.26,0.28l-0.15,1.98h2.41V50.43z"/>
				<path class="st6" d="M358.29,50.71c0.02,0.08-0.03,0.16-0.09,0.17c-0.7,0.05-1.49,0.1-2.26,0.1c-0.75,0-1.46-0.03-2.15-0.09
					c-0.05-0.01-0.09-0.07-0.09-0.14v-0.03c0-0.21,0.12-0.37,0.26-0.36c0.63,0.06,1.31,0.1,2.03,0.1c0.74,0,1.45-0.04,2.11-0.11
					c0.09-0.01,0.16,0.09,0.16,0.22L358.29,50.71z"/>
				<path class="st5" d="M355.96,52.65h-2.4c-0.16,0-0.3,0.12-0.31,0.28l-0.17,1.96h2.89V52.65z"/>
				<path class="st6" d="M358.77,52.99c0.02,0.08-0.03,0.16-0.1,0.17c-0.84,0.05-1.78,0.1-2.7,0.1c-0.9,0-1.75-0.03-2.56-0.09
					c-0.06-0.01-0.1-0.07-0.1-0.14V53c0-0.21,0.14-0.37,0.31-0.36c0.76,0.06,1.57,0.1,2.41,0.1c0.89,0,1.73-0.04,2.52-0.11
					c0.1-0.01,0.19,0.09,0.19,0.22L358.77,52.99z"/>
				<path class="st5" d="M355.94,54.84c-1.02,0-2-0.02-2.96-0.05c-0.2,0-0.36,0.16-0.36,0.36v1.29c0,0.16,0.11,0.29,0.27,0.31
					c0.87,0.14,1.9,0.25,3.04,0.25c0.01,0,0.01,0,0.01,0V54.84L355.94,54.84z"/>
				<path class="st6" d="M359.42,55.13c0.02,0.08-0.04,0.16-0.13,0.17c-1.05,0.05-2.21,0.1-3.35,0.1c-1.11,0-2.17-0.03-3.19-0.09
					c-0.08-0.01-0.13-0.07-0.13-0.14v-0.04c0-0.21,0.18-0.37,0.39-0.36c0.94,0.06,1.94,0.1,3,0.1c1.1,0,2.15-0.04,3.13-0.11
					c0.13-0.01,0.24,0.09,0.24,0.22L359.42,55.13z"/>
			</g>
		</g>
	</g>
	<g id="raindrop1" class="st7">
		<g id="raindrop1.1" class="st8">
			<path class="st9" d="M58.56,123.8c0,0-0.9-7.79-5.13-5.55C53.43,118.24,49.95,121.45,58.56,123.8z"/>
			<path class="st9" d="M71.89,118.57c-4-2.63-5.63,5.04-5.63,5.04C75.06,122.09,71.89,118.57,71.89,118.57z"/>
			<path class="st9" d="M59.61,115.8c-4.21,2.26,1.74,7.36,1.74,7.36C64.21,114.7,59.61,115.8,59.61,115.8z"/>
			<path class="st9" d="M66.39,115.98c-4.74-0.64-2.9,6.99-2.9,6.99C70.76,117.79,66.39,115.98,66.39,115.98z"/>
		</g>
		<g id="raindrop1.2" class="st8">
			<path class="st9" d="M166.58,95.58c0,0-0.9-7.79-5.13-5.55C161.46,90.03,157.97,93.23,166.58,95.58z"/>
			<path class="st9" d="M179.92,90.36c-4-2.63-5.63,5.04-5.63,5.04C183.08,93.88,179.92,90.36,179.92,90.36z"/>
			<path class="st9" d="M167.63,87.58c-4.21,2.26,1.74,7.36,1.74,7.36C172.23,86.48,167.63,87.58,167.63,87.58z"/>
			<path class="st9" d="M174.41,87.76c-4.74-0.64-2.9,6.99-2.9,6.99C178.78,89.57,174.41,87.76,174.41,87.76z"/>
		</g>
		<g id="raindrop1.3" class="st8">
			<path class="st9" d="M264.62,67.41c0,0-0.9-7.79-5.13-5.55C259.49,61.85,256.01,65.05,264.62,67.41z"/>
			<path class="st9" d="M277.95,62.18c-4-2.63-5.63,5.04-5.63,5.04C281.12,65.7,277.95,62.18,277.95,62.18z"/>
			<path class="st9" d="M265.67,59.41c-4.21,2.26,1.74,7.36,1.74,7.36C270.27,58.31,265.67,59.41,265.67,59.41z"/>
			<path class="st9" d="M272.45,59.59c-4.74-0.64-2.9,6.99-2.9,6.99C276.82,61.4,272.45,59.59,272.45,59.59z"/>
		</g>
		<g id="raindrop1.4" class="st8">
			<path class="st9" d="M352.51,47.2c0,0-0.9-7.79-5.13-5.55C347.38,41.65,343.9,44.85,352.51,47.2z"/>
			<path class="st9" d="M365.84,41.98c-4-2.63-5.63,5.04-5.63,5.04C369,45.5,365.84,41.98,365.84,41.98z"/>
			<path class="st9" d="M353.56,39.2c-4.21,2.26,1.74,7.36,1.74,7.36C358.16,38.11,353.56,39.2,353.56,39.2z"/>
			<path class="st9" d="M360.34,39.39c-4.74-0.64-2.9,6.99-2.9,6.99C364.71,41.2,360.34,39.39,360.34,39.39z"/>
		</g>
	</g>
	<g id="raindrop2" class="st7">
		<g id="raindrop2.1" class="st8">
			<path class="st9" d="M89.33,110.73c-2.91-5.74-9.94,2.12-9.94,2.12C90.66,116.96,89.33,110.73,89.33,110.73z"/>
			<path class="st9" d="M49.18,112.35c0,0-6.45-8.33-9.76-2.83C39.42,109.52,37.62,115.63,49.18,112.35z"/>
			<path class="st9" d="M75.33,104.25c-5.71-2.95-6.84,7.53-6.84,7.53C80.06,108.52,75.33,104.25,75.33,104.25z"/>
			<path class="st9" d="M61.15,111.7c0,0,0.55-10.53-5.56-8.52C55.59,103.19,50.25,106.65,61.15,111.7z"/>
		</g>
		<g id="raindrop2.2" class="st8">
			<path class="st9" d="M197.35,82.51c-2.91-5.74-9.94,2.12-9.94,2.12C198.69,88.74,197.35,82.51,197.35,82.51z"/>
			<path class="st9" d="M157.2,84.13c0,0-6.45-8.33-9.76-2.83C147.44,81.3,145.65,87.42,157.2,84.13z"/>
			<path class="st9" d="M183.36,76.03c-5.71-2.95-6.84,7.53-6.84,7.53C188.08,80.3,183.36,76.03,183.36,76.03z"/>
			<path class="st9" d="M169.17,83.48c0,0,0.55-10.53-5.56-8.52C163.61,74.97,158.28,78.43,169.17,83.48z"/>
		</g>
		<g id="raindrop2.3" class="st8">
			<path class="st9" d="M295.39,54.34c-2.91-5.74-9.94,2.12-9.94,2.12C296.72,60.57,295.39,54.34,295.39,54.34z"/>
			<path class="st9" d="M255.24,55.96c0,0-6.45-8.33-9.76-2.83C245.48,53.13,243.68,59.24,255.24,55.96z"/>
			<path class="st9" d="M281.39,47.86c-5.71-2.95-6.84,7.53-6.84,7.53C286.12,52.13,281.39,47.86,281.39,47.86z"/>
			<path class="st9" d="M267.21,55.31c0,0,0.55-10.53-5.56-8.52C261.65,46.79,256.31,50.26,267.21,55.31z"/>
		</g>
		<g id="raindrop2.4" class="st8">
			<path class="st9" d="M383.28,34.13c-2.91-5.74-9.94,2.12-9.94,2.12C384.61,40.36,383.28,34.13,383.28,34.13z"/>
			<path class="st9" d="M343.13,35.75c0,0-6.45-8.33-9.76-2.83C333.36,32.92,331.57,39.04,343.13,35.75z"/>
			<path class="st9" d="M369.28,27.65c-5.71-2.95-6.84,7.53-6.84,7.53C374.01,31.92,369.28,27.65,369.28,27.65z"/>
			<path class="st9" d="M355.09,35.1c0,0,0.55-10.53-5.56-8.52C349.54,26.59,344.2,30.06,355.09,35.1z"/>
		</g>
	</g>
	<g id="raindrop3" class="st7">
		<g id="raindrop3.1" class="st8">
			<path class="st9" d="M105.3,116.05c1.78-6.18-8.72-5.23-8.72-5.23C102.03,121.51,105.3,116.05,105.3,116.05z"/>
			<path class="st9" d="M92.35,99.17c-1.91-6.14-10.16,0.42-10.16,0.42C92.63,105.53,92.35,99.17,92.35,99.17z"/>
			<path class="st9" d="M45.44,98.92c0,0-7.53-7.37-10.06-1.47C35.36,97.46,34.44,103.75,45.44,98.92z"/>
			<path class="st9" d="M34.59,109.97c0,0-10.51,0.64-7.84,6.48C26.75,116.45,30.8,121.37,34.59,109.97z"/>
		</g>
		<g id="raindrop3.2" class="st8">
			<path class="st9" d="M213.32,87.83c1.78-6.18-8.72-5.23-8.72-5.23C210.05,93.29,213.32,87.83,213.32,87.83z"/>
			<path class="st9" d="M200.37,70.95c-1.91-6.14-10.16,0.42-10.16,0.42C200.65,77.31,200.37,70.95,200.37,70.95z"/>
			<path class="st9" d="M153.46,70.7c0,0-7.53-7.37-10.06-1.47C143.39,69.24,142.46,75.53,153.46,70.7z"/>
			<path class="st9" d="M142.61,81.75c0,0-10.51,0.64-7.84,6.48C134.77,88.23,138.82,93.15,142.61,81.75z"/>
		</g>
		<g id="raindrop3.3" class="st8">
			<path class="st9" d="M311.36,59.65c1.78-6.18-8.72-5.23-8.72-5.23C308.09,65.12,311.36,59.65,311.36,59.65z"/>
			<path class="st9" d="M298.41,42.78c-1.91-6.14-10.16,0.42-10.16,0.42C298.69,49.14,298.41,42.78,298.41,42.78z"/>
			<path class="st9" d="M251.5,42.53c0,0-7.53-7.37-10.06-1.47C241.42,41.06,240.5,47.36,251.5,42.53z"/>
			<path class="st9" d="M240.65,53.58c0,0-10.51,0.64-7.84,6.48C232.81,60.06,236.86,64.97,240.65,53.58z"/>
		</g>
		<g id="raindrop3.4" class="st8">
			<path class="st9" d="M399.25,39.45c1.78-6.18-8.72-5.23-8.72-5.23C395.98,44.91,399.25,39.45,399.25,39.45z"/>
			<path class="st9" d="M386.29,22.57c-1.91-6.14-10.16,0.42-10.16,0.42C386.58,28.93,386.29,22.57,386.29,22.57z"/>
			<path class="st9" d="M339.39,22.33c0,0-7.53-7.37-10.06-1.47C329.31,20.86,328.39,27.16,339.39,22.33z"/>
			<path class="st9" d="M328.54,33.37c0,0-10.51,0.64-7.84,6.48C320.7,39.85,324.75,44.77,328.54,33.37z"/>
		</g>
	</g>
	<g id="raindrop4" class="st7">
		<g id="raindrop4.1" class="st8">
			<path class="st9" d="M111.87,131.11c5.37-3.53-3.21-9.65-3.21-9.65C105.83,133.14,111.87,131.11,111.87,131.11z"/>
			<path class="st9" d="M109.7,102.77c-0.32-6.43-9.94-2.12-9.94-2.12C108.39,109,109.7,102.77,109.7,102.77z"/>
			<path class="st9" d="M29.64,97.93c0,0-10.53,0.53-7.91,6.4C21.74,104.33,25.73,109.29,29.64,97.93z"/>
			<path class="st9" d="M27.51,120.45c0,0-8.45,6.3-3.01,9.71C24.5,130.16,30.58,132.06,27.51,120.45z"/>
		</g>
		<g id="raindrop4.2" class="st8">
			<path class="st9" d="M219.89,102.89c5.37-3.53-3.21-9.65-3.21-9.65C213.85,104.92,219.89,102.89,219.89,102.89z"/>
			<path class="st9" d="M217.73,74.55c-0.32-6.43-9.94-2.12-9.94-2.12C216.42,80.78,217.73,74.55,217.73,74.55z"/>
			<path class="st9" d="M137.66,69.71c0,0-10.53,0.53-7.91,6.4C129.76,76.11,133.76,81.07,137.66,69.71z"/>
			<path class="st9" d="M135.53,92.23c0,0-8.45,6.3-3.01,9.71C132.52,101.94,138.6,103.84,135.53,92.23z"/>
		</g>
		<g id="raindrop4.3" class="st8">
			<path class="st9" d="M317.93,74.72c5.37-3.53-3.21-9.65-3.21-9.65C311.89,76.74,317.93,74.72,317.93,74.72z"/>
			<path class="st9" d="M315.76,46.38c-0.32-6.43-9.94-2.12-9.94-2.12C314.45,52.61,315.76,46.38,315.76,46.38z"/>
			<path class="st9" d="M235.7,41.54c0,0-10.53,0.53-7.91,6.4C227.8,47.93,231.79,52.89,235.7,41.54z"/>
			<path class="st9" d="M233.57,64.06c0,0-8.45,6.3-3.01,9.71C230.56,73.77,236.64,75.66,233.57,64.06z"/>
		</g>
		<g id="raindrop4.4" class="st8">
			<path class="st9" d="M405.81,54.52c5.37-3.53-3.21-9.65-3.21-9.65C399.78,56.54,405.81,54.52,405.81,54.52z"/>
			<path class="st9" d="M403.65,26.18c-0.32-6.43-9.94-2.12-9.94-2.12C402.34,32.41,403.65,26.18,403.65,26.18z"/>
			<path class="st9" d="M323.59,21.33c0,0-10.53,0.53-7.91,6.4C315.68,27.73,319.68,32.69,323.59,21.33z"/>
			<path class="st9" d="M321.46,43.85c0,0-8.45,6.3-3.01,9.71C318.45,53.56,324.52,55.46,321.46,43.85z"/>
		</g>
	</g>
	<g id="raindrop5" class="st7">
		<g id="raindrop5.1" class="st8">
			<path class="st9" d="M121.41,119.92c4.49-4.61-5.21-8.74-5.21-8.74C115.94,123.19,121.41,119.92,121.41,119.92z"/>
			<path class="st9" d="M15.46,109.82c0,0-9.96,3.45-5.79,8.36C9.67,118.16,14.89,121.8,15.46,109.82z"/>
		</g>
		<g id="raindrop5.2" class="st8">
			<path class="st9" d="M229.43,91.7c4.49-4.61-5.21-8.74-5.21-8.74C223.96,94.97,229.43,91.7,229.43,91.7z"/>
			<path class="st9" d="M123.48,81.6c0,0-9.96,3.45-5.79,8.36C117.69,89.94,122.91,93.58,123.48,81.6z"/>
		</g>
		<g id="raindrop5.3" class="st8">
			<path class="st9" d="M327.47,63.53c4.49-4.61-5.21-8.74-5.21-8.74C322,66.8,327.47,63.53,327.47,63.53z"/>
			<path class="st9" d="M221.52,53.42c0,0-9.96,3.45-5.79,8.36C215.73,61.77,220.95,65.4,221.52,53.42z"/>
		</g>
		<g id="raindrop5.4" class="st8">
			<path class="st9" d="M415.36,43.32c4.49-4.61-5.21-8.74-5.21-8.74C409.89,46.59,415.36,43.32,415.36,43.32z"/>
			<path class="st9" d="M309.41,33.22c0,0-9.96,3.45-5.79,8.36C303.62,41.57,308.84,45.2,309.41,33.22z"/>
		</g>
	</g>
</g>
</svg>
