<svg version="1.1" id="el_C0mTDQr_d" xmlns="http://www.w3.org/2000/svg" xmlns:xlink="http://www.w3.org/1999/xlink" x="0px" y="0px" viewBox="0 0 80 80" style="enable-background:new 0 0 80 80;" xml:space="preserve"><style>@-webkit-keyframes kf_el_H6H_wxKLbS_an_SOFKxylwM{64.29%{opacity: 0.7;}65.24%{opacity: 0;}78.10%{opacity: 0;}79.52%{opacity: 0.7;}0%{opacity: 0.7;}100%{opacity: 0.7;}}@keyframes kf_el_H6H_wxKLbS_an_SOFKxylwM{64.29%{opacity: 0.7;}65.24%{opacity: 0;}78.10%{opacity: 0;}79.52%{opacity: 0.7;}0%{opacity: 0.7;}100%{opacity: 0.7;}}@-webkit-keyframes kf_el_V9tD8dpNky_an_v7ulfFAkw{35.71%{opacity: 0.7;}37.14%{opacity: 0;}49.52%{opacity: 0;}51.43%{opacity: 0.7;}0%{opacity: 0.7;}100%{opacity: 0.7;}}@keyframes kf_el_V9tD8dpNky_an_v7ulfFAkw{35.71%{opacity: 0.7;}37.14%{opacity: 0;}49.52%{opacity: 0;}51.43%{opacity: 0.7;}0%{opacity: 0.7;}100%{opacity: 0.7;}}@-webkit-keyframes kf_el_JzGzC5jFg0_an_K0w9s7lwD{20%{opacity: 0.7;}21.90%{opacity: 0;}29.52%{opacity: 0;}31.43%{opacity: 0.7;}0%{opacity: 0.7;}100%{opacity: 0.7;}}@keyframes kf_el_JzGzC5jFg0_an_K0w9s7lwD{20%{opacity: 0.7;}21.90%{opacity: 0;}29.52%{opacity: 0;}31.43%{opacity: 0.7;}0%{opacity: 0.7;}100%{opacity: 0.7;}}@-webkit-keyframes kf_el_H6H_wxKLbS_an_dx6jVRm2R{0%{-webkit-transform: translate(51.5px, 35.20000076293945px) translate(-51.5px, -35.20000076293945px) translate(0px, 0px);transform: translate(51.5px, 35.20000076293945px) translate(-51.5px, -35.20000076293945px) translate(0px, 0px);}64.29%{-webkit-transform: translate(51.5px, 35.20000076293945px) translate(-51.5px, -35.20000076293945px) translate(-80px, 0px);transform: translate(51.5px, 35.20000076293945px) translate(-51.5px, -35.20000076293945px) translate(-80px, 0px);}79.52%{-webkit-transform: translate(51.5px, 35.20000076293945px) translate(-51.5px, -35.20000076293945px) translate(30px, 0px);transform: translate(51.5px, 35.20000076293945px) translate(-51.5px, -35.20000076293945px) translate(30px, 0px);}100%{-webkit-transform: translate(51.5px, 35.20000076293945px) translate(-51.5px, -35.20000076293945px) translate(0px, 0px);transform: translate(51.5px, 35.20000076293945px) translate(-51.5px, -35.20000076293945px) translate(0px, 0px);}}@keyframes kf_el_H6H_wxKLbS_an_dx6jVRm2R{0%{-webkit-transform: translate(51.5px, 35.20000076293945px) translate(-51.5px, -35.20000076293945px) translate(0px, 0px);transform: translate(51.5px, 35.20000076293945px) translate(-51.5px, -35.20000076293945px) translate(0px, 0px);}64.29%{-webkit-transform: translate(51.5px, 35.20000076293945px) translate(-51.5px, -35.20000076293945px) translate(-80px, 0px);transform: translate(51.5px, 35.20000076293945px) translate(-51.5px, -35.20000076293945px) translate(-80px, 0px);}79.52%{-webkit-transform: translate(51.5px, 35.20000076293945px) translate(-51.5px, -35.20000076293945px) translate(30px, 0px);transform: translate(51.5px, 35.20000076293945px) translate(-51.5px, -35.20000076293945px) translate(30px, 0px);}100%{-webkit-transform: translate(51.5px, 35.20000076293945px) translate(-51.5px, -35.20000076293945px) translate(0px, 0px);transform: translate(51.5px, 35.20000076293945px) translate(-51.5px, -35.20000076293945px) translate(0px, 0px);}}@-webkit-keyframes kf_el_V9tD8dpNky_an_rQf2RQLmG{0%{-webkit-transform: translate(12.699993133544922px, 15.600000381469727px) translate(-12.699993133544922px, -15.600000381469727px) translate(0px, 0px);transform: translate(12.699993133544922px, 15.600000381469727px) translate(-12.699993133544922px, -15.600000381469727px) translate(0px, 0px);}35.71%{-webkit-transform: translate(12.699993133544922px, 15.600000381469727px) translate(-12.699993133544922px, -15.600000381469727px) translate(-45px, 0px);transform: translate(12.699993133544922px, 15.600000381469727px) translate(-12.699993133544922px, -15.600000381469727px) translate(-45px, 0px);}51.90%{-webkit-transform: translate(12.699993133544922px, 15.600000381469727px) translate(-12.699993133544922px, -15.600000381469727px) translate(65px, 0px);transform: translate(12.699993133544922px, 15.600000381469727px) translate(-12.699993133544922px, -15.600000381469727px) translate(65px, 0px);}100%{-webkit-transform: translate(12.699993133544922px, 15.600000381469727px) translate(-12.699993133544922px, -15.600000381469727px) translate(0px, 0px);transform: translate(12.699993133544922px, 15.600000381469727px) translate(-12.699993133544922px, -15.600000381469727px) translate(0px, 0px);}}@keyframes kf_el_V9tD8dpNky_an_rQf2RQLmG{0%{-webkit-transform: translate(12.699993133544922px, 15.600000381469727px) translate(-12.699993133544922px, -15.600000381469727px) translate(0px, 0px);transform: translate(12.699993133544922px, 15.600000381469727px) translate(-12.699993133544922px, -15.600000381469727px) translate(0px, 0px);}35.71%{-webkit-transform: translate(12.699993133544922px, 15.600000381469727px) translate(-12.699993133544922px, -15.600000381469727px) translate(-45px, 0px);transform: translate(12.699993133544922px, 15.600000381469727px) translate(-12.699993133544922px, -15.600000381469727px) translate(-45px, 0px);}51.90%{-webkit-transform: translate(12.699993133544922px, 15.600000381469727px) translate(-12.699993133544922px, -15.600000381469727px) translate(65px, 0px);transform: translate(12.699993133544922px, 15.600000381469727px) translate(-12.699993133544922px, -15.600000381469727px) translate(65px, 0px);}100%{-webkit-transform: translate(12.699993133544922px, 15.600000381469727px) translate(-12.699993133544922px, -15.600000381469727px) translate(0px, 0px);transform: translate(12.699993133544922px, 15.600000381469727px) translate(-12.699993133544922px, -15.600000381469727px) translate(0px, 0px);}}@-webkit-keyframes kf_el_JzGzC5jFg0_an_ZzTRc64PV{0%{-webkit-transform: translate(4.495804786682129px, 47.400001525878906px) translate(-4.495804786682129px, -47.400001525878906px) translate(0px, 0px);transform: translate(4.495804786682129px, 47.400001525878906px) translate(-4.495804786682129px, -47.400001525878906px) translate(0px, 0px);}21.90%{-webkit-transform: translate(4.495804786682129px, 47.400001525878906px) translate(-4.495804786682129px, -47.400001525878906px) translate(-30px, 0px);transform: translate(4.495804786682129px, 47.400001525878906px) translate(-4.495804786682129px, -47.400001525878906px) translate(-30px, 0px);}31.43%{-webkit-transform: translate(4.495804786682129px, 47.400001525878906px) translate(-4.495804786682129px, -47.400001525878906px) translate(80px, 0px);transform: translate(4.495804786682129px, 47.400001525878906px) translate(-4.495804786682129px, -47.400001525878906px) translate(80px, 0px);}100%{-webkit-transform: translate(4.495804786682129px, 47.400001525878906px) translate(-4.495804786682129px, -47.400001525878906px) translate(0px, 0px);transform: translate(4.495804786682129px, 47.400001525878906px) translate(-4.495804786682129px, -47.400001525878906px) translate(0px, 0px);}}@keyframes kf_el_JzGzC5jFg0_an_ZzTRc64PV{0%{-webkit-transform: translate(4.495804786682129px, 47.400001525878906px) translate(-4.495804786682129px, -47.400001525878906px) translate(0px, 0px);transform: translate(4.495804786682129px, 47.400001525878906px) translate(-4.495804786682129px, -47.400001525878906px) translate(0px, 0px);}21.90%{-webkit-transform: translate(4.495804786682129px, 47.400001525878906px) translate(-4.495804786682129px, -47.400001525878906px) translate(-30px, 0px);transform: translate(4.495804786682129px, 47.400001525878906px) translate(-4.495804786682129px, -47.400001525878906px) translate(-30px, 0px);}31.43%{-webkit-transform: translate(4.495804786682129px, 47.400001525878906px) translate(-4.495804786682129px, -47.400001525878906px) translate(80px, 0px);transform: translate(4.495804786682129px, 47.400001525878906px) translate(-4.495804786682129px, -47.400001525878906px) translate(80px, 0px);}100%{-webkit-transform: translate(4.495804786682129px, 47.400001525878906px) translate(-4.495804786682129px, -47.400001525878906px) translate(0px, 0px);transform: translate(4.495804786682129px, 47.400001525878906px) translate(-4.495804786682129px, -47.400001525878906px) translate(0px, 0px);}}#el_C0mTDQr_d *{-webkit-animation-duration: 7s;animation-duration: 7s;-webkit-animation-iteration-count: infinite;animation-iteration-count: infinite;-webkit-animation-timing-function: cubic-bezier(0, 0, 1, 1);animation-timing-function: cubic-bezier(0, 0, 1, 1);}#el_bLECCCKGTV{fill: #A7DEF0;}#el_V9tD8dpNky{opacity: 0.7;fill: #FFFFFF;enable-background: new;-webkit-animation-fill-mode: backwards;animation-fill-mode: backwards;-webkit-animation-name: kf_el_V9tD8dpNky_an_v7ulfFAkw;animation-name: kf_el_V9tD8dpNky_an_v7ulfFAkw;-webkit-animation-timing-function: cubic-bezier(0, 0, 1, 1);animation-timing-function: cubic-bezier(0, 0, 1, 1);}#el_H6H_wxKLbS{opacity: 0.7;fill: #FFFFFF;enable-background: new;-webkit-animation-fill-mode: backwards;animation-fill-mode: backwards;-webkit-animation-name: kf_el_H6H_wxKLbS_an_SOFKxylwM;animation-name: kf_el_H6H_wxKLbS_an_SOFKxylwM;-webkit-animation-timing-function: cubic-bezier(0, 0, 1, 1);animation-timing-function: cubic-bezier(0, 0, 1, 1);}#el_JzGzC5jFg0{opacity: 0.7;fill: #FFFFFF;enable-background: new;-webkit-animation-fill-mode: backwards;animation-fill-mode: backwards;-webkit-animation-name: kf_el_JzGzC5jFg0_an_K0w9s7lwD;animation-name: kf_el_JzGzC5jFg0_an_K0w9s7lwD;-webkit-animation-timing-function: cubic-bezier(0, 0, 1, 1);animation-timing-function: cubic-bezier(0, 0, 1, 1);}#el_97nYU9ahty{opacity: 0.72;fill: url(#SVGID_1_);enable-background: new;}#el_zEt4Zzg3pK{opacity: 0.72;fill: url(#SVGID_2_);enable-background: new;}#el_S77wKAldn1{opacity: 0.72;fill: url(#SVGID_3_);enable-background: new;}#el_qHOH4vogCS{opacity: 0.72;fill: url(#SVGID_4_);enable-background: new;}#el_JzGzC5jFg0_an_ZzTRc64PV{-webkit-animation-fill-mode: backwards;animation-fill-mode: backwards;-webkit-transform: translate(4.495804786682129px, 47.400001525878906px) translate(-4.495804786682129px, -47.400001525878906px) translate(0px, 0px);transform: translate(4.495804786682129px, 47.400001525878906px) translate(-4.495804786682129px, -47.400001525878906px) translate(0px, 0px);-webkit-animation-name: kf_el_JzGzC5jFg0_an_ZzTRc64PV;animation-name: kf_el_JzGzC5jFg0_an_ZzTRc64PV;-webkit-animation-timing-function: cubic-bezier(0, 0, 1, 1);animation-timing-function: cubic-bezier(0, 0, 1, 1);}#el_V9tD8dpNky_an_rQf2RQLmG{-webkit-animation-fill-mode: backwards;animation-fill-mode: backwards;-webkit-transform: translate(12.699993133544922px, 15.600000381469727px) translate(-12.699993133544922px, -15.600000381469727px) translate(0px, 0px);transform: translate(12.699993133544922px, 15.600000381469727px) translate(-12.699993133544922px, -15.600000381469727px) translate(0px, 0px);-webkit-animation-name: kf_el_V9tD8dpNky_an_rQf2RQLmG;animation-name: kf_el_V9tD8dpNky_an_rQf2RQLmG;-webkit-animation-timing-function: cubic-bezier(0, 0, 1, 1);animation-timing-function: cubic-bezier(0, 0, 1, 1);}#el_H6H_wxKLbS_an_dx6jVRm2R{-webkit-animation-fill-mode: backwards;animation-fill-mode: backwards;-webkit-transform: translate(51.5px, 35.20000076293945px) translate(-51.5px, -35.20000076293945px) translate(0px, 0px);transform: translate(51.5px, 35.20000076293945px) translate(-51.5px, -35.20000076293945px) translate(0px, 0px);-webkit-animation-name: kf_el_H6H_wxKLbS_an_dx6jVRm2R;animation-name: kf_el_H6H_wxKLbS_an_dx6jVRm2R;-webkit-animation-timing-function: cubic-bezier(0, 0, 1, 1);animation-timing-function: cubic-bezier(0, 0, 1, 1);}</style>

<path id="el_bLECCCKGTV" d="M80,40c0,22.1-17.9,40-40,40S0,62.1,0,40S17.9,0,40,0S80,17.9,80,40z"/>
<g id="el_V9tD8dpNky_an_rQf2RQLmG" data-animator-group="true" data-animator-type="0"><path id="el_V9tD8dpNky" d="M17.9,22.9c0.5,0,0.9,0.1,1.3,0.2c0.6-4.2,4.3-7.5,8.7-7.5c4,0,7.3,2.6,8.4,6.2&#10;&#9;c0.4-0.1,6.3,1.7,7,4.3c0.2,0,0.4-0.1,0.6-0.1c0.1,0,0.2,0,0.3,0c0.7,0,1.3,0.5,1.3,1.1c0,0.6-0.6,1.2-1.3,1.1c-10.5,0-21,0-31.5,0&#10;&#9;c0-0.1,0-0.2,0-0.3C12.8,25.2,15.1,22.9,17.9,22.9z"/></g>
<g id="el_H6H_wxKLbS_an_dx6jVRm2R" data-animator-group="true" data-animator-type="0"><path id="el_H6H_wxKLbS" d="M55.9,41.3c0.4,0,0.8,0,1.1,0.2c0.5-3.6,3.7-6.3,7.4-6.3c3.4,0,6.2,2.2,7.1,5.3&#10;&#9;c0.3-0.1,5.3,1.5,5.9,3.6c0.2,0,0.3,0,0.5,0c0.1,0,0.1,0,0.2,0c0.6,0,1.1,0.4,1.1,1c0,0.5-0.5,1-1.1,1c-8.9,0-17.7,0-26.6,0&#10;&#9;c0-0.1,0-0.2,0-0.2C51.6,43.2,53.5,41.3,55.9,41.3z"/></g>
<g id="el_JzGzC5jFg0_an_ZzTRc64PV" data-animator-group="true" data-animator-type="0"><path id="el_JzGzC5jFg0" d="M8.2,52.9c0.3,0,0.7,0,1,0.1c0.5-3.2,3.2-5.6,6.5-5.6c3,0,5.5,2,6.3,4.6c0.3-0.1,4.7,1.3,5.2,3.2&#10;&#9;c0.1,0,0.3,0,0.5,0c0.1,0,0.1,0,0.2,0c0.5,0,0.9,0.4,0.9,0.8s-0.4,0.9-0.9,0.8c-7.8,0-15.6,0-23.4,0c0-0.1,0-0.1,0-0.2&#10;&#9;C4.4,54.6,6.1,52.9,8.2,52.9z"/></g>
<radialGradient id="SVGID_1_" cx="44.1992" cy="17.9983" r="13.3189" gradientTransform="matrix(1 0 0 -1 0 82)" gradientUnits="userSpaceOnUse">
	<stop offset="0" style="stop-color:#FFFFFF"/>
	<stop offset="0.1393" style="stop-color:#CCEBF8"/>
	<stop offset="0.2959" style="stop-color:#9CD7F0"/>
	<stop offset="0.4511" style="stop-color:#72C7EB"/>
	<stop offset="0.6015" style="stop-color:#53BAE7"/>
	<stop offset="0.7459" style="stop-color:#39B1E3"/>
	<stop offset="0.8816" style="stop-color:#2BACE2"/>
	<stop offset="1" style="stop-color:#29AAE1"/>
</radialGradient>
<path d="M42.5,31.5c1.5,4.5,4.4,8.1,6.8,11.9c1.8,2.8,3.6,5.6,4.7,8.8c1.2,3.5,1.5,6.9-0.1,10.3&#10;&#9;c-2.4,4.8-6.4,7.2-11.8,7.1c-5.8-0.1-10.6-4.1-11.7-9.7c-0.6-2.8-0.1-5.5,0.9-8.1c1-2.5,2.4-4.7,3.8-7c1.9-3.1,4-6.1,5.8-9.3&#10;&#9;C41.5,34.2,42,32.9,42.5,31.5z" id="el_97nYU9ahty"/>
<radialGradient id="SVGID_2_" cx="65.1466" cy="52.198" r="4.0078" gradientTransform="matrix(1 0 0 -1 0 82)" gradientUnits="userSpaceOnUse">
	<stop offset="0" style="stop-color:#FFFFFF"/>
	<stop offset="0.1393" style="stop-color:#CCEBF8"/>
	<stop offset="0.2959" style="stop-color:#9CD7F0"/>
	<stop offset="0.4511" style="stop-color:#72C7EB"/>
	<stop offset="0.6015" style="stop-color:#53BAE7"/>
	<stop offset="0.7459" style="stop-color:#39B1E3"/>
	<stop offset="0.8816" style="stop-color:#2BACE2"/>
	<stop offset="1" style="stop-color:#29AAE1"/>
</radialGradient>
<path d="M64.6,20c0.5,1.4,1.3,2.4,2,3.6c0.5,0.9,1.1,1.7,1.4,2.6c0.4,1,0.4,2.1,0,3.1c-0.7,1.5-1.9,2.2-3.6,2.1&#10;&#9;c-1.7,0-3.2-1.2-3.5-2.9c-0.2-0.8,0-1.6,0.3-2.4c0.3-0.8,0.7-1.4,1.1-2.1c0.6-0.9,1.2-1.8,1.7-2.8C64.3,20.8,64.5,20.5,64.6,20z" id="el_zEt4Zzg3pK"/>
<radialGradient id="SVGID_3_" cx="38.5696" cy="65.6672" r="2.641" gradientTransform="matrix(1 0 0 -1 0 82)" gradientUnits="userSpaceOnUse">
	<stop offset="0" style="stop-color:#FFFFFF"/>
	<stop offset="0.1393" style="stop-color:#CCEBF8"/>
	<stop offset="0.2959" style="stop-color:#9CD7F0"/>
	<stop offset="0.4511" style="stop-color:#72C7EB"/>
	<stop offset="0.6015" style="stop-color:#53BAE7"/>
	<stop offset="0.7459" style="stop-color:#39B1E3"/>
	<stop offset="0.8816" style="stop-color:#2BACE2"/>
	<stop offset="1" style="stop-color:#29AAE1"/>
</radialGradient>
<path d="M38.2,9.9c0.3,0.9,0.9,1.6,1.3,2.4c0.3,0.6,0.7,1.1,0.9,1.7c0.2,0.7,0.3,1.4,0,2c-0.5,1-1.3,1.4-2.3,1.4&#10;&#9;c-1.1,0-2.1-0.8-2.3-1.9c-0.1-0.6,0-1.1,0.2-1.6c0.2-0.5,0.5-0.9,0.8-1.4c0.4-0.6,0.8-1.2,1.1-1.8C38,10.4,38.1,10.2,38.2,9.9z" id="el_S77wKAldn1"/>
<radialGradient id="SVGID_4_" cx="17.0376" cy="42.9854" r="4.0078" gradientTransform="matrix(1 0 0 -1 0 82)" gradientUnits="userSpaceOnUse">
	<stop offset="0" style="stop-color:#FFFFFF"/>
	<stop offset="0.1393" style="stop-color:#CCEBF8"/>
	<stop offset="0.2959" style="stop-color:#9CD7F0"/>
	<stop offset="0.4511" style="stop-color:#72C7EB"/>
	<stop offset="0.6015" style="stop-color:#53BAE7"/>
	<stop offset="0.7459" style="stop-color:#39B1E3"/>
	<stop offset="0.8816" style="stop-color:#2BACE2"/>
	<stop offset="1" style="stop-color:#29AAE1"/>
</radialGradient>
<path d="M16.5,29.2c0.5,1.4,1.3,2.4,2,3.6c0.5,0.8,1.1,1.7,1.4,2.7c0.4,1,0.5,2.1,0,3.1c-0.7,1.5-1.9,2.2-3.5,2.1&#10;&#9;c-1.7,0-3.2-1.2-3.5-2.9c-0.2-0.8,0-1.7,0.3-2.4c0.3-0.8,0.7-1.4,1.1-2.1c0.6-0.9,1.2-1.8,1.7-2.8C16.2,30,16.4,29.7,16.5,29.2z" id="el_qHOH4vogCS"/>
</svg>