<svg version="1.1" id="el_o5c--ntdO" xmlns="http://www.w3.org/2000/svg" xmlns:xlink="http://www.w3.org/1999/xlink" x="0px" y="0px" viewBox="0 0 80 80" style="enable-background:new 0 0 80 80;" xml:space="preserve"><style>@-webkit-keyframes kf_el_9cGVPViQTg_an_nILWYRTPP{50%{-webkit-transform: translate(42.93000793457031px, 40.62999725341797px) translate(-42.93000793457031px, -40.62999725341797px) translate(60px, 0px);transform: translate(42.93000793457031px, 40.62999725341797px) translate(-42.93000793457031px, -40.62999725341797px) translate(60px, 0px);}100%{-webkit-transform: translate(42.93000793457031px, 40.62999725341797px) translate(-42.93000793457031px, -40.62999725341797px) translate(-80px, 0px);transform: translate(42.93000793457031px, 40.62999725341797px) translate(-42.93000793457031px, -40.62999725341797px) translate(-80px, 0px);}0%{-webkit-transform: translate(42.93000793457031px, 40.62999725341797px) translate(-42.93000793457031px, -40.62999725341797px) translate(60px, 0px);transform: translate(42.93000793457031px, 40.62999725341797px) translate(-42.93000793457031px, -40.62999725341797px) translate(60px, 0px);}}@keyframes kf_el_9cGVPViQTg_an_nILWYRTPP{50%{-webkit-transform: translate(42.93000793457031px, 40.62999725341797px) translate(-42.93000793457031px, -40.62999725341797px) translate(60px, 0px);transform: translate(42.93000793457031px, 40.62999725341797px) translate(-42.93000793457031px, -40.62999725341797px) translate(60px, 0px);}100%{-webkit-transform: translate(42.93000793457031px, 40.62999725341797px) translate(-42.93000793457031px, -40.62999725341797px) translate(-80px, 0px);transform: translate(42.93000793457031px, 40.62999725341797px) translate(-42.93000793457031px, -40.62999725341797px) translate(-80px, 0px);}0%{-webkit-transform: translate(42.93000793457031px, 40.62999725341797px) translate(-42.93000793457031px, -40.62999725341797px) translate(60px, 0px);transform: translate(42.93000793457031px, 40.62999725341797px) translate(-42.93000793457031px, -40.62999725341797px) translate(60px, 0px);}}@-webkit-keyframes kf_el_DBZWUlKKby_an_4r6hUyaY5{0%{-webkit-transform: translate(-0.8771508932113647px, 29.19000244140625px) translate(0.8771508932113647px, -29.19000244140625px) translate(80px, 0px);transform: translate(-0.8771508932113647px, 29.19000244140625px) translate(0.8771508932113647px, -29.19000244140625px) translate(80px, 0px);}50%{-webkit-transform: translate(-0.8771508932113647px, 29.19000244140625px) translate(0.8771508932113647px, -29.19000244140625px) translate(-35px, 0px);transform: translate(-0.8771508932113647px, 29.19000244140625px) translate(0.8771508932113647px, -29.19000244140625px) translate(-35px, 0px);}100%{-webkit-transform: translate(-0.8771508932113647px, 29.19000244140625px) translate(0.8771508932113647px, -29.19000244140625px) translate(-35px, 0px);transform: translate(-0.8771508932113647px, 29.19000244140625px) translate(0.8771508932113647px, -29.19000244140625px) translate(-35px, 0px);}}@keyframes kf_el_DBZWUlKKby_an_4r6hUyaY5{0%{-webkit-transform: translate(-0.8771508932113647px, 29.19000244140625px) translate(0.8771508932113647px, -29.19000244140625px) translate(80px, 0px);transform: translate(-0.8771508932113647px, 29.19000244140625px) translate(0.8771508932113647px, -29.19000244140625px) translate(80px, 0px);}50%{-webkit-transform: translate(-0.8771508932113647px, 29.19000244140625px) translate(0.8771508932113647px, -29.19000244140625px) translate(-35px, 0px);transform: translate(-0.8771508932113647px, 29.19000244140625px) translate(0.8771508932113647px, -29.19000244140625px) translate(-35px, 0px);}100%{-webkit-transform: translate(-0.8771508932113647px, 29.19000244140625px) translate(0.8771508932113647px, -29.19000244140625px) translate(-35px, 0px);transform: translate(-0.8771508932113647px, 29.19000244140625px) translate(0.8771508932113647px, -29.19000244140625px) translate(-35px, 0px);}}#el_o5c--ntdO *{-webkit-animation-duration: 5s;animation-duration: 5s;-webkit-animation-iteration-count: infinite;animation-iteration-count: infinite;-webkit-animation-timing-function: cubic-bezier(0, 0, 1, 1);animation-timing-function: cubic-bezier(0, 0, 1, 1);}#el_ekHD_eZE4J{fill: #A5DEF1;}#el_DBZWUlKKby{opacity: 0.7;fill: #FFFFFF;}#el_9cGVPViQTg{opacity: 0.7;fill: #FFFFFF;}#el_7BF-THHe0z{fill: #E49124;}#el_yYBHt3sHyx{fill: #EEAD1F;}#el_hmEoauVidb{opacity: 0.2;fill: #FEBB12;}#el_DBZWUlKKby_an_4r6hUyaY5{-webkit-animation-fill-mode: backwards;animation-fill-mode: backwards;-webkit-transform: translate(-0.8771508932113647px, 29.19000244140625px) translate(0.8771508932113647px, -29.19000244140625px) translate(80px, 0px);transform: translate(-0.8771508932113647px, 29.19000244140625px) translate(0.8771508932113647px, -29.19000244140625px) translate(80px, 0px);-webkit-animation-name: kf_el_DBZWUlKKby_an_4r6hUyaY5;animation-name: kf_el_DBZWUlKKby_an_4r6hUyaY5;-webkit-animation-timing-function: cubic-bezier(0, 0, 1, 1);animation-timing-function: cubic-bezier(0, 0, 1, 1);}#el_9cGVPViQTg_an_nILWYRTPP{-webkit-animation-fill-mode: backwards;animation-fill-mode: backwards;-webkit-transform: translate(42.93000793457031px, 40.62999725341797px) translate(-42.93000793457031px, -40.62999725341797px) translate(60px, 0px);transform: translate(42.93000793457031px, 40.62999725341797px) translate(-42.93000793457031px, -40.62999725341797px) translate(60px, 0px);-webkit-animation-name: kf_el_9cGVPViQTg_an_nILWYRTPP;animation-name: kf_el_9cGVPViQTg_an_nILWYRTPP;-webkit-animation-timing-function: cubic-bezier(0, 0, 1, 1);animation-timing-function: cubic-bezier(0, 0, 1, 1);}</style>

<path id="el_ekHD_eZE4J" d="M80,40c0,22.09-17.91,40-40,40S0,62.09,0,40C0,17.91,17.91,0,40,0S80,17.91,80,40z"/>
<g id="el_DBZWUlKKby_an_4r6hUyaY5" data-animator-group="true" data-animator-type="0"><path id="el_DBZWUlKKby" d="M0.8,35.54c0.25-0.03,0.49-0.05,0.75-0.05c0.87,0,1.69,0.19,2.42,0.54&#10;&#9;c0.96-3.92,4.49-6.84,8.71-6.84c4.49,0,8.2,3.29,8.86,7.59c0.71-0.53,1.58-0.85,2.54-0.85c2.1,0,3.84,1.54,4.17,3.55L1.07,39.58&#10;&#9;c-0.91-0.09-1.66-0.68-1.88-1.45C-1.1,37.12-0.43,35.9,0.8,35.54z"/></g>
<g id="el_9cGVPViQTg_an_nILWYRTPP" data-animator-group="true" data-animator-type="0"><path id="el_9cGVPViQTg" d="M49.14,49.37c0.55,0,1.09,0.07,1.6,0.2c0.79-5.06,5.23-8.94,10.59-8.94&#10;&#9;c4.82,0,8.89,3.13,10.24,7.44c0.49-0.11,7.64,2.06,8.44,5.08c0.25-0.04,0.5-0.07,0.75-0.07c0.1,0,0.26,0.11,0.36,0.11&#10;&#9;c0.6,0.25,0.95,0.84,0.89,1.41c-0.08,0.71-0.8,1.29-1.63,1.19c-12.48,0.01-24.96,0.01-37.44,0.02c-0.01-0.11-0.01-0.22-0.01-0.33&#10;&#9;C42.93,52.1,45.71,49.37,49.14,49.37z"/></g>
<g id="el_OL0RVPEyVT">
	<g id="el_J3HZnvuy99">
		<path d="M40.09,20.75c-10.66,0-19.3,8.64-19.3,19.3c0,10.66,8.64,19.3,19.3,19.3c10.66,0,19.3-8.64,19.3-19.3&#10;&#9;&#9;&#9;C59.39,29.39,50.75,20.75,40.09,20.75z" id="el_7BF-THHe0z"/>
	</g>
	<g id="el_4puDhWPCTa">
		<path d="M59.39,39.58c0,10.66-8.64,19.3-19.3,19.3c-10.66,0-19.3-8.64-19.3-19.3c0-10.66,8.64-19.3,19.3-19.3&#10;&#9;&#9;&#9;C50.75,20.28,59.39,28.93,59.39,39.58z" id="el_yYBHt3sHyx"/>
	</g>
	<path d="M40.09,39.57c6.75,0,13.23,0.37,19.27,1.06c0.02-0.35,0.03-0.69,0.03-1.05c0-10.66-8.64-19.3-19.3-19.3&#10;&#9;&#9;c-10.66,0-19.3,8.64-19.3,19.3c0,0.35,0.01,0.7,0.03,1.05C26.86,39.95,33.34,39.57,40.09,39.57z" id="el_hmEoauVidb"/>
</g>
</svg>