<svg version="1.1" id="el_hANsDUsIM" xmlns="http://www.w3.org/2000/svg" xmlns:xlink="http://www.w3.org/1999/xlink" x="0px" y="0px" viewBox="0 0 80 80" style="enable-background:new 0 0 80 80;" xml:space="preserve"><style>@-webkit-keyframes kf_el_RxwbgXUXGl1_an_c0BPflaZt{50%{-webkit-transform: translate(42.93000793457031px, 40.62999725341797px) translate(-42.93000793457031px, -40.62999725341797px) translate(60px, 0px);transform: translate(42.93000793457031px, 40.62999725341797px) translate(-42.93000793457031px, -40.62999725341797px) translate(60px, 0px);}100%{-webkit-transform: translate(42.93000793457031px, 40.62999725341797px) translate(-42.93000793457031px, -40.62999725341797px) translate(-80px, 0px);transform: translate(42.93000793457031px, 40.62999725341797px) translate(-42.93000793457031px, -40.62999725341797px) translate(-80px, 0px);}0%{-webkit-transform: translate(42.93000793457031px, 40.62999725341797px) translate(-42.93000793457031px, -40.62999725341797px) translate(60px, 0px);transform: translate(42.93000793457031px, 40.62999725341797px) translate(-42.93000793457031px, -40.62999725341797px) translate(60px, 0px);}}@keyframes kf_el_RxwbgXUXGl1_an_c0BPflaZt{50%{-webkit-transform: translate(42.93000793457031px, 40.62999725341797px) translate(-42.93000793457031px, -40.62999725341797px) translate(60px, 0px);transform: translate(42.93000793457031px, 40.62999725341797px) translate(-42.93000793457031px, -40.62999725341797px) translate(60px, 0px);}100%{-webkit-transform: translate(42.93000793457031px, 40.62999725341797px) translate(-42.93000793457031px, -40.62999725341797px) translate(-80px, 0px);transform: translate(42.93000793457031px, 40.62999725341797px) translate(-42.93000793457031px, -40.62999725341797px) translate(-80px, 0px);}0%{-webkit-transform: translate(42.93000793457031px, 40.62999725341797px) translate(-42.93000793457031px, -40.62999725341797px) translate(60px, 0px);transform: translate(42.93000793457031px, 40.62999725341797px) translate(-42.93000793457031px, -40.62999725341797px) translate(60px, 0px);}}@-webkit-keyframes kf_el_mcDj392btyq_an__bMLhJ8fU{0%{-webkit-transform: translate(-0.8771508932113647px, 29.19000244140625px) translate(0.8771508932113647px, -29.19000244140625px) translate(80px, 0px);transform: translate(-0.8771508932113647px, 29.19000244140625px) translate(0.8771508932113647px, -29.19000244140625px) translate(80px, 0px);}50%{-webkit-transform: translate(-0.8771508932113647px, 29.19000244140625px) translate(0.8771508932113647px, -29.19000244140625px) translate(-35px, 0px);transform: translate(-0.8771508932113647px, 29.19000244140625px) translate(0.8771508932113647px, -29.19000244140625px) translate(-35px, 0px);}100%{-webkit-transform: translate(-0.8771508932113647px, 29.19000244140625px) translate(0.8771508932113647px, -29.19000244140625px) translate(-35px, 0px);transform: translate(-0.8771508932113647px, 29.19000244140625px) translate(0.8771508932113647px, -29.19000244140625px) translate(-35px, 0px);}}@keyframes kf_el_mcDj392btyq_an__bMLhJ8fU{0%{-webkit-transform: translate(-0.8771508932113647px, 29.19000244140625px) translate(0.8771508932113647px, -29.19000244140625px) translate(80px, 0px);transform: translate(-0.8771508932113647px, 29.19000244140625px) translate(0.8771508932113647px, -29.19000244140625px) translate(80px, 0px);}50%{-webkit-transform: translate(-0.8771508932113647px, 29.19000244140625px) translate(0.8771508932113647px, -29.19000244140625px) translate(-35px, 0px);transform: translate(-0.8771508932113647px, 29.19000244140625px) translate(0.8771508932113647px, -29.19000244140625px) translate(-35px, 0px);}100%{-webkit-transform: translate(-0.8771508932113647px, 29.19000244140625px) translate(0.8771508932113647px, -29.19000244140625px) translate(-35px, 0px);transform: translate(-0.8771508932113647px, 29.19000244140625px) translate(0.8771508932113647px, -29.19000244140625px) translate(-35px, 0px);}}#el_hANsDUsIM *{-webkit-animation-duration: 5s;animation-duration: 5s;-webkit-animation-iteration-count: infinite;animation-iteration-count: infinite;-webkit-animation-timing-function: cubic-bezier(0, 0, 1, 1);animation-timing-function: cubic-bezier(0, 0, 1, 1);}#el_QHzw2n108_{fill: #151244;}#el_rTPTsCx3_a{fill: #F3E686;}#el_zzoB-evPuD{fill: #F3E686;}#el_aqXjaQemjL{opacity: 0.2;fill: #F8F5EB;}#el_FGz66CgLhM{fill: #151244;}#el_74QbY2u8ae{opacity: 0.7;fill: #4B4B55;}#el_veYTaSKGJF{fill: #E49124;}#el_PPYJnrUeG5{fill: #F3E686;}#el_bWgJy2EnnCx{opacity: 0.2;fill: #F8F5EB;}#el_DOd819kR7lL{opacity: 0.7;fill: #4B4B55;}#el_mcDj392btyq{opacity: 0.7;fill: #4B4B55;}#el_RxwbgXUXGl1{opacity: 0.7;fill: #4B4B55;}#el_mcDj392btyq_an__bMLhJ8fU{-webkit-animation-fill-mode: backwards;animation-fill-mode: backwards;-webkit-transform: translate(-0.8771508932113647px, 29.19000244140625px) translate(0.8771508932113647px, -29.19000244140625px) translate(80px, 0px);transform: translate(-0.8771508932113647px, 29.19000244140625px) translate(0.8771508932113647px, -29.19000244140625px) translate(80px, 0px);-webkit-animation-name: kf_el_mcDj392btyq_an__bMLhJ8fU;animation-name: kf_el_mcDj392btyq_an__bMLhJ8fU;-webkit-animation-timing-function: cubic-bezier(0, 0, 1, 1);animation-timing-function: cubic-bezier(0, 0, 1, 1);}#el_RxwbgXUXGl1_an_c0BPflaZt{-webkit-animation-fill-mode: backwards;animation-fill-mode: backwards;-webkit-transform: translate(42.93000793457031px, 40.62999725341797px) translate(-42.93000793457031px, -40.62999725341797px) translate(60px, 0px);transform: translate(42.93000793457031px, 40.62999725341797px) translate(-42.93000793457031px, -40.62999725341797px) translate(60px, 0px);-webkit-animation-name: kf_el_RxwbgXUXGl1_an_c0BPflaZt;animation-name: kf_el_RxwbgXUXGl1_an_c0BPflaZt;-webkit-animation-timing-function: cubic-bezier(0, 0, 1, 1);animation-timing-function: cubic-bezier(0, 0, 1, 1);}</style>

<path id="el_QHzw2n108_" d="M80,40c0,22.09-17.91,40-40,40S0,62.09,0,40C0,17.91,17.91,0,40,0S80,17.91,80,40z"/>
<g id="el_I6Md1QNrv_">
	<g id="el_XyGLkHcdxW">
		<path d="M40.09,20.75c-10.66,0-19.3,8.64-19.3,19.3c0,10.66,8.64,19.3,19.3,19.3c10.66,0,19.3-8.64,19.3-19.3&#10;&#9;&#9;&#9;C59.39,29.39,50.75,20.75,40.09,20.75z" id="el_rTPTsCx3_a"/>
	</g>
	<g id="el_3BwlotmnLK">
		<path d="M59.39,39.58c0,10.66-8.64,19.3-19.3,19.3c-10.66,0-19.3-8.64-19.3-19.3c0-10.66,8.64-19.3,19.3-19.3&#10;&#9;&#9;&#9;C50.75,20.28,59.39,28.93,59.39,39.58z" id="el_zzoB-evPuD"/>
	</g>
	<path d="M40.09,39.57c6.75,0,13.23,0.37,19.27,1.06c0.02-0.35,0.03-0.69,0.03-1.05c0-10.66-8.64-19.3-19.3-19.3&#10;&#9;&#9;c-10.66,0-19.3,8.64-19.3,19.3c0,0.35,0.01,0.7,0.03,1.05C26.86,39.95,33.34,39.57,40.09,39.57z" id="el_aqXjaQemjL"/>
</g>
<g id="el_kYl2fvf5-w">
	<path d="M-64.1,32.12c0,21.81-17.68,39.5-39.5,39.5s-39.5-17.69-39.5-39.5c0-21.82,17.68-39.5,39.5-39.5&#10;&#9;&#9;S-64.1,10.3-64.1,32.12z" id="el_FGz66CgLhM"/>
	<path d="M-142.05,22.9c0.27-0.04,0.55-0.06,0.83-0.06c0.96,0,1.87,0.22,2.68,0.6c1.06-4.35,4.98-7.57,9.65-7.57&#10;&#9;&#9;c4.97,0,9.08,3.65,9.82,8.41c0.78-0.59,1.75-0.94,2.81-0.94c2.33,0,4.26,1.7,4.62,3.93l-31.16,0.1c-0.95-0.44-1.5-1.45-1.35-2.47&#10;&#9;&#9;C-144.01,23.84-143.14,23-142.05,22.9z" id="el_74QbY2u8ae"/>
	<g id="el_yrmcP58mOB">
		<g id="el_Pv5e73qWXH">
			<path d="M-104.01,14.24c-9.89,0-17.91,8.02-17.91,17.91c0,9.89,8.02,17.91,17.91,17.91s17.91-8.02,17.91-17.91&#10;&#9;&#9;&#9;&#9;C-86.1,22.26-94.12,14.24-104.01,14.24z" id="el_veYTaSKGJF"/>
		</g>
		<g id="el_S8FU7L7K4B">
			<path d="M-86.1,31.72c0,9.89-8.02,17.91-17.91,17.91s-17.91-8.02-17.91-17.91c0-9.89,8.02-17.91,17.91-17.91&#10;&#9;&#9;&#9;&#9;S-86.1,21.83-86.1,31.72z" id="el_PPYJnrUeG5"/>
		</g>
		<path d="M-104.01,31.71c6.26,0,12.28,0.35,17.88,0.98c0.02-0.32,0.03-0.64,0.03-0.97c0-9.89-8.02-17.91-17.91-17.91&#10;&#9;&#9;&#9;s-17.91,8.02-17.91,17.91c0,0.33,0.01,0.65,0.03,0.97C-116.29,32.06-110.28,31.71-104.01,31.71z" id="el_bWgJy2EnnCx"/>
	</g>
	<path d="M-99.22,37.23c0.58,0,1.15,0.08,1.69,0.23c0.83-5.71,5.5-10.09,11.15-10.09c5.07,0,9.36,3.53,10.78,8.4&#10;&#9;&#9;c0.52-0.12,8.04,2.33,8.89,5.73c0.22-0.05,0.49-0.08,0.79-0.08c0.16,0,0.32,0.01,0.45,0.03c0.71,0.27,1.17,0.93,1.13,1.58&#10;&#9;&#9;c-0.05,0.84-0.93,1.59-1.98,1.45c-13.14,0.01-26.28,0.02-39.43,0.02c-0.01-0.13,0.01-0.75,0.01-0.88&#10;&#9;&#9;C-105.74,39.81-102.83,37.23-99.22,37.23z" id="el_DOd819kR7lL"/>
</g>
<g id="el_mcDj392btyq_an__bMLhJ8fU" data-animator-group="true" data-animator-type="0"><path id="el_mcDj392btyq" d="M0.8,35.54c0.25-0.03,0.49-0.05,0.75-0.05c0.87,0,1.69,0.19,2.42,0.54&#10;&#9;c0.96-3.92,4.49-6.84,8.71-6.84c4.49,0,8.2,3.29,8.86,7.59c0.71-0.53,1.58-0.85,2.54-0.85c2.1,0,3.84,1.54,4.17,3.55L1.07,39.58&#10;&#9;c-0.91-0.09-1.66-0.68-1.88-1.45C-1.1,37.12-0.43,35.9,0.8,35.54z"/></g>
<g id="el_RxwbgXUXGl1_an_c0BPflaZt" data-animator-group="true" data-animator-type="0"><path id="el_RxwbgXUXGl1" d="M49.14,49.37c0.55,0,1.09,0.07,1.6,0.2c0.79-5.06,5.23-8.94,10.59-8.94&#10;&#9;c4.82,0,8.89,3.13,10.24,7.44c0.49-0.11,7.64,2.06,8.44,5.08c0.25-0.04,0.5-0.07,0.75-0.07c0.1,0,0.26,0.11,0.36,0.11&#10;&#9;c0.6,0.25,0.95,0.84,0.89,1.41c-0.08,0.71-0.8,1.29-1.63,1.19c-12.48,0.01-24.96,0.01-37.44,0.02c-0.01-0.11-0.01-0.22-0.01-0.33&#10;&#9;C42.93,52.1,45.71,49.37,49.14,49.37z"/></g>
</svg>