<svg version="1.1" id="el_93u26VwMx" xmlns="http://www.w3.org/2000/svg" xmlns:xlink="http://www.w3.org/1999/xlink" x="0px" y="0px" viewBox="0 0 80 80" style="enable-background:new 0 0 80 80;" xml:space="preserve"><style>@-webkit-keyframes kf_el_vkkwWaAR0p_an_twpqsHEDv{50%{-webkit-transform: translate(27.84000587463379px, 32.150001525878906px) translate(-27.84000587463379px, -32.150001525878906px) translate(60px, 0px);transform: translate(27.84000587463379px, 32.150001525878906px) translate(-27.84000587463379px, -32.150001525878906px) translate(60px, 0px);}100%{-webkit-transform: translate(27.84000587463379px, 32.150001525878906px) translate(-27.84000587463379px, -32.150001525878906px) translate(-80px, 0px);transform: translate(27.84000587463379px, 32.150001525878906px) translate(-27.84000587463379px, -32.150001525878906px) translate(-80px, 0px);}0%{-webkit-transform: translate(27.84000587463379px, 32.150001525878906px) translate(-27.84000587463379px, -32.150001525878906px) translate(60px, 0px);transform: translate(27.84000587463379px, 32.150001525878906px) translate(-27.84000587463379px, -32.150001525878906px) translate(60px, 0px);}}@keyframes kf_el_vkkwWaAR0p_an_twpqsHEDv{50%{-webkit-transform: translate(27.84000587463379px, 32.150001525878906px) translate(-27.84000587463379px, -32.150001525878906px) translate(60px, 0px);transform: translate(27.84000587463379px, 32.150001525878906px) translate(-27.84000587463379px, -32.150001525878906px) translate(60px, 0px);}100%{-webkit-transform: translate(27.84000587463379px, 32.150001525878906px) translate(-27.84000587463379px, -32.150001525878906px) translate(-80px, 0px);transform: translate(27.84000587463379px, 32.150001525878906px) translate(-27.84000587463379px, -32.150001525878906px) translate(-80px, 0px);}0%{-webkit-transform: translate(27.84000587463379px, 32.150001525878906px) translate(-27.84000587463379px, -32.150001525878906px) translate(60px, 0px);transform: translate(27.84000587463379px, 32.150001525878906px) translate(-27.84000587463379px, -32.150001525878906px) translate(60px, 0px);}}@-webkit-keyframes kf_el_0o2ahUt71V_an_15a63omlW{0%{-webkit-transform: translate(-0.8771508932113647px, 32px) translate(0.8771508932113647px, -32px) translate(80px, 0px);transform: translate(-0.8771508932113647px, 32px) translate(0.8771508932113647px, -32px) translate(80px, 0px);}50%{-webkit-transform: translate(-0.8771508932113647px, 32px) translate(0.8771508932113647px, -32px) translate(-30px, 0px);transform: translate(-0.8771508932113647px, 32px) translate(0.8771508932113647px, -32px) translate(-30px, 0px);}100%{-webkit-transform: translate(-0.8771508932113647px, 32px) translate(0.8771508932113647px, -32px) translate(-30px, 0px);transform: translate(-0.8771508932113647px, 32px) translate(0.8771508932113647px, -32px) translate(-30px, 0px);}}@keyframes kf_el_0o2ahUt71V_an_15a63omlW{0%{-webkit-transform: translate(-0.8771508932113647px, 32px) translate(0.8771508932113647px, -32px) translate(80px, 0px);transform: translate(-0.8771508932113647px, 32px) translate(0.8771508932113647px, -32px) translate(80px, 0px);}50%{-webkit-transform: translate(-0.8771508932113647px, 32px) translate(0.8771508932113647px, -32px) translate(-30px, 0px);transform: translate(-0.8771508932113647px, 32px) translate(0.8771508932113647px, -32px) translate(-30px, 0px);}100%{-webkit-transform: translate(-0.8771508932113647px, 32px) translate(0.8771508932113647px, -32px) translate(-30px, 0px);transform: translate(-0.8771508932113647px, 32px) translate(0.8771508932113647px, -32px) translate(-30px, 0px);}}#el_93u26VwMx *{-webkit-animation-duration: 5s;animation-duration: 5s;-webkit-animation-iteration-count: infinite;animation-iteration-count: infinite;-webkit-animation-timing-function: cubic-bezier(0, 0, 1, 1);animation-timing-function: cubic-bezier(0, 0, 1, 1);}#el_nBEpT-c72a{fill: #43627D;}#el_EnaxFW6_Vx{fill: #E49124;}#el_7tDMSAJXsn{fill: #EEAD1F;}#el_XxbyDhozwK{opacity: 0.2;fill: #FEBB12;}#el_0o2ahUt71V{opacity: 0.7;fill: #B5B6B6;}#el_vkkwWaAR0p{opacity: 0.7;fill: #B5B6B6;}#el_0o2ahUt71V_an_15a63omlW{-webkit-animation-fill-mode: backwards;animation-fill-mode: backwards;-webkit-transform: translate(-0.8771508932113647px, 32px) translate(0.8771508932113647px, -32px) translate(80px, 0px);transform: translate(-0.8771508932113647px, 32px) translate(0.8771508932113647px, -32px) translate(80px, 0px);-webkit-animation-name: kf_el_0o2ahUt71V_an_15a63omlW;animation-name: kf_el_0o2ahUt71V_an_15a63omlW;-webkit-animation-timing-function: cubic-bezier(0, 0, 1, 1);animation-timing-function: cubic-bezier(0, 0, 1, 1);}#el_vkkwWaAR0p_an_twpqsHEDv{-webkit-animation-fill-mode: backwards;animation-fill-mode: backwards;-webkit-transform: translate(27.84000587463379px, 32.150001525878906px) translate(-27.84000587463379px, -32.150001525878906px) translate(60px, 0px);transform: translate(27.84000587463379px, 32.150001525878906px) translate(-27.84000587463379px, -32.150001525878906px) translate(60px, 0px);-webkit-animation-name: kf_el_vkkwWaAR0p_an_twpqsHEDv;animation-name: kf_el_vkkwWaAR0p_an_twpqsHEDv;-webkit-animation-timing-function: cubic-bezier(0, 0, 1, 1);animation-timing-function: cubic-bezier(0, 0, 1, 1);}</style>

<path id="el_nBEpT-c72a" d="M80,40c0,22.09-17.91,40-40,40S0,62.09,0,40C0,17.91,17.91,0,40,0S80,17.91,80,40z"/>
<g id="el_kzhsxakvHQ">
	<g id="el_RRuhNViwwD">
		<path d="M40.09,20.75c-10.66,0-19.3,8.64-19.3,19.3c0,10.66,8.64,19.3,19.3,19.3c10.66,0,19.3-8.64,19.3-19.3&#10;&#9;&#9;&#9;C59.39,29.39,50.75,20.75,40.09,20.75z" id="el_EnaxFW6_Vx"/>
	</g>
	<g id="el_bZTAOZyMA5">
		<path d="M59.39,39.58c0,10.66-8.64,19.3-19.3,19.3c-10.66,0-19.3-8.64-19.3-19.3c0-10.66,8.64-19.3,19.3-19.3&#10;&#9;&#9;&#9;C50.75,20.28,59.39,28.93,59.39,39.58z" id="el_7tDMSAJXsn"/>
	</g>
	<path d="M40.09,39.57c6.75,0,13.23,0.37,19.27,1.06c0.02-0.35,0.03-0.69,0.03-1.05c0-10.66-8.64-19.3-19.3-19.3&#10;&#9;&#9;c-10.66,0-19.3,8.64-19.3,19.3c0,0.35,0.01,0.7,0.03,1.05C26.86,39.95,33.34,39.57,40.09,39.57z" id="el_XxbyDhozwK"/>
</g>
<g id="el_0o2ahUt71V_an_15a63omlW" data-animator-group="true" data-animator-type="0"><path id="el_0o2ahUt71V" d="M0.8,38.35c0.25-0.03,0.49-0.05,0.75-0.05c0.87,0,1.69,0.19,2.42,0.54C4.93,34.92,8.47,32,12.69,32&#10;&#9;c4.49,0,8.2,3.29,8.86,7.59c0.71-0.53,1.58-0.85,2.54-0.85c2.1,0,3.84,1.54,4.17,3.55L1.07,42.39c-0.91-0.09-1.66-0.68-1.88-1.45&#10;&#9;C-1.1,39.92-0.43,38.7,0.8,38.35z"/></g>
<g id="el_vkkwWaAR0p_an_twpqsHEDv" data-animator-group="true" data-animator-type="0"><path id="el_vkkwWaAR0p" d="M36.11,43.79c0.74,0,1.45,0.1,2.13,0.27c1.05-6.74,6.96-11.91,14.1-11.91&#10;&#9;c6.42,0,11.84,4.17,13.63,9.91c0.66-0.14,10.17,2.75,11.24,6.76c0.33-0.06,0.66-0.09,1-0.09c0.13,0,0.35,0.14,0.48,0.15&#10;&#9;c0.79,0.34,1.27,1.12,1.19,1.87c-0.1,0.94-1.06,1.72-2.17,1.59c-16.62,0.01-33.24,0.02-49.86,0.03c-0.01-0.15-0.01-0.29-0.01-0.44&#10;&#9;C27.84,47.44,31.54,43.79,36.11,43.79z"/></g>
</svg>