<svg version="1.1" id="el_GjgPXo29I" xmlns="http://www.w3.org/2000/svg" xmlns:xlink="http://www.w3.org/1999/xlink" x="0px" y="0px" viewBox="0 0 80 80" style="enable-background:new 0 0 80 80;" xml:space="preserve"><style>@-webkit-keyframes kf_el_U3E4GbbSbB_an_wymj3tKbR{0%{-webkit-transform: translate(40.05000114440918px, 40px) rotate(0deg) translate(-40.05000114440918px, -40px);transform: translate(40.05000114440918px, 40px) rotate(0deg) translate(-40.05000114440918px, -40px);}50%{-webkit-transform: translate(40.05000114440918px, 40px) rotate(180deg) translate(-40.05000114440918px, -40px);transform: translate(40.05000114440918px, 40px) rotate(180deg) translate(-40.05000114440918px, -40px);}100%{-webkit-transform: translate(40.05000114440918px, 40px) rotate(360deg) translate(-40.05000114440918px, -40px);transform: translate(40.05000114440918px, 40px) rotate(360deg) translate(-40.05000114440918px, -40px);}}@keyframes kf_el_U3E4GbbSbB_an_wymj3tKbR{0%{-webkit-transform: translate(40.05000114440918px, 40px) rotate(0deg) translate(-40.05000114440918px, -40px);transform: translate(40.05000114440918px, 40px) rotate(0deg) translate(-40.05000114440918px, -40px);}50%{-webkit-transform: translate(40.05000114440918px, 40px) rotate(180deg) translate(-40.05000114440918px, -40px);transform: translate(40.05000114440918px, 40px) rotate(180deg) translate(-40.05000114440918px, -40px);}100%{-webkit-transform: translate(40.05000114440918px, 40px) rotate(360deg) translate(-40.05000114440918px, -40px);transform: translate(40.05000114440918px, 40px) rotate(360deg) translate(-40.05000114440918px, -40px);}}#el_GjgPXo29I *{-webkit-animation-duration: 12s;animation-duration: 12s;-webkit-animation-iteration-count: infinite;animation-iteration-count: infinite;-webkit-animation-timing-function: cubic-bezier(0, 0, 1, 1);animation-timing-function: cubic-bezier(0, 0, 1, 1);}#el_6coMUVzWH7{fill: #AAF9F9;}#el_srVOXnPBok{fill: #FDAB07;}#el_1jfd8pPADe{fill: #FDAB07;}#el_naYwbxEzps{fill: #FDAB07;}#el__yzIoye7qb{fill: #FDAB07;}#el__4RiMA77WU{fill: #FDAB07;}#el_6UD0mmf2IZ{fill: #FDAB07;}#el_o99Chwgr3A{fill: #FDAB07;}#el_Jqprn_RWaM{fill: #FDAB07;}#el_BTfYYJRSZo{fill: #FDAB07;}#el_kDbYcvVqJ3{fill: #FDAB07;}#el_1e3OJScgqI{fill: #FDAB07;}#el_3Kl_w1rycm{fill: #FDAB07;}#el_GM5dBEII6B{fill: #FDAB07;}#el_U3E4GbbSbB_an_wymj3tKbR{-webkit-animation-fill-mode: backwards;animation-fill-mode: backwards;-webkit-transform: translate(40.05000114440918px, 40px) rotate(0deg) translate(-40.05000114440918px, -40px);transform: translate(40.05000114440918px, 40px) rotate(0deg) translate(-40.05000114440918px, -40px);-webkit-animation-name: kf_el_U3E4GbbSbB_an_wymj3tKbR;animation-name: kf_el_U3E4GbbSbB_an_wymj3tKbR;-webkit-animation-timing-function: cubic-bezier(0, 0, 1, 1);animation-timing-function: cubic-bezier(0, 0, 1, 1);}</style>

<path id="el_6coMUVzWH7" d="M80,40c0,22.1-17.9,40-40,40S0,62.1,0,40S17.9,0,40,0S80,17.9,80,40z"/>
<g id="el_U3E4GbbSbB_an_wymj3tKbR" data-animator-group="true" data-animator-type="1"><g id="el_U3E4GbbSbB">
	<path d="M67.1,38.2c1,0,1.8,0.8,1.8,1.8s-0.8,1.8-1.8,1.8H56.1c0.1-0.6,0.1-1.2,0.1-1.8s0-1.2-0.1-1.8H67.1z" id="el_srVOXnPBok"/>
	<path d="M12.9,41.8c-1,0-1.8-0.8-1.8-1.8s0.8-1.8,1.8-1.8h10.9c-0.1,0.6-0.1,1.2-0.1,1.8s0,1.2,0.1,1.8H12.9z" id="el_1jfd8pPADe"/>
	<path d="M30.2,52.9c1,0.7,2,1.4,3.2,1.9l-5.6,9.4c-0.3,0.6-1,0.9-1.6,0.9c-0.3,0-0.6-0.1-0.9-0.3&#10;&#9;&#9;c-0.9-0.5-1.2-1.7-0.6-2.5L30.2,52.9z" id="el_naYwbxEzps"/>
	<path d="M49.8,27.1c-1-0.7-2-1.4-3.2-1.9l5.6-9.4c0.5-0.9,1.7-1.2,2.5-0.6c0.9,0.5,1.2,1.7,0.6,2.5L49.8,27.1z" id="el__yzIoye7qb"/>
	<path d="M24.6,17.7c-0.5-0.9-0.2-2,0.6-2.5c0.9-0.5,2-0.2,2.5,0.6l5.6,9.4c-1.1,0.5-2.2,1.1-3.2,1.9L24.6,17.7z" id="el__4RiMA77WU"/>
	<path d="M55.4,62.3c0.5,0.9,0.2,2-0.6,2.5c-0.3,0.2-0.6,0.3-0.9,0.3c-0.6,0-1.2-0.3-1.6-0.9l-5.6-9.4&#10;&#9;&#9;c1.1-0.5,2.2-1.1,3.2-1.9L55.4,62.3z" id="el_6UD0mmf2IZ"/>
	<path d="M38.2,23.9V6.3c0-1,0.8-1.8,1.8-1.8s1.8,0.8,1.8,1.8v17.6c-0.6-0.1-1.2-0.1-1.8-0.1&#10;&#9;&#9;C39.4,23.8,38.8,23.8,38.2,23.9z" id="el_o99Chwgr3A"/>
	<path d="M41.8,56.1v17.6c0,1-0.8,1.8-1.8,1.8s-1.8-0.8-1.8-1.8V56.1c0.6,0.1,1.2,0.1,1.8,0.1&#10;&#9;&#9;C40.6,56.2,41.2,56.2,41.8,56.1z" id="el_Jqprn_RWaM"/>
	<path d="M54.9,46.5l15.3,8.9c0.9,0.5,1.2,1.6,0.7,2.5c-0.3,0.6-1,0.9-1.6,0.9c-0.3,0-0.6-0.1-0.9-0.3L53,49.7&#10;&#9;&#9;C53.7,48.7,54.4,47.6,54.9,46.5z" id="el_BTfYYJRSZo"/>
	<path d="M25.1,33.5L9.9,24.6C9,24.1,8.7,23,9.2,22.1c0.5-0.9,1.6-1.2,2.5-0.7L27,30.3C26.3,31.3,25.6,32.4,25.1,33.5z" id="el_kDbYcvVqJ3"/>
	<path d="M9.9,55.4l15.3-8.9c0.5,1.1,1.1,2.2,1.9,3.2l-15.3,8.9c-0.3,0.2-0.6,0.3-0.9,0.3c-0.6,0-1.3-0.3-1.6-0.9&#10;&#9;&#9;C8.7,57,9,55.9,9.9,55.4z" id="el_1e3OJScgqI"/>
	<path d="M70.1,24.6l-15.3,8.9c-0.5-1.1-1.1-2.2-1.9-3.2l15.3-8.9c0.9-0.5,2-0.2,2.5,0.7C71.3,23,71,24.1,70.1,24.6z" id="el_3Kl_w1rycm"/>
	<path d="M28.7,48.7c-0.8-1-1.4-2-1.9-3.2c-0.5-1.1-0.8-2.4-1-3.7c-0.1-0.6-0.1-1.2-0.1-1.8s0-1.2,0.1-1.8&#10;&#9;&#9;c0.2-1.3,0.5-2.5,1-3.7c0.5-1.1,1.1-2.2,1.9-3.2c0.7-0.9,1.5-1.8,2.5-2.5c1-0.8,2-1.4,3.2-1.9c1.2-0.5,2.5-0.9,3.8-1&#10;&#9;&#9;c0.6-0.1,1.2-0.1,1.8-0.1c0.6,0,1.2,0,1.8,0.1c1.3,0.2,2.6,0.5,3.8,1c1.1,0.5,2.2,1.1,3.2,1.9c0.9,0.7,1.7,1.6,2.5,2.5&#10;&#9;&#9;c0.8,1,1.4,2,1.9,3.2c0.5,1.1,0.8,2.4,1,3.7c0.1,0.6,0.1,1.2,0.1,1.8s0,1.2-0.1,1.8c-0.2,1.3-0.5,2.5-1,3.7&#10;&#9;&#9;c-0.5,1.1-1.1,2.2-1.9,3.2c-0.7,0.9-1.5,1.8-2.5,2.5c-1,0.8-2,1.4-3.2,1.9c-1.2,0.5-2.5,0.9-3.8,1c-0.6,0.1-1.2,0.1-1.8,0.1&#10;&#9;&#9;c-0.6,0-1.2,0-1.8-0.1c-1.3-0.2-2.6-0.5-3.8-1c-1.1-0.5-2.2-1.1-3.2-1.9C30.3,50.4,29.4,49.6,28.7,48.7z" id="el_GM5dBEII6B"/>
</g></g>
</svg>