<svg version="1.1" id="el_JpsNqQ5wc" xmlns="http://www.w3.org/2000/svg" xmlns:xlink="http://www.w3.org/1999/xlink" x="0px" y="0px" viewBox="0 0 80 80" style="enable-background:new 0 0 80 80;" xml:space="preserve"><style>@-webkit-keyframes kf_el_Bhu8Hgl8_VN_an_1hmKKh4a3{50%{-webkit-transform: translate(38.040000915527344px, 24.46000099182129px) translate(-38.040000915527344px, -24.46000099182129px) translate(60px, 0px);transform: translate(38.040000915527344px, 24.46000099182129px) translate(-38.040000915527344px, -24.46000099182129px) translate(60px, 0px);}100%{-webkit-transform: translate(38.040000915527344px, 24.46000099182129px) translate(-38.040000915527344px, -24.46000099182129px) translate(-80px, 0px);transform: translate(38.040000915527344px, 24.46000099182129px) translate(-38.040000915527344px, -24.46000099182129px) translate(-80px, 0px);}0%{-webkit-transform: translate(38.040000915527344px, 24.46000099182129px) translate(-38.040000915527344px, -24.46000099182129px) translate(60px, 0px);transform: translate(38.040000915527344px, 24.46000099182129px) translate(-38.040000915527344px, -24.46000099182129px) translate(60px, 0px);}}@keyframes kf_el_Bhu8Hgl8_VN_an_1hmKKh4a3{50%{-webkit-transform: translate(38.040000915527344px, 24.46000099182129px) translate(-38.040000915527344px, -24.46000099182129px) translate(60px, 0px);transform: translate(38.040000915527344px, 24.46000099182129px) translate(-38.040000915527344px, -24.46000099182129px) translate(60px, 0px);}100%{-webkit-transform: translate(38.040000915527344px, 24.46000099182129px) translate(-38.040000915527344px, -24.46000099182129px) translate(-80px, 0px);transform: translate(38.040000915527344px, 24.46000099182129px) translate(-38.040000915527344px, -24.46000099182129px) translate(-80px, 0px);}0%{-webkit-transform: translate(38.040000915527344px, 24.46000099182129px) translate(-38.040000915527344px, -24.46000099182129px) translate(60px, 0px);transform: translate(38.040000915527344px, 24.46000099182129px) translate(-38.040000915527344px, -24.46000099182129px) translate(60px, 0px);}}@-webkit-keyframes kf_el_iLQWU9k9R2C_an_EscpPWUqI{0%{-webkit-transform: translate(0.9500000476837158px, 20.150001525878906px) translate(-0.9500000476837158px, -20.150001525878906px) translate(80px, 0px);transform: translate(0.9500000476837158px, 20.150001525878906px) translate(-0.9500000476837158px, -20.150001525878906px) translate(80px, 0px);}50%{-webkit-transform: translate(0.9500000476837158px, 20.150001525878906px) translate(-0.9500000476837158px, -20.150001525878906px) translate(-35px, 0px);transform: translate(0.9500000476837158px, 20.150001525878906px) translate(-0.9500000476837158px, -20.150001525878906px) translate(-35px, 0px);}100%{-webkit-transform: translate(0.9500000476837158px, 20.150001525878906px) translate(-0.9500000476837158px, -20.150001525878906px) translate(-35px, 0px);transform: translate(0.9500000476837158px, 20.150001525878906px) translate(-0.9500000476837158px, -20.150001525878906px) translate(-35px, 0px);}}@keyframes kf_el_iLQWU9k9R2C_an_EscpPWUqI{0%{-webkit-transform: translate(0.9500000476837158px, 20.150001525878906px) translate(-0.9500000476837158px, -20.150001525878906px) translate(80px, 0px);transform: translate(0.9500000476837158px, 20.150001525878906px) translate(-0.9500000476837158px, -20.150001525878906px) translate(80px, 0px);}50%{-webkit-transform: translate(0.9500000476837158px, 20.150001525878906px) translate(-0.9500000476837158px, -20.150001525878906px) translate(-35px, 0px);transform: translate(0.9500000476837158px, 20.150001525878906px) translate(-0.9500000476837158px, -20.150001525878906px) translate(-35px, 0px);}100%{-webkit-transform: translate(0.9500000476837158px, 20.150001525878906px) translate(-0.9500000476837158px, -20.150001525878906px) translate(-35px, 0px);transform: translate(0.9500000476837158px, 20.150001525878906px) translate(-0.9500000476837158px, -20.150001525878906px) translate(-35px, 0px);}}#el_JpsNqQ5wc *{-webkit-animation-duration: 5s;animation-duration: 5s;-webkit-animation-iteration-count: infinite;animation-iteration-count: infinite;-webkit-animation-timing-function: cubic-bezier(0, 0, 1, 1);animation-timing-function: cubic-bezier(0, 0, 1, 1);}#el_46gWo8qjiI{fill: #A5DEF1;}#el_dgO7k9GDlR{display: none;fill: url(#soil1_1_);}#el_WDXTDDXjT7{fill: url(#soil2_1_);}#el__-ixdQlMJn{fill: #488FCC;}#el_eA23oNwqfy{fill: #F3F3F3;}#el_ZlkuVVZraU{fill: #F7F8F8;}#el_2mkB0TxZGX{fill: #488FCC;}#el_SD2nmddzGS{fill: #488FCC;}#el_maj0Kxwx2S{fill: #F3F3F3;}#el_SH5_oGba-L{fill: #F7F8F8;}#el_A1nVLrqe5L{fill: #488FCC;}#el_x-REozEOHL6{fill: #488FCC;}#el_BVX0kxb23RX{fill: #F3F3F3;}#el_oF3euxVMyP4{fill: #F7F8F8;}#el_AHzSev0HX6R{fill: #488FCC;}#el_Bhu8Hgl8_VN{opacity: 0.7;fill: #FFFFFF;enable-background: new;}#el_iLQWU9k9R2C{opacity: 0.7;fill: #FFFFFF;enable-background: new;}#el_lN7RHJo6beD{fill: #55853C;}#el_-_MYkZo_cyF{fill: #568D3F;}#el_9kJ4dyN0ycv{fill: #55853C;}#el_F6iOtzsIxm9{fill: #171A18;}#el_n3_WN-xm6Q6{fill: #010101;}#el_bpMKdNsNXYV{fill: #BDBEC0;}#el_exm5oTaktpd{fill: #8DB63F;}#el_1D50CaDUeE2{fill: #568D3F;}#el_1iM1FhpUNod{fill: #55853C;}#el_uvihrjHonx8{fill: #010101;}#el_duz8xfe099F{fill: #010101;}#el_ymEG_jx6nlG{fill: #010101;}#el_Q_HFu4JDWdM{fill: #010101;}#el_aFpAwUKL28n{fill: #568D3F;}#el_vnYqs2ZZQWD{fill: #232723;}#el_RJORKGFv4hM{fill: #3D5728;}#el_KzhIMFPKRn-{fill: #8DB63F;}#el_YQgt08X-9nn{fill: #55853C;}#el_GEB4VnhvFIX{fill: #568D3F;}#el_Kj1sQTFKwgp{fill: #8DB63F;}#el_bmCdWjmHRop{fill: #8DB63F;}#el_EneP-85TnqL{fill: #568D3F;}#el_tTg8rIMaTam{fill: #55853C;}#el_9pOpYu1P6uj{fill: #568D3F;}#el_RABKdVfcUSS{fill: #8DB63F;}#el_iLQWU9k9R2C_an_EscpPWUqI{-webkit-animation-fill-mode: backwards;animation-fill-mode: backwards;-webkit-transform: translate(0.9500000476837158px, 20.150001525878906px) translate(-0.9500000476837158px, -20.150001525878906px) translate(80px, 0px);transform: translate(0.9500000476837158px, 20.150001525878906px) translate(-0.9500000476837158px, -20.150001525878906px) translate(80px, 0px);-webkit-animation-name: kf_el_iLQWU9k9R2C_an_EscpPWUqI;animation-name: kf_el_iLQWU9k9R2C_an_EscpPWUqI;-webkit-animation-timing-function: cubic-bezier(0, 0, 1, 1);animation-timing-function: cubic-bezier(0, 0, 1, 1);}#el_Bhu8Hgl8_VN_an_1hmKKh4a3{-webkit-animation-fill-mode: backwards;animation-fill-mode: backwards;-webkit-transform: translate(38.040000915527344px, 24.46000099182129px) translate(-38.040000915527344px, -24.46000099182129px) translate(60px, 0px);transform: translate(38.040000915527344px, 24.46000099182129px) translate(-38.040000915527344px, -24.46000099182129px) translate(60px, 0px);-webkit-animation-name: kf_el_Bhu8Hgl8_VN_an_1hmKKh4a3;animation-name: kf_el_Bhu8Hgl8_VN_an_1hmKKh4a3;-webkit-animation-timing-function: cubic-bezier(0, 0, 1, 1);animation-timing-function: cubic-bezier(0, 0, 1, 1);}</style>

<g id="el_maBuylKmeG">
	<path id="el_46gWo8qjiI" d="M80,40c0,22.09-17.91,40-40,40S0,62.09,0,40S17.91,0,40,0S80,17.91,80,40z"/>
	
		<linearGradient id="soil1_1_" gradientUnits="userSpaceOnUse" x1="39.6261" y1="92.5375" x2="40.4971" y2="-32.2141" gradientTransform="matrix(1 0 0 -1 0 80)">
		<stop offset="0.3002" style="stop-color:#FBB36C"/>
		<stop offset="0.3997" style="stop-color:#E2A061"/>
		<stop offset="0.5869" style="stop-color:#B47B49"/>
		<stop offset="0.8395" style="stop-color:#764928"/>
		<stop offset="1" style="stop-color:#532D14"/>
	</linearGradient>
	<path id="el_dgO7k9GDlR" d="M0.03,41.01C0.56,62.63,18.25,80,40,80s39.44-17.37,39.97-38.99H0.03z"/>
	<g id="el_sxAQOPos6k">
		
			<radialGradient id="soil2_1_" cx="40" cy="19.495" r="41.6938" fx="39.2537" fy="19.2747" gradientTransform="matrix(1 0 0 -1 0 80)" gradientUnits="userSpaceOnUse">
			<stop offset="0.0582" style="stop-color:#3C2013"/>
			<stop offset="0.3783" style="stop-color:#522C18"/>
			<stop offset="1" style="stop-color:#7F401C"/>
		</radialGradient>
		<path id="el_WDXTDDXjT7" d="M0.03,41.01C0.56,62.63,18.25,80,40,80s39.44-17.37,39.97-38.99H0.03z"/>
		<g id="el_TIxf89o6xk">
			<path d="M38.17,73.5c-1.46,0-2.66-1.07-2.66-2.38c0-1.66,2.38-4.17,2.48-4.27l0.18-0.18l0.17,0.18&#10;&#9;&#9;&#9;&#9;c0.1,0.11,2.48,2.61,2.48,4.27C40.83,72.43,39.64,73.5,38.17,73.5z" id="el__-ixdQlMJn"/>
			<path d="M40.6,71.38c0,1.2-1.08,2.17-2.42,2.17c-1.34,0-2.42-0.98-2.42-2.17c0-1.6,2.42-4.14,2.42-4.14&#10;&#9;&#9;&#9;&#9;S40.6,69.78,40.6,71.38z" id="el_eA23oNwqfy"/>
			<path d="M40.6,71.12c0,1.2-1.08,2.17-2.42,2.17c-1.34,0-2.42-0.97-2.42-2.17c0-1.6,2.42-4.14,2.42-4.14&#10;&#9;&#9;&#9;&#9;S40.6,69.52,40.6,71.12z" id="el_ZlkuVVZraU"/>
			<path d="M38.17,72.89c-1.09,0-1.98-0.8-1.98-1.77c0-0.09,0.08-0.15,0.17-0.15c0.09,0,0.17,0.07,0.17,0.15&#10;&#9;&#9;&#9;&#9;c0,0.81,0.74,1.47,1.64,1.47c0.09,0,0.17,0.07,0.17,0.15C38.34,72.82,38.26,72.89,38.17,72.89z" id="el_2mkB0TxZGX"/>
		</g>
		<g id="el_C6gtpaaz-e">
			<path d="M69.33,50.38c-0.9,0-1.63-0.65-1.63-1.46c0-1.02,1.46-2.56,1.52-2.62l0.11-0.11l0.11,0.11&#10;&#9;&#9;&#9;&#9;c0.06,0.07,1.52,1.6,1.52,2.62C70.96,49.73,70.23,50.38,69.33,50.38z" id="el_SD2nmddzGS"/>
			<path d="M70.82,49.08c0,0.74-0.67,1.33-1.49,1.33s-1.49-0.6-1.49-1.33c0-0.98,1.49-2.54,1.49-2.54&#10;&#9;&#9;&#9;&#9;S70.82,48.1,70.82,49.08z" id="el_maj0Kxwx2S"/>
			<path d="M70.82,48.92c0,0.74-0.67,1.33-1.49,1.33s-1.49-0.6-1.49-1.33c0-0.98,1.49-2.54,1.49-2.54&#10;&#9;&#9;&#9;&#9;S70.82,47.94,70.82,48.92z" id="el_SH5_oGba-L"/>
			<path d="M69.33,50.01c-0.67,0-1.22-0.49-1.22-1.09c0-0.05,0.05-0.09,0.1-0.09c0.06,0,0.11,0.04,0.11,0.09&#10;&#9;&#9;&#9;&#9;c0,0.5,0.45,0.9,1,0.9c0.06,0,0.1,0.04,0.1,0.09C69.44,49.97,69.39,50.01,69.33,50.01z" id="el_A1nVLrqe5L"/>
		</g>
		<g id="el_odNFuKlGZC1">
			<path d="M10.6,49.37c-0.9,0-1.63-0.65-1.63-1.46c0-1.02,1.46-2.56,1.52-2.62l0.11-0.11l0.11,0.11&#10;&#9;&#9;&#9;&#9;c0.06,0.07,1.52,1.6,1.52,2.62C12.23,48.71,11.49,49.37,10.6,49.37z" id="el_x-REozEOHL6"/>
			<path d="M12.09,48.07c0,0.74-0.67,1.33-1.49,1.33s-1.49-0.6-1.49-1.33c0-0.98,1.49-2.54,1.49-2.54&#10;&#9;&#9;&#9;&#9;S12.09,47.09,12.09,48.07z" id="el_BVX0kxb23RX"/>
			<path d="M12.09,47.91c0,0.74-0.67,1.33-1.49,1.33s-1.49-0.6-1.49-1.33c0-0.98,1.49-2.54,1.49-2.54&#10;&#9;&#9;&#9;&#9;S12.09,46.93,12.09,47.91z" id="el_oF3euxVMyP4"/>
			<path d="M10.6,49c-0.67,0-1.22-0.49-1.22-1.09c0-0.05,0.05-0.09,0.1-0.09c0.06,0,0.11,0.04,0.11,0.09&#10;&#9;&#9;&#9;&#9;c0,0.5,0.45,0.9,1,0.9c0.06,0,0.1,0.04,0.1,0.09C10.7,48.96,10.66,49,10.6,49z" id="el_AHzSev0HX6R"/>
		</g>
	</g>
	<g id="el_Bhu8Hgl8_VN_an_1hmKKh4a3" data-animator-group="true" data-animator-type="0"><path id="el_Bhu8Hgl8_VN" d="M44.87,34.22c0.61,0,1.2,0.08,1.76,0.23c0.86-5.66,5.75-9.99,11.65-9.99c5.3,0,9.78,3.5,11.26,8.31&#10;&#9;&#9;c0.54-0.12,8.4,2.3,9.29,5.67c0.27-0.05,0.54-0.08,0.83-0.08c0.11,0,0.22,0,0.33,0.01v3.04H38.05c-0.01-0.12-0.01-0.25-0.01-0.37&#10;&#9;&#9;C38.04,37.27,41.09,34.22,44.87,34.22z"/></g>
	<g id="el_iLQWU9k9R2C_an_EscpPWUqI" data-animator-group="true" data-animator-type="0"><path id="el_iLQWU9k9R2C" d="M1.96,27.46c0.28-0.04,0.57-0.06,0.86-0.06c1,0,1.94,0.22,2.79,0.62c1.1-4.52,5.17-7.87,10.03-7.87&#10;&#9;&#9;c5.16,0,9.44,3.79,10.2,8.74c0.81-0.61,1.82-0.97,2.92-0.97c2.42,0,4.42,1.77,4.8,4.08L0.95,31.9L1.96,27.46z"/></g>
</g>
<g id="el_PC0Y3dlvWGd">
	<path d="M40.43,48.18c0.39-1.16,1.64-6.48,7.01-11.14c5.37-4.65,8.58-6.19,10.83-6.73c0,0-6.76,4.09-10.35,7.41&#10;&#9;&#9;c-5.94,5.49-7.26,12.38-7.26,12.38L40.43,48.18z" id="el_lN7RHJo6beD"/>
	<path d="M37.49,34.6c0.13-1.22,0.28-6.84,4.52-12.54c4.25-5.7,3.26-4.25,0.46-0.23c-4.62,6.63-4.34,13.91-4.34,13.91&#10;&#9;&#9;L37.49,34.6z" id="el_-_MYkZo_cyF"/>
	<path d="M37.75,49.66c-0.39-1.16-1.73-6.57-7.1-11.22s-4.07-2.64-0.48,0.69c5.94,5.49,7.31,11.61,7.31,11.61&#10;&#9;&#9;L37.75,49.66z" id="el_9kJ4dyN0ycv"/>
	<polygon points="55.9,53.3 63.61,53.42 65.78,50.48 63.33,52.26 54.67,51.79 49.8,56.57 39.71,57.77 34.47,54.19 &#10;&#9;&#9;27.35,55.87 21.3,52.16 14.88,52.88 20.84,53.26 27.55,58.57 34.04,57.09 49.19,67.49 50.21,72.5 50.9,67.59 59.01,66.06 &#10;&#9;&#9;50.4,65.79 42.99,59.95 52.2,58.27 &#9;" id="el_F6iOtzsIxm9"/>
	<polygon points="38.09,56.66 38.2,59.94 40.83,61.75 42.73,57.41 39.71,57.77 &#9;" id="el_n3_WN-xm6Q6"/>
	<path d="M29.92,38.63c0,0.81-0.66,1.47-1.47,1.47H25.7c-0.81,0-1.47-0.66-1.47-1.47l0,0c0-0.81,0.66-1.47,1.47-1.47&#10;&#9;&#9;h2.75C29.26,37.16,29.92,37.82,29.92,38.63L29.92,38.63z" id="el_bpMKdNsNXYV"/>
	<path d="M59.23,29.2c0,0-9.53,0.29-14.2,4.24c-5.36,4.53-3.57,11.85-3.57,11.85s2.89-1.48,9.38-7.05&#10;&#9;&#9;C55.48,34.25,59.23,29.2,59.23,29.2z" id="el_exm5oTaktpd"/>
	<path d="M20.71,30.22c0,0,8.55,1.16,12.31,4.96c5.77,5.82,3.39,10.88,3.39,10.88s-5.44,2.68-11.21-3.14&#10;&#9;&#9;C21.45,39.12,20.71,30.22,20.71,30.22z" id="el_1D50CaDUeE2"/>
	<path d="M40.81,47.99c-0.06-2.11-0.2-4.37-0.53-6.61c-0.16-1.12-0.37-2.23-0.62-3.32c-0.07-0.27-0.13-0.54-0.2-0.81&#10;&#9;&#9;c-0.03-0.13-0.06-0.27-0.1-0.4c-0.04-0.13-0.08-0.26-0.11-0.39c-0.07-0.26-0.15-0.52-0.22-0.78c-0.08-0.26-0.17-0.51-0.25-0.76&#10;&#9;&#9;c-0.66-2.02-1.54-3.8-2.34-5.28c-1.67-3.08-4.97-5.49-4.77-5.41c0.02,0.01-0.15,0.26,0.15,0.59c1.09,1.24,2.22,3.05,3.31,5.45&#10;&#9;&#9;c0.66,1.45,1.17,3.25,1.59,5.19c0.05,0.24,0.11,0.49,0.16,0.73c0.04,0.25,0.09,0.5,0.14,0.75c0.02,0.13,0.04,0.25,0.07,0.38&#10;&#9;&#9;c0.02,0.13,0.04,0.26,0.06,0.38c0.04,0.26,0.08,0.51,0.11,0.77c0.13,1.04,0.24,2.09,0.3,3.16c0.14,2.13,0.11,4.27,0.02,6.28&#10;&#9;&#9;c-0.1,2.01-0.27,3.89-0.45,5.51c-0.17,1.62-0.34,2.99-0.42,3.99c-0.02,0.25-0.08,1.04-0.09,1.19c-0.01,0.29,0,0.22,0,0.22&#10;&#9;&#9;l3.66,2.51c0,0,0.4-5.96,0.47-7.63C40.8,52.06,40.85,50.1,40.81,47.99z" id="el_1iM1FhpUNod"/>
	<polygon points="52.2,58.27 55.17,54.24 54.67,51.79 49.8,56.57 49.8,58.71 &#9;" id="el_uvihrjHonx8"/>
	<path d="M27.35,55.87c0,0,0.15,2.63,0.2,2.71l6.5-1.49l0.4-2.89L27.35,55.87z" id="el_duz8xfe099F"/>
	<polygon points="14.88,52.88 20.84,53.26 21.3,52.16 &#9;" id="el_ymEG_jx6nlG"/>
	<polygon points="51.13,67.55 59.01,66.06 50.4,65.79 &#9;" id="el_Q_HFu4JDWdM"/>
	<path d="M41.46,45.29c0,0,5.35,1.81,11.85-3.14c4.87-3.71,5.93-12.95,5.93-12.95C48.3,32.38,41.46,45.29,41.46,45.29z" id="el_aFpAwUKL28n"/>
	<polygon points="42.99,59.95 42.65,63 49.19,67.49 50.4,65.79 &#9;" id="el_vnYqs2ZZQWD"/>
	<path d="M38.04,59.82l2.24,1.53c0,0,0.07-0.87,0.11-1.53C39.99,60.29,38.66,60.21,38.04,59.82z" id="el_RJORKGFv4hM"/>
	<path d="M33.04,35.17c-3.76-3.8-12.31-4.96-12.31-4.96c1.33,0.91,10.98,6.4,15.71,15.84&#10;&#9;&#9;C36.43,46.06,38.8,41,33.04,35.17z" id="el_KzhIMFPKRn-"/>
	<path d="M34.15,18.84c-0.15-5.06,0.35,0.1,0.35,0.1c0.05,2.03,0.67,7.8,1.95,10.7l-1-0.48L34.15,18.84z" id="el_YQgt08X-9nn"/>
	<path d="M48.09,14.14c0,0-7.12,2.45-9.52,6.48c-3.07,5.15-0.27,9.05-0.27,9.05s4.52,1.04,7.9-4.25&#10;&#9;&#9;C48.72,21.47,48.09,14.14,48.09,14.14z" id="el_GEB4VnhvFIX"/>
	<path d="M48.09,14.14c0,0-7.12,2.45-9.52,6.48c-3.07,5.15-0.27,9.05-0.27,9.05C39.25,26.3,43.35,18.09,48.09,14.14z" id="el_Kj1sQTFKwgp"/>
	<path d="M21.89,17.35c0,0,1.97,3.83,4.63,5.74c4.07,2.93,6.07,1.94,6.07,1.94s1.3-3.08-2.77-6.01&#10;&#9;&#9;C27.17,17.12,21.89,17.35,21.89,17.35z" id="el_bmCdWjmHRop"/>
	<path d="M25.73,23.97c4.07,2.93,6.86,1.07,6.86,1.07c-1.77-2.9-6.99-6.99-10.7-7.69&#10;&#9;&#9;C21.89,17.35,23.08,22.05,25.73,23.97z" id="el_EneP-85TnqL"/>
	<path d="M35.44,29.16c0,0-1.14-5.26-1.29-10.32L35.44,29.16z" id="el_tTg8rIMaTam"/>
	<path d="M34.36,9.93c0,0-2.27,2.89-2.22,5.3c0.06,3.71,2.39,4.17,2.39,4.17s2.19-0.54,2.13-4.25&#10;&#9;&#9;C36.61,12.74,34.36,9.93,34.36,9.93z" id="el_9pOpYu1P6uj"/>
	<path d="M36.65,15.16c-0.04-2.42-2.29-5.23-2.29-5.23l0.16,9.47C34.52,19.4,36.72,18.86,36.65,15.16z" id="el_RABKdVfcUSS"/>
</g>
</svg>