<svg version="1.1" id="el_HThZMpLZ6" xmlns="http://www.w3.org/2000/svg" xmlns:xlink="http://www.w3.org/1999/xlink" x="0px" y="0px" viewBox="0 0 80 80" style="enable-background:new 0 0 80 80;" xml:space="preserve"><style>@-webkit-keyframes kf_el_Axb2suRLbhY_an_4gsjmUH7j{50%{-webkit-transform: translate(38.040000915527344px, 24.46000099182129px) translate(-38.040000915527344px, -24.46000099182129px) translate(60px, 0px);transform: translate(38.040000915527344px, 24.46000099182129px) translate(-38.040000915527344px, -24.46000099182129px) translate(60px, 0px);}100%{-webkit-transform: translate(38.040000915527344px, 24.46000099182129px) translate(-38.040000915527344px, -24.46000099182129px) translate(-80px, 0px);transform: translate(38.040000915527344px, 24.46000099182129px) translate(-38.040000915527344px, -24.46000099182129px) translate(-80px, 0px);}0%{-webkit-transform: translate(38.040000915527344px, 24.46000099182129px) translate(-38.040000915527344px, -24.46000099182129px) translate(60px, 0px);transform: translate(38.040000915527344px, 24.46000099182129px) translate(-38.040000915527344px, -24.46000099182129px) translate(60px, 0px);}}@keyframes kf_el_Axb2suRLbhY_an_4gsjmUH7j{50%{-webkit-transform: translate(38.040000915527344px, 24.46000099182129px) translate(-38.040000915527344px, -24.46000099182129px) translate(60px, 0px);transform: translate(38.040000915527344px, 24.46000099182129px) translate(-38.040000915527344px, -24.46000099182129px) translate(60px, 0px);}100%{-webkit-transform: translate(38.040000915527344px, 24.46000099182129px) translate(-38.040000915527344px, -24.46000099182129px) translate(-80px, 0px);transform: translate(38.040000915527344px, 24.46000099182129px) translate(-38.040000915527344px, -24.46000099182129px) translate(-80px, 0px);}0%{-webkit-transform: translate(38.040000915527344px, 24.46000099182129px) translate(-38.040000915527344px, -24.46000099182129px) translate(60px, 0px);transform: translate(38.040000915527344px, 24.46000099182129px) translate(-38.040000915527344px, -24.46000099182129px) translate(60px, 0px);}}@-webkit-keyframes kf_el_hLatVthLGhm_an_1Bc6rJVwg{0%{-webkit-transform: translate(0.9500000476837158px, 20.150001525878906px) translate(-0.9500000476837158px, -20.150001525878906px) translate(80px, 0px);transform: translate(0.9500000476837158px, 20.150001525878906px) translate(-0.9500000476837158px, -20.150001525878906px) translate(80px, 0px);}50%{-webkit-transform: translate(0.9500000476837158px, 20.150001525878906px) translate(-0.9500000476837158px, -20.150001525878906px) translate(-35px, 0px);transform: translate(0.9500000476837158px, 20.150001525878906px) translate(-0.9500000476837158px, -20.150001525878906px) translate(-35px, 0px);}100%{-webkit-transform: translate(0.9500000476837158px, 20.150001525878906px) translate(-0.9500000476837158px, -20.150001525878906px) translate(-35px, 0px);transform: translate(0.9500000476837158px, 20.150001525878906px) translate(-0.9500000476837158px, -20.150001525878906px) translate(-35px, 0px);}}@keyframes kf_el_hLatVthLGhm_an_1Bc6rJVwg{0%{-webkit-transform: translate(0.9500000476837158px, 20.150001525878906px) translate(-0.9500000476837158px, -20.150001525878906px) translate(80px, 0px);transform: translate(0.9500000476837158px, 20.150001525878906px) translate(-0.9500000476837158px, -20.150001525878906px) translate(80px, 0px);}50%{-webkit-transform: translate(0.9500000476837158px, 20.150001525878906px) translate(-0.9500000476837158px, -20.150001525878906px) translate(-35px, 0px);transform: translate(0.9500000476837158px, 20.150001525878906px) translate(-0.9500000476837158px, -20.150001525878906px) translate(-35px, 0px);}100%{-webkit-transform: translate(0.9500000476837158px, 20.150001525878906px) translate(-0.9500000476837158px, -20.150001525878906px) translate(-35px, 0px);transform: translate(0.9500000476837158px, 20.150001525878906px) translate(-0.9500000476837158px, -20.150001525878906px) translate(-35px, 0px);}}#el_HThZMpLZ6 *{-webkit-animation-duration: 5s;animation-duration: 5s;-webkit-animation-iteration-count: infinite;animation-iteration-count: infinite;-webkit-animation-timing-function: cubic-bezier(0, 0, 1, 1);animation-timing-function: cubic-bezier(0, 0, 1, 1);}#el_z8dyUvHgR4{fill: #A5DEF1;}#el_E-C-mA9tzu{fill: url(#soil1_1_);}#el_7dFFB9sxZn{display: none;}#el_QMQxQHFc8O{display: inline;fill: url(#soil2_1_);}#el_l4yh9GHEOB{display: inline;}#el_kq5uspRkVh{fill: #488FCC;}#el_jmK42SX2yo{fill: #F3F3F3;}#el_Ffe_TX6K6Jn{fill: #F7F8F8;}#el_plLuZ_6_zPy{fill: #488FCC;}#el_8udDT0--MIq{display: inline;}#el_9CrKSHVz0yR{fill: #488FCC;}#el_mDEvTIHigVe{fill: #F3F3F3;}#el_s6X95YzFoUE{fill: #F7F8F8;}#el_e3zTRVv3Lvk{fill: #488FCC;}#el_uRcEZ14ONSV{display: inline;}#el_wu58sB5n3uR{fill: #488FCC;}#el_-kLQ7RFFnJr{fill: #F3F3F3;}#el_6PJp7v6Y3Tb{fill: #F7F8F8;}#el_YzPBsMSYYW5{fill: #488FCC;}#el_kkcZ0Zrp3YF{display: none;}#el_PsHUAKHYqzv{display: inline;fill: url(#soil3_1_);}#el_n7kHaMMDoG6{display: inline;}#el_0Ntqn831Hqx{fill: #488FCC;}#el__dubPLTMlSO{fill: #F3F3F3;}#el_OkcOtyjzYQa{fill: #F7F8F8;}#el_RNqpsw4-_eg{fill: #488FCC;}#el_1ViNp_VszJu{display: inline;}#el_qDFU2i0smvz{fill: #488FCC;}#el_-LhMLOSB4W8{fill: #F3F3F3;}#el_LmLYf3UnJ1H{fill: #F7F8F8;}#el_TH0rG5x5Qjc{fill: #488FCC;}#el_0dZkojZbRNd{display: inline;}#el_IWbgsMSXqxO{fill: #488FCC;}#el_G109StaFXTv{fill: #F3F3F3;}#el_ssTKfwfwZIY{fill: #F7F8F8;}#el_zfERhYfFVE0{fill: #488FCC;}#el_Xor3r6Caie2{display: inline;}#el_JTGUnWDi5ua{fill: #488FCC;}#el_vMXfYEKQYz3{fill: #F3F3F3;}#el_CK_l1XIa6CV{fill: #F7F8F8;}#el_gN4lmX8ezbA{fill: #488FCC;}#el_CfLdWkibRyB{display: inline;}#el_H1ijgKyxRz0{fill: #F7F8F8;}#el_vJVde7qMpEH{display: inline;}#el_DfjPkTtJg16{fill: #F7F8F8;}#el_7MRS2IX_bHC{display: inline;}#el_w1QpwP7Cqxh{fill: #F7F8F8;}#el_Axb2suRLbhY{opacity: 0.7;fill: #FFFFFF;}#el_hLatVthLGhm{opacity: 0.7;fill: #FFFFFF;}#el_z7o-koNmpVi{fill: #55853C;}#el_M3gG8zWTKBs{fill: #568D3F;}#el_XDR2xENBiwV{fill: #55853C;}#el_COJInvyN-aO{fill: #171A18;}#el_f5pfLTfow44{fill: #010101;}#el_voeOKU4PwCM{fill: #BDBEC0;}#el_9kJk4ZC4uz3{fill: #8DB63F;}#el_xkTKjOpCG_N{fill: #568D3F;}#el_CO-4aGDQ-c-{fill: #55853C;}#el_iOBjyn6vQ_n{fill: #010101;}#el_hiPLATKDhoJ{fill: #010101;}#el_U2CPDxan6of{fill: #010101;}#el_ffBER9187OG{fill: #010101;}#el_qS2V5zzNd2U{fill: #568D3F;}#el_8LzSTg6Eybs{fill: #232723;}#el_NhbLb8JCiCA{fill: #3D5728;}#el_WiwhLwAV0P9{fill: #8DB63F;}#el_QR7Z3HApYiM{fill: #55853C;}#el_Pz5yTaDxUOI{fill: #568D3F;}#el_3Gh87GwyAcy{fill: #8DB63F;}#el_f5EZNBJRu_X{fill: #8DB63F;}#el_Mxaa7PXtLy7{fill: #568D3F;}#el_5o4mAqeVM7C{fill: #55853C;}#el_eUKbxtqfF1R{fill: #568D3F;}#el_PCw1JyKzoGs{fill: #8DB63F;}#el_hLatVthLGhm_an_1Bc6rJVwg{-webkit-animation-fill-mode: backwards;animation-fill-mode: backwards;-webkit-transform: translate(0.9500000476837158px, 20.150001525878906px) translate(-0.9500000476837158px, -20.150001525878906px) translate(80px, 0px);transform: translate(0.9500000476837158px, 20.150001525878906px) translate(-0.9500000476837158px, -20.150001525878906px) translate(80px, 0px);-webkit-animation-name: kf_el_hLatVthLGhm_an_1Bc6rJVwg;animation-name: kf_el_hLatVthLGhm_an_1Bc6rJVwg;-webkit-animation-timing-function: cubic-bezier(0, 0, 1, 1);animation-timing-function: cubic-bezier(0, 0, 1, 1);}#el_Axb2suRLbhY_an_4gsjmUH7j{-webkit-animation-fill-mode: backwards;animation-fill-mode: backwards;-webkit-transform: translate(38.040000915527344px, 24.46000099182129px) translate(-38.040000915527344px, -24.46000099182129px) translate(60px, 0px);transform: translate(38.040000915527344px, 24.46000099182129px) translate(-38.040000915527344px, -24.46000099182129px) translate(60px, 0px);-webkit-animation-name: kf_el_Axb2suRLbhY_an_4gsjmUH7j;animation-name: kf_el_Axb2suRLbhY_an_4gsjmUH7j;-webkit-animation-timing-function: cubic-bezier(0, 0, 1, 1);animation-timing-function: cubic-bezier(0, 0, 1, 1);}</style>

<g id="el_GsjW_MnM8S">
	<path id="el_z8dyUvHgR4" d="M80,40c0,22.09-17.91,40-40,40S0,62.09,0,40C0,17.91,17.91,0,40,0S80,17.91,80,40z"/>
	<linearGradient id="soil1_1_" gradientUnits="userSpaceOnUse" x1="39.6261" y1="-12.5375" x2="40.4971" y2="112.2141">
		<stop offset="0.3002" style="stop-color:#FBB36C"/>
		<stop offset="0.3997" style="stop-color:#E2A061"/>
		<stop offset="0.5869" style="stop-color:#B47B49"/>
		<stop offset="0.8395" style="stop-color:#764928"/>
		<stop offset="1" style="stop-color:#532D14"/>
	</linearGradient>
	<path id="el_E-C-mA9tzu" d="M0.03,41.01C0.56,62.63,18.25,80,40,80s39.44-17.37,39.97-38.99H0.03z"/>
	<g id="el_7dFFB9sxZn">
		<radialGradient id="soil2_1_" cx="40" cy="60.5063" r="41.6943" fx="39.2537" fy="60.286" gradientUnits="userSpaceOnUse">
			<stop offset="0.0582" style="stop-color:#3C2013"/>
			<stop offset="0.3783" style="stop-color:#522C18"/>
			<stop offset="1" style="stop-color:#7F401C"/>
		</radialGradient>
		<path id="el_QMQxQHFc8O" d="M0.03,41.01C0.56,62.63,18.25,80,40,80s39.44-17.37,39.97-38.99H0.03z"/>
		<g id="el_l4yh9GHEOB">
			<g id="el_UhkHcG1Syw">
				<g id="el_m1CVQje2sw">
					<path d="M38.17,73.5c-1.46,0-2.66-1.07-2.66-2.38c0-1.66,2.38-4.17,2.48-4.27l0.18-0.18l0.17,0.18&#10;&#9;&#9;&#9;&#9;&#9;&#9;c0.1,0.11,2.48,2.61,2.48,4.27C40.83,72.43,39.64,73.5,38.17,73.5z" id="el_kq5uspRkVh"/>
				</g>
			</g>
			<g id="el_chkznjA4tK">
				<g id="el_PX7JV412Ak">
					<g id="el_q7hrlCcwVc">
						<path d="M40.6,71.38c0,1.2-1.08,2.17-2.42,2.17c-1.34,0-2.42-0.98-2.42-2.17c0-1.6,2.42-4.14,2.42-4.14&#10;&#9;&#9;&#9;&#9;&#9;&#9;&#9;S40.6,69.78,40.6,71.38z" id="el_jmK42SX2yo"/>
					</g>
				</g>
			</g>
			<g id="el_-wg4Gch2rM">
				<g id="el_v_0gFydsx-">
					<path d="M40.6,71.12c0,1.2-1.08,2.17-2.42,2.17c-1.34,0-2.42-0.97-2.42-2.17c0-1.6,2.42-4.14,2.42-4.14&#10;&#9;&#9;&#9;&#9;&#9;&#9;S40.6,69.52,40.6,71.12z" id="el_Ffe_TX6K6Jn"/>
				</g>
			</g>
			<g id="el_KUQ8nX4Yu9p">
				<g id="el_5heIce7otNQ">
					<g id="el_yGM-feRrwWg">
						<path d="M38.17,72.89c-1.09,0-1.98-0.8-1.98-1.77c0-0.09,0.08-0.15,0.17-0.15c0.09,0,0.17,0.07,0.17,0.15&#10;&#9;&#9;&#9;&#9;&#9;&#9;&#9;c0,0.81,0.74,1.47,1.64,1.47c0.09,0,0.17,0.07,0.17,0.15C38.34,72.82,38.26,72.89,38.17,72.89z" id="el_plLuZ_6_zPy"/>
					</g>
				</g>
			</g>
		</g>
		<g id="el_8udDT0--MIq">
			<g id="el_vVFXS_9ATW-">
				<g id="el_ZDg1Zgjd1mV">
					<path d="M69.33,50.38c-0.9,0-1.63-0.65-1.63-1.46c0-1.02,1.46-2.56,1.52-2.62l0.11-0.11l0.11,0.11&#10;&#9;&#9;&#9;&#9;&#9;&#9;c0.06,0.07,1.52,1.6,1.52,2.62C70.96,49.73,70.23,50.38,69.33,50.38z" id="el_9CrKSHVz0yR"/>
				</g>
			</g>
			<g id="el_Kz3585oyd55">
				<g id="el_ll1VQAlkLU4">
					<g id="el_F1kNDEEHq_k">
						<path d="M70.82,49.08c0,0.74-0.67,1.33-1.49,1.33c-0.82,0-1.49-0.6-1.49-1.33c0-0.98,1.49-2.54,1.49-2.54&#10;&#9;&#9;&#9;&#9;&#9;&#9;&#9;S70.82,48.1,70.82,49.08z" id="el_mDEvTIHigVe"/>
					</g>
				</g>
			</g>
			<g id="el_0BjK0rR6ydO">
				<g id="el_gdw4pjD5vUN">
					<path d="M70.82,48.92c0,0.74-0.67,1.33-1.49,1.33c-0.82,0-1.49-0.6-1.49-1.33c0-0.98,1.49-2.54,1.49-2.54&#10;&#9;&#9;&#9;&#9;&#9;&#9;S70.82,47.94,70.82,48.92z" id="el_s6X95YzFoUE"/>
				</g>
			</g>
			<g id="el_2hiAVZHI_ko">
				<g id="el_VY4UMDYFXY5">
					<g id="el_MHrYc0qbnlq">
						<path d="M69.33,50.01c-0.67,0-1.22-0.49-1.22-1.09c0-0.05,0.05-0.09,0.1-0.09c0.06,0,0.11,0.04,0.11,0.09&#10;&#9;&#9;&#9;&#9;&#9;&#9;&#9;c0,0.5,0.45,0.9,1,0.9c0.06,0,0.1,0.04,0.1,0.09C69.44,49.97,69.39,50.01,69.33,50.01z" id="el_e3zTRVv3Lvk"/>
					</g>
				</g>
			</g>
		</g>
		<g id="el_uRcEZ14ONSV">
			<g id="el_z8yWsehYCHM">
				<g id="el_ORdNC88u9Xz">
					<path d="M10.6,49.37c-0.9,0-1.63-0.65-1.63-1.46c0-1.02,1.46-2.56,1.52-2.62l0.11-0.11l0.11,0.11&#10;&#9;&#9;&#9;&#9;&#9;&#9;c0.06,0.07,1.52,1.6,1.52,2.62C12.23,48.71,11.49,49.37,10.6,49.37z" id="el_wu58sB5n3uR"/>
				</g>
			</g>
			<g id="el_EBgzZbiME25">
				<g id="el_Sz2onMGVtKN">
					<g id="el_-A8ifkVA3yO">
						<path d="M12.09,48.07c0,0.74-0.67,1.33-1.49,1.33c-0.82,0-1.49-0.6-1.49-1.33c0-0.98,1.49-2.54,1.49-2.54&#10;&#9;&#9;&#9;&#9;&#9;&#9;&#9;S12.09,47.09,12.09,48.07z" id="el_-kLQ7RFFnJr"/>
					</g>
				</g>
			</g>
			<g id="el_SypGGdUlEfZ">
				<g id="el_tARgGH5_nyg">
					<path d="M12.09,47.91c0,0.74-0.67,1.33-1.49,1.33c-0.82,0-1.49-0.6-1.49-1.33c0-0.98,1.49-2.54,1.49-2.54&#10;&#9;&#9;&#9;&#9;&#9;&#9;S12.09,46.93,12.09,47.91z" id="el_6PJp7v6Y3Tb"/>
				</g>
			</g>
			<g id="el_ptnsJ6aIm3_">
				<g id="el_DAIXS5KHbTO">
					<g id="el_ehvdtbbNx1V">
						<path d="M10.6,49c-0.67,0-1.22-0.49-1.22-1.09c0-0.05,0.05-0.09,0.1-0.09c0.06,0,0.11,0.04,0.11,0.09&#10;&#9;&#9;&#9;&#9;&#9;&#9;&#9;c0,0.5,0.45,0.9,1,0.9c0.06,0,0.1,0.04,0.1,0.09C10.7,48.96,10.66,49,10.6,49z" id="el_YzPBsMSYYW5"/>
					</g>
				</g>
			</g>
		</g>
	</g>
	<g id="el_kkcZ0Zrp3YF">
		<linearGradient id="soil3_1_" gradientUnits="userSpaceOnUse" x1="39.6022" y1="-12.5165" x2="40.4458" y2="112.2068">
			<stop offset="0.3002" style="stop-color:#5B565F"/>
			<stop offset="0.3932" style="stop-color:#545058"/>
			<stop offset="0.5679" style="stop-color:#424045"/>
			<stop offset="0.8038" style="stop-color:#272629"/>
			<stop offset="1" style="stop-color:#010101"/>
		</linearGradient>
		<path id="el_PsHUAKHYqzv" d="M0.03,41.01C0.56,62.63,18.23,80,39.96,80s39.4-17.37,39.94-38.99H0.03z"/>
		<g id="el_n7kHaMMDoG6">
			<g id="el_KPc7tS6pC7H">
				<g id="el_ZNUSq9CvItp">
					<path d="M37.77,73.67c-2.84,0-5.15-2.07-5.15-4.62c0-3.21,4.61-8.08,4.81-8.28l0.34-0.35l0.34,0.35&#10;&#9;&#9;&#9;&#9;&#9;&#9;c0.2,0.21,4.81,5.07,4.81,8.28C42.92,71.6,40.61,73.67,37.77,73.67z" id="el_0Ntqn831Hqx"/>
				</g>
			</g>
			<g id="el_Us2C34q16D7">
				<g id="el_UgMXOb0K-Sw">
					<g id="el_W0Dobobq0na">
						<path d="M42.48,69.55c0,2.33-2.11,4.21-4.7,4.21c-2.6,0-4.7-1.89-4.7-4.21c0-3.1,4.7-8.02,4.7-8.02&#10;&#9;&#9;&#9;&#9;&#9;&#9;&#9;S42.48,66.45,42.48,69.55z" id="el__dubPLTMlSO"/>
					</g>
				</g>
			</g>
			<g id="el_P3necmgzMtd">
				<g id="el_nUEtB17XuOo">
					<path d="M42.48,69.05c0,2.33-2.11,4.21-4.7,4.21c-2.6,0-4.7-1.89-4.7-4.21c0-3.1,4.7-8.02,4.7-8.02&#10;&#9;&#9;&#9;&#9;&#9;&#9;S42.48,65.95,42.48,69.05z" id="el_OkcOtyjzYQa"/>
				</g>
			</g>
			<g id="el_R7MHL9DtMAO">
				<g id="el_rLKCqBqRi6b">
					<g id="el_L1D4Qqy1Lku">
						<path d="M37.77,72.5c-2.12,0-3.84-1.54-3.84-3.44c0-0.16,0.15-0.3,0.33-0.3c0.18,0,0.33,0.13,0.33,0.3&#10;&#9;&#9;&#9;&#9;&#9;&#9;&#9;c0,1.57,1.42,2.85,3.18,2.85c0.18,0,0.33,0.13,0.33,0.3C38.11,72.36,37.96,72.5,37.77,72.5z" id="el_RNqpsw4-_eg"/>
					</g>
				</g>
			</g>
		</g>
		<g id="el_1ViNp_VszJu">
			<g id="el_lQ8c62g9lOM">
				<g id="el_kZoKh6b8tXy">
					<path d="M13.55,51.47c-1.45,0-2.62-1.05-2.62-2.35c0-1.64,2.35-4.11,2.45-4.22l0.17-0.18l0.17,0.18&#10;&#9;&#9;&#9;&#9;&#9;&#9;c0.1,0.1,2.45,2.58,2.45,4.22C16.17,50.42,14.99,51.47,13.55,51.47z" id="el_qDFU2i0smvz"/>
				</g>
			</g>
			<g id="el_aI3ihTWIKbG">
				<g id="el_5R40CMsUWmd">
					<g id="el_hHHaGx0Suy4">
						<path d="M15.94,49.38c0,1.19-1.07,2.15-2.39,2.15c-1.32,0-2.39-0.96-2.39-2.15c0-1.58,2.39-4.09,2.39-4.09&#10;&#9;&#9;&#9;&#9;&#9;&#9;&#9;S15.94,47.8,15.94,49.38z" id="el_-LhMLOSB4W8"/>
					</g>
				</g>
			</g>
			<g id="el_bO6FIFGBAxs">
				<g id="el_bkW00qNvBLv">
					<path d="M15.94,49.12c0,1.18-1.07,2.14-2.39,2.14c-1.32,0-2.39-0.96-2.39-2.14c0-1.58,2.39-4.08,2.39-4.08&#10;&#9;&#9;&#9;&#9;&#9;&#9;S15.94,47.54,15.94,49.12z" id="el_LmLYf3UnJ1H"/>
				</g>
			</g>
			<g id="el_5YT9kC9Wd-a">
				<g id="el_DGspY-JCU5F">
					<g id="el_zDmei5_1X6g">
						<path d="M13.55,50.87c-1.08,0-1.96-0.79-1.96-1.75c0-0.08,0.08-0.15,0.17-0.15c0.09,0,0.17,0.07,0.17,0.15&#10;&#9;&#9;&#9;&#9;&#9;&#9;&#9;c0,0.8,0.72,1.45,1.62,1.45c0.09,0,0.17,0.07,0.17,0.15C13.72,50.81,13.64,50.87,13.55,50.87z" id="el_TH0rG5x5Qjc"/>
					</g>
				</g>
			</g>
		</g>
		<g id="el_0dZkojZbRNd">
			<g id="el_5JxLlef-l7w">
				<g id="el_wiUobbHAIOH">
					<path d="M54.61,50.4c-1.44,0-2.62-1.05-2.62-2.35c0-1.64,2.35-4.11,2.45-4.22l0.17-0.18l0.17,0.18&#10;&#9;&#9;&#9;&#9;&#9;&#9;c0.1,0.1,2.45,2.58,2.45,4.22C57.23,49.35,56.06,50.4,54.61,50.4z" id="el_IWbgsMSXqxO"/>
				</g>
			</g>
			<g id="el_a-BZ3n4hXBD">
				<g id="el_f41ax3XcKhq">
					<g id="el_tMRmzx7N4vq">
						<path d="M57.01,48.31c0,1.18-1.07,2.15-2.39,2.15c-1.32,0-2.39-0.96-2.39-2.15c0-1.58,2.39-4.09,2.39-4.09&#10;&#9;&#9;&#9;&#9;&#9;&#9;&#9;S57.01,46.73,57.01,48.31z" id="el_G109StaFXTv"/>
					</g>
				</g>
			</g>
			<g id="el_cHUo9J-TS9e">
				<g id="el_u2JQcRhzHWH">
					<path d="M57.01,48.06c0,1.19-1.07,2.15-2.39,2.15c-1.32,0-2.39-0.96-2.39-2.15c0-1.58,2.39-4.09,2.39-4.09&#10;&#9;&#9;&#9;&#9;&#9;&#9;S57.01,46.47,57.01,48.06z" id="el_ssTKfwfwZIY"/>
				</g>
			</g>
			<g id="el_eG5fHnFct_V">
				<g id="el_76Qh8bE-fKy">
					<g id="el_pRoQcddgd_C">
						<path d="M54.61,49.81c-1.08,0-1.96-0.79-1.96-1.75c0-0.08,0.08-0.15,0.17-0.15c0.09,0,0.17,0.07,0.17,0.15&#10;&#9;&#9;&#9;&#9;&#9;&#9;&#9;c0,0.8,0.73,1.45,1.62,1.45c0.09,0,0.17,0.07,0.17,0.15C54.78,49.74,54.7,49.81,54.61,49.81z" id="el_zfERhYfFVE0"/>
					</g>
				</g>
			</g>
		</g>
		<g id="el_Xor3r6Caie2">
			<g id="el_0PtGgU-YKj7">
				<g id="el_bh4uKJGmaWA">
					<path d="M70.38,48.58c-0.89,0-1.61-0.65-1.61-1.44c0-1.01,1.44-2.53,1.5-2.59l0.11-0.11l0.11,0.11&#10;&#9;&#9;&#9;&#9;&#9;&#9;c0.06,0.06,1.5,1.58,1.5,2.59C71.99,47.93,71.27,48.58,70.38,48.58z" id="el_JTGUnWDi5ua"/>
				</g>
			</g>
			<g id="el_LLHKrxA-atB">
				<g id="el_niuWn4LEzeK">
					<g id="el_Qv-e0-1w-0m">
						<path d="M71.85,47.29c0,0.73-0.66,1.32-1.47,1.32c-0.81,0-1.47-0.59-1.47-1.32c0-0.97,1.47-2.51,1.47-2.51&#10;&#9;&#9;&#9;&#9;&#9;&#9;&#9;S71.85,46.32,71.85,47.29z" id="el_vMXfYEKQYz3"/>
					</g>
				</g>
			</g>
			<g id="el_ie9cPRP-oBk">
				<g id="el_oM1NUA3d6_-">
					<path d="M71.85,47.14c0,0.73-0.66,1.32-1.47,1.32c-0.81,0-1.47-0.59-1.47-1.32c0-0.97,1.47-2.51,1.47-2.51&#10;&#9;&#9;&#9;&#9;&#9;&#9;S71.85,46.17,71.85,47.14z" id="el_CK_l1XIa6CV"/>
				</g>
			</g>
			<g id="el_2BWwDGMkkEy">
				<g id="el_rZEk-wGr5a_">
					<g id="el_7ttoySRxG3u">
						<path d="M70.38,48.21c-0.66,0-1.2-0.48-1.2-1.08c0-0.05,0.05-0.09,0.1-0.09c0.06,0,0.11,0.04,0.11,0.09&#10;&#9;&#9;&#9;&#9;&#9;&#9;&#9;c0,0.49,0.45,0.89,0.99,0.89c0.06,0,0.1,0.04,0.1,0.09C70.49,48.17,70.44,48.21,70.38,48.21z" id="el_gN4lmX8ezbA"/>
					</g>
				</g>
			</g>
		</g>
		<g id="el_CfLdWkibRyB">
			<g id="el_dIh8onVnB-_">
				<g id="el_S8cW6fZvLtf">
					<path d="M23.31,63.38c-0.59,0-1.14-0.23-1.56-0.65c-0.86-0.86-0.86-2.26,0-3.12c0.42-0.42,0.97-0.65,1.56-0.65&#10;&#9;&#9;&#9;&#9;&#9;&#9;c0.59,0,1.14,0.23,1.56,0.65c0.42,0.42,0.65,0.97,0.65,1.56c0,0.59-0.23,1.14-0.65,1.56C24.46,63.15,23.9,63.38,23.31,63.38z&#10;&#9;&#9;&#9;&#9;&#9;&#9; M23.31,59.35c-0.49,0-0.94,0.19-1.29,0.53c-0.71,0.71-0.71,1.87,0,2.58c0.35,0.34,0.8,0.54,1.29,0.54&#10;&#9;&#9;&#9;&#9;&#9;&#9;c0.49,0,0.95-0.19,1.29-0.54c0.35-0.34,0.53-0.8,0.53-1.29c0-0.49-0.19-0.95-0.53-1.29C24.26,59.54,23.8,59.35,23.31,59.35z" id="el_H1ijgKyxRz0"/>
				</g>
			</g>
		</g>
		<g id="el_vJVde7qMpEH">
			<g id="el_hnWJIJVMUIC">
				<g id="el_k7emrTGArE7">
					<path d="M29.03,50.27c-0.3,0-0.59-0.12-0.81-0.33c-0.44-0.44-0.44-1.17,0-1.61c0.22-0.21,0.5-0.33,0.81-0.33&#10;&#9;&#9;&#9;&#9;&#9;&#9;c0.3,0,0.59,0.12,0.8,0.33c0.21,0.21,0.33,0.5,0.33,0.8c0,0.3-0.12,0.59-0.33,0.8C29.62,50.15,29.33,50.27,29.03,50.27z&#10;&#9;&#9;&#9;&#9;&#9;&#9; M29.03,48.19c-0.25,0-0.49,0.1-0.67,0.27c-0.37,0.37-0.37,0.96,0,1.33c0.18,0.18,0.41,0.28,0.67,0.28&#10;&#9;&#9;&#9;&#9;&#9;&#9;c0.25,0,0.49-0.1,0.66-0.28c0.18-0.18,0.28-0.41,0.28-0.66c0-0.25-0.1-0.49-0.28-0.66C29.52,48.29,29.28,48.19,29.03,48.19z" id="el_DfjPkTtJg16"/>
				</g>
			</g>
		</g>
		<g id="el_7MRS2IX_bHC">
			<g id="el_DajrkOft-mb">
				<g id="el_zp6mm3CTrdg">
					<path d="M65.88,55.97c-0.3,0-0.59-0.12-0.8-0.33c-0.44-0.45-0.44-1.17,0-1.61c0.21-0.22,0.5-0.33,0.8-0.33&#10;&#9;&#9;&#9;&#9;&#9;&#9;c0.3,0,0.59,0.12,0.8,0.33c0.22,0.21,0.33,0.5,0.33,0.81c0,0.3-0.12,0.59-0.33,0.81C66.47,55.85,66.19,55.97,65.88,55.97z&#10;&#9;&#9;&#9;&#9;&#9;&#9; M65.88,53.89c-0.25,0-0.49,0.1-0.67,0.28c-0.37,0.37-0.37,0.96,0,1.33c0.18,0.18,0.41,0.28,0.67,0.28&#10;&#9;&#9;&#9;&#9;&#9;&#9;c0.25,0,0.49-0.1,0.66-0.28c0.18-0.18,0.28-0.41,0.28-0.66c0-0.25-0.1-0.49-0.28-0.67C66.37,53.98,66.13,53.89,65.88,53.89z" id="el_w1QpwP7Cqxh"/>
				</g>
			</g>
		</g>
	</g>
	<g id="el_Axb2suRLbhY_an_4gsjmUH7j" data-animator-group="true" data-animator-type="0"><path id="el_Axb2suRLbhY" d="M44.87,34.22c0.61,0,1.2,0.08,1.76,0.23c0.86-5.66,5.75-9.99,11.65-9.99c5.3,0,9.78,3.5,11.26,8.31&#10;&#9;&#9;c0.54-0.12,8.4,2.3,9.29,5.67c0.27-0.05,0.54-0.08,0.83-0.08c0.11,0,0.22,0,0.33,0.01v3.04H38.05c-0.01-0.12-0.01-0.25-0.01-0.37&#10;&#9;&#9;C38.04,37.27,41.09,34.22,44.87,34.22z"/></g>
	<g id="el_hLatVthLGhm_an_1Bc6rJVwg" data-animator-group="true" data-animator-type="0"><path id="el_hLatVthLGhm" d="M1.96,27.46c0.28-0.04,0.57-0.06,0.86-0.06c1,0,1.94,0.22,2.79,0.62c1.1-4.52,5.17-7.87,10.03-7.87&#10;&#9;&#9;c5.16,0,9.44,3.79,10.2,8.74c0.81-0.61,1.82-0.97,2.92-0.97c2.42,0,4.42,1.77,4.8,4.08L0.95,31.9L1.96,27.46z"/></g>
</g>
<g id="el_NU8t5HZGTzL">
	<path d="M40.43,48.18c0.39-1.16,1.64-6.48,7.01-11.14c5.37-4.65,8.58-6.19,10.83-6.73c0,0-6.76,4.09-10.35,7.41&#10;&#9;&#9;c-5.94,5.49-7.26,12.38-7.26,12.38L40.43,48.18z" id="el_z7o-koNmpVi"/>
	<path d="M37.49,34.6c0.13-1.22,0.28-6.84,4.52-12.54c4.25-5.7,3.26-4.25,0.46-0.23c-4.62,6.63-4.34,13.91-4.34,13.91&#10;&#9;&#9;L37.49,34.6z" id="el_M3gG8zWTKBs"/>
	<path d="M37.75,49.66c-0.39-1.16-1.73-6.57-7.1-11.22c-5.37-4.65-4.07-2.64-0.48,0.69&#10;&#9;&#9;c5.94,5.49,7.31,11.61,7.31,11.61L37.75,49.66z" id="el_XDR2xENBiwV"/>
	<polygon points="55.9,53.3 63.61,53.42 65.78,50.48 63.33,52.26 54.67,51.79 49.8,56.57 39.71,57.77 34.47,54.19 &#10;&#9;&#9;27.35,55.87 21.3,52.16 14.88,52.88 20.84,53.26 27.55,58.57 34.04,57.09 49.19,67.49 50.21,72.5 50.9,67.59 59.01,66.06 &#10;&#9;&#9;50.4,65.79 42.99,59.95 52.2,58.27 &#9;" id="el_COJInvyN-aO"/>
	<polygon points="38.09,56.66 38.2,59.94 40.83,61.75 42.73,57.41 39.71,57.77 &#9;" id="el_f5pfLTfow44"/>
	<path d="M29.92,38.63c0,0.81-0.66,1.47-1.47,1.47H25.7c-0.81,0-1.47-0.66-1.47-1.47l0,0c0-0.81,0.66-1.47,1.47-1.47&#10;&#9;&#9;h2.75C29.26,37.16,29.92,37.82,29.92,38.63L29.92,38.63z" id="el_voeOKU4PwCM"/>
	<path d="M59.23,29.2c0,0-9.53,0.29-14.2,4.24c-5.36,4.53-3.57,11.85-3.57,11.85s2.89-1.48,9.38-7.05&#10;&#9;&#9;C55.48,34.25,59.23,29.2,59.23,29.2z" id="el_9kJk4ZC4uz3"/>
	<path d="M20.71,30.22c0,0,8.55,1.16,12.31,4.96c5.77,5.82,3.39,10.88,3.39,10.88s-5.44,2.68-11.21-3.14&#10;&#9;&#9;C21.45,39.12,20.71,30.22,20.71,30.22z" id="el_xkTKjOpCG_N"/>
	<path d="M40.81,47.99c-0.06-2.11-0.2-4.37-0.53-6.61c-0.16-1.12-0.37-2.23-0.62-3.32c-0.07-0.27-0.13-0.54-0.2-0.81&#10;&#9;&#9;c-0.03-0.13-0.06-0.27-0.1-0.4c-0.04-0.13-0.08-0.26-0.11-0.39c-0.07-0.26-0.15-0.52-0.22-0.78c-0.08-0.26-0.17-0.51-0.25-0.76&#10;&#9;&#9;c-0.66-2.02-1.54-3.8-2.34-5.28c-1.67-3.08-4.97-5.49-4.77-5.41c0.02,0.01-0.15,0.26,0.15,0.59c1.09,1.24,2.22,3.05,3.31,5.45&#10;&#9;&#9;c0.66,1.45,1.17,3.25,1.59,5.19c0.05,0.24,0.11,0.49,0.16,0.73c0.04,0.25,0.09,0.5,0.14,0.75c0.02,0.13,0.04,0.25,0.07,0.38&#10;&#9;&#9;c0.02,0.13,0.04,0.26,0.06,0.38c0.04,0.26,0.08,0.51,0.11,0.77c0.13,1.04,0.24,2.09,0.3,3.16c0.14,2.13,0.11,4.27,0.02,6.28&#10;&#9;&#9;c-0.1,2.01-0.27,3.89-0.45,5.51c-0.17,1.62-0.34,2.99-0.42,3.99c-0.02,0.25-0.08,1.04-0.09,1.19c-0.01,0.29,0,0.22,0,0.22&#10;&#9;&#9;l3.66,2.51c0,0,0.4-5.96,0.47-7.63C40.8,52.06,40.85,50.1,40.81,47.99z" id="el_CO-4aGDQ-c-"/>
	<polygon points="52.2,58.27 55.17,54.24 54.67,51.79 49.8,56.57 49.8,58.71 &#9;" id="el_iOBjyn6vQ_n"/>
	<path d="M27.35,55.87c0,0,0.15,2.63,0.2,2.71l6.5-1.49l0.4-2.89L27.35,55.87z" id="el_hiPLATKDhoJ"/>
	<polygon points="14.88,52.88 20.84,53.26 21.3,52.16 &#9;" id="el_U2CPDxan6of"/>
	<polygon points="51.13,67.55 59.01,66.06 50.4,65.79 &#9;" id="el_ffBER9187OG"/>
	<path d="M41.46,45.29c0,0,5.35,1.81,11.85-3.14c4.87-3.71,5.93-12.95,5.93-12.95C48.3,32.38,41.46,45.29,41.46,45.29z&#10;&#9;&#9;" id="el_qS2V5zzNd2U"/>
	<polygon points="42.99,59.95 42.65,63 49.19,67.49 50.4,65.79 &#9;" id="el_8LzSTg6Eybs"/>
	<path d="M38.04,59.82l2.24,1.53c0,0,0.07-0.87,0.11-1.53C39.99,60.29,38.66,60.21,38.04,59.82z" id="el_NhbLb8JCiCA"/>
	<path d="M33.04,35.17c-3.76-3.8-12.31-4.96-12.31-4.96c1.33,0.91,10.98,6.4,15.71,15.84&#10;&#9;&#9;C36.43,46.06,38.8,41,33.04,35.17z" id="el_WiwhLwAV0P9"/>
	<path d="M34.15,18.84c-0.15-5.06,0.35,0.1,0.35,0.1c0.05,2.03,0.67,7.8,1.95,10.7l-1-0.48L34.15,18.84z" id="el_QR7Z3HApYiM"/>
	<path d="M48.09,14.14c0,0-7.12,2.45-9.52,6.48c-3.07,5.15-0.27,9.05-0.27,9.05s4.52,1.04,7.9-4.25&#10;&#9;&#9;C48.72,21.47,48.09,14.14,48.09,14.14z" id="el_Pz5yTaDxUOI"/>
	<path d="M48.09,14.14c0,0-7.12,2.45-9.52,6.48c-3.07,5.15-0.27,9.05-0.27,9.05C39.25,26.3,43.35,18.09,48.09,14.14z" id="el_3Gh87GwyAcy"/>
	<path d="M21.89,17.35c0,0,1.97,3.83,4.63,5.74c4.07,2.93,6.07,1.94,6.07,1.94s1.3-3.08-2.77-6.01&#10;&#9;&#9;C27.17,17.12,21.89,17.35,21.89,17.35z" id="el_f5EZNBJRu_X"/>
	<path d="M25.73,23.97c4.07,2.93,6.86,1.07,6.86,1.07c-1.77-2.9-6.99-6.99-10.7-7.69&#10;&#9;&#9;C21.89,17.35,23.08,22.05,25.73,23.97z" id="el_Mxaa7PXtLy7"/>
	<path d="M35.44,29.16c0,0-1.14-5.26-1.29-10.32L35.44,29.16z" id="el_5o4mAqeVM7C"/>
	<path d="M34.36,9.93c0,0-2.27,2.89-2.22,5.3c0.06,3.71,2.39,4.17,2.39,4.17s2.19-0.54,2.13-4.25&#10;&#9;&#9;C36.61,12.74,34.36,9.93,34.36,9.93z" id="el_eUKbxtqfF1R"/>
	<path d="M36.65,15.16c-0.04-2.42-2.29-5.23-2.29-5.23l0.16,9.47C34.52,19.4,36.72,18.86,36.65,15.16z" id="el_PCw1JyKzoGs"/>
</g>
</svg>