<svg version="1.1" id="el_i-HtZxYTm" xmlns="http://www.w3.org/2000/svg" xmlns:xlink="http://www.w3.org/1999/xlink" x="0px" y="0px" viewBox="0 0 80 80" style="enable-background:new 0 0 80 80;" xml:space="preserve"><style>@-webkit-keyframes kf_el_OtpGw5w5D1_an_Gf_Yp1HxL{0%{-webkit-transform: translate(0.800000011920929px, 23.740001678466797px) translate(-0.800000011920929px, -23.740001678466797px) translate(80px, 0px);transform: translate(0.800000011920929px, 23.740001678466797px) translate(-0.800000011920929px, -23.740001678466797px) translate(80px, 0px);}50%{-webkit-transform: translate(0.800000011920929px, 23.740001678466797px) translate(-0.800000011920929px, -23.740001678466797px) translate(-35px, 0px);transform: translate(0.800000011920929px, 23.740001678466797px) translate(-0.800000011920929px, -23.740001678466797px) translate(-35px, 0px);}100%{-webkit-transform: translate(0.800000011920929px, 23.740001678466797px) translate(-0.800000011920929px, -23.740001678466797px) translate(-35px, 0px);transform: translate(0.800000011920929px, 23.740001678466797px) translate(-0.800000011920929px, -23.740001678466797px) translate(-35px, 0px);}}@keyframes kf_el_OtpGw5w5D1_an_Gf_Yp1HxL{0%{-webkit-transform: translate(0.800000011920929px, 23.740001678466797px) translate(-0.800000011920929px, -23.740001678466797px) translate(80px, 0px);transform: translate(0.800000011920929px, 23.740001678466797px) translate(-0.800000011920929px, -23.740001678466797px) translate(80px, 0px);}50%{-webkit-transform: translate(0.800000011920929px, 23.740001678466797px) translate(-0.800000011920929px, -23.740001678466797px) translate(-35px, 0px);transform: translate(0.800000011920929px, 23.740001678466797px) translate(-0.800000011920929px, -23.740001678466797px) translate(-35px, 0px);}100%{-webkit-transform: translate(0.800000011920929px, 23.740001678466797px) translate(-0.800000011920929px, -23.740001678466797px) translate(-35px, 0px);transform: translate(0.800000011920929px, 23.740001678466797px) translate(-0.800000011920929px, -23.740001678466797px) translate(-35px, 0px);}}@-webkit-keyframes kf_el_VWMZgDMPre_an_sDp1dNGcg{0%{-webkit-transform: translate(43.610008239746094px, 38.62999725341797px) translate(-43.610008239746094px, -38.62999725341797px) translate(35px, 0px);transform: translate(43.610008239746094px, 38.62999725341797px) translate(-43.610008239746094px, -38.62999725341797px) translate(35px, 0px);}50%{-webkit-transform: translate(43.610008239746094px, 38.62999725341797px) translate(-43.610008239746094px, -38.62999725341797px) translate(35px, 0px);transform: translate(43.610008239746094px, 38.62999725341797px) translate(-43.610008239746094px, -38.62999725341797px) translate(35px, 0px);}100%{-webkit-transform: translate(43.610008239746094px, 38.62999725341797px) translate(-43.610008239746094px, -38.62999725341797px) translate(-80px, 0px);transform: translate(43.610008239746094px, 38.62999725341797px) translate(-43.610008239746094px, -38.62999725341797px) translate(-80px, 0px);}}@keyframes kf_el_VWMZgDMPre_an_sDp1dNGcg{0%{-webkit-transform: translate(43.610008239746094px, 38.62999725341797px) translate(-43.610008239746094px, -38.62999725341797px) translate(35px, 0px);transform: translate(43.610008239746094px, 38.62999725341797px) translate(-43.610008239746094px, -38.62999725341797px) translate(35px, 0px);}50%{-webkit-transform: translate(43.610008239746094px, 38.62999725341797px) translate(-43.610008239746094px, -38.62999725341797px) translate(35px, 0px);transform: translate(43.610008239746094px, 38.62999725341797px) translate(-43.610008239746094px, -38.62999725341797px) translate(35px, 0px);}100%{-webkit-transform: translate(43.610008239746094px, 38.62999725341797px) translate(-43.610008239746094px, -38.62999725341797px) translate(-80px, 0px);transform: translate(43.610008239746094px, 38.62999725341797px) translate(-43.610008239746094px, -38.62999725341797px) translate(-80px, 0px);}}#el_i-HtZxYTm *{-webkit-animation-duration: 5s;animation-duration: 5s;-webkit-animation-iteration-count: infinite;animation-iteration-count: infinite;-webkit-animation-timing-function: cubic-bezier(0, 0, 1, 1);animation-timing-function: cubic-bezier(0, 0, 1, 1);}#el_4A52Tc-Y0E{fill: #A5DEF1;}#el_OtpGw5w5D1{opacity: 0.7;fill: #FFFFFF;}#el_VWMZgDMPre{opacity: 0.7;fill: #FFFFFF;}#el_KBhM4oPgWW{fill: #A3BAD4;}#el__Iw-YFiVrb{fill: #A3BAD4;}#el_ACUrps9dlj{fill: #A3BAD4;}#el_n_TPUMkZ3E{fill: #A3BAD4;}#el_UxB0igve58{fill: #CBE1F5;}#el_S1a6w-YuCz{fill: #CBE1F5;}#el_U1IFJsg5di{fill: #127DC2;}#el_ubd0aHlrPs{fill: #CBE1F5;}#el_F-BUTWqJBq{fill: #CBE1F5;}#el_aQMcK_A4Ar-{fill: #4999D4;}#el_Y3Prs-hpkJL{fill: #4999D4;}#el_tSvVCheLYYk{opacity: 0.2;fill: #BCD8F1;}#el_IazHeKgXojJ{fill: #A3BAD4;}#el_BtFNf2zakLs{fill: #A3BAD4;}#el_LFDhNIW5TE7{fill: #A3BAD4;}#el_vFPQmUvNB1V{fill: #A3BAD4;}#el_4raVjusketm{fill: #CBE1F5;}#el_CMo4owqB3YI{fill: #CBE1F5;}#el_7akvox5bkMp{fill: #256733;}#el_f1Zysq1cBGa{fill: #CBE1F5;}#el_Zo338oiFVBN{fill: #CBE1F5;}#el_5Z6lYVyy4BO{fill: #3FB549;}#el_5K1xe7HHTHs{fill: #3FB549;}#el_MCEGRn6AcyP{opacity: 0.2;fill: #BCD8F1;}#el_LDQSZs5KzKv{fill: #A3BAD4;}#el_J4ooxOdDYNf{fill: #A3BAD4;}#el_CJ6ktCscOkj{fill: #A3BAD4;}#el_0pxNLTribIL{fill: #A3BAD4;}#el_yWS-tNmLIRD{fill: #CBE1F5;}#el_SiWyL2INTCO{fill: #CBE1F5;}#el_qMCakkWsoXU{fill: #A01D21;}#el_KLm51a81osA{fill: #CBE1F5;}#el_9VesjGO8xTg{fill: #CBE1F5;}#el_8thX8hgm5LC{fill: #E43C25;}#el_f_koQtKGBOo{fill: #E43C25;}#el_MjbEx6VDHN8{opacity: 0.2;fill: #BCD8F1;}#el_OtpGw5w5D1_an_WMV54HWv_{-webkit-transform: translate(0.800000011920929px, 23.740001678466797px) translate(-0.800000011920929px, -23.740001678466797px) translate(-30px, 0px);transform: translate(0.800000011920929px, 23.740001678466797px) translate(-0.800000011920929px, -23.740001678466797px) translate(-30px, 0px);}#el_VWMZgDMPre_an_sDp1dNGcg{-webkit-animation-fill-mode: backwards;animation-fill-mode: backwards;-webkit-transform: translate(43.610008239746094px, 38.62999725341797px) translate(-43.610008239746094px, -38.62999725341797px) translate(35px, 0px);transform: translate(43.610008239746094px, 38.62999725341797px) translate(-43.610008239746094px, -38.62999725341797px) translate(35px, 0px);-webkit-animation-name: kf_el_VWMZgDMPre_an_sDp1dNGcg;animation-name: kf_el_VWMZgDMPre_an_sDp1dNGcg;-webkit-animation-timing-function: cubic-bezier(0.42, 0, 1, 1);animation-timing-function: cubic-bezier(0.42, 0, 1, 1);}#el_OtpGw5w5D1_an_fKk_od29a{-webkit-transform: translate(0.800000011920929px, 23.740001678466797px) translate(-0.800000011920929px, -23.740001678466797px) translate(-30px, 0px);transform: translate(0.800000011920929px, 23.740001678466797px) translate(-0.800000011920929px, -23.740001678466797px) translate(-30px, 0px);}#el_OtpGw5w5D1_an_Gf_Yp1HxL{-webkit-animation-fill-mode: backwards;animation-fill-mode: backwards;-webkit-transform: translate(0.800000011920929px, 23.740001678466797px) translate(-0.800000011920929px, -23.740001678466797px) translate(80px, 0px);transform: translate(0.800000011920929px, 23.740001678466797px) translate(-0.800000011920929px, -23.740001678466797px) translate(80px, 0px);-webkit-animation-name: kf_el_OtpGw5w5D1_an_Gf_Yp1HxL;animation-name: kf_el_OtpGw5w5D1_an_Gf_Yp1HxL;-webkit-animation-timing-function: cubic-bezier(0, 0, 1, 1);animation-timing-function: cubic-bezier(0, 0, 1, 1);}#el_J0dEpOQtmSx{visibility: hidden;}#el_umFD6N4TpfK{visibility: hidden;}</style>

<path id="el_4A52Tc-Y0E" d="M79.5,40c0,21.81-17.68,39.5-39.5,39.5S0.5,61.81,0.5,40C0.5,18.18,18.18,0.5,40,0.5&#10;&#9;S79.5,18.18,79.5,40z"/>
<g id="el_OtpGw5w5D1_an_Gf_Yp1HxL" data-animator-group="true" data-animator-type="0"><path id="el_OtpGw5w5D1" d="M1.55,30.77c0.27-0.04,0.55-0.06,0.83-0.06c0.96,0,1.87,0.22,2.68,0.6&#10;&#9;c1.06-4.35,4.98-7.57,9.65-7.57c4.97,0,9.08,3.65,9.82,8.41c0.78-0.59,1.75-0.94,2.81-0.94c2.33,0,4.26,1.7,4.62,3.93L0.8,35.25&#10;&#9;L1.55,30.77z"/></g>
<g id="el_VWMZgDMPre_an_sDp1dNGcg" data-animator-group="true" data-animator-type="0"><path id="el_VWMZgDMPre" d="M49.23,46.54c0.5,0,0.99,0.07,1.45,0.19c0.71-4.59,4.73-8.1,9.59-8.1c4.36,0,8.05,2.84,9.27,6.74&#10;&#9;c0.45-0.1,6.92,1.87,7.65,4.6c0.22-0.04,0.45-0.06,0.68-0.06c0.09,0,0.24,0.1,0.33,0.1l-0.67,2.35l-33.91,0.02&#10;&#9;c-0.01-0.1-0.01-0.2-0.01-0.3C43.61,49.02,46.13,46.54,49.23,46.54z"/></g>
<g id="el_EnYREQ8eQj">
	<g id="el_gKJeEOzL-j">
		<path d="M52.09,40.49c0,0.26-0.15,0.48-0.34,0.48h-1.68c-0.19,0-0.34-0.22-0.34-0.48l0,0c0-0.26,0.15-0.48,0.34-0.48&#10;&#9;&#9;&#9;h1.68C51.94,40.01,52.09,40.22,52.09,40.49L52.09,40.49z" id="el_KBhM4oPgWW"/>
		<path d="M52.09,31.53c0,0.26-0.15,0.48-0.34,0.48h-1.68c-0.19,0-0.34-0.21-0.34-0.48l0,0c0-0.27,0.15-0.48,0.34-0.48&#10;&#9;&#9;&#9;h1.68C51.94,31.05,52.09,31.26,52.09,31.53L52.09,31.53z" id="el__Iw-YFiVrb"/>
		<path d="M52.09,22.65c0,0.26-0.15,0.48-0.34,0.48h-1.68c-0.19,0-0.34-0.21-0.34-0.48l0,0c0-0.26,0.15-0.48,0.34-0.48&#10;&#9;&#9;&#9;h1.68C51.94,22.17,52.09,22.39,52.09,22.65L52.09,22.65z" id="el_ACUrps9dlj"/>
	</g>
	<path d="M47.93,44.78V21.84c0-4.34-3.56-7.87-7.93-7.87c-4.37,0-7.93,3.53-7.93,7.87v22.94&#10;&#9;&#9;c-2.87,2.35-4.57,5.88-4.57,9.57c0,6.84,5.61,12.4,12.5,12.4c6.89,0,12.5-5.56,12.5-12.4C52.5,50.65,50.8,47.13,47.93,44.78z" id="el_n_TPUMkZ3E"/>
	<path d="M47.93,44.06V21.12c0-4.34-3.56-7.87-7.93-7.87c-4.37,0-7.93,3.53-7.93,7.87v22.94&#10;&#9;&#9;c-2.87,2.35-4.57,5.88-4.57,9.57c0,6.84,5.61,12.4,12.5,12.4c6.89,0,12.5-5.56,12.5-12.4C52.5,49.94,50.8,46.41,47.93,44.06z" id="el_UxB0igve58"/>
	<path d="M52.09,40.27c0,0.26-0.15,0.48-0.34,0.48h-1.68c-0.19,0-0.34-0.21-0.34-0.48l0,0c0-0.26,0.15-0.48,0.34-0.48&#10;&#9;&#9;h1.68C51.94,39.79,52.09,40.01,52.09,40.27L52.09,40.27z" id="el_S1a6w-YuCz"/>
	<path d="M46.78,45.69l-0.51-0.42V45H33.73v0.28l-0.51,0.42c-2.45,2-3.91,5.06-3.91,8.19c0,5.85,4.8,10.61,10.69,10.61&#10;&#9;&#9;c5.9,0,10.69-4.76,10.69-10.61C50.69,50.75,49.23,47.69,46.78,45.69z" id="el_U1IFJsg5di"/>
	<path d="M52.09,31.39c0,0.26-0.15,0.48-0.34,0.48h-1.68c-0.19,0-0.34-0.21-0.34-0.48l0,0c0-0.26,0.15-0.48,0.34-0.48&#10;&#9;&#9;h1.68C51.94,30.91,52.09,31.13,52.09,31.39L52.09,31.39z" id="el_ubd0aHlrPs"/>
	<path d="M52.09,22.51c0,0.26-0.15,0.48-0.34,0.48h-1.68c-0.19,0-0.34-0.21-0.34-0.48l0,0c0-0.26,0.15-0.48,0.34-0.48&#10;&#9;&#9;h1.68C51.94,22.03,52.09,22.25,52.09,22.51L52.09,22.51z" id="el_F-BUTWqJBq"/>
	<g id="el_hRzUP39pA6">
		<path d="M46.27,43v-0.64v-0.05c0-0.38-0.32-0.69-0.7-0.69H34.42c-0.38,0-0.7,0.31-0.7,0.69v0.05V43H46.27z" id="el_aQMcK_A4Ar-"/>
		<path d="M46.78,45l-0.51-0.42V43H33.73v1.58L33.22,45c-2.45,2-3.91,5.06-3.91,8.19c0,5.85,4.8,10.61,10.69,10.61&#10;&#9;&#9;&#9;c5.9,0,10.69-4.76,10.69-10.61C50.69,50.06,49.23,47,46.78,45z" id="el_Y3Prs-hpkJL"/>
	</g>
	<path d="M40,35.38c2.61,0,5.17,0.12,7.67,0.35V21.74c0-4.2-3.44-7.62-7.67-7.62c-4.23,0-7.67,3.42-7.67,7.62v13.99&#10;&#9;&#9;C34.83,35.5,37.39,35.38,40,35.38z" id="el_tSvVCheLYYk"/>
</g>


</svg>