<?xml version="1.0" encoding="utf-8"?>
<!-- Generator: Adobe Illustrator 16.0.0, SVG Export Plug-In . SVG Version: 6.00 Build 0)  -->
<!DOCTYPE svg PUBLIC "-//W3C//DTD SVG 1.1//EN" "http://www.w3.org/Graphics/SVG/1.1/DTD/svg11.dtd">
<svg version="1.1" id="Layer_1" xmlns="http://www.w3.org/2000/svg" xmlns:xlink="http://www.w3.org/1999/xlink" x="0px" y="0px"
	 width="150px" height="150px" viewBox="0 0 150 150" enable-background="new 0 0 150 150" xml:space="preserve">
<g>
	<g>
		<path fill="#1A1718" d="M-997.6,361.3c3.4,1.1,7.6,1.8,11.9,2.1c-21.9,19.1-53.9,37.6-89.7,51.2c-3.2,1.2-6.6,2.4-9.8,3.2
			c-2,0.5-3.9,0.8-5.7,0.8c-4.8,0.1-7.2-1.8-6.9-4.3c0.3-2.5,2.9-5.4,6.1-8.2c12.4-10.8,33.4-19.7,53.4-27.5
			C-1024.6,373.2-1010.2,367.6-997.6,361.3z"/>
	</g>
	<g>
		<path fill="#1A1718" d="M-958.2,352.1c57.7-2.8,118.8-2.2,170,2.1c7.3,0.6,15,1.4,17.6,2.8c2.3,1.2-0.1,2.7-4.7,3.8
			c-0.7,0.2-1.6,0.3-2.4,0.5c-6.2,1.2-14.7,1.8-23,2.2c-32.5,1.5-64.8-0.5-94-2.7c-20.2-1.5-40.9-3.2-62.6-3.9
			C-956.4,355.3-956.7,353.7-958.2,352.1z"/>
	</g>
	<g>
		<path fill="#1A1718" d="M-1080,288.5c2.8-0.7,7.6-0.3,12.3,0.8c5.9,1.3,11.8,3.6,16.9,6c20,9.2,31.2,20.1,40.4,30.2
			c6.4,7,12.6,14.2,21.7,21.2c-2.2,0.2-4.3,0.6-6.3,1.1c-1.9,0.4-3.5,1-4.9,1.5c-35.7-16.4-64.7-35.4-80-53.3
			c-2.2-2.6-4.1-5.3-2-6.8C-1081.2,288.9-1080.7,288.7-1080,288.5z"/>
	</g>
	<path fill="#1A1718" d="M-965.9,353.1c-0.4-0.4-1-0.9-1.8-1.3c-4.1-2.2-11.6-3-18.3-2.3c-1.5,0.2-2.9,0.4-4.2,0.7
		c-1.2,0.3-2.3,0.6-3.2,1c-3.8,1.6-5,3.8-2.9,5.7h0l4.1,3.8h0c0.3,0.3,0.7,0.6,1.2,0.8c0.5,0.3,1.2,0.5,1.9,0.8
		c1.7,0.5,3.7,0.9,5.8,1c3,0.2,6.1,0,8.8-0.6c2.3-0.6,3.9-1.3,4.7-2.2l0,0l3.6-3.2c0,0,0,0,0,0l0.3-0.3h0c0.2-0.2,0.5-0.5,0.6-0.7
		C-964.8,355.2-964.9,354.1-965.9,353.1z"/>
	<path fill="#1A1718" d="M-952.3,299.2c-0.8-0.9-2-1.7-3.5-2.5c-7.8-4.1-22-5.7-34.6-4.3c-2.8,0.3-5.4,0.7-7.9,1.3
		c-2.3,0.6-4.3,1.2-6.1,1.9c-7.2,3-9.4,7.2-5.5,10.9h0l7.8,7.1l0.1,0c0.6,0.5,1.3,1.1,2.2,1.5c1,0.5,2.2,1,3.5,1.4c3.1,1,7,1.7,11,2
		c5.6,0.4,11.6,0,16.7-1.2c4.4-1,7.4-2.5,8.9-4.2h0l6.8-6.1c0,0,0,0,0,0l0.6-0.5h0c0.5-0.5,0.9-0.9,1.2-1.4
		C-950.1,303.2-950.4,301.2-952.3,299.2z"/>
	<rect x="-984" y="312.9" fill="#1A1718" width="5.6" height="42.4"/>
</g>
<g>
	<path fill="#231F20" d="M-949.4-122.4c-3-2.9-6.2-6.2-10.1-7.2c-0.2-0.1-0.4-0.1-0.6-0.1c-0.1,0-0.2,0-0.3,0
		c-0.2,0-0.4-0.1-0.6-0.1c-0.1,0-0.2,0-0.3,0c-0.3,0-0.6,0-0.8,0l0,0l0,0c-1.2,0-2.3,0.3-3.3,0.7c-0.3,0.1-0.7,0.3-1,0.5
		c-0.6,0.4-1.3,0.8-1.8,1.3c-0.9,0.7-1.6,1.6-2.3,2.6c-0.5,0.6-0.9,1.3-1.3,2c-0.9,1.8-1.6,3.7-2,5.6c-0.2,0.8-0.3,1.5-0.4,2.3
		c-0.4,2.7-0.5,5.5-0.8,8.2c-0.1,0.8-0.2,1.5-0.3,2.3s-0.3,1.5-0.4,2.3c-0.3,1.1-0.6,2.2-1,3.3c-1.3,3.3-3.4,6.2-5.8,8.8
		c-2.4,2.6-5.2,5-7.8,7.4c-3.6,3.3-7.2,7.1-9.3,11.4c-1,2-1.6,4.1-1.8,6.3c-0.1,1.4,0,2.7,0.2,4.1c0.2,0.9,0.4,1.8,0.7,2.6
		c0.1,0.4,0.3,0.9,0.5,1.3c0.7,1.7,1.6,3.3,2.7,4.8c0.5,0.8,1.1,1.5,1.8,2.2c0.6,0.7,1.3,1.4,2,2c0.7,0.6,1.4,1.2,2.1,1.8
		c0.7,0.5,1.3,1,2,1.4c0.2,0.1,0.4,0.3,0.7,0.4c0.5,0.3,1,0.6,1.5,0.9c0.3,0.1,0.5,0.3,0.8,0.4c0.5,0.3,1,0.5,1.5,0.7
		c0.3,0.1,0.5,0.2,0.8,0.4c0.6,0.3,1.2,0.5,1.8,0.8c0.2,0.1,0.3,0.1,0.5,0.2c0.8,0.3,1.5,0.5,2.3,0.8c0.2,0.1,0.4,0.1,0.7,0.2
		c0.6,0.2,1.1,0.3,1.7,0.5c0.3,0.1,0.6,0.1,0.9,0.2c0.5,0.1,1.1,0.2,1.6,0.3c0.3,0.1,0.6,0.1,0.9,0.1c0.6,0.1,1.1,0.2,1.7,0.2
		c0.2,0,0.5,0.1,0.7,0.1c0.8,0.1,1.6,0.1,2.4,0.2c0.2,0,0.4,0,0.5,0c0.6,0,1.3,0,1.9,0c0.3,0,0.6,0,0.9,0c0.5,0,1.1-0.1,1.6-0.1
		c0.3,0,0.6-0.1,0.9-0.1c0.5-0.1,1.1-0.1,1.6-0.2c0.3,0,0.6-0.1,0.8-0.1c0.7-0.1,1.4-0.3,2.2-0.4c0.1,0,0.2,0,0.3-0.1l0,0l0,0
		c2.6-0.6,5.1-1.5,7.6-2.6c13-6,22.4-18.7,25.2-32.8c1.7-8.6,1-17.8-3.1-25.5C-933.5-109.2-942.1-115.3-949.4-122.4z"/>
	<path fill="#231F20" d="M-992-154.7c0.1-0.2,0.1-0.4,0.1-0.6c0-0.1,0-0.2,0-0.3c0-0.2,0.1-0.4,0.1-0.6c0-0.1,0-0.2,0-0.3
		c0-0.3,0-0.6,0-0.8c0-1.2-0.3-2.3-0.7-3.3c-0.3-0.7-0.6-1.3-1.1-1.9c-1.1-1.5-2.6-2.8-4.2-3.9c-0.7-0.4-1.4-0.8-2.1-1.1
		c-0.7-0.3-1.5-0.6-2.2-0.9c-0.4-0.1-0.8-0.2-1.1-0.3c-0.4-0.1-0.8-0.2-1.1-0.3c-1.5-0.3-3.1-0.5-4.6-0.7c-0.8-0.1-1.6-0.1-2.3-0.2
		c-0.8-0.1-1.6-0.1-2.3-0.2c-0.8-0.1-1.6-0.2-2.3-0.2c-2.3-0.3-4.6-0.7-6.8-1.6c-4.2-1.6-7.6-4.5-10.7-7.7c-0.3-0.3-0.6-0.6-0.9-1
		c-0.6-0.7-1.2-1.3-1.8-2c-0.9-1-1.8-2-2.7-3c-2.1-2.3-4.4-4.6-6.9-6.5c-0.7-0.5-1.5-1.1-2.2-1.5c-0.4-0.2-0.8-0.5-1.1-0.7
		c-1.2-0.6-2.4-1.2-3.6-1.6c-1.2-0.4-2.5-0.7-3.9-0.8c-7.4-0.6-14.3,4-18.8,9.9c-0.5,0.7-1,1.3-1.4,2c-0.1,0.2-0.3,0.4-0.4,0.7
		c-0.3,0.5-0.6,1-0.9,1.5c-0.1,0.3-0.3,0.5-0.4,0.8c-0.3,0.5-0.5,1-0.7,1.5c-0.1,0.3-0.2,0.5-0.4,0.8c-0.3,0.6-0.5,1.2-0.8,1.8
		c-0.1,0.2-0.1,0.3-0.2,0.5c-0.3,0.8-0.5,1.5-0.8,2.3c-0.1,0.2-0.1,0.4-0.2,0.7c-0.2,0.6-0.3,1.1-0.5,1.7c-0.1,0.3-0.1,0.6-0.2,0.9
		c-0.1,0.5-0.2,1.1-0.3,1.6c-0.1,0.3-0.1,0.6-0.1,0.9c-0.1,0.6-0.2,1.1-0.2,1.7c0,0.2-0.1,0.5-0.1,0.7c-0.1,0.8-0.1,1.6-0.2,2.4
		c0,0.2,0,0.4,0,0.5c0,0.6,0,1.3,0,1.9c0,0.3,0,0.6,0,0.9c0,0.5,0.1,1.1,0.1,1.6c0,0.3,0.1,0.6,0.1,0.9c0.1,0.5,0.1,1.1,0.2,1.6
		c0,0.3,0.1,0.6,0.1,0.8c0.1,0.7,0.3,1.4,0.4,2.2c0,0.1,0,0.2,0.1,0.3l0,0l0,0c0.6,2.6,1.5,5.1,2.6,7.6c6,13,18.7,22.4,32.8,25.2
		c8.6,1.7,17.8,1,25.5-3.1c9-4.7,15.1-13.3,22.1-20.6C-996.3-147.6-993-150.8-992-154.7z"/>
	<g>
		<circle fill="#231F20" cx="-963.2" cy="-158.4" r="25.8"/>
		<path fill="#231F20" d="M-977-194.4c3,2.9,6.2,6.2,10.1,7.2c0.2,0.1,0.4,0.1,0.6,0.1c0.1,0,0.2,0,0.3,0c0.2,0,0.4,0.1,0.6,0.1
			c0.1,0,0.2,0,0.3,0c0.3,0,0.6,0,0.8,0c3.1,0,5.7-1.7,7.7-4.1c2-2.4,3.4-5.5,4-8.6c0.8-3.8,0.8-7.8,1.3-11.6c0-0.4,0.1-0.8,0.2-1.2
			c0.1-0.8,0.3-1.5,0.4-2.3c0.3-1.1,0.6-2.2,1-3.3c2.6-6.7,8.4-11.4,13.7-16.2c0.3-0.3,0.7-0.6,1-0.9c3.9-3.7,7.7-8,9.3-13
			c0.4-1.2,0.7-2.5,0.8-3.9c0.1-1.4,0-2.7-0.2-4.1c-0.2-0.9-0.4-1.8-0.7-2.6c-0.1-0.4-0.3-0.9-0.5-1.3c-0.7-1.7-1.6-3.3-2.7-4.8
			c-0.5-0.8-1.1-1.5-1.8-2.2c-0.6-0.7-1.3-1.4-2-2c-0.7-0.6-1.4-1.2-2.1-1.8c-0.7-0.5-1.3-1-2-1.4c-0.2-0.1-0.4-0.3-0.7-0.4
			c-0.5-0.3-1-0.6-1.5-0.9c-0.3-0.1-0.5-0.3-0.8-0.4c-0.5-0.3-1-0.5-1.5-0.7c-0.3-0.1-0.5-0.2-0.8-0.4c-0.6-0.3-1.2-0.5-1.8-0.8
			c-0.2-0.1-0.3-0.1-0.5-0.2c-0.8-0.3-1.5-0.5-2.3-0.8c-0.2-0.1-0.4-0.1-0.7-0.2c-0.6-0.2-1.1-0.3-1.7-0.5c-0.3-0.1-0.6-0.1-0.9-0.2
			c-0.5-0.1-1.1-0.2-1.6-0.3c-0.3-0.1-0.6-0.1-0.9-0.1c-0.6-0.1-1.1-0.2-1.7-0.2c-0.2,0-0.5-0.1-0.7-0.1c-0.8-0.1-1.6-0.1-2.4-0.2
			c-0.2,0-0.4,0-0.5,0c-0.6,0-1.3,0-1.9,0c-0.3,0-0.6,0-0.9,0c-0.5,0-1.1,0.1-1.6,0.1c-0.3,0-0.6,0.1-0.9,0.1
			c-0.5,0.1-1.1,0.1-1.6,0.2c-0.3,0-0.6,0.1-0.8,0.1c-0.7,0.1-1.4,0.3-2.2,0.4c-0.1,0-0.2,0-0.3,0.1l0,0l0,0
			c-2.6,0.6-5.1,1.5-7.6,2.6c-13,6-22.4,18.7-25.2,32.8c-1.7,8.6-1,17.8,3.1,25.5C-992.9-207.5-984.3-201.4-977-194.4z"/>
		<path fill="#231F20" d="M-843.1-154.7c0-0.3,0-0.6,0-0.9c0-0.5-0.1-1.1-0.1-1.6c0-0.3-0.1-0.6-0.1-0.9c-0.1-0.5-0.1-1.1-0.2-1.6
			c0-0.3-0.1-0.6-0.1-0.9c-0.1-0.7-0.3-1.4-0.4-2.1c-0.6-2.7-1.5-5.3-2.6-7.8c-6-13-18.7-22.4-32.8-25.2c-8.6-1.7-17.8-1-25.5,3.1
			c-9,4.7-15.1,13.3-22.1,20.6c-2.8,3-6.1,6.1-7.2,9.9v0c0,0,0,0,0,0c0,0.1,0,0.1,0,0.2c-0.1,0.2-0.1,0.4-0.2,0.6c0,0.1,0,0.2,0,0.3
			c0,0.2-0.1,0.4-0.1,0.6c0,0.1,0,0.2,0,0.3c0,0.3,0,0.6,0,0.8c0,0,0,0,0,0c0,0.4,0,0.8,0.1,1.1c0.1,0.4,0.1,0.7,0.2,1.1
			c0.4,1.4,1.1,2.7,2.1,3.9c2.5,2.9,6.4,4.8,10.2,5.6c6.1,1.2,12.6,0.6,18.4,2.9c1.7,0.6,3.2,1.5,4.7,2.5c0.7,0.5,1.4,1,2.1,1.6
			c1,0.8,2,1.7,3,2.7c0.6,0.6,1.3,1.3,1.9,1.9c0.3,0.3,0.6,0.7,0.9,1c1.2,1.3,2.4,2.7,3.6,4c1.8,2,3.8,3.9,5.9,5.7
			c1.8,1.4,3.6,2.7,5.6,3.6c0.8,0.4,1.6,0.7,2.4,1c1.2,0.4,2.5,0.7,3.9,0.8c5.5,0.5,10.8-2,15-5.8c1.1-0.9,2-2,2.9-3
			c0.3-0.4,0.6-0.7,0.9-1.1c0.5-0.7,1-1.3,1.4-2c0.1-0.2,0.3-0.4,0.4-0.7c0.3-0.5,0.6-1,0.9-1.5c0.1-0.3,0.3-0.5,0.4-0.8
			c0.3-0.5,0.5-1,0.7-1.5c0.1-0.3,0.2-0.5,0.4-0.8c0.3-0.6,0.5-1.2,0.8-1.8c0.1-0.2,0.1-0.3,0.2-0.5c0.3-0.8,0.5-1.5,0.8-2.3
			c0.1-0.2,0.1-0.4,0.2-0.7c0.2-0.6,0.3-1.1,0.5-1.7c0.1-0.3,0.1-0.6,0.2-0.9c0.1-0.5,0.2-1.1,0.3-1.6c0.1-0.3,0.1-0.6,0.1-0.9
			c0.1-0.6,0.2-1.1,0.2-1.7c0-0.2,0.1-0.5,0.1-0.7c0.1-0.8,0.1-1.6,0.2-2.4c0-0.2,0-0.4,0-0.5C-843.1-153.4-843.1-154.1-843.1-154.7
			z"/>
		<path fill="#231F20" d="M-963.2-309.8c-83.5,0-151.4,67.9-151.4,151.4c0,83.5,67.9,151.4,151.4,151.4
			c83.5,0,151.4-67.9,151.4-151.4C-811.8-241.8-879.7-309.8-963.2-309.8z M-827-161.4h-17c0-1.2-0.1-2.4-0.1-3.6
			c-1.6-29.3-13.8-55.7-32.6-75.6l12-12C-842-228.7-827.8-196.7-827-161.4z M-881.1-244.8c-20.8-19.7-48.6-32-79.1-32.8v-17
			c35.3,0.8,67.3,15,91.1,37.8L-881.1-244.8z M-966.2-123c-7.5-0.6-14.4-3.6-19.9-8.3l19.9-19.9V-123z M-960.2-151.1l19.9,19.9
			c-5.5,4.6-12.3,7.6-19.9,8.3V-151.1z M-960.2-193.8c7.5,0.6,14.4,3.6,19.9,8.3l-19.9,19.9V-193.8z M-966.2-165.6l-19.9-19.9
			c5.5-4.6,12.3-7.6,19.9-8.3V-165.6z M-991.1-190.5l-5.3-5.3c2.7-2.4,5.7-4.5,9-6.3c6.5-3.6,13.8-5.7,21.2-6.2v7.5
			C-975.5-200.2-984.2-196.5-991.1-190.5z M-970.5-161.4h-28.1c0.6-7.5,3.6-14.4,8.3-19.9L-970.5-161.4z M-970.5-155.4l-19.9,19.9
			c-4.6-5.5-7.6-12.3-8.3-19.9H-970.5z M-991.1-126.2c1,0.8,1.9,1.6,3,2.4c6.5,4.7,14,7.4,22,8v7.4c-11.3-0.7-21.9-5.2-30.2-12.5
			L-991.1-126.2z M-960.2-115.9c9.2-0.7,18-4.3,24.9-10.3l5.3,5.3c-2.7,2.4-5.7,4.5-9,6.3c-6.5,3.6-13.8,5.7-21.2,6.2V-115.9z
			 M-956-155.4h28.1c-0.6,7.5-3.6,14.4-8.3,19.9L-956-155.4z M-956-161.4l19.9-19.9c4.6,5.5,7.6,12.3,8.3,19.9H-956z M-935.3-190.5
			c-0.9-0.8-1.9-1.6-3-2.4c-6.5-4.7-14-7.4-22-8v-7.4c11.3,0.7,21.9,5.2,30.2,12.5L-935.3-190.5z M-966.2-214.3
			c-8.4,0.5-16.7,2.8-24.1,6.9c-3.8,2.1-7.2,4.6-10.3,7.3l-9.3-9.3c8-7.3,17.6-12.7,28.3-15.7c5.1-1.4,10.3-2.2,15.5-2.4V-214.3z
			 M-995.4-186.3c-0.8,1-1.6,1.9-2.4,3c-4.7,6.5-7.4,14.1-8,22h-7.4c0.7-11.1,5-21.8,12.5-30.2L-995.4-186.3z M-1005.7-155.4
			c0.1,1.3,0.2,2.5,0.4,3.8c1.3,8,4.7,15.2,9.9,21.2l-5.2,5.3c-2.4-2.7-4.5-5.7-6.3-9c-3.7-6.8-5.7-14-6.2-21.2H-1005.7z
			 M-1000.7-116.7c9.4,8.4,21.5,13.6,34.4,14.3v13.2c-16.6-0.7-32-7.4-43.7-18.2L-1000.7-116.7z M-960.2-102.4
			c8.4-0.5,16.7-2.8,24.1-6.9c3.8-2.1,7.2-4.5,10.3-7.3l9.3,9.3c-7.8,7.2-17.4,12.7-28.3,15.7c-5.1,1.4-10.3,2.2-15.5,2.5V-102.4z
			 M-931-130.4c0.8-1,1.6-1.9,2.4-3c4.8-6.7,7.4-14.3,8-22h7.5c-0.2,3.6-0.8,7.2-1.9,10.8c-2.1,7.3-5.7,13.9-10.6,19.4L-931-130.4z
			 M-920.7-161.4c-0.6-9.1-4.2-17.9-10.3-24.9l5.3-5.3c2.4,2.7,4.5,5.7,6.3,9c3.7,6.6,5.8,13.9,6.2,21.2H-920.7z M-925.8-200.1
			c-9.4-8.4-21.5-13.6-34.4-14.3v-13.2c16.6,0.7,32,7.4,43.7,18.2L-925.8-200.1z M-966.2-233.5c-5.7,0.2-11.5,1.1-17.1,2.7
			c-11.7,3.3-22.3,9.2-31,17.2l-10.9-10.9c13.2-12.4,30.2-21,49.5-23.6c3.1-0.4,6.3-0.7,9.4-0.8V-233.5z M-1004.9-195.8
			c-8.6,9.6-13.5,21.8-14.2,34.4h-13.2c0.5-10.8,3.5-21.4,8.9-31.1c2.6-4.6,5.7-8.8,9.2-12.7L-1004.9-195.8z M-1019.2-155.4
			c0.4,8.2,2.7,16.5,6.9,24.1c2.1,3.7,4.5,7.2,7.3,10.3l-9.3,9.3c-7.2-7.9-12.7-17.5-15.7-28.3c-1.4-5.1-2.2-10.3-2.4-15.5H-1019.2z
			 M-1014.2-103.1c12.9,11.9,29.8,19.2,48,19.9v15.5c-20.7-0.7-40.6-8.4-56.3-22.1c-0.9-0.8-1.8-1.6-2.6-2.4L-1014.2-103.1z
			 M-960.2-83.2c5.7-0.2,11.5-1.1,17.1-2.7c12-3.3,22.4-9.3,31-17.2l11,11c-13.6,12.8-30.7,21-49.6,23.6c-3.1,0.4-6.3,0.7-9.4,0.8
			V-83.2z M-921.5-120.9c5.6-6.2,9.8-13.7,12.2-22c1.2-4.1,1.9-8.3,2.1-12.5h13.2c-0.7,16.4-7.3,31.9-18.2,43.8L-921.5-120.9z
			 M-907.2-161.4c-0.4-8.4-2.8-16.6-6.9-24.1c-2.1-3.7-4.5-7.2-7.3-10.3l9.3-9.3c7.2,7.9,12.7,17.5,15.7,28.3
			c1.4,5.2,2.2,10.3,2.4,15.5L-907.2-161.4z M-912.2-213.6c-12.9-11.9-29.8-19.2-48-19.9V-249c20.7,0.7,40.6,8.4,56.3,22.1
			c0.9,0.8,1.8,1.6,2.6,2.4L-912.2-213.6z M-966.2-255c-3.4,0.1-6.9,0.4-10.3,0.9c-20.6,2.9-38.8,12.1-53,25.3l-11.7-11.7
			c19.4-18.5,44.5-29.4,71.6-30.9c1.1-0.1,2.2-0.1,3.3-0.1V-255z M-1018.5-209.4c-3.9,4.2-7.3,8.9-10.2,14
			c-6,10.6-9.3,22.2-9.7,34.1h-15.5c0.7-22.4,9.8-43.2,24.5-58.9L-1018.5-209.4z M-1038.4-155.4c0.2,5.7,1.1,11.4,2.7,17.1
			c3.3,11.8,9.3,22.3,17.3,30.9l-11,11c-12.7-13.6-21.1-30.9-23.6-49.5c-0.4-3.2-0.7-6.3-0.8-9.4H-1038.4z M-1029.4-87.9
			c1,0.9,2,1.8,3,2.7c16.9,14.6,38.2,22.9,60.3,23.5v16.5c-28.9-0.7-55.2-12.4-74.9-31L-1029.4-87.9z M-960.2-61.7
			c3.4-0.1,6.9-0.4,10.3-0.9c20.1-2.8,38.5-11.6,53-25.3l11.7,11.7c-19.4,18.5-44.5,29.4-71.6,30.9c-1.1,0.1-2.2,0.1-3.3,0.1V-61.7z
			 M-907.9-107.3c12-13,19.2-30,19.9-48h15.5c-0.6,18.6-6.9,36.6-18.4,51.7c-1.9,2.5-4,4.9-6.1,7.2L-907.9-107.3z M-888-161.4
			c-0.2-5.7-1.1-11.4-2.7-17.1c-3.3-11.8-9.3-22.3-17.3-30.9l11-11c12.8,13.6,21.1,30.9,23.6,49.5c0.4,3.1,0.7,6.3,0.8,9.4H-888z
			 M-897-228.8c-1-0.9-2-1.8-3-2.7c-16.9-14.6-38.2-22.9-60.3-23.5v-16.5c28.9,0.7,55.2,12.4,74.9,31L-897-228.8z M-966.2-277.5
			c-1.2,0-2.4,0.1-3.6,0.1c-28.6,1.6-55.1,13.1-75.6,32.6l-12-12c23.8-22.8,55.8-37,91.1-37.8V-277.5z M-1045.3-236.3l11.7,11.7
			c-15.8,16.8-25.5,39.2-26.2,63.2h-16.5c0.7-26.8,10.7-52.3,28.8-72.5C-1046.8-234.7-1046.1-235.5-1045.3-236.3z M-1059.9-155.4
			c0.1,3.4,0.4,6.8,0.9,10.3c2.8,20,11.7,38.4,25.3,53l-11.7,11.7c-17.9-18.8-29.4-43.8-30.9-71.6c-0.1-1.1-0.1-2.2-0.1-3.3H-1059.9
			z M-1045.4-72c20.8,19.7,48.6,32,79.1,32.8v17c-35.3-0.8-67.3-15-91.1-37.8L-1045.4-72z M-960.2-39.2c1.2,0,2.4-0.1,3.6-0.1
			c28.6-1.6,55.1-13.1,75.6-32.6l12,12c-23.8,22.8-55.8,37-91.1,37.8V-39.2z M-881.1-80.5l-11.7-11.7c2.3-2.5,4.5-5.1,6.6-7.9
			c12.3-16.2,19-35.4,19.6-55.4h16.5c-0.7,26.8-10.7,52.3-28.8,72.5C-879.6-82-880.3-81.2-881.1-80.5z M-866.5-161.4
			c-0.1-3.4-0.4-6.8-0.9-10.3c-2.8-20-11.7-38.4-25.3-53l11.7-11.7c17.9,18.8,29.3,43.8,30.9,71.6c0.1,1.1,0.1,2.2,0.1,3.3H-866.5z
			 M-1061.6-252.5l12,12c-0.8,0.9-1.6,1.7-2.4,2.6c-19.1,21.3-29.7,48.2-30.4,76.5h-17C-1098.6-196.7-1084.4-228.7-1061.6-252.5z
			 M-1099.4-155.4h17c0,1.2,0.1,2.4,0.1,3.6c1.6,29.3,13.8,55.7,32.6,75.6l-12,12C-1084.4-88-1098.6-120.1-1099.4-155.4z
			 M-864.8-64.2l-12-12c0.8-0.9,1.6-1.7,2.4-2.6c19.1-21.3,29.7-48.2,30.4-76.5h17C-827.8-120.1-842-88-864.8-64.2z"/>
	</g>
</g>
<g>
	<circle fill="#231F20" cx="-1261.4" cy="-159.1" r="30"/>
	<path fill="#231F20" d="M-1263.7-194.9L-1263.7-194.9L-1263.7-194.9c0.2,0.1,0.5,0.3,0.7,0.4c0.3,0.1,0.5,0.2,0.8,0.3
		c4.7,1.6,10.1-1.1,13.1-5.1c3-4,4.1-9.1,4.9-14.1c0.8-4.9,1.4-10,3.7-14.5c3.2-6.4,9.3-10.7,14.7-15.4c5.4-4.7,10.6-10.6,10.9-17.7
		c0.2-4.5-1.7-9-4.6-12.4c-3-3.4-6.9-5.9-11.1-7.5c-0.6-0.2-1.3-0.5-1.9-0.7c-0.3-0.1-0.7-0.2-1-0.3c-0.3-0.1-0.6-0.2-0.8-0.2
		c-0.5-0.1-0.9-0.2-1.4-0.3c-0.1,0-0.3-0.1-0.4-0.1c-10-2.1-21,0.1-28.3,7.3c-4.7,4.6-7.5,10.9-9.2,17.3c-4.4,16.4-2.1,34,2.4,50.4
		C-1270.1-202.7-1268-197.3-1263.7-194.9z"/>
	<path fill="#231F20" d="M-1295-146.5C-1295-146.5-1295-146.5-1295-146.5c-0.7-0.6-1.4-1-2.2-1.4c-0.1,0-0.1-0.1-0.2-0.1
		c-0.3-0.2-0.7-0.3-1-0.5c-0.1,0-0.1,0-0.2-0.1c-0.4-0.2-0.8-0.3-1.2-0.4c-0.1,0-0.1,0-0.2-0.1c-0.3-0.1-0.6-0.2-1-0.2
		c-0.1,0-0.2,0-0.3-0.1c-0.4-0.1-0.8-0.1-1.2-0.2c-5-0.6-9.9,1.1-14.6,2.9c-4.7,1.8-9.4,3.8-14.4,4.1c-7.1,0.4-13.9-2.6-20.7-4.9
		c-6.8-2.3-14.5-3.8-20.8-0.5c-4,2.1-6.9,6-8.4,10.2c-1.5,4.3-1.6,8.9-0.9,13.4c0.1,0.8,0.3,1.6,0.5,2.4c0.1,0.3,0.1,0.5,0.2,0.8
		c0.1,0.5,0.3,1.1,0.4,1.6c0.1,0.3,0.2,0.6,0.3,0.9c0.2,0.5,0.3,1,0.5,1.5c0.1,0.3,0.2,0.6,0.4,0.9c0.2,0.5,0.4,0.9,0.6,1.4
		c0.1,0.3,0.3,0.6,0.4,0.8c0.2,0.5,0.5,0.9,0.7,1.4c0.1,0.3,0.3,0.5,0.4,0.8c0.3,0.5,0.6,0.9,0.9,1.4c0.1,0.2,0.3,0.5,0.4,0.7
		c0.3,0.5,0.7,1,1.1,1.5c0.1,0.2,0.2,0.3,0.4,0.5c0.5,0.6,1,1.3,1.6,1.8l0,0l0,0c3.6,3.9,8.1,6.9,13.2,8.3c6.4,1.7,13.2,1,19.6-0.8
		c16.4-4.5,30.4-15.3,42.4-27.4c4-4,8.1-9.2,6.9-14.8C-1291.8-143-1293.2-145-1295-146.5z"/>
	<path fill="#231F20" d="M-1261.4-299.5c-77.4,0-140.4,63-140.4,140.4c0,6.6,0.5,13,1.3,19.4v116.7c0,11,9,20,20,20h238.1
		c11,0,20-9,20-20v-116.7c0.9-6.3,1.3-12.8,1.3-19.4C-1121-236.5-1184-299.5-1261.4-299.5z M-1352.6-246.4l11.1,11.1
		c-0.8,0.8-1.5,1.6-2.3,2.4c-17.7,19.8-27.5,44.7-28.1,70.9h-15.8C-1387-194.6-1373.7-224.3-1352.6-246.4z M-1344.7-147.5
		c-0.4-2.9-0.7-5.8-0.8-8.7h14.3c0.2,5.3,1,10.6,2.5,15.8c3,11,8.6,20.7,16,28.7l-10.2,10.2
		C-1334.6-114.2-1342.3-130.2-1344.7-147.5z M-1326.7-97.7l-10.8,10.8c-16.6-17.5-27.2-40.7-28.6-66.4c-0.1-1-0.1-2-0.1-3h15.3
		c0.1,3.1,0.4,6.3,0.8,9.5C-1347.6-128.3-1339.4-111.1-1326.7-97.7z M-1323.2-141.9c-1.3-4.7-2.1-9.5-2.3-14.3h12.3
		c0.4,7.6,2.5,15.3,6.4,22.4c1.9,3.5,4.2,6.7,6.8,9.6l-8.6,8.6C-1315.4-123-1320.5-131.9-1323.2-141.9z M-1302-136.6
		c-3.5-6.3-5.3-13-5.7-19.7h6.9c0.1,1.2,0.2,2.3,0.4,3.5c1.2,7.4,4.4,14.1,9.2,19.6l-4.9,4.9C-1298.3-130.8-1300.3-133.6-1302-136.6
		z M-1294.2-156.3h26.1l-18.4,18.4C-1290.8-142.9-1293.6-149.3-1294.2-156.3z M-1294.2-161.9c0.6-7,3.4-13.4,7.7-18.4l18.4,18.4
		H-1294.2z M-1293.4-182.2c-4.4,6.1-6.9,13.1-7.4,20.4h-6.9c0.6-10.3,4.7-20.2,11.6-28l4.9,4.9
		C-1292-184.1-1292.7-183.2-1293.4-182.2z M-1313.2-161.9h-12.3c0.4-10,3.2-19.9,8.3-28.9c2.4-4.3,5.3-8.2,8.5-11.7l8.7,8.7
		C-1308-184.9-1312.6-173.6-1313.2-161.9z M-1322.1-193.5c-5.6,9.8-8.6,20.6-9,31.6h-14.3c0.7-20.8,9.1-40.1,22.7-54.7l10.1,10.1
		C-1316.2-202.5-1319.4-198.2-1322.1-193.5z M-1351-161.9h-15.3c0.6-24.9,9.9-48.5,26.7-67.2c0.7-0.8,1.4-1.5,2-2.2l10.8,10.8
		C-1341.3-204.8-1350.3-184.1-1351-161.9z M-1387.7-156.3h15.8c0,1.1,0.1,2.2,0.1,3.3c1.5,27.2,12.8,51.7,30.3,70.1l-11.1,11.1
		C-1373.7-93.8-1387-123.6-1387.7-156.3z M-1264.2-32.8c-32.7-0.7-62.4-13.9-84.5-35.1l11.1-11.1c19.3,18.3,45.1,29.7,73.4,30.4
		V-32.8z M-1264.2-54.1c-26.8-0.7-51.2-11.5-69.5-28.8l10.8-10.8c0.9,0.8,1.8,1.7,2.7,2.5c15.6,13.5,35.4,21.2,55.9,21.8V-54.1z
		 M-1264.2-75c-19.2-0.6-37.6-7.8-52.2-20.5c-0.8-0.7-1.6-1.5-2.4-2.2l10.2-10.2c11.9,11,27.6,17.8,44.5,18.5V-75z M-1264.2-94.9
		c-15.4-0.7-29.7-6.9-40.6-16.9l8.6-8.6c8.7,7.8,20,12.6,31.9,13.2V-94.9z M-1264.2-112.7c-10.5-0.6-20.3-4.8-28-11.6l4.9-4.9
		c0.9,0.8,1.8,1.5,2.8,2.2c6,4.4,13,6.9,20.4,7.4V-112.7z M-1264.2-126.2c-7-0.6-13.4-3.4-18.4-7.7l18.4-18.4V-126.2z
		 M-1264.2-165.8l-18.4-18.4c5.1-4.3,11.4-7.1,18.4-7.7V-165.8z M-1264.2-198.5c-8.6,0.6-16.7,4-23.1,9.6l-4.9-4.9
		c2.5-2.2,5.3-4.2,8.3-5.9c6.1-3.4,12.8-5.3,19.7-5.7V-198.5z M-1264.2-211c-7.8,0.4-15.5,2.6-22.4,6.4c-3.5,1.9-6.7,4.2-9.6,6.8
		l-8.7-8.7c7.4-6.8,16.3-11.8,26.3-14.5c4.7-1.3,9.5-2.1,14.3-2.3V-211z M-1264.2-228.8c-5.3,0.2-10.6,1-15.8,2.5
		c-10.9,3-20.7,8.5-28.7,16l-10.1-10.1c12.3-11.5,28-19.5,45.9-21.9c2.9-0.4,5.8-0.7,8.7-0.8V-228.8z M-1264.2-248.7
		c-3.2,0.1-6.4,0.4-9.5,0.8c-19.1,2.6-36,11.2-49.1,23.5l-10.8-10.8c18-17.2,41.3-27.3,66.4-28.6c1-0.1,2-0.1,3-0.1V-248.7z
		 M-1264.2-269.6c-1.1,0-2.2,0.1-3.3,0.1c-26.5,1.5-51.1,12.1-70.1,30.3l-11.1-11.1c22.1-21.1,51.8-34.4,84.5-35.1V-269.6z
		 M-1258.6-285.4c32.7,0.7,62.4,13.9,84.5,35.1l-11.1,11.1c-19.3-18.3-45.1-29.7-73.4-30.4V-285.4z M-1222-161.9
		c-0.6-8.4-3.9-16.6-9.6-23.1l4.9-4.9c2.2,2.5,4.2,5.3,5.9,8.3c3.4,6.2,5.3,12.9,5.7,19.7H-1222z M-1215-156.3
		c-0.2,3.4-0.8,6.7-1.7,10c-0.2,0.7-0.4,1.3-0.6,2c-2.4-0.5-4.9-0.7-7.2-0.4c1.5-3.7,2.3-7.6,2.6-11.6H-1215z M-1254.6-161.9
		l18.4-18.4c4.3,5.1,7.1,11.5,7.7,18.4H-1254.6z M-1228.5-156.3c-0.6,7-3.4,13.4-7.7,18.4l-18.4-18.4H-1228.5z M-1215.9-184.2
		c-1.9-3.5-4.2-6.7-6.8-9.6l8.6-8.6c6.7,7.3,11.8,16.2,14.6,26.2c1.3,4.8,2,9.6,2.3,14.3h-12.2
		C-1209.9-169.6-1212-177.2-1215.9-184.2z M-1211.4-144.7c1.1-3.8,1.7-7.7,2-11.6h12.2c-0.3,5.9-1.3,11.6-3.1,17
		c-3.8-1.4-7.7-2.6-11.6-3.7C-1211.8-143.5-1211.6-144.1-1211.4-144.7z M-1210.1-206.4l10.2-10.2c11.8,12.6,19.5,28.6,21.9,45.9
		c0.4,2.9,0.7,5.8,0.8,8.7h-14.4c-0.2-5.2-1-10.6-2.5-15.8C-1197.2-188.6-1202.7-198.4-1210.1-206.4z M-1191.6-156.3h14.4
		c-0.3,8.8-1.9,17.5-4.9,25.7c-4.1-2.5-8.5-4.7-13-6.6C-1193.1-143.3-1191.9-149.7-1191.6-156.3z M-1171.7-156.3h15.3
		c-0.3,14-3.4,27.6-9.1,40.1c-1.2-1.5-2.5-3-3.9-4.3c-2.5-2.5-5.2-4.8-8.1-6.8C-1173.9-136.6-1172-146.3-1171.7-156.3z
		 M-1171.7-161.9c-0.1-3.2-0.4-6.3-0.8-9.5c-2.6-18.5-10.8-35.6-23.5-49.1l10.8-10.8c16.6,17.5,27.2,40.7,28.6,66.4
		c0.1,1,0.1,2,0.1,3H-1171.7z M-1258.6-264c26.8,0.7,51.2,11.5,69.5,28.8l-10.8,10.8c-0.9-0.8-1.8-1.7-2.7-2.5
		c-15.6-13.5-35.4-21.2-55.9-21.8V-264z M-1258.6-243.1c19.2,0.6,37.6,7.8,52.2,20.4c0.8,0.7,1.6,1.5,2.4,2.2l-10.2,10.2
		c-11.9-11-27.6-17.8-44.5-18.5V-243.1z M-1258.6-223.2c15.4,0.7,29.7,6.9,40.6,16.9l-8.6,8.6c-8.7-7.8-20-12.6-31.9-13.2V-223.2z
		 M-1258.6-205.4c10.5,0.6,20.3,4.8,28,11.6l-4.9,4.9c-0.9-0.8-1.8-1.5-2.8-2.2c-6-4.4-13-6.9-20.4-7.4V-205.4z M-1258.6-191.9
		c7,0.6,13.4,3.4,18.4,7.7l-18.4,18.4V-191.9z M-1258.6-152.3l18.4,18.4c-5.1,4.3-11.4,7.1-18.4,7.7V-152.3z M-1258.6-119.7
		c8.6-0.6,16.7-4,23.1-9.6l4.9,4.9c-2.5,2.2-5.3,4.2-8.3,5.9c-6.1,3.4-12.8,5.3-19.7,5.7V-119.7z M-1258.6-107.2
		c7.8-0.4,15.5-2.6,22.4-6.4c3.5-1.9,6.7-4.2,9.5-6.8c0.2,0.2,0.4,0.4,0.6,0.5l8.1,8.1c-7.2,6.7-16.1,11.8-26.2,14.6
		c-4.7,1.3-9.5,2.1-14.3,2.3V-107.2z M-1258.6-89.3c5.3-0.2,10.6-1,15.8-2.5c11.1-3.1,20.8-8.7,28.7-16l3.1,3.1
		c1.7,3.2,2.7,6.7,3.4,10.4c-11.9,10-26.5,16.4-42.3,18.6c-2.9,0.4-5.8,0.7-8.7,0.8V-89.3z M-1258.6-69.4c3.2-0.1,6.4-0.4,9.5-0.8
		c15.8-2.2,30.4-8.4,42.7-17.9c0.1,0.6,0.2,1.2,0.3,1.9c0.9,4.6,2.3,9.4,4.9,13.3c-15.9,11.2-34.6,17.7-54.4,18.8
		c-1,0.1-2,0.1-3,0.1V-69.4z M-1202.4-18.3c-7.3,0-7.3-11.4,0-11.4S-1195.1-18.3-1202.4-18.3z M-1184.4-19c-7.3,0-7.3-11.4,0-11.4
		S-1177.1-19-1184.4-19z M-1258.6-32.8v-15.8c1.1,0,2.2-0.1,3.3-0.1c21.1-1.2,41.1-8.2,57.9-20.2c0.4,0.3,0.8,0.6,1.2,0.9
		c3.8,2.4,8.6,3,13.1,2.2c2.8-0.5,5.4-1.6,7.9-3.1l1.1,1.1C-1196.1-46.7-1225.8-33.5-1258.6-32.8z M-1158.8-17.1
		c-15.4,0-15.4-23.8,0-23.8C-1143.4-40.9-1143.4-17.1-1158.8-17.1z M-1170.1-71.8l-0.4-0.4c0.3-0.3,0.7-0.6,1-0.9
		c0.2-0.1,0.3-0.3,0.5-0.4c0.3-0.3,0.7-0.6,1-1c0.2-0.2,0.3-0.3,0.5-0.5c0.4-0.4,0.8-0.8,1.1-1.3c0.3-0.3,0.5-0.6,0.8-0.9
		c0.1-0.1,0.2-0.3,0.3-0.4c5.8-7.5,8.7-17.2,6.3-26.3c-0.6-2.4-1.6-4.8-2.9-6.9c6.8-14.1,10.6-29.5,11-45.4h15.8
		C-1135.8-123.6-1149-93.8-1170.1-71.8z M-1150.9-161.9c0-1.1-0.1-2.2-0.1-3.3c-1.5-27.2-12.8-51.7-30.3-70.1l11.1-11.1
		c21.1,22.1,34.4,51.8,35.1,84.5L-1150.9-161.9z"/>
</g>
<g>
	<circle fill="#231F20" cx="-1573.2" cy="-155.3" r="24.5"/>
	<path fill="#231F20" d="M-1581.2-186.6c2,2.6,4.8,4.1,7.8,4.4c0.1,0,0.2,0,0.3,0c0.3,0,0.7,0,1,0c0.1,0,0.3,0,0.4,0
		c0.2,0,0.4,0,0.6,0c0.2,0,0.4,0,0.6-0.1c0.2,0,0.4-0.1,0.6-0.1c0.2,0,0.4-0.1,0.6-0.1c0.1,0,0.3-0.1,0.4-0.1
		c0.3-0.1,0.6-0.2,0.9-0.3c0.1,0,0.2-0.1,0.3-0.1c0.3-0.1,0.6-0.3,0.9-0.4c0.1,0,0.1-0.1,0.2-0.1c0.3-0.2,0.5-0.3,0.8-0.5
		c0.1,0,0.1-0.1,0.2-0.1c0.3-0.2,0.6-0.4,0.8-0.7c0.1-0.1,0.1-0.1,0.2-0.2c0.3-0.3,0.6-0.5,0.8-0.8c0.2-0.2,0.3-0.4,0.4-0.5
		c3.3-4.5,4.1-10.3,4-15.9c0-5.6-0.7-11.2,0.3-16.7c1.2-6.4,4.9-12.4,10.1-16.4c2.5-2,5.4-3.5,7.8-5.6c2.4-2.2,4.3-5.2,3.9-8.4
		c-0.4-3.4-3.2-6-6.4-7.2c-3.1-1.2-6.6-1.2-10-1.2c-0.9,0-1.9,0-2.8,0l0,0c-4.8,0-9.7,0-14.5,0c-8,0-16.1,0-23.5,2.9
		c-7.4,2.9-14,9.3-14.6,17.3c-0.5,6,2.5,11.8,5.5,17C-1596.9-208.9-1589.4-197.5-1581.2-186.6z"/>
	<path fill="#231F20" d="M-1490.7-191.2c-6-0.5-11.8,2.5-17,5.5c-11.8,6.8-23.3,14.3-34.2,22.5c-2.2,1.7-3.6,4-4.2,6.4l0,0v0
		c-0.1,0.4-0.2,0.9-0.2,1.3c0,0.1,0,0.2,0,0.3c0,0.3,0,0.7,0,1c0,0.1,0,0.3,0,0.4c0,0.2,0,0.4,0,0.6c0,0.2,0,0.4,0.1,0.6
		c0,0.2,0.1,0.4,0.1,0.6c0,0.2,0.1,0.4,0.1,0.6c0,0.1,0.1,0.3,0.1,0.4c0.1,0.3,0.2,0.6,0.3,0.9c0,0.1,0.1,0.2,0.1,0.3
		c0.1,0.3,0.3,0.6,0.4,0.9c0,0.1,0.1,0.1,0.1,0.2c0.2,0.3,0.3,0.5,0.5,0.8c0,0.1,0.1,0.1,0.1,0.2c0.2,0.3,0.4,0.6,0.7,0.8
		c0.1,0.1,0.1,0.1,0.2,0.2c0.3,0.3,0.5,0.6,0.8,0.8c0.2,0.2,0.4,0.3,0.5,0.4c4.5,3.3,10.3,4.1,15.9,4c5.6,0,11.2-0.7,16.7,0.3
		c6.4,1.2,12.4,4.9,16.4,10.1c2,2.5,3.5,5.4,5.6,7.8c2.2,2.4,5.2,4.3,8.4,3.9c3.3-0.4,6-3.2,7.2-6.4c1.2-3.1,1.2-6.6,1.2-10
		c0-0.9,0-1.9,0-2.8l0,0c0-4.8,0-9.7,0-14.5c0-8,0-16.1-2.9-23.5C-1476.4-184-1482.8-190.6-1490.7-191.2z"/>
	<path fill="#231F20" d="M-1565.3-124.1c-2-2.6-4.8-4.1-7.8-4.4c-0.1,0-0.2,0-0.3,0c-0.3,0-0.7,0-1,0c-0.1,0-0.3,0-0.4,0
		c-0.2,0-0.4,0-0.6,0c-0.2,0-0.4,0-0.6,0.1c-0.2,0-0.4,0.1-0.6,0.1c-0.2,0-0.4,0.1-0.6,0.1c-0.1,0-0.3,0.1-0.4,0.1
		c-0.3,0.1-0.6,0.2-0.9,0.3c-0.1,0-0.2,0.1-0.3,0.1c-0.3,0.1-0.6,0.3-0.9,0.4c-0.1,0-0.1,0.1-0.2,0.1c-0.3,0.2-0.5,0.3-0.8,0.5
		c-0.1,0-0.1,0.1-0.2,0.1c-0.3,0.2-0.6,0.4-0.8,0.7c-0.1,0.1-0.1,0.1-0.2,0.2c-0.3,0.3-0.6,0.5-0.8,0.8c-0.2,0.2-0.3,0.4-0.4,0.5
		c-3.3,4.5-4.1,10.3-4,15.9c0,5.6,0.7,11.2-0.3,16.7c-1.2,6.4-4.9,12.4-10.1,16.4c-2.5,2-5.4,3.5-7.8,5.6c-2.4,2.2-4.3,5.2-3.9,8.4
		c0.4,3.4,3.2,6,6.4,7.2c3.1,1.2,6.6,1.2,10,1.2c0.9,0,1.9,0,2.8,0l0,0c4.8,0,9.7,0,14.5,0c8,0,16.1,0,23.5-2.9
		c7.4-2.9,14-9.3,14.6-17.3c0.5-6-2.5-11.8-5.5-17C-1549.6-101.7-1557.1-113.2-1565.3-124.1z"/>
	<path fill="#231F20" d="M-1600.3-153.8L-1600.3-153.8C-1600.3-153.8-1600.3-153.8-1600.3-153.8c0.1-0.4,0.2-0.9,0.2-1.3
		c0-0.1,0-0.2,0-0.3c0-0.3,0-0.7,0-1c0-0.1,0-0.3,0-0.4c0-0.2,0-0.4,0-0.6c0-0.2,0-0.4-0.1-0.6c0-0.2-0.1-0.4-0.1-0.6
		c0-0.2-0.1-0.4-0.1-0.6c0-0.1-0.1-0.3-0.1-0.4c-0.1-0.3-0.2-0.6-0.3-0.9c0-0.1-0.1-0.2-0.1-0.3c-0.1-0.3-0.3-0.6-0.4-0.9
		c0-0.1-0.1-0.1-0.1-0.2c-0.2-0.3-0.3-0.5-0.5-0.8c0-0.1-0.1-0.1-0.1-0.2c-0.2-0.3-0.4-0.6-0.7-0.8c-0.1-0.1-0.1-0.1-0.2-0.2
		c-0.3-0.3-0.5-0.6-0.8-0.8c-0.2-0.2-0.4-0.3-0.5-0.4c-4.5-3.3-10.3-4.1-15.9-4c-5.6,0-11.2,0.7-16.7-0.3
		c-6.4-1.2-12.4-4.9-16.4-10.1c-2-2.5-3.5-5.4-5.6-7.8c-2.2-2.4-5.2-4.3-8.4-3.9c-3.3,0.4-6,3.2-7.2,6.4c-1.2,3.1-1.2,6.6-1.2,10
		c0,0.9,0,1.9,0,2.8l0,0c0,4.8,0,9.7,0,14.5c0,8,0,16.1,2.9,23.5c2.9,7.4,9.3,14,17.3,14.6c6,0.5,11.8-2.5,17-5.5
		c11.8-6.8,23.3-14.3,34.2-22.5C-1602.3-149.1-1600.9-151.4-1600.3-153.8z"/>
	<path fill="#231F20" d="M-1494.9-277.2h-156.6c-24,0-43.6,19.6-43.6,43.6v183c0,24,19.6,43.6,43.6,43.6h156.6
		c24,0,43.6-19.6,43.6-43.6v-183C-1451.3-257.7-1470.9-277.2-1494.9-277.2z M-1473.8-255.4c0.2,0.2,0.4,0.4,0.6,0.6h-0.6V-255.4z
		 M-1473.8-251.5h3.4c2.7,3.5,4.7,7.5,6,11.8h-9.5V-251.5z M-1503.9-265.8h4.7c2.4,0,4.8,0.2,7.1,0.7v10.3h-11.8V-265.8z
		 M-1503.9-251.5h11.8v11.8h-11.8V-251.5z M-1503.9-236.5h11.8v11.8h-11.8V-236.5z M-1503.9-221.4h11.8v11.8h-11.8V-221.4z
		 M-1503.9-206.4h11.8v11.8h-11.8V-206.4z M-1503.9-191.3h11.8v11.8h-11.8V-191.3z M-1503.9-176.3h11.8v11.8h-11.8V-176.3z
		 M-1503.9-161.2h11.8v11.8h-11.8V-161.2z M-1503.9-146.2h11.8v11.8h-11.8V-146.2z M-1503.9-131.1h11.8v11.8h-11.8V-131.1z
		 M-1503.9-116.1h11.8v11.8h-11.8V-116.1z M-1503.9-101h11.8v11.8h-11.8V-101z M-1503.9-86h11.8v11.8h-11.8V-86z M-1503.9-70.9h11.8
		v11.8h-11.8V-70.9z M-1549-265.8h11.8v11h-11.8V-265.8z M-1549-251.5h11.8v11.8h-11.8V-251.5z M-1549-236.5h11.8v11.8h-11.8V-236.5
		z M-1549-221.4h11.8v11.8h-11.8V-221.4z M-1549-206.4h11.8v11.8h-11.8V-206.4z M-1549-191.3h11.8v11.8h-11.8V-191.3z M-1549-176.3
		h11.8v11.8h-11.8V-176.3z M-1549-161.2h11.8v11.8h-11.8V-161.2z M-1549-146.2h11.8v11.8h-11.8V-146.2z M-1549-131.1h11.8v11.8
		h-11.8V-131.1z M-1549-116.1h11.8v11.8h-11.8V-116.1z M-1549-101h11.8v11.8h-11.8V-101z M-1549-86h11.8v11.8h-11.8V-86z
		 M-1549-70.9h11.8v11.8h-11.8V-70.9z M-1672.7-55.3c-0.2-0.2-0.4-0.4-0.6-0.6h0.6V-55.3z M-1672.7-59.1h-3.4
		c-2.7-3.5-4.7-7.5-6-11.8h9.5V-59.1z M-1672.7-74.2h-10.3c-0.5-2.3-0.7-4.7-0.7-7.1V-86h11V-74.2z M-1672.7-89.2h-11V-101h11V-89.2
		z M-1672.7-104.3h-11v-11.8h11V-104.3z M-1672.7-119.3h-11v-11.8h11V-119.3z M-1672.7-134.4h-11v-11.8h11V-134.4z M-1672.7-149.4
		h-11v-11.8h11V-149.4z M-1672.7-164.5h-11v-11.8h11V-164.5z M-1672.7-179.5h-11v-11.8h11V-179.5z M-1672.7-194.6h-11v-11.8h11
		V-194.6z M-1672.7-209.6h-11v-11.8h11V-209.6z M-1672.7-224.7h-11v-4.7c0-2.4,0.2-4.8,0.7-7.1h10.3V-224.7z M-1672.7-239.7h-9.5
		c1.3-4.3,3.3-8.3,6-11.8h3.4V-239.7z M-1672.7-254.8h-0.6c0.2-0.2,0.4-0.4,0.6-0.6V-254.8z M-1657.6-46.4c-4.3-1.3-8.3-3.3-11.8-6
		v-3.4h11.8V-46.4z M-1657.6-59.1h-11.8v-11.8h11.8V-59.1z M-1657.6-74.2h-11.8V-86h11.8V-74.2z M-1657.6-89.2h-11.8V-101h11.8
		V-89.2z M-1657.6-104.3h-11.8v-11.8h11.8V-104.3z M-1657.6-119.3h-11.8v-11.8h11.8V-119.3z M-1657.6-134.4h-11.8v-11.8h11.8V-134.4
		z M-1657.6-149.4h-11.8v-11.8h11.8V-149.4z M-1657.6-164.5h-11.8v-11.8h11.8V-164.5z M-1657.6-179.5h-11.8v-11.8h11.8V-179.5z
		 M-1657.6-194.6h-11.8v-11.8h11.8V-194.6z M-1657.6-209.6h-11.8v-11.8h11.8V-209.6z M-1657.6-224.7h-11.8v-11.8h11.8V-224.7z
		 M-1657.6-239.7h-11.8v-11.8h11.8V-239.7z M-1657.6-254.8h-11.8v-3.4c3.5-2.7,7.5-4.7,11.8-6V-254.8z M-1642.6-44.9h-4.7
		c-2.4,0-4.8-0.2-7.1-0.7v-10.3h11.8V-44.9z M-1642.6-59.1h-11.8v-11.8h11.8V-59.1z M-1642.6-74.2h-11.8V-86h11.8V-74.2z
		 M-1642.6-89.2h-11.8V-101h11.8V-89.2z M-1642.6-104.3h-11.8v-11.8h11.8V-104.3z M-1642.6-119.3h-11.8v-11.8h11.8V-119.3z
		 M-1642.6-134.4h-11.8v-11.8h11.8V-134.4z M-1642.6-149.4h-11.8v-11.8h11.8V-149.4z M-1642.6-164.5h-11.8v-11.8h11.8V-164.5z
		 M-1642.6-179.5h-11.8v-11.8h11.8V-179.5z M-1642.6-194.6h-11.8v-11.8h11.8V-194.6z M-1642.6-209.6h-11.8v-11.8h11.8V-209.6z
		 M-1642.6-224.7h-11.8v-11.8h11.8V-224.7z M-1642.6-239.7h-11.8v-11.8h11.8V-239.7z M-1642.6-254.8h-11.8v-10.3
		c2.3-0.5,4.7-0.7,7.1-0.7h4.7V-254.8z M-1627.5-44.9h-11.8v-11h11.8V-44.9z M-1627.5-59.1h-11.8v-11.8h11.8V-59.1z M-1627.5-74.2
		h-11.8V-86h11.8V-74.2z M-1627.5-89.2h-11.8V-101h11.8V-89.2z M-1627.5-104.3h-11.8v-11.8h11.8V-104.3z M-1627.5-119.3h-11.8v-11.8
		h11.8V-119.3z M-1627.5-134.4h-11.8v-11.8h11.8V-134.4z M-1627.5-149.4h-11.8v-11.8h11.8V-149.4z M-1627.5-164.5h-11.8v-11.8h11.8
		V-164.5z M-1627.5-179.5h-11.8v-11.8h11.8V-179.5z M-1627.5-194.6h-11.8v-11.8h11.8V-194.6z M-1627.5-209.6h-11.8v-11.8h11.8
		V-209.6z M-1627.5-224.7h-11.8v-11.8h11.8V-224.7z M-1627.5-239.7h-11.8v-11.8h11.8V-239.7z M-1627.5-254.8h-11.8v-11h11.8V-254.8z
		 M-1612.5-44.9h-11.8v-11h11.8V-44.9z M-1612.5-59.1h-11.8v-11.8h11.8V-59.1z M-1612.5-74.2h-11.8V-86h11.8V-74.2z M-1612.5-89.2
		h-11.8V-101h11.8V-89.2z M-1612.5-104.3h-11.8v-11.8h11.8V-104.3z M-1612.5-119.3h-11.8v-11.8h11.8V-119.3z M-1612.5-134.4h-11.8
		v-11.8h11.8V-134.4z M-1612.5-149.4h-11.8v-11.8h11.8V-149.4z M-1612.5-164.5h-11.8v-11.8h11.8V-164.5z M-1612.5-179.5h-11.8v-11.8
		h11.8V-179.5z M-1612.5-194.6h-11.8v-11.8h11.8V-194.6z M-1612.5-209.6h-11.8v-11.8h11.8V-209.6z M-1612.5-224.7h-11.8v-11.8h11.8
		V-224.7z M-1612.5-239.7h-11.8v-11.8h11.8V-239.7z M-1612.5-254.8h-11.8v-11h11.8V-254.8z M-1597.4-44.9h-11.8v-11h11.8V-44.9z
		 M-1597.4-59.1h-11.8v-11.8h11.8V-59.1z M-1597.4-74.2h-11.8V-86h11.8V-74.2z M-1597.4-89.2h-11.8V-101h11.8V-89.2z M-1597.4-104.3
		h-11.8v-11.8h11.8V-104.3z M-1597.4-119.3h-11.8v-11.8h11.8V-119.3z M-1597.4-134.4h-11.8v-11.8h11.8V-134.4z M-1597.4-149.4h-11.8
		v-11.8h11.8V-149.4z M-1597.4-164.5h-11.8v-11.8h11.8V-164.5z M-1597.4-179.5h-11.8v-11.8h11.8V-179.5z M-1597.4-194.6h-11.8v-11.8
		h11.8V-194.6z M-1597.4-209.6h-11.8v-11.8h11.8V-209.6z M-1597.4-224.7h-11.8v-11.8h11.8V-224.7z M-1597.4-239.7h-11.8v-11.8h11.8
		V-239.7z M-1597.4-254.8h-11.8v-11h11.8V-254.8z M-1582.4-44.9h-11.8v-11h11.8V-44.9z M-1582.4-59.1h-11.8v-11.8h11.8V-59.1z
		 M-1582.4-74.2h-11.8V-86h11.8V-74.2z M-1582.4-89.2h-11.8V-101h11.8V-89.2z M-1582.4-104.3h-11.8v-11.8h11.8V-104.3z
		 M-1582.4-119.3h-11.8v-11.8h11.8V-119.3z M-1582.4-134.4h-11.8v-11.8h11.8V-134.4z M-1582.4-149.4h-11.8v-11.8h11.8V-149.4z
		 M-1582.4-164.5h-11.8v-11.8h11.8V-164.5z M-1582.4-179.5h-11.8v-11.8h11.8V-179.5z M-1582.4-194.6h-11.8v-11.8h11.8V-194.6z
		 M-1582.4-209.6h-11.8v-11.8h11.8V-209.6z M-1582.4-224.7h-11.8v-11.8h11.8V-224.7z M-1582.4-239.7h-11.8v-11.8h11.8V-239.7z
		 M-1582.4-254.8h-11.8v-11h11.8V-254.8z M-1567.3-44.9h-11.8v-11h11.8V-44.9z M-1567.3-59.1h-11.8v-11.8h11.8V-59.1z M-1567.3-74.2
		h-11.8V-86h11.8V-74.2z M-1567.3-89.2h-11.8V-101h11.8V-89.2z M-1567.3-104.3h-11.8v-11.8h11.8V-104.3z M-1567.3-119.3h-11.8v-11.8
		h11.8V-119.3z M-1567.3-134.4h-11.8v-11.8h11.8V-134.4z M-1567.3-149.4h-11.8v-11.8h11.8V-149.4z M-1567.3-164.5h-11.8v-11.8h11.8
		V-164.5z M-1567.3-179.5h-11.8v-11.8h11.8V-179.5z M-1567.3-194.6h-11.8v-11.8h11.8V-194.6z M-1567.3-209.6h-11.8v-11.8h11.8
		V-209.6z M-1567.3-224.7h-11.8v-11.8h11.8V-224.7z M-1567.3-239.7h-11.8v-11.8h11.8V-239.7z M-1567.3-254.8h-11.8v-11h11.8V-254.8z
		 M-1552.3-44.9h-11.8v-11h11.8V-44.9z M-1552.3-59.1h-11.8v-11.8h11.8V-59.1z M-1552.3-74.2h-11.8V-86h11.8V-74.2z M-1552.3-89.2
		h-11.8V-101h11.8V-89.2z M-1552.3-104.3h-11.8v-11.8h11.8V-104.3z M-1552.3-119.3h-11.8v-11.8h11.8V-119.3z M-1552.3-134.4h-11.8
		v-11.8h11.8V-134.4z M-1552.3-149.4h-11.8v-11.8h11.8V-149.4z M-1552.3-164.5h-11.8v-11.8h11.8V-164.5z M-1552.3-179.5h-11.8v-11.8
		h11.8V-179.5z M-1552.3-194.6h-11.8v-11.8h11.8V-194.6z M-1552.3-209.6h-11.8v-11.8h11.8V-209.6z M-1552.3-224.7h-11.8v-11.8h11.8
		V-224.7z M-1552.3-239.7h-11.8v-11.8h11.8V-239.7z M-1552.3-254.8h-11.8v-11h11.8V-254.8z M-1549-55.9h11.8v11h-11.8V-55.9z
		 M-1536.5-21.4c-6.9,0-6.9-10.6,0-10.6S-1529.6-21.4-1536.5-21.4z M-1522.2-44.9h-11.8v-11h11.8V-44.9z M-1522.2-59.1h-11.8v-11.8
		h11.8V-59.1z M-1522.2-74.2h-11.8V-86h11.8V-74.2z M-1522.2-89.2h-11.8V-101h11.8V-89.2z M-1522.2-104.3h-11.8v-11.8h11.8V-104.3z
		 M-1522.2-119.3h-11.8v-11.8h11.8V-119.3z M-1522.2-134.4h-11.8v-11.8h11.8V-134.4z M-1522.2-149.4h-11.8v-11.8h11.8V-149.4z
		 M-1522.2-164.5h-11.8v-11.8h11.8V-164.5z M-1522.2-179.5h-11.8v-11.8h11.8V-179.5z M-1522.2-194.6h-11.8v-11.8h11.8V-194.6z
		 M-1522.2-209.6h-11.8v-11.8h11.8V-209.6z M-1522.2-224.7h-11.8v-11.8h11.8V-224.7z M-1522.2-239.7h-11.8v-11.8h11.8V-239.7z
		 M-1522.2-254.8h-11.8v-11h11.8V-254.8z M-1517-20.9c-6.9,0-6.9-10.6,0-10.6C-1510.1-31.5-1510.1-20.9-1517-20.9z M-1507.1-44.9
		h-11.8v-11h11.8V-44.9z M-1507.1-59.1h-11.8v-11.8h11.8V-59.1z M-1507.1-74.2h-11.8V-86h11.8V-74.2z M-1507.1-89.2h-11.8V-101h11.8
		V-89.2z M-1507.1-104.3h-11.8v-11.8h11.8V-104.3z M-1507.1-119.3h-11.8v-11.8h11.8V-119.3z M-1507.1-134.4h-11.8v-11.8h11.8V-134.4
		z M-1507.1-149.4h-11.8v-11.8h11.8V-149.4z M-1507.1-164.5h-11.8v-11.8h11.8V-164.5z M-1507.1-179.5h-11.8v-11.8h11.8V-179.5z
		 M-1507.1-194.6h-11.8v-11.8h11.8V-194.6z M-1507.1-209.6h-11.8v-11.8h11.8V-209.6z M-1507.1-224.7h-11.8v-11.8h11.8V-224.7z
		 M-1507.1-239.7h-11.8v-11.8h11.8V-239.7z M-1507.1-254.8h-11.8v-11h11.8V-254.8z M-1503.9-55.9h11.8v10.3
		c-2.3,0.5-4.7,0.7-7.1,0.7h-4.7V-55.9z M-1493.6-16.1c-11.7,0-11.7-18.1,0-18.1C-1482-34.1-1482-16.1-1493.6-16.1z M-1477-52.4
		c-3.5,2.7-7.5,4.7-11.8,6v-9.5h11.8V-52.4z M-1477-59.1h-11.8v-11.8h11.8V-59.1z M-1477-74.2h-11.8V-86h11.8V-74.2z M-1477-89.2
		h-11.8V-101h11.8V-89.2z M-1477-104.3h-11.8v-11.8h11.8V-104.3z M-1477-119.3h-11.8v-11.8h11.8V-119.3z M-1477-134.4h-11.8v-11.8
		h11.8V-134.4z M-1477-149.4h-11.8v-11.8h11.8V-149.4z M-1477-164.5h-11.8v-11.8h11.8V-164.5z M-1477-179.5h-11.8v-11.8h11.8V-179.5
		z M-1477-194.6h-11.8v-11.8h11.8V-194.6z M-1477-209.6h-11.8v-11.8h11.8V-209.6z M-1477-224.7h-11.8v-11.8h11.8V-224.7z
		 M-1477-239.7h-11.8v-11.8h11.8V-239.7z M-1477-254.8h-11.8v-9.5c4.3,1.3,8.3,3.3,11.8,6V-254.8z M-1473.8-55.3v-0.6h0.6
		C-1473.4-55.7-1473.6-55.5-1473.8-55.3z M-1470.3-59.1h-3.4v-11.8h9.5C-1465.6-66.6-1467.7-62.6-1470.3-59.1z M-1462.8-81.3
		c0,2.4-0.2,4.8-0.7,7.1h-10.3V-86h11V-81.3z M-1462.8-89.2h-11V-101h11V-89.2z M-1462.8-104.3h-11v-11.8h11V-104.3z M-1462.8-119.3
		h-11v-11.8h11V-119.3z M-1462.8-134.4h-11v-11.8h11V-134.4z M-1462.8-149.4h-11v-11.8h11V-149.4z M-1462.8-164.5h-11v-11.8h11
		V-164.5z M-1462.8-179.5h-11v-11.8h11V-179.5z M-1462.8-194.6h-11v-11.8h11V-194.6z M-1462.8-209.6h-11v-11.8h11V-209.6z
		 M-1462.8-224.7h-11v-11.8h10.3c0.5,2.3,0.7,4.7,0.7,7.1V-224.7z"/>
</g>
<g>
	<circle fill="#231F20" cx="-1823.8" cy="-220" r="15.6"/>
	<path fill="#231F20" d="M-1828.4-238.5c0.6,0.4,1.2,0.7,1.9,0.9l0,0l0,0c0.1,0,0.3,0.1,0.4,0.1c0,0,0,0,0.1,0c0.2,0,0.3,0,0.5,0
		c1.2-0.2,2.1-1.3,2.5-2.5c0.3-1.2,0.2-2.4,0.1-3.7c-0.7-10.1,0.3-20.4,3-30.1c1.6-5.6,3.7-11.2,3.7-17.1c0-5.8-2.7-12.2-8.1-14.4
		c-0.3-0.1-0.6-0.2-0.9-0.3c0,0-0.1,0-0.1,0c-0.3-0.1-0.6-0.1-0.9-0.2c-0.1,0-0.1,0-0.2,0c-0.3,0-0.6-0.1-0.8-0.1
		c-0.1,0-0.1,0-0.2,0c-0.3,0-0.6,0-0.8,0c-0.1,0-0.1,0-0.2,0c-0.3,0-0.5,0-0.8,0c-0.1,0-0.1,0-0.2,0c-0.2,0-0.5,0.1-0.7,0.1
		c-0.1,0-0.2,0-0.2,0c-0.3,0-0.5,0.1-0.8,0.2c-0.1,0-0.2,0-0.3,0.1c-0.2,0.1-0.5,0.1-0.7,0.2c-0.1,0-0.2,0.1-0.3,0.1
		c-0.2,0.1-0.5,0.2-0.7,0.3l0,0c-2.3,0.9-4.4,2.4-6,4.2c-3.6,4.1-5.2,9.7-6.1,15.1c-1.4,8.7-1.3,17.8,1.4,26.3
		S-1835.9-243.2-1828.4-238.5z"/>
	<path fill="#231F20" d="M-1813.3-234.3L-1813.3-234.3L-1813.3-234.3c0.1,0.1,0.2,0.2,0.3,0.4c0,0,0,0,0,0c0.1,0.1,0.2,0.2,0.3,0.3
		c1,0.7,2.4,0.6,3.5,0c1.1-0.6,1.9-1.6,2.7-2.5c6.7-7.7,14.6-14.2,23.5-19.2c5.1-2.9,10.6-5.3,14.7-9.4s6.7-10.5,4.4-15.9
		c-0.1-0.3-0.3-0.7-0.5-1c-0.1-0.1-0.1-0.2-0.2-0.3c-0.1-0.2-0.3-0.4-0.4-0.6c-0.1-0.1-0.2-0.2-0.2-0.3c-0.1-0.2-0.3-0.4-0.4-0.5
		c-0.1-0.1-0.2-0.2-0.3-0.3c-0.2-0.2-0.3-0.3-0.5-0.5c-0.1-0.1-0.2-0.2-0.3-0.3c-0.2-0.2-0.4-0.3-0.6-0.5c-0.1-0.1-0.2-0.1-0.3-0.2
		c-0.2-0.2-0.4-0.3-0.6-0.4c-0.1-0.1-0.2-0.1-0.3-0.2c-0.2-0.2-0.5-0.3-0.8-0.4c-0.1,0-0.1-0.1-0.2-0.1c-2.5-1.3-5.4-1.9-8.2-1.7
		c-5.5,0.4-10.5,3.1-15,6.4c-7.2,5.2-13.5,11.7-17.6,19.5c-4.1,7.8-5.8,17.1-3.8,25.7C-1813.8-235.6-1813.6-234.9-1813.3-234.3z"/>
	<path fill="#231F20" d="M-1737.9-224.6c0-0.3,0-0.5,0-0.8c0-0.1,0-0.1,0-0.2c0-0.2-0.1-0.5-0.1-0.7c0-0.1,0-0.2,0-0.2
		c0-0.3-0.1-0.5-0.2-0.8c0-0.1,0-0.2-0.1-0.3c-0.1-0.2-0.1-0.5-0.2-0.7c0-0.1-0.1-0.2-0.1-0.3c-0.1-0.2-0.2-0.5-0.3-0.7l0,0
		c-0.9-2.3-2.4-4.4-4.2-6c-4.1-3.6-9.7-5.2-15.1-6.1c-8.7-1.4-17.8-1.3-26.3,1.4c-8.4,2.7-16.2,8-20.9,15.5
		c-0.4,0.6-0.7,1.2-0.9,1.9l0,0l0,0c0,0.1-0.1,0.3-0.1,0.4c0,0,0,0,0,0.1c0,0.2,0,0.3,0,0.5c0.2,1.2,1.3,2.1,2.5,2.5
		c1.2,0.3,2.4,0.2,3.7,0.1c10.1-0.7,20.4,0.3,30.1,3c5.6,1.6,11.2,3.7,17.1,3.7c5.8,0,12.2-2.7,14.4-8.1c0.1-0.3,0.2-0.6,0.3-0.9
		c0,0,0-0.1,0-0.1c0.1-0.3,0.1-0.6,0.2-0.9c0-0.1,0-0.1,0-0.2c0-0.3,0.1-0.6,0.1-0.8c0-0.1,0-0.1,0-0.2c0-0.3,0-0.6,0-0.8
		C-1737.9-224.4-1737.9-224.5-1737.9-224.6z"/>
	<path fill="#231F20" d="M-1819.2-201.6c-0.6-0.4-1.2-0.7-1.9-0.9l0,0l0,0c-0.1,0-0.3-0.1-0.4-0.1c0,0,0,0-0.1,0c-0.2,0-0.3,0-0.5,0
		c-1.2,0.2-2.1,1.3-2.5,2.5s-0.2,2.4-0.1,3.7c0.7,10.1-0.3,20.4-3,30.1c-1.6,5.6-3.7,11.2-3.7,17.1c0,5.8,2.7,12.2,8.1,14.4
		c0.3,0.1,0.6,0.2,0.9,0.3c0,0,0.1,0,0.1,0c0.3,0.1,0.6,0.1,0.9,0.2c0.1,0,0.1,0,0.2,0c0.3,0,0.6,0.1,0.8,0.1c0.1,0,0.1,0,0.2,0
		c0.3,0,0.6,0,0.8,0c0.1,0,0.1,0,0.2,0c0.3,0,0.5,0,0.8,0c0.1,0,0.1,0,0.2,0c0.2,0,0.5-0.1,0.7-0.1c0.1,0,0.2,0,0.2,0
		c0.3,0,0.5-0.1,0.8-0.2c0.1,0,0.2,0,0.3-0.1c0.2-0.1,0.5-0.1,0.7-0.2c0.1,0,0.2-0.1,0.3-0.1c0.2-0.1,0.5-0.2,0.7-0.3l0,0
		c2.3-0.9,4.4-2.4,6-4.2c3.6-4.1,5.2-9.7,6.1-15.1c1.4-8.7,1.3-17.8-1.4-26.3C-1806.4-189.2-1811.7-196.9-1819.2-201.6z"/>
	<path fill="#231F20" d="M-1834.3-205.7L-1834.3-205.7L-1834.3-205.7c-0.1-0.1-0.2-0.2-0.3-0.4c0,0,0,0,0,0
		c-0.1-0.1-0.2-0.2-0.3-0.3c-1-0.7-2.4-0.6-3.5,0s-1.9,1.6-2.7,2.5c-6.7,7.7-14.6,14.2-23.5,19.2c-5.1,2.9-10.6,5.3-14.7,9.4
		c-4.2,4.1-6.7,10.5-4.4,15.9c0.1,0.3,0.3,0.7,0.5,1c0.1,0.1,0.1,0.2,0.2,0.3c0.1,0.2,0.3,0.4,0.4,0.6c0.1,0.1,0.2,0.2,0.2,0.3
		c0.1,0.2,0.3,0.4,0.4,0.5c0.1,0.1,0.2,0.2,0.3,0.3c0.2,0.2,0.3,0.3,0.5,0.5c0.1,0.1,0.2,0.2,0.3,0.3c0.2,0.2,0.4,0.3,0.6,0.5
		c0.1,0.1,0.2,0.1,0.3,0.2c0.2,0.2,0.4,0.3,0.6,0.4c0.1,0.1,0.2,0.1,0.3,0.2c0.2,0.2,0.5,0.3,0.8,0.4c0.1,0,0.1,0.1,0.2,0.1
		c0.3,0.2,0.7,0.3,1,0.5h0l0,0c2.3,1,4.8,1.4,7.2,1.2c5.5-0.4,10.5-3.1,15-6.4c7.2-5.2,13.5-11.7,17.6-19.5s5.8-17.1,3.8-25.7
		C-1833.7-204.4-1833.9-205.2-1834.3-205.7z"/>
	<path fill="#231F20" d="M-1863.1-200c8.4-2.7,16.2-8,20.9-15.5c0.4-0.6,0.7-1.2,0.9-1.9l0,0l0,0c0-0.1,0.1-0.3,0.1-0.4
		c0,0,0,0,0-0.1c0-0.2,0-0.3,0-0.5c-0.2-1.2-1.3-2.1-2.5-2.5c-1.2-0.3-2.4-0.2-3.7-0.1c-10.1,0.7-20.4-0.3-30.1-3
		c-5.6-1.6-11.2-3.7-17.1-3.7s-12.2,2.7-14.4,8.1c-0.1,0.3-0.2,0.6-0.3,0.9c0,0,0,0.1,0,0.1c-0.1,0.3-0.1,0.6-0.2,0.9
		c0,0.1,0,0.1,0,0.2c0,0.3-0.1,0.6-0.1,0.8c0,0.1,0,0.1,0,0.2c0,0.3,0,0.6,0,0.8c0,0.1,0,0.1,0,0.2c0,0.3,0,0.5,0,0.8
		c0,0.1,0,0.1,0,0.2c0,0.2,0.1,0.5,0.1,0.7c0,0.1,0,0.2,0,0.2c0,0.3,0.1,0.5,0.2,0.8c0,0.1,0,0.2,0.1,0.3c0.1,0.2,0.1,0.5,0.2,0.7
		c0,0.1,0.1,0.2,0.1,0.3c0.1,0.2,0.2,0.5,0.3,0.7l0,0c0.9,2.3,2.4,4.4,4.2,6c4.1,3.6,9.7,5.2,15.1,6.1
		C-1880.6-197.2-1871.5-197.3-1863.1-200z"/>
	<path fill="#231F20" d="M-1758.8-163.7c0.2-0.2,0.3-0.4,0.4-0.6c0.1-0.1,0.1-0.2,0.2-0.3c0.2-0.2,0.3-0.5,0.4-0.8
		c0-0.1,0.1-0.1,0.1-0.2c1.3-2.5,1.9-5.4,1.7-8.2c-0.4-5.5-3.1-10.5-6.4-15c-5.2-7.2-11.7-13.5-19.5-17.6
		c-7.8-4.1-17.1-5.8-25.7-3.8c-0.7,0.2-1.4,0.4-2,0.7l0,0l0,0c-0.1,0.1-0.2,0.2-0.4,0.3c0,0,0,0,0,0c-0.1,0.1-0.2,0.2-0.3,0.3
		c-0.7,1-0.6,2.4,0,3.5c0.6,1.1,1.6,1.9,2.5,2.7c7.7,6.7,14.2,14.6,19.2,23.5c2.9,5.1,5.3,10.6,9.4,14.7s10.5,6.7,15.9,4.4
		c0.3-0.1,0.7-0.3,1-0.5c0.1-0.1,0.2-0.1,0.3-0.2c0.2-0.1,0.4-0.3,0.6-0.4c0.1-0.1,0.2-0.2,0.3-0.2c0.2-0.1,0.4-0.3,0.5-0.4
		c0.1-0.1,0.2-0.2,0.3-0.3c0.2-0.2,0.3-0.3,0.5-0.5c0.1-0.1,0.2-0.2,0.3-0.3c0.2-0.2,0.3-0.4,0.5-0.6
		C-1758.9-163.5-1758.8-163.6-1758.8-163.7z"/>
	<path fill="#231F20" d="M-1888.8-276.4c-0.2,0.2-0.3,0.4-0.4,0.6c-0.1,0.1-0.1,0.2-0.2,0.3c-0.2,0.2-0.3,0.5-0.4,0.8
		c0,0.1-0.1,0.1-0.1,0.2c-1.3,2.5-1.9,5.4-1.7,8.2c0.4,5.5,3.1,10.5,6.4,15c5.2,7.2,11.7,13.5,19.5,17.6c7.8,4.1,17.1,5.8,25.7,3.8
		c0.7-0.2,1.4-0.4,2-0.7l0,0v0c0.1-0.1,0.2-0.2,0.4-0.3c0,0,0,0,0,0c0.1-0.1,0.2-0.2,0.3-0.3c0.7-1,0.6-2.4,0-3.5
		c-0.6-1.1-1.6-1.9-2.5-2.7c-7.7-6.7-14.2-14.6-19.2-23.5c-2.9-5.1-5.3-10.6-9.4-14.7c-4.1-4.2-10.5-6.7-15.9-4.4
		c-0.3,0.1-0.7,0.3-1,0.5c-0.1,0.1-0.2,0.1-0.3,0.2c-0.2,0.1-0.4,0.3-0.6,0.4c-0.1,0.1-0.2,0.2-0.3,0.2c-0.2,0.1-0.4,0.3-0.5,0.4
		c-0.1,0.1-0.2,0.2-0.3,0.3c-0.2,0.2-0.3,0.3-0.5,0.5c-0.1,0.1-0.2,0.2-0.3,0.3c-0.2,0.2-0.3,0.4-0.5,0.6
		C-1888.6-276.5-1888.7-276.4-1888.8-276.4z"/>
	<path fill="#231F20" d="M-1823.8-316.5c-53.2,0-96.5,43.3-96.5,96.5c0,53.2,43.3,96.5,96.5,96.5c53.2,0,96.5-43.3,96.5-96.5
		C-1727.3-273.2-1770.6-316.5-1823.8-316.5z M-1882.4-220c0-2.8,0.2-5.6,0.6-8.3l32.2,5.1c-0.1,0.9-0.2,1.9-0.2,2.8l-32.6,0.6
		C-1882.4-219.9-1882.4-220-1882.4-220z M-1763.5-221.2c-0.1-3-0.3-5.9-0.8-8.7l29.2-5.3c0.8,4.5,1.2,9.1,1.3,13.9L-1763.5-221.2z
		 M-1807.4-202.1l-9.4-11l11.2,9.2C-1806.2-203.3-1806.7-202.7-1807.4-202.1z M-1834.9-198.4l7.1-12.7l-4.8,13.7
		C-1833.4-197.7-1834.1-198-1834.9-198.4z M-1833.2-195.8l-10.7,30.8c-2.7-1-5.2-2.1-7.7-3.5l15.9-28.4
		C-1834.9-196.5-1834-196.1-1833.2-195.8z M-1845.5-231l12.7,7l-13.7-4.7C-1846.2-229.5-1845.8-230.3-1845.5-231z M-1848.1-229.3
		l-30.8-10.6c1-2.7,2.1-5.3,3.4-7.7l28.5,15.7C-1847.4-231-1847.8-230.1-1848.1-229.3z M-1840.4-237.7l9.6,10.9l-11.3-9.1
		C-1841.6-236.6-1841-237.2-1840.4-237.7z M-1805.8-236.4l-11.1,9.4l9.3-11.1C-1806.9-237.6-1806.3-237-1805.8-236.4z
		 M-1822.9-229.8v-14.5c0.8,0,1.7,0.1,2.5,0.2L-1822.9-229.8z M-1818.7-243.8c0.8,0.2,1.6,0.4,2.4,0.7l-4.9,13.6L-1818.7-243.8z
		 M-1824.6-230.2l-2.3-13.9c0.8-0.1,1.5-0.2,2.3-0.2V-230.2z M-1826-228.1l-5.8-14.9c1-0.4,2.1-0.7,3.1-0.9L-1826-228.1z
		 M-1821.1-210.6l5.1,13.6c-0.8,0.3-1.6,0.5-2.4,0.7L-1821.1-210.6z M-1820.1-196c-0.8,0.1-1.7,0.2-2.5,0.2l-0.2-14.5L-1820.1-196z
		 M-1814-219.2l14.5-0.1c0,0.8-0.1,1.7-0.2,2.5L-1814-219.2z M-1800-215.1c-0.2,0.8-0.4,1.6-0.6,2.4l-13.7-4.9L-1800-215.1z
		 M-1814-220.9l14.3-2.6c0.1,0.8,0.2,1.7,0.2,2.5L-1814-220.9z M-1814.3-222.6l13.6-5c0.3,0.8,0.5,1.6,0.7,2.4L-1814.3-222.6z
		 M-1799.1-228.2l30.6-11.3c0.9,2.6,1.7,5.4,2.2,8.2l-32,5.8C-1798.6-226.4-1798.8-227.3-1799.1-228.2z M-1799.7-229.8
		c-0.4-0.9-0.8-1.7-1.2-2.5l28.1-16.4c1.4,2.4,2.6,5,3.6,7.7L-1799.7-229.8z M-1801.3-229.2l-13.6,5l12.5-7.3
		C-1802-230.8-1801.6-230-1801.3-229.2z M-1815.8-225.7l11.1-9.4c0.5,0.7,1,1.3,1.5,2.1L-1815.8-225.7z M-1818.2-228.1l7.2-12.6
		c0.7,0.4,1.4,0.9,2.1,1.4L-1818.2-228.1z M-1819.6-228.9l4.9-13.6c0.8,0.3,1.5,0.7,2.3,1.1L-1819.6-228.9z M-1814.1-244.2
		l11.1-30.6c2.7,1,5.2,2.2,7.7,3.6l-16.2,28.2C-1812.4-243.4-1813.2-243.8-1814.1-244.2z M-1815.7-244.8c-0.9-0.3-1.8-0.5-2.7-0.7
		l5.6-32.1c2.8,0.5,5.5,1.3,8.2,2.2L-1815.7-244.8z M-1820.1-245.8c-0.9-0.1-1.9-0.2-2.8-0.2v-32.6c2.9,0,5.7,0.3,8.4,0.7
		L-1820.1-245.8z M-1824.6-246c-0.9,0-1.8,0.1-2.6,0.2l-5.4-32.1c2.6-0.4,5.3-0.6,8-0.7V-246z M-1828.9-245.5
		c-1.2,0.2-2.4,0.6-3.5,1l-11.8-30.3c3.2-1.2,6.5-2.1,9.9-2.7L-1828.9-245.5z M-1834-243.9c-0.9,0.4-1.7,0.8-2.5,1.3l-16.9-27.8
		c2.4-1.4,5-2.7,7.6-3.8L-1834-243.9z M-1833.4-242.4l5.3,13.5l-7.5-12.4C-1834.9-241.6-1834.2-242-1833.4-242.4z M-1829.6-227.9
		l-9.6-10.9c0.7-0.5,1.3-1,2-1.5L-1829.6-227.9z M-1831.9-225.5l-12.7-7c0.4-0.7,0.9-1.4,1.4-2.1L-1831.9-225.5z M-1833.3-222.4
		l-14.3-2.3c0.2-0.8,0.4-1.6,0.6-2.4L-1833.3-222.4z M-1833.6-220.7l-14.5,0.3c0-0.8,0.1-1.7,0.2-2.5L-1833.6-220.7z M-1833.5-219
		l-14.3,2.8c-0.1-0.8-0.2-1.7-0.3-2.5L-1833.5-219z M-1833.2-217.3l-13.6,5.2c-0.3-0.8-0.5-1.6-0.7-2.4L-1833.2-217.3z
		 M-1848.4-211.5l-30.4,11.6c-1-2.6-1.7-5.4-2.3-8.1l32-6.2C-1848.9-213.3-1848.7-212.4-1848.4-211.5z M-1847.8-209.9
		c0.4,0.9,0.8,1.7,1.2,2.5l-27.9,16.7c-1.4-2.4-2.7-5-3.7-7.6L-1847.8-209.9z M-1846.2-210.6l13.6-5.2l-12.5,7.5
		C-1845.5-209-1845.8-209.8-1846.2-210.6z M-1831.7-214.3l-11,9.5c-0.5-0.7-1-1.3-1.5-2L-1831.7-214.3z M-1830.6-213l-9.2,11.2
		c-0.6-0.6-1.2-1.1-1.8-1.8L-1830.6-213z M-1829.3-211.9l-7.1,12.7c-0.7-0.4-1.4-0.9-2.1-1.4L-1829.3-211.9z M-1826.2-210.5
		l-2.3,14.3c-0.8-0.2-1.6-0.4-2.4-0.6L-1826.2-210.5z M-1824.5-210.2l0.2,14.5c-0.8,0-1.7-0.1-2.5-0.2L-1824.5-210.2z
		 M-1822.6-194.1c0.9,0,1.9-0.1,2.8-0.3l6,32c-2.8,0.5-5.6,0.8-8.4,0.8L-1822.6-194.1z M-1818.1-194.6c0.9-0.2,1.8-0.5,2.7-0.8
		l11.5,30.5c-2.6,1-5.4,1.7-8.2,2.3L-1818.1-194.6z M-1813.8-196c0.9-0.4,1.7-0.8,2.5-1.2l16.5,28c-2.4,1.4-5,2.6-7.6,3.7
		L-1813.8-196z M-1814.4-197.6l-5.1-13.6l7.4,12.5C-1812.9-198.3-1813.7-197.9-1814.4-197.6z M-1818.1-212.1l9.4,11
		c-0.7,0.5-1.3,1-2,1.5L-1818.1-212.1z M-1815.7-214.5l12.6,7.2c-0.4,0.7-0.9,1.4-1.4,2.1L-1815.7-214.5z M-1814.9-216l13.7,4.9
		c-0.3,0.8-0.7,1.5-1.1,2.3L-1814.9-216z M-1799.6-210.5l30.7,10.9c-1,2.7-2.2,5.2-3.5,7.7l-28.3-16.1
		C-1800.3-208.8-1799.9-209.6-1799.6-210.5z M-1799-212.1c0.3-0.9,0.5-1.8,0.7-2.7l32.1,5.4c-0.5,2.8-1.2,5.5-2.1,8.2L-1799-212.1z
		 M-1798-216.5c0.1-0.9,0.2-1.9,0.2-2.8l32.6-0.2c0,2.9-0.2,5.7-0.7,8.4L-1798-216.5z M-1797.8-221c0-0.9-0.1-1.9-0.3-2.8l32-5.8
		c0.5,2.8,0.7,5.6,0.8,8.4L-1797.8-221z M-1764.6-231.6c-0.6-2.9-1.3-5.7-2.3-8.5l27.8-10.3c1.6,4.3,2.8,8.8,3.7,13.4L-1764.6-231.6
		z M-1767.6-241.7c-1.1-2.7-2.3-5.4-3.8-7.9l25.6-14.9c2.3,4,4.3,8.2,5.9,12.6L-1767.6-241.7z M-1772.1-251.1
		c-1.5-2.5-3.2-4.9-5.1-7.2l22.6-19.1c3,3.6,5.6,7.4,8,11.4L-1772.1-251.1z M-1773.6-250.2l-28.1,16.4c-0.5-0.8-1-1.6-1.6-2.3
		l24.9-21C-1776.7-255-1775.1-252.7-1773.6-250.2z M-1804.5-237.5c-0.6-0.7-1.3-1.4-2-2l20.9-25c2.1,1.8,4.1,3.8,6,6L-1804.5-237.5z
		 M-1807.8-240.5c-0.7-0.6-1.5-1.1-2.3-1.6l16.2-28.2c2.4,1.5,4.8,3.1,6.9,4.9L-1807.8-240.5z M-1793-271.8l14.8-25.7
		c4,2.4,7.8,5,11.4,8l-19,22.7C-1788.1-268.7-1790.5-270.3-1793-271.8z M-1794.5-272.7c-2.5-1.4-5.2-2.7-7.9-3.7l10.1-27.9
		c4.4,1.6,8.6,3.6,12.6,5.9L-1794.5-272.7z M-1804-277c-2.7-1-5.6-1.7-8.5-2.3l5.1-29.2c4.6,0.9,9.1,2.1,13.4,3.6L-1804-277z
		 M-1814.2-279.5c-2.9-0.5-5.8-0.7-8.7-0.7v-29.6c4.7,0,9.3,0.5,13.9,1.2L-1814.2-279.5z M-1824.6-280.3c-2.8,0-5.6,0.3-8.3,0.7
		l-4.9-29.2c4.3-0.7,8.7-1.1,13.2-1.1V-280.3z M-1834.6-279.3c-3.5,0.6-6.9,1.6-10.2,2.8l-10.7-27.6c5.1-2,10.5-3.5,16.1-4.4
		L-1834.6-279.3z M-1846.4-275.9c-2.7,1.1-5.3,2.4-7.9,3.9l-15.4-25.3c4-2.4,8.1-4.4,12.5-6.2L-1846.4-275.9z M-1855.7-271.1
		c-2.5,1.6-4.8,3.3-7.1,5.2l-19.5-22.3c3.5-3,7.3-5.8,11.2-8.2L-1855.7-271.1z M-1854.9-269.6l16.9,27.8c-0.8,0.5-1.5,1.1-2.3,1.7
		l-21.4-24.5C-1859.5-266.5-1857.3-268.1-1854.9-269.6z M-1841.5-239c-0.7,0.6-1.3,1.3-1.9,2l-25.4-20.4c1.8-2.2,3.8-4.2,5.9-6.1
		L-1841.5-239z M-1844.6-235.7c-0.6,0.7-1.1,1.5-1.6,2.3l-28.5-15.7c1.4-2.5,3-4.8,4.7-7L-1844.6-235.7z M-1876.1-249.9l-25.9-14.3
		c2.3-4.1,4.9-7.9,7.8-11.5l23.1,18.6C-1873-254.8-1874.7-252.4-1876.1-249.9z M-1877-248.4c-1.4,2.6-2.6,5.2-3.6,8l-28-9.6
		c1.6-4.4,3.5-8.7,5.6-12.7L-1877-248.4z M-1881.1-238.8c-0.9,2.8-1.6,5.6-2.1,8.5l-29.3-4.6c0.8-4.6,1.9-9.1,3.3-13.5
		L-1881.1-238.8z M-1879.5-238.2l30.8,10.6c-0.3,0.9-0.5,1.8-0.7,2.7l-32.2-5.1C-1881-232.8-1880.3-235.5-1879.5-238.2z
		 M-1849.8-218.7c0,0.9,0.1,1.9,0.3,2.8l-32,6.2c-0.5-2.7-0.8-5.6-0.9-8.4L-1849.8-218.7z M-1883.1-209.4l-29.1,5.6
		c-0.8-4.5-1.3-9.1-1.4-13.8l29.6-0.5C-1883.9-215.2-1883.6-212.2-1883.1-209.4z M-1882.8-207.7c0.6,2.9,1.4,5.7,2.4,8.4l-27.7,10.6
		c-1.6-4.3-2.9-8.8-3.8-13.4L-1882.8-207.7z M-1879.8-197.7c1.1,2.7,2.4,5.4,3.8,7.9l-25.4,15.2c-2.3-4-4.4-8.2-6.1-12.5
		L-1879.8-197.7z M-1875-188.4c1.5,2.5,3.3,4.9,5.1,7.1l-22.4,19.4c-3-3.5-5.7-7.3-8.2-11.3L-1875-188.4z M-1873.6-189.2l27.9-16.7
		c0.5,0.8,1.1,1.6,1.7,2.3l-24.6,21.3C-1870.4-184.5-1872.1-186.8-1873.6-189.2z M-1842.9-202.4c0.6,0.7,1.3,1.3,2,2l-20.6,25.2
		c-2.2-1.8-4.2-3.8-6.1-5.9L-1842.9-202.4z M-1839.5-199.4c0.7,0.6,1.5,1.1,2.3,1.6l-15.9,28.4c-2.5-1.4-4.8-3-7-4.8L-1839.5-199.4z
		 M-1853.9-167.9l-14.5,25.9c-4-2.3-7.9-4.9-11.5-7.8l18.7-23C-1858.9-171-1856.5-169.3-1853.9-167.9z M-1852.5-167
		c2.6,1.4,5.2,2.6,8,3.6l-9.8,28c-4.4-1.6-8.6-3.5-12.7-5.7L-1852.5-167z M-1842.8-162.9c2.8,0.9,5.6,1.6,8.5,2.2l-4.8,29.3
		c-4.6-0.8-9.1-1.9-13.5-3.4L-1842.8-162.9z M-1842.3-164.5l10.7-30.7c0.9,0.3,1.8,0.5,2.7,0.7l-5.3,32.1
		C-1836.9-162.9-1839.6-163.6-1842.3-164.5z M-1827.1-194.2c0.9,0.1,1.9,0.2,2.8,0.2l0.4,32.6c-2.9,0-5.7-0.2-8.4-0.6L-1827.1-194.2
		z M-1813.5-160.7l5.5,29.1c-4.5,0.8-9.1,1.3-13.8,1.4l-0.3-29.6C-1819.3-159.9-1816.3-160.2-1813.5-160.7z M-1811.8-161
		c2.9-0.6,5.7-1.4,8.4-2.4l10.4,27.7c-4.3,1.6-8.8,2.8-13.4,3.7L-1811.8-161z M-1801.8-163.9c2.7-1.1,5.4-2.3,7.9-3.8l15.1,25.5
		c-4,2.3-8.2,4.3-12.5,6L-1801.8-163.9z M-1792.4-168.6c2.5-1.5,4.9-3.2,7.1-5.1l19.2,22.5c-3.5,3-7.3,5.7-11.3,8.1L-1792.4-168.6z
		 M-1793.3-170.1l-16.6-28c0.8-0.5,1.6-1.1,2.3-1.6l21.2,24.7C-1788.6-173.2-1790.9-171.5-1793.3-170.1z M-1806.3-200.8
		c0.7-0.6,1.3-1.3,2-2l25.1,20.7c-1.8,2.2-3.8,4.2-5.9,6L-1806.3-200.8z M-1803.2-204.2c0.6-0.7,1.1-1.5,1.6-2.3l28.3,16.1
		c-1.4,2.4-3,4.8-4.8,7L-1803.2-204.2z M-1771.8-189.6l25.8,14.6c-2.3,4-5,7.8-7.9,11.4l-22.8-18.8
		C-1774.9-184.6-1773.3-187.1-1771.8-189.6z M-1770.9-191.1c1.4-2.6,2.6-5.2,3.7-8l27.9,9.9c-1.6,4.4-3.6,8.6-5.8,12.6
		L-1770.9-191.1z M-1766.7-200.6c0.9-2.7,1.7-5.6,2.2-8.5l29.2,5c-0.8,4.6-2,9.1-3.5,13.5L-1766.7-200.6z M-1764.2-210.8
		c0.4-2.9,0.7-5.8,0.7-8.7l29.6-0.2c0,4.7-0.4,9.3-1.1,13.9L-1764.2-210.8z M-1755.7-278.7l-22.6,19.1c-1.9-2.2-4-4.3-6.2-6.2
		l19-22.7C-1762-285.5-1758.7-282.2-1755.7-278.7z M-1883.6-287.1l19.5,22.3c-2.2,2-4.2,4.1-6.1,6.3l-23.1-18.6
		C-1890.3-280.6-1887.1-284-1883.6-287.1z M-1912.7-233.2l29.3,4.6c-0.4,2.8-0.6,5.6-0.6,8.5c0,0.1,0,0.1,0,0.2l-29.6,0.5
		c0-0.2,0-0.5,0-0.7C-1913.7-224.5-1913.3-228.9-1912.7-233.2z M-1891.2-160.6l22.4-19.4c1.9,2.2,4,4.2,6.3,6.1l-18.7,23
		C-1884.8-153.9-1888.1-157.1-1891.2-160.6z M-1837.5-131.2l4.8-29.2c2.9,0.4,5.8,0.6,8.7,0.7l0.3,29.6c-0.1,0-0.1,0-0.2,0
		C-1828.4-130.1-1833-130.5-1837.5-131.2z M-1764.8-152.3l-19.2-22.5c2.2-1.9,4.2-4,6.1-6.2l22.8,18.8
		C-1758-158.7-1761.3-155.3-1764.8-152.3z"/>
	<path fill="#231F20" d="M-1780.3-29.7h-31.3v-54.7h-5.5v-44.3h-13.4v44.3h-5.5v54.7h-31.3c-4.7,0-8.6,3.8-8.6,8.6v3.6
		c0,1.9,1.5,3.4,3.4,3.4h97.3c1.9,0,3.4-1.5,3.4-3.4v-3.6C-1771.7-25.9-1775.6-29.7-1780.3-29.7z"/>
</g>
<g>
	<g>
		<path fill="#2D292A" d="M-1707.1,317.6c-6.8-2-14.2,0.6-20.5,3.8c-6.8,3.5-13.2,7.7-19.1,12.7c-1.4-3.7-3.7-6.9-6.6-9.3
			c2.3-4.8,1.4-10.7,3.1-15.8c2-6,7.4-10.3,12.8-13.5c5.5-3.2,11.4-5.9,16-10.3c4.5-4.5,7.3-11.5,4.7-17.3
			c-2.1-4.6-6.9-7.2-11.6-9.1c-27.9-10.8-62-2.8-82.1,19.3c-5.9,6.5-10.9,15.2-8.8,23.7c1.7,6.9,7.6,12,13.6,15.9
			c6.4,4.2,13.3,7.6,20.5,10.2c-2.4,2.9-4.1,6.5-4.8,10.4c-5.3,0.4-9.9,4.1-15.2,5.2c-6.2,1.3-12.6-1.2-18.1-4.4
			c-5.5-3.1-10.8-7-16.9-8.6c-6.1-1.7-13.6-0.6-17.3,4.6c-3,4.1-2.8,9.6-2,14.6c4.6,29.5,28.6,55.1,57.7,61.5
			c8.6,1.9,18.6,1.9,25-4.2c5.2-4.9,6.6-12.6,7-19.7c0.4-7.6-0.1-15.3-1.4-22.9c1.2,0.2,2.4,0.3,3.6,0.3c2.7,0,5.3-0.5,7.8-1.4
			c3,4.3,8.6,6.5,12.1,10.5c4.2,4.7,5.2,11.5,5.3,17.9c0.1,6.4-0.6,12.8,1,19c1.6,6.2,6.3,12.1,12.6,12.7c5,0.5,9.7-2.4,13.7-5.5
			c23.3-18.7,33.4-52.3,24.4-80.8C-1693.6,328.8-1698.6,320.1-1707.1,317.6z"/>
		<circle fill="#212121" cx="-1768.8" cy="342.5" r="15.8"/>
		<circle fill="#443F41" cx="-1769" cy="342.4" r="13.8"/>
	</g>
	<g>
		<path fill="#231F20" d="M-1671.6,231.5h-192.3c-8.1,0-14.7,6.6-14.7,14.7v192.3c0,8.1,6.6,14.7,14.7,14.7h192.3
			c8.1,0,14.7-6.6,14.7-14.7V246.2C-1656.9,238.1-1663.5,231.5-1671.6,231.5z M-1767.8,444.7c-56.5,0-102.4-45.8-102.4-102.4
			c0-56.5,45.8-102.4,102.4-102.4c56.5,0,102.4,45.8,102.4,102.4C-1665.4,398.9-1711.2,444.7-1767.8,444.7z"/>
	</g>
	<g>
		<circle fill="#FFFFFF" cx="-1676.6" cy="251" r="11"/>
		<path fill="#231F20" d="M-1668.9,249h-5.6v-5.6c0-1.1-0.9-2.1-2.1-2.1c-1.1,0-2.1,0.9-2.1,2.1v5.6h-5.6c-1.1,0-2.1,0.9-2.1,2.1
			s0.9,2.1,2.1,2.1h5.6v5.6c0,1.1,0.9,2.1,2.1,2.1c1.1,0,2.1-0.9,2.1-2.1v-5.6h5.6c1.1,0,2.1-0.9,2.1-2.1S-1667.8,249-1668.9,249z"
			/>
	</g>
	<g>
		<circle fill="#FFFFFF" cx="-1858.9" cy="251" r="11"/>
		<path fill="#231F20" d="M-1866.6,249h5.6v-5.6c0-1.1,0.9-2.1,2.1-2.1c1.1,0,2.1,0.9,2.1,2.1v5.6h5.6c1.1,0,2.1,0.9,2.1,2.1
			s-0.9,2.1-2.1,2.1h-5.6v5.6c0,1.1-0.9,2.1-2.1,2.1c-1.1,0-2.1-0.9-2.1-2.1v-5.6h-5.6c-1.1,0-2.1-0.9-2.1-2.1
			S-1867.8,249-1866.6,249z"/>
	</g>
	<g>
		<circle fill="#FFFFFF" cx="-1676.6" cy="433.7" r="11"/>
		<path fill="#231F20" d="M-1668.9,435.7h-5.6v5.6c0,1.1-0.9,2.1-2.1,2.1c-1.1,0-2.1-0.9-2.1-2.1v-5.6h-5.6c-1.1,0-2.1-0.9-2.1-2.1
			s0.9-2.1,2.1-2.1h5.6V426c0-1.1,0.9-2.1,2.1-2.1c1.1,0,2.1,0.9,2.1,2.1v5.6h5.6c1.1,0,2.1,0.9,2.1,2.1S-1667.8,435.7-1668.9,435.7
			z"/>
	</g>
	<g>
		<circle fill="#FFFFFF" cx="-1858.9" cy="433.7" r="11"/>
		<path fill="#231F20" d="M-1866.6,435.7h5.6v5.6c0,1.1,0.9,2.1,2.1,2.1c1.1,0,2.1-0.9,2.1-2.1v-5.6h5.6c1.1,0,2.1-0.9,2.1-2.1
			s-0.9-2.1-2.1-2.1h-5.6V426c0-1.1-0.9-2.1-2.1-2.1c-1.1,0-2.1,0.9-2.1,2.1v5.6h-5.6c-1.1,0-2.1,0.9-2.1,2.1
			S-1867.8,435.7-1866.6,435.7z"/>
	</g>
	<path fill="#231F20" d="M-1661.4,343.5v-2.3h-14.6c-0.3-24.5-10.2-46.6-26.1-62.9l10.3-10.3l-1.6-1.6l-10.3,10.3
		c-16.3-15.9-38.5-25.8-62.9-26.1V236h-2.3v14.6c-24.5,0.3-46.6,10.2-62.9,26.1l-10.3-10.3l-1.6,1.6l10.3,10.3
		c-15.9,16.3-25.8,38.5-26.1,62.9h-14.6v2.3h14.6c0.3,24.5,10.2,46.6,26.1,62.9l-10.3,10.3l1.6,1.6l10.3-10.3
		c16.3,15.9,38.5,25.8,62.9,26.1v14.6h2.3v-14.6c24.5-0.3,46.6-10.2,62.9-26.1l10.3,10.3l1.6-1.6l-10.3-10.3
		c15.9-16.3,25.8-38.5,26.1-62.9H-1661.4z M-1678.3,341.2h-10.1c-0.3-21.1-8.8-40.2-22.5-54.2l7.1-7.1
		C-1688.2,295.8-1678.6,317.4-1678.3,341.2z M-1766.6,312.3c7.4,0.3,14.2,3.3,19.3,8l-19.3,19.3V312.3z M-1768.9,339.6l-19.3-19.3
		c5.1-4.7,11.9-7.7,19.3-8V339.6z M-1770.5,341.2h-27.3c0.3-7.4,3.3-14.2,8-19.3L-1770.5,341.2z M-1770.5,343.5l-19.3,19.3
		c-4.7-5.1-7.7-11.9-8-19.3H-1770.5z M-1768.9,345.1v27.3c-7.4-0.3-14.2-3.3-19.3-8L-1768.9,345.1z M-1766.6,345.1l19.3,19.3
		c-5.1,4.7-11.9,7.7-19.3,8V345.1z M-1765,343.5h27.3c-0.3,7.4-3.3,14.2-8,19.3L-1765,343.5z M-1765.1,341.2l19.3-19.3
		c4.7,5.1,7.7,11.9,8,19.3H-1765.1z M-1745.8,318.7c-5.5-5.1-12.8-8.4-20.9-8.7v-8.7c10.4,0.3,19.9,4.5,27,11.2L-1745.8,318.7z
		 M-1768.9,310.1c-8.1,0.3-15.4,3.5-20.9,8.7l-6.1-6.1c7.1-6.7,16.6-10.9,27-11.2V310.1z M-1791.4,320.3c-5.1,5.5-8.4,12.8-8.7,20.9
		h-8.7c0.3-10.4,4.5-19.9,11.2-27L-1791.4,320.3z M-1800.1,343.5c0.3,8.1,3.5,15.4,8.7,20.9l-6.1,6.1c-6.7-7.1-10.9-16.6-11.2-27
		H-1800.1z M-1789.8,366c5.5,5.1,12.8,8.4,20.9,8.7v8.7c-10.4-0.3-19.9-4.5-27-11.2L-1789.8,366z M-1766.6,374.6
		c8.1-0.3,15.4-3.5,20.9-8.7l6.1,6.1c-7.1,6.7-16.6,10.9-27,11.2V374.6z M-1744.2,364.4c5.1-5.5,8.4-12.8,8.7-20.9h8.7
		c-0.3,10.4-4.5,19.9-11.2,27L-1744.2,364.4z M-1735.5,341.2c-0.3-8.1-3.5-15.4-8.7-20.9l6.1-6.1c6.7,7.1,10.9,16.6,11.2,27H-1735.5
		z M-1738,311c-7.5-7.1-17.5-11.6-28.6-11.9v-10.6c14,0.3,26.7,5.9,36.1,15L-1738,311z M-1768.9,299.2c-11.1,0.3-21.1,4.7-28.6,11.9
		l-7.5-7.5c9.4-9,22.1-14.7,36.1-15V299.2z M-1799.1,312.6c-7.1,7.5-11.6,17.5-11.9,28.6h-10.6c0.3-14,5.9-26.7,15-36.1
		L-1799.1,312.6z M-1811,343.5c0.3,11.1,4.7,21.1,11.9,28.6l-7.5,7.5c-9-9.4-14.7-22.1-15-36.1H-1811z M-1797.5,373.7
		c7.5,7.1,17.5,11.6,28.6,11.9v10.6c-14-0.3-26.7-5.9-36.1-15L-1797.5,373.7z M-1766.6,385.6c11.1-0.3,21.1-4.7,28.6-11.9l7.5,7.5
		c-9.4,9-22.1,14.7-36.1,15V385.6z M-1736.4,372.1c7.1-7.5,11.6-17.5,11.9-28.6h10.6c-0.3,14-5.9,26.7-15,36.1L-1736.4,372.1z
		 M-1724.6,341.2c-0.3-11.1-4.7-21.1-11.9-28.6l7.5-7.5c9,9.4,14.7,22.1,15,36.1H-1724.6z M-1728.9,301.9
		c-9.8-9.5-23.1-15.4-37.7-15.6v-9.8c17.3,0.3,33,7.3,44.6,18.5L-1728.9,301.9z M-1768.9,286.3c-14.6,0.3-27.9,6.2-37.7,15.6
		l-6.9-6.9c11.6-11.2,27.3-18.2,44.6-18.5V286.3z M-1808.2,303.5c-9.5,9.8-15.4,23.1-15.6,37.7h-9.8c0.3-17.3,7.3-33,18.5-44.7
		L-1808.2,303.5z M-1823.9,343.5c0.3,14.6,6.2,27.9,15.6,37.7l-6.9,6.9c-11.2-11.6-18.2-27.3-18.5-44.6H-1823.9z M-1806.6,382.8
		c9.8,9.5,23.1,15.4,37.7,15.6v9.8c-17.3-0.3-33-7.3-44.7-18.5L-1806.6,382.8z M-1766.6,398.5c14.6-0.3,27.9-6.2,37.7-15.6l6.9,6.9
		c-11.6,11.2-27.3,18.2-44.6,18.5V398.5z M-1727.3,381.2c9.5-9.8,15.4-23.1,15.6-37.7h9.8c-0.3,17.3-7.3,33-18.5,44.6L-1727.3,381.2
		z M-1711.7,341.2c-0.3-14.6-6.2-27.9-15.6-37.7l6.9-6.9c11.2,11.6,18.2,27.3,18.5,44.7H-1711.7z M-1720.4,293.4
		c-12-11.6-28.3-18.9-46.2-19.2v-9c20.4,0.3,39,8.6,52.6,21.8L-1720.4,293.4z M-1768.9,274.2c-17.9,0.3-34.2,7.6-46.2,19.2l-6.4-6.4
		c13.7-13.3,32.2-21.5,52.6-21.8V274.2z M-1816.8,295c-11.6,12-18.9,28.3-19.2,46.2h-9c0.3-20.4,8.6-39,21.8-52.6L-1816.8,295z
		 M-1835.9,343.5c0.3,17.9,7.6,34.2,19.2,46.2l-6.4,6.4c-13.3-13.7-21.5-32.2-21.8-52.6H-1835.9z M-1815.2,391.3
		c12,11.6,28.3,18.9,46.2,19.2v9c-20.4-0.3-39-8.6-52.6-21.8L-1815.2,391.3z M-1766.6,410.5c17.9-0.3,34.2-7.6,46.2-19.2l6.4,6.4
		c-13.7,13.3-32.2,21.5-52.6,21.8V410.5z M-1718.8,389.7c11.6-12,18.9-28.3,19.2-46.2h9c-0.3,20.4-8.6,39-21.8,52.6L-1718.8,389.7z
		 M-1699.6,341.2c-0.3-17.9-7.6-34.2-19.2-46.2l6.4-6.4c13.3,13.7,21.5,32.2,21.8,52.6H-1699.6z M-1705.3,278.3l-7.1,7.1
		c-14.1-13.7-33.2-22.2-54.2-22.5v-10.1C-1742.8,253.1-1721.2,262.8-1705.3,278.3z M-1768.9,252.8v10.1
		c-21.1,0.3-40.2,8.8-54.2,22.5l-7.1-7.1C-1814.4,262.8-1792.7,253.1-1768.9,252.8z M-1831.8,279.9l7.1,7.1
		c-13.7,14.1-22.2,33.2-22.5,54.2h-10.1C-1857,317.4-1847.3,295.8-1831.8,279.9z M-1857.3,343.5h10.1c0.3,21.1,8.8,40.2,22.5,54.2
		l-7.1,7.1C-1847.3,388.9-1857,367.3-1857.3,343.5z M-1830.2,406.4l7.1-7.1c14.1,13.7,33.2,22.2,54.2,22.5v10.1
		C-1792.7,431.6-1814.4,421.9-1830.2,406.4z M-1766.6,431.9v-10.1c21.1-0.3,40.2-8.8,54.2-22.5l7.1,7.1
		C-1721.2,421.9-1742.8,431.6-1766.6,431.9z M-1703.7,404.8l-7.1-7.1c13.7-14.1,22.2-33.2,22.5-54.2h10.1
		C-1678.6,367.3-1688.2,388.9-1703.7,404.8z"/>
</g>
<g>
	<path fill="#231F20" d="M-1460.5,351c-8.8-6.7-20.8-9.3-31.2-5.7c-0.7,0.3-1.5,0.6-2.2,0.9c-1.5-8-7.2-14.6-14.7-17.4
		c1.1-2.6,1.5-5.6,1.6-8.4c0.1-4.8-0.6-9.6-0.2-14.4c0.7-7.1,4.2-13.8,9.6-18.5c4.4-3.8,9.8-6.2,14.1-10c4.3-3.9,7.3-10.2,4.8-15.4
		c-1.7-3.5-5.7-5.6-9.6-6c-3.9-0.4-7.8,0.6-11.6,1.7c-10.5,3.3-20.7,8.2-28.9,15.5s-14.3,17.4-15.7,28.3
		c-1.4,10.9,2.3,22.7,10.7,29.9c0.6,0.5,1.2,1,1.9,1.4c-4.9,4.3-8.1,10.6-8.1,17.6c0,1.3,0.1,2.6,0.3,3.9c-2.8,0.4-5.6,1.5-8.1,2.8
		c-4.2,2.3-8,5.4-12.4,7.3c-6.5,2.9-14.1,3.3-20.8,1c-5.5-1.9-10.3-5.4-15.8-7.2c-5.5-1.8-12.5-1.2-15.8,3.6
		c-2.2,3.3-2,7.7-0.4,11.3c1.6,3.6,4.4,6.5,7.3,9.2c8.1,7.5,17.4,13.8,27.9,17.3c10.5,3.4,22.2,3.7,32.4-0.6
		c10.2-4.3,18.5-13.4,20.5-24.2c0.1-0.8,0.2-1.6,0.3-2.4c2.4,0.8,5,1.3,7.6,1.3c5.6,0,10.8-2,14.8-5.3c1.7,2.2,4,4.1,6.5,5.6
		c4.1,2.5,8.6,4.2,12.5,7c5.8,4.1,9.9,10.5,11.2,17.5c1.1,5.7,0.4,11.6,1.6,17.3s5.2,11.5,11,11.9c3.9,0.3,7.7-2.1,10-5.3
		c2.3-3.2,3.4-7.1,4.3-10.9c2.4-10.7,3.3-22,1-32.8C-1446.1,368-1451.8,357.7-1460.5,351z"/>
	<g>
		<g>
			<path fill="#231F20" d="M-1516.5,379.7c-16.2,0-29.3-13.2-29.3-29.3s13.2-29.3,29.3-29.3c16.2,0,29.3,13.2,29.3,29.3
				S-1500.4,379.7-1516.5,379.7z M-1516.5,323.3c-14.9,0-27.1,12.1-27.1,27.1s12.1,27.1,27.1,27.1s27.1-12.1,27.1-27.1
				S-1501.6,323.3-1516.5,323.3z"/>
		</g>
		<g>
			<path fill="#231F20" d="M-1516.5,391.3c-22.6,0-41-18.4-41-41s18.4-41,41-41c22.6,0,41,18.4,41,41S-1493.9,391.3-1516.5,391.3z
				 M-1516.5,311.6c-21.4,0-38.7,17.4-38.7,38.7s17.4,38.7,38.7,38.7c21.4,0,38.7-17.4,38.7-38.7S-1495.2,311.6-1516.5,311.6z"/>
		</g>
		<g>
			<path fill="#231F20" d="M-1516.5,403c-29.1,0-52.7-23.6-52.7-52.7s23.6-52.7,52.7-52.7c29.1,0,52.7,23.6,52.7,52.7
				S-1487.5,403-1516.5,403z M-1516.5,299.9c-27.8,0-50.4,22.6-50.4,50.4s22.6,50.4,50.4,50.4c27.8,0,50.4-22.6,50.4-50.4
				S-1488.7,299.9-1516.5,299.9z"/>
		</g>
		<g>
			<path fill="#231F20" d="M-1516.5,414.7c-35.5,0-64.4-28.9-64.4-64.4s28.9-64.4,64.4-64.4c35.5,0,64.4,28.9,64.4,64.4
				S-1481,414.7-1516.5,414.7z M-1516.5,288.2c-34.2,0-62.1,27.9-62.1,62.1c0,34.2,27.9,62.1,62.1,62.1c34.2,0,62.1-27.9,62.1-62.1
				C-1454.5,316.1-1482.3,288.2-1516.5,288.2z"/>
		</g>
		<g>
			<path fill="#231F20" d="M-1516.5,426.4c-41.9,0-76.1-34.1-76.1-76.1s34.1-76.1,76.1-76.1c41.9,0,76.1,34.1,76.1,76.1
				S-1474.6,426.4-1516.5,426.4z M-1516.5,276.5c-40.7,0-73.8,33.1-73.8,73.8s33.1,73.8,73.8,73.8c40.7,0,73.8-33.1,73.8-73.8
				S-1475.9,276.5-1516.5,276.5z"/>
		</g>
		<g>
			<path fill="#231F20" d="M-1516.5,438.1c-48.4,0-87.7-39.4-87.7-87.7s39.4-87.7,87.7-87.7c48.4,0,87.7,39.4,87.7,87.7
				S-1468.2,438.1-1516.5,438.1z M-1516.5,264.9c-47.1,0-85.5,38.3-85.5,85.5s38.3,85.5,85.5,85.5c47.1,0,85.5-38.3,85.5-85.5
				S-1469.4,264.9-1516.5,264.9z"/>
		</g>
		<g>
			<path fill="#231F20" d="M-1516.5,449.7c-54.8,0-99.4-44.6-99.4-99.4s44.6-99.4,99.4-99.4c54.8,0,99.4,44.6,99.4,99.4
				S-1461.7,449.7-1516.5,449.7z M-1516.5,253.2c-53.6,0-97.1,43.6-97.1,97.1s43.6,97.1,97.1,97.1c53.6,0,97.1-43.6,97.1-97.1
				S-1463,253.2-1516.5,253.2z"/>
		</g>
		<g>
			<path fill="#231F20" d="M-1516.5,466.5c-64.1,0-116.2-52.1-116.2-116.2c0-64.1,52.1-116.2,116.2-116.2s116.2,52.1,116.2,116.2
				C-1400.3,414.4-1452.5,466.5-1516.5,466.5z M-1516.5,241.5c-60,0-108.8,48.8-108.8,108.8s48.8,108.8,108.8,108.8
				c60,0,108.8-48.8,108.8-108.8S-1456.5,241.5-1516.5,241.5z"/>
		</g>
	</g>
</g>
<g>
	<g>
		<circle fill="#231F20" cx="-1280.8" cy="310.6" r="13.7"/>
		<path fill="#231F20" d="M-1271.6,298.1L-1271.6,298.1L-1271.6,298.1c0.1,0.1,0.1,0.2,0.2,0.3c0,0,0,0,0,0c0.1,0.1,0.2,0.2,0.3,0.3
			c0.9,0.6,2.1,0.5,3,0c0.9-0.5,1.7-1.4,2.4-2.2c5.8-6.7,12.8-12.4,20.5-16.8c4.5-2.5,9.2-4.7,12.9-8.3s5.9-9.2,3.9-13.9
			c-0.1-0.3-0.3-0.6-0.4-0.9c0-0.1-0.1-0.2-0.2-0.3c-0.1-0.2-0.2-0.4-0.3-0.5c-0.1-0.1-0.1-0.2-0.2-0.3c-0.1-0.2-0.2-0.3-0.4-0.5
			c-0.1-0.1-0.2-0.2-0.2-0.3c-0.1-0.1-0.3-0.3-0.4-0.4c-0.1-0.1-0.2-0.2-0.2-0.2c-0.2-0.1-0.3-0.3-0.5-0.4c-0.1-0.1-0.2-0.1-0.2-0.2
			c-0.2-0.1-0.4-0.3-0.6-0.4c-0.1,0-0.1-0.1-0.2-0.1c-0.2-0.1-0.4-0.3-0.7-0.4c-0.1,0-0.1-0.1-0.2-0.1c-2.2-1.1-4.7-1.7-7.2-1.5
			c-4.8,0.3-9.2,2.8-13.1,5.6c-6.3,4.5-11.8,10.2-15.4,17.1c-3.6,6.9-5.1,14.9-3.3,22.5C-1272.1,296.9-1271.9,297.6-1271.6,298.1z"
			/>
		<path fill="#231F20" d="M-1290,323.1L-1290,323.1L-1290,323.1c-0.1-0.1-0.1-0.2-0.2-0.3c0,0,0,0,0,0c-0.1-0.1-0.2-0.2-0.3-0.3
			c-0.9-0.6-2.1-0.5-3,0s-1.7,1.4-2.4,2.2c-5.8,6.7-12.8,12.4-20.5,16.8c-4.5,2.5-9.2,4.7-12.9,8.3c-3.6,3.6-5.9,9.2-3.9,13.9
			c0.1,0.3,0.3,0.6,0.4,0.9c0,0.1,0.1,0.2,0.2,0.3c0.1,0.2,0.2,0.4,0.3,0.5c0.1,0.1,0.1,0.2,0.2,0.3c0.1,0.2,0.2,0.3,0.4,0.5
			c0.1,0.1,0.2,0.2,0.2,0.3c0.1,0.1,0.3,0.3,0.4,0.4c0.1,0.1,0.2,0.2,0.2,0.2c0.2,0.1,0.3,0.3,0.5,0.4c0.1,0.1,0.2,0.1,0.2,0.2
			c0.2,0.1,0.4,0.3,0.6,0.4c0.1,0,0.1,0.1,0.2,0.1c0.2,0.1,0.4,0.3,0.7,0.4c0.1,0,0.1,0.1,0.2,0.1c0.3,0.1,0.6,0.3,0.9,0.4l0,0l0,0
			c2,0.8,4.2,1.2,6.3,1.1c4.8-0.3,9.2-2.8,13.1-5.6c6.3-4.5,11.8-10.2,15.4-17.1c3.6-6.9,5.1-14.9,3.3-22.5
			C-1289.5,324.2-1289.7,323.6-1290,323.1z"/>
		<path fill="#231F20" d="M-1224,359.8c0.1-0.2,0.3-0.4,0.4-0.6c0-0.1,0.1-0.1,0.1-0.2c0.1-0.2,0.3-0.4,0.4-0.7
			c0-0.1,0.1-0.1,0.1-0.2c1.1-2.2,1.7-4.7,1.5-7.2c-0.3-4.8-2.8-9.2-5.6-13.1c-4.5-6.3-10.2-11.8-17.1-15.4
			c-6.9-3.6-14.9-5.1-22.5-3.3c-0.6,0.1-1.2,0.3-1.7,0.6l0,0l0,0c-0.1,0.1-0.2,0.1-0.3,0.2c0,0,0,0,0,0c-0.1,0.1-0.2,0.2-0.3,0.3
			c-0.6,0.9-0.5,2.1,0,3c0.5,0.9,1.4,1.7,2.2,2.4c6.7,5.8,12.4,12.8,16.8,20.5c2.5,4.5,4.7,9.2,8.3,12.9c3.6,3.6,9.2,5.9,13.9,3.9
			c0.3-0.1,0.6-0.3,0.9-0.4c0.1,0,0.2-0.1,0.3-0.2c0.2-0.1,0.4-0.2,0.5-0.3c0.1-0.1,0.2-0.1,0.3-0.2c0.2-0.1,0.3-0.2,0.5-0.4
			c0.1-0.1,0.2-0.2,0.3-0.2c0.1-0.1,0.3-0.3,0.4-0.4c0.1-0.1,0.2-0.2,0.2-0.2c0.1-0.2,0.3-0.3,0.4-0.5
			C-1224.1,360-1224,359.9-1224,359.8z"/>
		<path fill="#231F20" d="M-1337.7,261.3c-0.1,0.2-0.3,0.4-0.4,0.6c0,0.1-0.1,0.1-0.1,0.2c-0.1,0.2-0.3,0.4-0.4,0.7
			c0,0.1-0.1,0.1-0.1,0.2c-1.1,2.2-1.7,4.7-1.5,7.2c0.3,4.8,2.8,9.2,5.6,13.1c4.5,6.3,10.2,11.8,17.1,15.4
			c6.9,3.6,14.9,5.1,22.5,3.3c0.6-0.1,1.2-0.3,1.7-0.6l0,0l0,0c0.1-0.1,0.2-0.1,0.3-0.2c0,0,0,0,0,0c0.1-0.1,0.2-0.2,0.3-0.3
			c0.6-0.9,0.5-2.1,0-3c-0.5-0.9-1.4-1.7-2.2-2.4c-6.7-5.8-12.4-12.8-16.8-20.5c-2.5-4.5-4.7-9.2-8.3-12.9s-9.2-5.9-13.9-3.9
			c-0.3,0.1-0.6,0.3-0.9,0.4c-0.1,0-0.2,0.1-0.3,0.2c-0.2,0.1-0.4,0.2-0.5,0.4c-0.1,0.1-0.2,0.1-0.3,0.2c-0.2,0.1-0.3,0.2-0.5,0.4
			c-0.1,0.1-0.2,0.2-0.3,0.2c-0.1,0.1-0.3,0.3-0.4,0.4c-0.1,0.1-0.2,0.2-0.2,0.3c-0.1,0.2-0.3,0.3-0.4,0.5
			C-1337.5,261.2-1337.6,261.2-1337.7,261.3z"/>
		<path fill="#231F20" d="M-1280.8,221.8c-48.9,0-88.8,39.8-88.8,88.8c0,48.9,39.8,88.8,88.8,88.8s88.8-39.8,88.8-88.8
			C-1192.1,261.6-1231.9,221.8-1280.8,221.8z M-1332,310.6c0-2.5,0.2-4.9,0.5-7.2l28.1,4.4c-0.1,0.8-0.2,1.6-0.2,2.5l-28.5,0.5
			C-1332,310.7-1332,310.6-1332,310.6z M-1228.1,309.5c-0.1-2.6-0.3-5.1-0.7-7.6l25.5-4.6c0.7,3.9,1.1,8,1.1,12.1L-1228.1,309.5z
			 M-1266.5,326.2l-8.2-9.6l9.8,8.1C-1265.4,325.2-1265.9,325.7-1266.5,326.2z M-1290.5,329.5l6.2-11.1l-4.2,12
			C-1289.2,330.1-1289.9,329.8-1290.5,329.5z M-1289,331.8l-9.4,26.9c-2.3-0.9-4.6-1.9-6.8-3.1l13.9-24.9
			C-1290.5,331.1-1289.8,331.5-1289,331.8z M-1299.8,301l11.1,6.1l-12-4.1C-1300.4,302.3-1300.1,301.6-1299.8,301z M-1302.1,302.5
			l-26.9-9.2c0.8-2.3,1.9-4.6,3-6.8l24.9,13.8C-1301.5,301-1301.8,301.7-1302.1,302.5z M-1295.4,295.1l8.4,9.5l-9.9-8
			C-1296.4,296.1-1295.9,295.6-1295.4,295.1z M-1265.1,296.3l-9.7,8.2l8.1-9.7C-1266.1,295.2-1265.6,295.8-1265.1,296.3z
			 M-1280.1,302v-12.7c0.7,0,1.5,0.1,2.2,0.2L-1280.1,302z M-1276.4,289.8c0.7,0.2,1.4,0.3,2.1,0.6l-4.3,11.9L-1276.4,289.8z
			 M-1281.6,301.7l-2-12.2c0.7-0.1,1.4-0.1,2-0.2V301.7z M-1282.8,303.5l-5.1-13c0.9-0.3,1.8-0.6,2.8-0.8L-1282.8,303.5z
			 M-1278.5,318.8l4.5,11.9c-0.7,0.2-1.4,0.4-2.1,0.6L-1278.5,318.8z M-1277.6,331.6c-0.7,0.1-1.5,0.2-2.2,0.2l-0.1-12.7
			L-1277.6,331.6z M-1272.3,311.3l12.7-0.1c0,0.7-0.1,1.5-0.2,2.2L-1272.3,311.3z M-1260,314.9c-0.1,0.7-0.3,1.4-0.6,2.1l-12-4.3
			L-1260,314.9z M-1272.3,309.8l12.5-2.3c0.1,0.7,0.2,1.5,0.2,2.2L-1272.3,309.8z M-1272.5,308.3l11.9-4.4c0.2,0.7,0.4,1.4,0.6,2.1
			L-1272.5,308.3z M-1259.2,303.4l26.7-9.9c0.8,2.3,1.5,4.7,2,7.1l-28,5.1C-1258.8,305-1259,304.2-1259.2,303.4z M-1259.8,302
			c-0.3-0.8-0.7-1.5-1.1-2.2l24.6-14.3c1.2,2.1,2.3,4.4,3.2,6.7L-1259.8,302z M-1261.2,302.5l-11.9,4.4l11-6.4
			C-1261.7,301.2-1261.4,301.8-1261.2,302.5z M-1273.8,305.6l9.7-8.2c0.5,0.6,0.9,1.2,1.3,1.8L-1273.8,305.6z M-1275.9,303.5l6.3-11
			c0.6,0.4,1.2,0.8,1.8,1.3L-1275.9,303.5z M-1277.2,302.8l4.3-11.9c0.7,0.3,1.4,0.6,2,0.9L-1277.2,302.8z M-1272.4,289.5l9.7-26.8
			c2.3,0.9,4.6,1.9,6.7,3.1l-14.2,24.7C-1270.9,290.1-1271.6,289.8-1272.4,289.5z M-1273.8,288.9c-0.8-0.3-1.6-0.5-2.4-0.6l4.9-28
			c2.5,0.5,4.8,1.1,7.2,1.9L-1273.8,288.9z M-1277.6,288.1c-0.8-0.1-1.6-0.2-2.5-0.2v-28.5c2.5,0,5,0.2,7.4,0.6L-1277.6,288.1z
			 M-1281.6,287.8c-0.8,0-1.5,0.1-2.3,0.2l-4.7-28.1c2.3-0.4,4.6-0.5,7-0.6V287.8z M-1285.3,288.3c-1,0.2-2.1,0.5-3,0.8l-10.3-26.5
			c2.8-1,5.7-1.8,8.7-2.4L-1285.3,288.3z M-1289.8,289.7c-0.8,0.3-1.5,0.7-2.2,1.1l-14.8-24.3c2.1-1.2,4.3-2.3,6.6-3.3
			L-1289.8,289.7z M-1289.2,291l4.6,11.8l-6.6-10.8C-1290.6,291.7-1289.9,291.3-1289.2,291z M-1285.9,303.7l-8.4-9.5
			c0.6-0.5,1.2-0.9,1.8-1.3L-1285.9,303.7z M-1287.9,305.8l-11.1-6.1c0.4-0.6,0.8-1.2,1.2-1.8L-1287.9,305.8z M-1289.1,308.5
			l-12.5-2c0.1-0.7,0.3-1.4,0.5-2.1L-1289.1,308.5z M-1289.4,310l-12.7,0.2c0-0.7,0.1-1.5,0.2-2.2L-1289.4,310z M-1289.4,311.5
			l-12.5,2.4c-0.1-0.7-0.2-1.5-0.2-2.2L-1289.4,311.5z M-1289.1,312.9l-11.9,4.5c-0.2-0.7-0.4-1.4-0.6-2.1L-1289.1,312.9z
			 M-1302.3,318l-26.6,10.2c-0.8-2.3-1.5-4.7-2-7.1l28-5.4C-1302.8,316.4-1302.6,317.2-1302.3,318z M-1301.8,319.4
			c0.3,0.8,0.7,1.5,1.1,2.2l-24.4,14.6c-1.2-2.1-2.3-4.4-3.2-6.7L-1301.8,319.4z M-1300.4,318.9l11.9-4.5l-10.9,6.5
			C-1299.8,320.2-1300.1,319.5-1300.4,318.9z M-1287.8,315.6l-9.6,8.3c-0.5-0.6-0.9-1.2-1.3-1.8L-1287.8,315.6z M-1286.8,316.7
			l-8,9.8c-0.6-0.5-1.1-1-1.6-1.5L-1286.8,316.7z M-1285.6,317.7l-6.2,11.1c-0.6-0.4-1.2-0.8-1.8-1.2L-1285.6,317.7z M-1282.9,318.9
			l-2,12.5c-0.7-0.1-1.4-0.3-2.1-0.5L-1282.9,318.9z M-1281.5,319.1l0.1,12.7c-0.7,0-1.5-0.1-2.2-0.2L-1281.5,319.1z M-1279.8,333.3
			c0.8,0,1.6-0.1,2.5-0.2l5.3,28c-2.4,0.4-4.9,0.7-7.4,0.7L-1279.8,333.3z M-1275.9,332.8c0.8-0.2,1.6-0.4,2.4-0.7l10,26.7
			c-2.3,0.8-4.7,1.5-7.1,2L-1275.9,332.8z M-1272.1,331.6c0.8-0.3,1.5-0.7,2.2-1.1l14.5,24.5c-2.1,1.2-4.4,2.3-6.7,3.2
			L-1272.1,331.6z M-1272.6,330.2l-4.5-11.9l6.5,10.9C-1271.3,329.6-1272,329.9-1272.6,330.2z M-1275.8,317.6l8.2,9.6
			c-0.6,0.5-1.2,0.9-1.8,1.3L-1275.8,317.6z M-1273.8,315.4l11,6.3c-0.4,0.6-0.8,1.2-1.3,1.8L-1273.8,315.4z M-1273,314.1l12,4.3
			c-0.3,0.7-0.6,1.4-0.9,2L-1273,314.1z M-1259.7,318.9l26.8,9.6c-0.9,2.3-1.9,4.6-3.1,6.7l-24.8-14
			C-1260.3,320.4-1260,319.7-1259.7,318.9z M-1259.2,317.5c0.3-0.8,0.5-1.6,0.6-2.4l28.1,4.8c-0.5,2.5-1.1,4.8-1.9,7.2
			L-1259.2,317.5z M-1258.3,313.6c0.1-0.8,0.2-1.6,0.2-2.5l28.5-0.2c0,2.5-0.2,5-0.6,7.4L-1258.3,313.6z M-1258.1,309.7
			c0-0.8-0.1-1.6-0.2-2.5l28-5.1c0.4,2.4,0.6,4.9,0.7,7.4L-1258.1,309.7z M-1229.1,300.4c-0.5-2.5-1.2-5-2-7.4l24.3-9
			c1.4,3.8,2.4,7.7,3.2,11.7L-1229.1,300.4z M-1231.6,291.6c-0.9-2.4-2-4.7-3.3-6.9l22.4-13c2,3.5,3.7,7.2,5.2,11L-1231.6,291.6z
			 M-1235.7,283.4c-1.3-2.2-2.8-4.3-4.4-6.3l19.8-16.7c2.6,3.1,4.9,6.4,7,9.9L-1235.7,283.4z M-1237,284.2l-24.6,14.3
			c-0.4-0.7-0.9-1.4-1.4-2l21.8-18.4C-1239.7,280-1238.2,282-1237,284.2z M-1263.9,295.3c-0.6-0.6-1.1-1.2-1.7-1.7l18.2-21.8
			c1.9,1.6,3.6,3.4,5.3,5.2L-1263.9,295.3z M-1266.8,292.7c-0.6-0.5-1.3-1-2-1.4l14.2-24.7c2.1,1.3,4.2,2.7,6.1,4.2L-1266.8,292.7z
			 M-1253.9,265.3l12.9-22.5c3.5,2.1,6.8,4.4,10,7l-16.6,19.9C-1249.6,268-1251.7,266.6-1253.9,265.3z M-1255.2,264.5
			c-2.2-1.2-4.5-2.3-6.9-3.2l8.8-24.4c3.8,1.4,7.5,3.2,11,5.1L-1255.2,264.5z M-1263.6,260.8c-2.4-0.8-4.9-1.5-7.4-2l4.5-25.5
			c4,0.7,8,1.8,11.8,3.1L-1263.6,260.8z M-1272.4,258.5c-2.5-0.4-5-0.6-7.6-0.7V232c4.1,0,8.2,0.4,12.1,1L-1272.4,258.5z
			 M-1281.6,257.9c-2.5,0-4.9,0.2-7.3,0.6l-4.3-25.5c3.8-0.6,7.6-0.9,11.6-1V257.9z M-1290.3,258.7c-3.1,0.6-6.1,1.4-8.9,2.5
			l-9.4-24.1c4.5-1.7,9.2-3,14-3.9L-1290.3,258.7z M-1300.6,261.7c-2.4,1-4.7,2.1-6.9,3.4l-13.4-22.2c3.5-2.1,7.1-3.9,10.9-5.4
			L-1300.6,261.7z M-1308.8,265.9c-2.2,1.4-4.2,2.9-6.2,4.5L-1332,251c3.1-2.6,6.4-5,9.8-7.2L-1308.8,265.9z M-1308,267.2l14.8,24.3
			c-0.7,0.5-1.4,0.9-2,1.5l-18.7-21.4C-1312.1,270-1310.1,268.5-1308,267.2z M-1296.3,294c-0.6,0.6-1.2,1.2-1.7,1.8l-22.2-17.9
			c1.6-1.9,3.3-3.7,5.1-5.3L-1296.3,294z M-1299,296.9c-0.5,0.7-1,1.3-1.4,2l-24.9-13.7c1.2-2.2,2.6-4.2,4.1-6.1L-1299,296.9z
			 M-1326.6,284.5l-22.7-12.5c2-3.5,4.3-6.9,6.8-10.1l20.2,16.2C-1323.9,280.1-1325.3,282.3-1326.6,284.5z M-1327.3,285.8
			c-1.2,2.2-2.2,4.6-3.1,7l-24.5-8.4c1.4-3.9,3-7.6,4.9-11.1L-1327.3,285.8z M-1330.9,294.2c-0.8,2.4-1.4,4.9-1.8,7.4l-25.6-4
			c0.7-4,1.7-8,2.9-11.8L-1330.9,294.2z M-1329.5,294.7l26.9,9.2c-0.2,0.8-0.4,1.6-0.6,2.4l-28.1-4.4
			C-1330.9,299.4-1330.3,297-1329.5,294.7z M-1303.5,311.7c0,0.8,0.1,1.6,0.3,2.4l-28,5.4c-0.4-2.4-0.7-4.9-0.8-7.4L-1303.5,311.7z
			 M-1332.7,319.9l-25.4,4.9c-0.7-3.9-1.2-8-1.3-12.1l25.9-0.5C-1333.4,314.8-1333.1,317.4-1332.7,319.9z M-1332.4,321.3
			c0.5,2.5,1.2,5,2.1,7.4l-24.2,9.3c-1.4-3.8-2.5-7.7-3.4-11.7L-1332.4,321.3z M-1329.8,330.1c1,2.4,2.1,4.7,3.4,6.9l-22.2,13.3
			c-2-3.5-3.8-7.1-5.3-10.9L-1329.8,330.1z M-1325.6,338.3c1.4,2.2,2.9,4.3,4.5,6.2l-19.6,16.9c-2.6-3.1-5-6.4-7.1-9.8
			L-1325.6,338.3z M-1324.4,337.5l24.4-14.6c0.4,0.7,0.9,1.4,1.4,2l-21.5,18.6C-1321.6,341.6-1323.1,339.6-1324.4,337.5z
			 M-1297.5,326c0.6,0.6,1.1,1.2,1.8,1.7l-18,22.1c-1.9-1.6-3.7-3.3-5.3-5.2L-1297.5,326z M-1294.6,328.7c0.7,0.5,1.3,1,2,1.4
			l-13.9,24.8c-2.1-1.2-4.2-2.6-6.1-4.2L-1294.6,328.7z M-1307.2,356.2l-12.6,22.6c-3.5-2-6.9-4.3-10-6.9l16.4-20.1
			C-1311.5,353.5-1309.4,354.9-1307.2,356.2z M-1305.9,356.9c2.2,1.2,4.6,2.3,7,3.2l-8.5,24.5c-3.8-1.4-7.5-3.1-11.1-5
			L-1305.9,356.9z M-1297.5,360.6c2.4,0.8,4.9,1.4,7.4,1.9l-4.2,25.6c-4-0.7-8-1.7-11.8-3L-1297.5,360.6z M-1297,359.2l9.4-26.9
			c0.8,0.2,1.6,0.4,2.4,0.6l-4.6,28.1C-1292.3,360.6-1294.7,359.9-1297,359.2z M-1283.8,333.1c0.8,0.1,1.6,0.2,2.5,0.2l0.3,28.5
			c-2.5,0-5-0.2-7.4-0.6L-1283.8,333.1z M-1271.8,362.5l4.8,25.5c-3.9,0.7-8,1.1-12.1,1.2l-0.3-25.9
			C-1276.9,363.2-1274.3,362.9-1271.8,362.5z M-1270.4,362.2c2.5-0.5,5-1.2,7.4-2.1l9.1,24.3c-3.8,1.4-7.7,2.5-11.7,3.3
			L-1270.4,362.2z M-1261.6,359.6c2.4-0.9,4.7-2.1,6.9-3.3l13.2,22.3c-3.5,2-7.2,3.8-11,5.3L-1261.6,359.6z M-1253.4,355.6
			c2.2-1.3,4.3-2.8,6.2-4.5l16.8,19.7c-3.1,2.6-6.4,5-9.9,7.1L-1253.4,355.6z M-1254.1,354.3l-14.5-24.5c0.7-0.4,1.4-0.9,2-1.4
			l18.5,21.6C-1250,351.5-1252,353-1254.1,354.3z M-1265.5,327.4c0.6-0.6,1.2-1.1,1.7-1.8l22,18.1c-1.6,1.9-3.3,3.6-5.2,5.3
			L-1265.5,327.4z M-1262.8,324.5c0.5-0.6,1-1.3,1.4-2l24.8,14c-1.3,2.1-2.7,4.2-4.2,6.1L-1262.8,324.5z M-1235.4,337.2l22.5,12.8
			c-2,3.5-4.4,6.9-6.9,10l-20-16.5C-1238.1,341.5-1236.7,339.4-1235.4,337.2z M-1234.6,335.9c1.2-2.2,2.3-4.6,3.2-7l24.4,8.7
			c-1.4,3.8-3.1,7.5-5.1,11.1L-1234.6,335.9z M-1230.9,327.5c0.8-2.4,1.5-4.9,1.9-7.4l25.6,4.3c-0.7,4-1.8,8-3.1,11.8L-1230.9,327.5
			z M-1228.7,318.7c0.4-2.5,0.6-5,0.6-7.6l25.9-0.2c0,4.1-0.3,8.2-1,12.1L-1228.7,318.7z M-1221.3,259.3l-19.8,16.7
			c-1.7-1.9-3.5-3.7-5.4-5.4l16.6-19.9C-1226.8,253.4-1223.9,256.2-1221.3,259.3z M-1333.1,251.9l17.1,19.5
			c-1.9,1.7-3.7,3.6-5.3,5.5l-20.2-16.2C-1339,257.6-1336.2,254.6-1333.1,251.9z M-1358.6,299.1l25.6,4c-0.3,2.4-0.5,4.9-0.5,7.5
			c0,0.1,0,0.1,0,0.2l-25.9,0.5c0-0.2,0-0.4,0-0.6C-1359.4,306.7-1359.1,302.8-1358.6,299.1z M-1339.8,362.5l19.6-16.9
			c1.7,1.9,3.5,3.7,5.5,5.3L-1331,371C-1334.2,368.4-1337.1,365.6-1339.8,362.5z M-1292.8,388.3l4.2-25.6c2.5,0.4,5,0.6,7.6,0.6
			l0.3,25.9c-0.1,0-0.1,0-0.2,0C-1284.9,389.2-1288.9,388.9-1292.8,388.3z M-1229.2,369.8l-16.8-19.7c1.9-1.7,3.7-3.5,5.4-5.5
			l20,16.5C-1223.3,364.2-1226.1,367.2-1229.2,369.8z"/>
	</g>
	<path fill="#231F20" d="M-1258.6,406.2h-5v-13.7h-34.5v13.7h-5c-2.1,0-3.8,1.7-3.8,3.8v15.3c0,2.1,1.7,3.8,3.8,3.8h44.5
		c2.1,0,3.8-1.7,3.8-3.8V410C-1254.8,407.9-1256.5,406.2-1258.6,406.2z"/>
	<path fill="#231F20" d="M-1245.6,422.5h-70.4c-14.9,0-27,12.1-27,27c0,3.7,3,6.6,6.6,6.6h111.1c3.7,0,6.6-3,6.6-6.6
		C-1218.6,434.5-1230.7,422.5-1245.6,422.5z"/>
	<ellipse fill="#FFFFFF" cx="-1280.8" cy="432.4" rx="19.9" ry="4.2"/>
</g>
<g>
	<g>
		<path fill="#808285" d="M113.8,59.2c-4.4-1.3-9.1,0.4-13.1,2.4c-4.4,2.2-8.5,4.9-12.2,8.1c-0.9-2.3-2.4-4.4-4.2-6
			c1.5-3,0.9-6.8,2-10.1c1.3-3.9,4.7-6.6,8.2-8.6c3.5-2.1,7.3-3.8,10.2-6.6c2.9-2.9,4.7-7.3,3-11c-1.3-2.9-4.4-4.6-7.4-5.8
			c-17.8-6.9-39.6-1.8-52.5,12.3c-3.8,4.2-7,9.7-5.6,15.2c1.1,4.4,4.8,7.7,8.7,10.1c4.1,2.7,8.5,4.8,13.1,6.5
			c-1.5,1.9-2.6,4.2-3,6.6c-3.4,0.3-6.4,2.7-9.7,3.4c-4,0.8-8.1-0.8-11.6-2.8c-3.5-2-6.9-4.5-10.8-5.5c-3.9-1.1-8.7-0.4-11.1,2.9
			c-1.9,2.6-1.8,6.2-1.3,9.3c2.9,18.9,18.3,35.2,36.9,39.3c5.5,1.2,11.9,1.2,15.9-2.7c3.3-3.1,4.2-8,4.5-12.6
			c0.3-4.9-0.1-9.8-0.9-14.6c0.8,0.1,1.5,0.2,2.3,0.2c1.7,0,3.4-0.3,5-0.9c1.9,2.8,5.5,4.2,7.8,6.7c2.7,3,3.3,7.4,3.4,11.4
			c0,4.1-0.4,8.2,0.6,12.1c1,3.9,4,7.7,8.1,8.1c3.2,0.3,6.2-1.5,8.7-3.5c14.9-12,21.4-33.4,15.6-51.6
			C122.4,66.3,119.2,60.8,113.8,59.2z"/>
		<circle fill="#232222" cx="75" cy="75" r="10.1"/>
		<circle fill="#141314" cx="75" cy="75" r="8.8"/>
	</g>
	<g>
		<path fill="#6D6E71" d="M136.4,4.2H13.6c-5.2,0-9.4,4.2-9.4,9.4v122.9c0,5.2,4.2,9.4,9.4,9.4h122.9c5.2,0,9.4-4.2,9.4-9.4V13.6
			C145.8,8.4,141.6,4.2,136.4,4.2z M75,140.4c-36.1,0-65.4-29.3-65.4-65.4C9.6,38.9,38.9,9.6,75,9.6c36.1,0,65.4,29.3,65.4,65.4
			C140.4,111.1,111.1,140.4,75,140.4z"/>
	</g>
	<g>
		<circle fill="#FFFFFF" cx="133.3" cy="16.6" r="7.1"/>
		<path fill="#6D6E71" d="M138.2,15.3h-3.6v-3.6c0-0.7-0.6-1.3-1.3-1.3c-0.7,0-1.3,0.6-1.3,1.3v3.6h-3.6c-0.7,0-1.3,0.6-1.3,1.3
			s0.6,1.3,1.3,1.3h3.6v3.6c0,0.7,0.6,1.3,1.3,1.3c0.7,0,1.3-0.6,1.3-1.3V18h3.6c0.7,0,1.3-0.6,1.3-1.3S138.9,15.3,138.2,15.3z"/>
	</g>
	<g>
		<circle fill="#FFFFFF" cx="16.7" cy="16.6" r="7.1"/>
		<path fill="#6D6E71" d="M11.8,15.3h3.6v-3.6c0-0.7,0.6-1.3,1.3-1.3S18,11,18,11.7v3.6h3.6c0.7,0,1.3,0.6,1.3,1.3S22.4,18,21.7,18
			H18v3.6c0,0.7-0.6,1.3-1.3,1.3s-1.3-0.6-1.3-1.3V18h-3.6c-0.7,0-1.3-0.6-1.3-1.3S11.1,15.3,11.8,15.3z"/>
	</g>
	<g>
		<circle fill="#FFFFFF" cx="133.3" cy="133.4" r="7.1"/>
		<path fill="#6D6E71" d="M138.2,134.7h-3.6v3.6c0,0.7-0.6,1.3-1.3,1.3c-0.7,0-1.3-0.6-1.3-1.3v-3.6h-3.6c-0.7,0-1.3-0.6-1.3-1.3
			c0-0.7,0.6-1.3,1.3-1.3h3.6v-3.6c0-0.7,0.6-1.3,1.3-1.3c0.7,0,1.3,0.6,1.3,1.3v3.6h3.6c0.7,0,1.3,0.6,1.3,1.3
			C139.5,134.1,138.9,134.7,138.2,134.7z"/>
	</g>
	<g>
		<circle fill="#FFFFFF" cx="16.7" cy="133.4" r="7.1"/>
		<path fill="#6D6E71" d="M11.8,134.7h3.6v3.6c0,0.7,0.6,1.3,1.3,1.3s1.3-0.6,1.3-1.3v-3.6h3.6c0.7,0,1.3-0.6,1.3-1.3
			c0-0.7-0.6-1.3-1.3-1.3H18v-3.6c0-0.7-0.6-1.3-1.3-1.3s-1.3,0.6-1.3,1.3v3.6h-3.6c-0.7,0-1.3,0.6-1.3,1.3
			C10.5,134.1,11.1,134.7,11.8,134.7z"/>
	</g>
	<path fill="#6D6E71" d="M143,75.7v-1.4h-9.3c-0.2-15.6-6.5-29.8-16.7-40.2l6.6-6.6l-1-1l-6.6,6.6c-10.4-10.2-24.6-16.5-40.2-16.7V7
		h-1.4v9.3C58.6,16.5,44.5,22.9,34.1,33l-6.6-6.6l-1,1l6.6,6.6C22.9,44.5,16.5,58.6,16.3,74.3H7v1.4h9.3
		c0.2,15.6,6.5,29.8,16.7,40.2l-6.6,6.6l1,1l6.6-6.6c10.4,10.2,24.6,16.5,40.2,16.7v9.3h1.4v-9.3c15.6-0.2,29.8-6.5,40.2-16.7
		l6.6,6.6l1-1l-6.6-6.6c10.2-10.4,16.5-24.6,16.7-40.2H143z M132.2,74.3h-6.4c-0.2-13.5-5.6-25.7-14.4-34.7l4.5-4.5
		C125.9,45.2,132,59,132.2,74.3z M75.7,55.8c4.8,0.2,9.1,2.1,12.3,5.1L75.7,73.3V55.8z M74.3,73.3L62,60.9c3.3-3,7.6-4.9,12.3-5.1
		V73.3z M73.3,74.3H55.8c0.2-4.8,2.1-9.1,5.1-12.3L73.3,74.3z M73.3,75.7L60.9,88c-3-3.3-4.9-7.6-5.1-12.3H73.3z M74.3,76.7v17.4
		c-4.8-0.2-9.1-2.1-12.3-5.1L74.3,76.7z M75.7,76.7L88,89.1c-3.3,3-7.6,4.9-12.3,5.1V76.7z M76.7,75.7h17.4
		c-0.2,4.7-2.1,9.1-5.1,12.3L76.7,75.7z M76.7,74.3L89.1,62c3,3.3,4.9,7.6,5.1,12.3H76.7z M89.1,59.9c-3.5-3.3-8.2-5.4-13.3-5.5
		v-5.5C82.4,49,88.5,51.7,93,56L89.1,59.9z M74.3,54.4c-5.1,0.2-9.8,2.2-13.3,5.5L57,56c4.5-4.3,10.6-7,17.3-7.2V54.4z M59.9,60.9
		c-3.3,3.5-5.4,8.2-5.5,13.3h-5.5C49,67.6,51.7,61.5,56,57L59.9,60.9z M54.4,75.7c0.2,5.1,2.2,9.8,5.5,13.3L56,93
		c-4.3-4.5-7-10.6-7.2-17.3H54.4z M60.9,90.1c3.5,3.3,8.2,5.4,13.3,5.5v5.5C67.6,101,61.5,98.3,57,94L60.9,90.1z M75.7,95.6
		c5.1-0.2,9.8-2.2,13.3-5.5L93,94c-4.5,4.3-10.6,7-17.3,7.2V95.6z M90.1,89.1c3.3-3.5,5.4-8.2,5.5-13.3h5.5
		C101,82.4,98.3,88.5,94,93L90.1,89.1z M95.6,74.3c-0.2-5.1-2.2-9.8-5.5-13.3L94,57c4.3,4.5,7,10.6,7.2,17.3H95.6z M94,55
		c-4.8-4.6-11.2-7.4-18.3-7.6v-6.8c8.9,0.2,17.1,3.8,23.1,9.6L94,55z M74.3,47.4c-7.1,0.2-13.5,3-18.3,7.6l-4.8-4.8
		c6-5.8,14.1-9.4,23.1-9.6V47.4z M55,56c-4.6,4.8-7.4,11.2-7.6,18.3h-6.8c0.2-8.9,3.8-17.1,9.6-23.1L55,56z M47.4,75.7
		c0.2,7.1,3,13.5,7.6,18.3l-4.8,4.8c-5.8-6-9.4-14.1-9.6-23.1H47.4z M56,95c4.8,4.5,11.2,7.4,18.3,7.6v6.8
		c-8.9-0.2-17.1-3.8-23.1-9.6L56,95z M75.7,102.6c7.1-0.2,13.5-3,18.3-7.6l4.8,4.8c-6,5.8-14.1,9.4-23.1,9.6V102.6z M95,94
		c4.5-4.8,7.4-11.2,7.6-18.3h6.8c-0.2,8.9-3.8,17.1-9.6,23.1L95,94z M102.6,74.3c-0.2-7.1-3-13.5-7.6-18.3l4.8-4.8
		c5.8,6,9.4,14.1,9.6,23.1H102.6z M99.8,49.1c-6.3-6-14.8-9.8-24.1-10v-6.3c11.1,0.2,21.1,4.7,28.5,11.8L99.8,49.1z M74.3,39.1
		c-9.3,0.2-17.8,4-24.1,10l-4.4-4.4c7.4-7.2,17.5-11.7,28.5-11.8V39.1z M49.2,50.2c-6,6.3-9.8,14.8-10,24.1h-6.3
		c0.2-11.1,4.7-21.1,11.8-28.5L49.2,50.2z M39.1,75.7c0.2,9.3,4,17.8,10,24.1l-4.4,4.4c-7.2-7.4-11.7-17.5-11.8-28.5H39.1z
		 M50.2,100.9c6.3,6,14.8,9.8,24.1,10v6.3c-11.1-0.2-21.1-4.7-28.5-11.8L50.2,100.9z M75.7,110.9c9.3-0.2,17.8-4,24.1-10l4.4,4.4
		c-7.4,7.2-17.5,11.7-28.5,11.8V110.9z M100.8,99.8c6-6.3,9.8-14.8,10-24.1h6.3c-0.2,11.1-4.7,21.1-11.8,28.5L100.8,99.8z
		 M110.9,74.3c-0.2-9.3-4-17.8-10-24.1l4.4-4.4c7.2,7.4,11.7,17.5,11.8,28.5H110.9z M105.3,43.7c-7.7-7.4-18.1-12.1-29.6-12.3v-5.8
		c13.1,0.2,24.9,5.5,33.6,14L105.3,43.7z M74.3,31.4c-11.5,0.2-21.9,4.8-29.6,12.3l-4.1-4.1c8.7-8.5,20.6-13.8,33.6-14V31.4z
		 M43.7,44.7c-7.4,7.7-12.1,18.1-12.3,29.6h-5.8c0.2-13.1,5.5-24.9,14-33.6L43.7,44.7z M31.4,75.7c0.2,11.5,4.8,21.9,12.3,29.6
		l-4.1,4.1c-8.5-8.7-13.8-20.6-14-33.6H31.4z M44.7,106.3c7.7,7.4,18.1,12.1,29.6,12.3v5.8c-13.1-0.2-24.9-5.5-33.6-14L44.7,106.3z
		 M75.7,118.6c11.5-0.2,21.9-4.8,29.6-12.3l4.1,4.1c-8.7,8.5-20.6,13.8-33.6,14V118.6z M106.3,105.3c7.4-7.7,12.1-18.1,12.3-29.6
		h5.8c-0.2,13.1-5.5,24.9-14,33.6L106.3,105.3z M118.6,74.3c-0.2-11.5-4.8-21.9-12.3-29.6l4.1-4.1c8.5,8.7,13.8,20.6,14,33.6H118.6z
		 M114.9,34.1l-4.5,4.5c-9-8.7-21.2-14.2-34.7-14.4v-6.4C91,18,104.8,24.1,114.9,34.1z M74.3,17.8v6.4c-13.5,0.2-25.7,5.6-34.7,14.4
		l-4.5-4.5C45.2,24.1,59,18,74.3,17.8z M34.1,35.1l4.5,4.5c-8.7,9-14.2,21.2-14.4,34.7h-6.4C18,59,24.1,45.2,34.1,35.1z M17.8,75.7
		h6.4c0.2,13.5,5.6,25.7,14.4,34.7l-4.5,4.5C24.1,104.8,18,91,17.8,75.7z M35.1,115.9l4.5-4.5c9,8.7,21.2,14.2,34.7,14.4v6.4
		C59,132,45.2,125.9,35.1,115.9z M75.7,132.2v-6.4c13.5-0.2,25.7-5.6,34.7-14.4l4.5,4.5C104.8,125.9,91,132,75.7,132.2z
		 M115.9,114.9l-4.5-4.5c8.7-9,14.2-21.2,14.4-34.7h6.4C132,91,125.9,104.8,115.9,114.9z"/>
</g>
</svg>
