<?xml version="1.0" encoding="utf-8"?>
<!-- Generator: Adobe Illustrator 24.1.3, SVG Export Plug-In . SVG Version: 6.00 Build 0)  -->
<svg version="1.1" id="Layer_1" xmlns="http://www.w3.org/2000/svg" xmlns:xlink="http://www.w3.org/1999/xlink" x="0px" y="0px"
	 viewBox="0 0 150 150" style="enable-background:new 0 0 150 150;" xml:space="preserve">
<style type="text/css">
	.st0{fill:none;}
	.st1{fill:#B77034;}
	.st2{fill:#C58B60;}
	.st3{fill:#CEA386;}
	.st4{fill:#925E33;}
	.st5{fill:#6F3C21;}
	.st6{fill:#010101;}
	.st7{fill:#FFFFFF;}
</style>
<rect class="st0" width="150" height="150"/>
<g>
	<path class="st1" d="M108.4,34.4c-0.8,1.7-1.5,3.3-2.3,5c1.8,10.1,3.2,22.8,3,37.2c-0.3,13.8-2,25.9-4,35.7c0.8,1.5,1.6,3,2.4,4.6
		c-22.2-0.3-44.4-0.6-66.7-0.9c1-1.8,2.1-3.7,3.1-5.5c-1.8-10.1-3.1-22.5-2.9-36.8C41.3,60,43,48,45,38.2c-0.9-1.5-1.8-3-2.7-4.5
		C64.3,33.9,86.4,34.2,108.4,34.4z"/>
	<path class="st2" d="M60.4,34.2c-17.3,13-22.2,36.5-12.5,53.9c10.9,19.6,37.8,27.2,58.9,14.7c1.4-9.7,2.4-21.2,2.1-34.2
		c-0.2-10.9-1.3-20.6-2.7-29.1c0.8-1.7,1.5-3.4,2.3-5C92.5,34.4,76.4,34.3,60.4,34.2z"/>
	<path class="st3" d="M77.5,35.4c9.3,0,18.6,0.1,27.9,0.1c-0.6,1.1-1.2,2.2-1.7,3.4c0.9,5.3,1.6,11.3,1.9,17.9
		c0.2,5.3,0.2,10.2-0.1,14.7c-0.3-3.8-1.7-15.2-10.9-25.1C88.3,39.6,81.3,36.6,77.5,35.4z"/>
	
		<rect x="42.1" y="31.5" transform="matrix(0.9999 1.206109e-02 -1.206109e-02 0.9999 0.4004 -0.9067)" class="st4" width="66.5" height="2.5"/>
	
		<rect x="42.2" y="29" transform="matrix(0.9999 1.206060e-02 -1.206060e-02 0.9999 0.3708 -0.9072)" class="st5" width="66.5" height="2.5"/>
	
		<rect x="40.9" y="116.4" transform="matrix(0.9999 1.206109e-02 -1.206109e-02 0.9999 1.4232 -0.8867)" class="st4" width="66.7" height="2.3"/>
	
		<rect x="40.9" y="118.6" transform="matrix(0.9999 1.206109e-02 -1.206109e-02 0.9999 1.4505 -0.8862)" class="st5" width="66.7" height="2.3"/>
	<g>
		<g>
			<path class="st6" d="M48.1,72.6l1-0.6c1.7-1.1,2.6-1.6,4.4-2.5l1-0.5l1.6,3.3l-0.3,0.2l1.1,2.2l-1,0.5c-0.5,0.2-0.8,0.4-1.2,0.6
				l1,1.7l-1,0.6c-0.5,0.3-0.8,0.5-1.3,0.8l-1,0.6L48.1,72.6z"/>
			<path class="st6" d="M56.3,76l1-0.5L56.3,76l-3.1-6.3l1-0.5c1.8-0.9,2.7-1.3,4.6-2l1.1-0.4l1.3,3.4l-0.2,0.1l0.3,0.8l0.2-0.1
				l1.3,3.4l-1.1,0.4c-1.6,0.6-2.3,0.9-3.9,1.7l-1,0.5L56.3,76z"/>
			<path class="st6" d="M58.7,67.3l1.1-0.4c1.1-0.4,1.6-0.6,2.7-0.9c0.4-0.1,0.8-0.2,1.1-0.2c1.6-0.1,2.9,0.7,3.2,2.2
				c0.2,0.8,0.2,1.6-0.2,2.3c0.4,0.3,0.7,0.5,1.1,0.9l1.9,1.5l-2.3,0.5c-0.7,0.2-1.1,0.3-1.8,0.5l-0.5,0.1l0,0l-1,0.3
				c-0.6,0.2-0.9,0.3-1.5,0.5l-1.1,0.4L58.7,67.3z"/>
			<path class="st6" d="M66.9,68.6c-0.2,0-1.7,0.4-1.7,0.4l-0.8-3.6l1.1-0.3c2.1-0.5,3.3-0.7,5.5-1l1.1-0.1l0.4,3.6
				c0,0-1.5,0.2-1.7,0.2l0.7,4.4l-1.1,0.2c-0.6,0.1-0.9,0.2-1.5,0.3L67.8,73L66.9,68.6z"/>
			<path class="st6" d="M70.6,64.3l1.1-0.1c0.7-0.1,1.1-0.1,1.8-0.2l1.1-0.1l0.6,8.1L74,72.1c-0.6,0-0.9,0.1-1.5,0.1l-1.1,0.1
				L70.6,64.3z"/>
			<path class="st6" d="M78.9,72c-1.6-0.1-2.4,0-3.9,0l-1.1,0.1l-0.4-8.1l1.1-0.1c0.7,0,1.1-0.1,1.8-0.1l1.1,0l0.1,4.4
				c0.5,0,0.9,0,1.5,0l1.1,0L80.1,72L78.9,72z"/>
			<path class="st6" d="M81,72.1c-0.6,0-0.9-0.1-1.5-0.1l-1.1,0l0.4-8.1l1.1,0c0.7,0,1.1,0.1,1.8,0.1l1.1,0.1l-0.7,8.1L81,72.1z"/>
			<path class="st6" d="M86.3,72.8c-1.7-0.3-2.6-0.5-4.4-0.6l-0.7-0.1l-0.7-1.8l0.4-0.5c0.7-0.8,1.2-1.4,1.8-2
				c-0.1,0-1.5-0.1-1.5-0.1l0.4-3.6l1.1,0.1c2,0.2,3.1,0.3,5.1,0.7l0.6,0.1l0.5,1.1l0.3,0.8l-0.6,0.6c-0.8,0.7-1.4,1.3-2,1.9
				c0.1,0,1.6,0.3,1.6,0.3L87.4,73L86.3,72.8z"/>
			<path class="st6" d="M91.1,74c-1.6-0.5-2.4-0.7-4-1.1l-1.1-0.2l1.8-8l1.1,0.2c1.9,0.4,2.9,0.7,4.8,1.3l1.1,0.3l-1.1,3.5L93.3,70
				L93,70.8l0.2,0.1l-1.1,3.5L91.1,74z"/>
			<path class="st6" d="M96.6,76.2c-0.7-0.3-1-0.5-1.8-0.8l-0.5-0.2l0,0l-1-0.4c-0.6-0.2-0.9-0.3-1.5-0.5l-1.1-0.4l2.6-7.7l1.1,0.4
				c1.1,0.4,1.6,0.6,2.7,1c1.1,0.5,1.9,1.2,2.3,2c0.3,0.7,0.3,1.5-0.1,2.3c-0.4,0.8-0.9,1.4-1.6,1.7c0.1,0.4,0.2,0.8,0.4,1.4
				l0.6,2.4L96.6,76.2z"/>
		</g>
		<path class="st7" d="M52.5,74.2c0.9-0.5,1.4-0.8,2.3-1.3c0.3,0.5,0.4,0.7,0.6,1.2c-0.9,0.5-1.3,0.7-2.2,1.2c0.4,0.7,0.6,1.1,1,1.8
			c-0.6,0.3-0.8,0.5-1.4,0.8c-1.3-2-1.9-3-3.1-5c1.7-1.1,2.5-1.5,4.3-2.4c0.3,0.5,0.4,0.8,0.6,1.3c-1.1,0.5-1.6,0.8-2.7,1.4
			C52.2,73.6,52.3,73.8,52.5,74.2z"/>
		<path class="st7" d="M57.3,71.5c1-0.4,1.5-0.6,2.5-1c0.2,0.5,0.3,0.7,0.5,1.2c-1,0.4-1.5,0.6-2.4,1c0.1,0.3,0.2,0.5,0.4,0.8
			c1-0.5,1.6-0.7,2.6-1.1c0.2,0.5,0.3,0.8,0.5,1.3c-1.6,0.6-2.4,0.9-4,1.7c-1-2.1-1.5-3.2-2.6-5.3c1.8-0.9,2.7-1.2,4.5-1.9
			c0.2,0.5,0.3,0.8,0.5,1.3c-1.1,0.4-1.7,0.6-2.8,1.1C57.1,71,57.1,71.2,57.3,71.5z"/>
		<path class="st7" d="M63.3,71.1c-0.1,0-0.2,0.1-0.3,0.1c0.2,0.7,0.3,1.1,0.6,1.8c-0.6,0.2-0.9,0.3-1.5,0.5c-0.8-2.2-1.2-3.3-2-5.6
			c1-0.4,1.6-0.5,2.6-0.9c1.4-0.4,2.6-0.1,2.9,1.2c0.3,1-0.1,1.8-0.8,2.2c0.9,0.6,1.3,0.9,2.1,1.5c-0.8,0.2-1.1,0.3-1.9,0.5
			C64.4,71.9,64,71.7,63.3,71.1z M63.5,69.7c1-0.3,0.7-1.6-0.4-1.3c-0.4,0.1-0.6,0.2-1,0.3c0.2,0.5,0.2,0.8,0.4,1.3
			C63,69.9,63.2,69.8,63.5,69.7z"/>
		<path class="st7" d="M69.5,67c0.3,1.8,0.4,2.7,0.7,4.4c-0.6,0.1-0.9,0.2-1.5,0.3c-0.3-1.8-0.5-2.6-0.8-4.4c-0.7,0.1-1,0.2-1.7,0.4
			c-0.1-0.6-0.2-0.8-0.3-1.4c2.1-0.5,3.2-0.7,5.3-1c0.1,0.6,0.1,0.8,0.2,1.4C70.6,66.8,70.2,66.9,69.5,67z"/>
		<path class="st7" d="M74,71c-0.6,0-0.9,0.1-1.5,0.1c-0.3-2.3-0.4-3.5-0.6-5.9c0.7-0.1,1-0.1,1.7-0.2C73.7,67.4,73.8,68.6,74,71z"
			/>
		<path class="st7" d="M74.6,65c0.7,0,1.1-0.1,1.8-0.1c0,1.8,0,2.7,0.1,4.4c1,0,1.5,0,2.6,0c0,0.6,0,0.9-0.1,1.5
			c-1.6-0.1-2.4,0-4,0.1C74.8,68.5,74.7,67.4,74.6,65z"/>
		<path class="st7" d="M81.1,71c-0.6,0-0.9-0.1-1.5-0.1c0.1-2.4,0.2-3.5,0.3-5.9c0.7,0,1,0.1,1.7,0.1C81.4,67.4,81.3,68.6,81.1,71z"
			/>
		<path class="st7" d="M87.5,65.9c0.1,0.2,0.2,0.3,0.3,0.6c-1.5,1.3-2.2,2.1-3.5,3.5c1,0.1,1.5,0.2,2.5,0.4
			c-0.1,0.5-0.2,0.8-0.3,1.3c-1.8-0.4-2.7-0.5-4.5-0.7c-0.1-0.2-0.1-0.3-0.2-0.6c1.2-1.5,1.9-2.2,3.3-3.6c-1.1-0.2-1.6-0.2-2.7-0.3
			c0.1-0.5,0.1-0.8,0.1-1.4C84.5,65.4,85.5,65.5,87.5,65.9z"/>
		<path class="st7" d="M89.7,68.8c1,0.3,1.6,0.4,2.6,0.7c-0.2,0.5-0.2,0.7-0.4,1.2c-1-0.3-1.5-0.5-2.5-0.7c-0.1,0.3-0.1,0.5-0.2,0.9
			c1.1,0.3,1.6,0.4,2.7,0.8c-0.2,0.5-0.3,0.8-0.4,1.3c-1.6-0.5-2.5-0.7-4.1-1.1c0.5-2.3,0.8-3.5,1.3-5.8c1.9,0.4,2.8,0.7,4.7,1.2
			c-0.2,0.5-0.3,0.8-0.4,1.3c-1.1-0.4-1.7-0.5-2.9-0.8C89.8,68.2,89.8,68.4,89.7,68.8z"/>
		<path class="st7" d="M94.6,72.1c-0.1,0-0.2-0.1-0.3-0.1c-0.3,0.7-0.4,1.1-0.7,1.8c-0.6-0.2-0.9-0.3-1.5-0.5
			c0.8-2.2,1.1-3.4,1.9-5.6c1.1,0.4,1.6,0.5,2.6,1c1.3,0.5,2.1,1.5,1.6,2.8c-0.4,1-1.2,1.3-2,1.2c0.3,1,0.5,1.5,0.8,2.6
			c-0.7-0.3-1.1-0.5-1.8-0.8C95.1,73.5,94.9,73,94.6,72.1z M95.7,71.2c1,0.4,1.5-0.8,0.5-1.3c-0.4-0.2-0.6-0.2-0.9-0.4
			c-0.2,0.5-0.3,0.8-0.5,1.3C95.2,70.9,95.4,71,95.7,71.2z"/>
	</g>
</g>
</svg>
