<svg id="ept5ax9g8d11" xmlns="http://www.w3.org/2000/svg" xmlns:xlink="http://www.w3.org/1999/xlink" viewBox="0 0 150 150" shape-rendering="geometricPrecision" text-rendering="geometricPrecision"><style><![CDATA[#ept5ax9g8d13 {animation: ept5ax9g8d13_c_o 1200ms linear infinite normal forwards}@keyframes ept5ax9g8d13_c_o { 0% {opacity: 0} 8.333333% {opacity: 1} 100% {opacity: 1} }#ept5ax9g8d134 {animation: ept5ax9g8d134_c_o 1200ms linear infinite normal forwards}@keyframes ept5ax9g8d134_c_o { 0% {opacity: 0} 8.333333% {opacity: 0} 16.666667% {opacity: 1} 100% {opacity: 1} }#ept5ax9g8d137 {animation: ept5ax9g8d137_c_o 1200ms linear infinite normal forwards}@keyframes ept5ax9g8d137_c_o { 0% {opacity: 0} 16.666667% {opacity: 0} 25% {opacity: 1} 100% {opacity: 1} }#ept5ax9g8d141 {animation: ept5ax9g8d141_c_o 1200ms linear infinite normal forwards}@keyframes ept5ax9g8d141_c_o { 0% {opacity: 0} 25% {opacity: 0} 33.333333% {opacity: 1} 100% {opacity: 1} }#ept5ax9g8d145 {animation: ept5ax9g8d145_c_o 1200ms linear infinite normal forwards}@keyframes ept5ax9g8d145_c_o { 0% {opacity: 0} 33.333333% {opacity: 0} 41.666667% {opacity: 1} 100% {opacity: 1} }#ept5ax9g8d150 {animation: ept5ax9g8d150_c_o 1200ms linear infinite normal forwards}@keyframes ept5ax9g8d150_c_o { 0% {opacity: 0} 41.666667% {opacity: 0} 50% {opacity: 1} 100% {opacity: 1} }#ept5ax9g8d157 {animation: ept5ax9g8d157_c_o 1200ms linear infinite normal forwards}@keyframes ept5ax9g8d157_c_o { 0% {opacity: 0} 50% {opacity: 0} 58.333333% {opacity: 1} 100% {opacity: 1} }#ept5ax9g8d163 {animation: ept5ax9g8d163_c_o 1200ms linear infinite normal forwards}@keyframes ept5ax9g8d163_c_o { 0% {opacity: 0} 58.333333% {opacity: 0} 66.666667% {opacity: 1} 100% {opacity: 1} }#ept5ax9g8d169 {animation: ept5ax9g8d169_c_o 1200ms linear infinite normal forwards}@keyframes ept5ax9g8d169_c_o { 0% {opacity: 0} 66.666667% {opacity: 0} 75% {opacity: 1} 100% {opacity: 1} }#ept5ax9g8d173 {animation: ept5ax9g8d173_c_o 1200ms linear infinite normal forwards}@keyframes ept5ax9g8d173_c_o { 0% {opacity: 0} 75% {opacity: 0} 83.333333% {opacity: 1} 100% {opacity: 1} }#ept5ax9g8d179 {animation: ept5ax9g8d179_c_o 1200ms linear infinite normal forwards}@keyframes ept5ax9g8d179_c_o { 0% {opacity: 0} 83.333333% {opacity: 0} 91.666667% {opacity: 1} 100% {opacity: 1} }#ept5ax9g8d185 {animation: ept5ax9g8d185_c_o 1200ms linear infinite normal forwards}@keyframes ept5ax9g8d185_c_o { 0% {opacity: 0} 91.666667% {opacity: 0} 100% {opacity: 1} }]]></style><rect id="ept5ax9g8d12" width="150" height="150" rx="0" ry="0" fill="none" stroke="none" stroke-width="1"/><circle id="ept5ax9g8d13" r="0.900000" transform="matrix(1 0 0 1 35.30000000000000 64.59999999999999)" opacity="0" fill="rgb(183,112,52)" stroke="none" stroke-width="1"/><g id="ept5ax9g8d14"><path id="ept5ax9g8d15" d="M73.100000,6.700000C74,8.300000,74.900000,9.800000,75.800000,11.400000C85.100000,15.800000,96.300000,21.900000,107.900000,30.400000C119.100000,38.600000,127.900000,46.900000,134.700000,54.200000C136.400000,54.400000,138.100000,54.600000,139.800000,54.800000C126.800000,72.800000,113.700000,90.800000,100.700000,108.800000C99.800000,106.900000,98.900000,105,98,103.100000C88.900000,99,77.900000,92.900000,66.300000,84.400000C55.400000,76.300000,46.800000,68,40.300000,60.800000C39.200000,60.900000,38.100000,61.100000,37,61.200000C37.100000,60.500000,37.200000,59.800000,37.300000,59.100000C38.200000,54.800000,40.100000,51.300000,41.900000,48.900000C52.200000,34.800000,62.600000,20.700000,73.100000,6.700000Z" fill="rgb(183,112,52)" stroke="none" stroke-width="1"/><path id="ept5ax9g8d16" d="M44.700000,45C45,67,61.700000,85,82,87C104.500000,89.300000,126,71.700000,127.900000,47.400000C120.800000,40.600000,111.900000,33.200000,101.200000,26C92.200000,19.900000,83.600000,15.200000,75.900000,11.400000C75,9.800000,74,8.200000,73.100000,6.600000C63.700000,19.500000,54.200000,32.300000,44.700000,45Z" fill="rgb(197,139,96)" stroke="none" stroke-width="1"/><path id="ept5ax9g8d17" d="M56,32.500000C61.400000,24.900000,66.800000,17.400000,72.200000,9.800000C72.800000,10.900000,73.400000,12,73.900000,13.200000C78.800000,15.500000,84.100000,18.400000,89.600000,22C94.100000,24.900000,98,27.700000,101.600000,30.500000C98.300000,28.600000,88.200000,23.200000,74.800000,24.900000C65.700000,26.100000,59.200000,30.200000,56,32.500000Z" fill="rgb(206,163,134)" stroke="none" stroke-width="1"/><path id="ept5ax9g8d18" d="M73.200000,6.600000C67.900000,15.200000,61.700000,24.200000,54.400000,33.500000C51,37.800000,47.600000,41.900000,44.300000,45.800000C42.900000,47.400000,41.500000,49,40.100000,50.600000C37.600000,53.500000,35.200000,56.400000,32.800000,59.300000C31.800000,58.800000,30.800000,58.200000,29.900000,57.700000C43.600000,40.200000,57.400000,22.700000,71.100000,5.200000L73.200000,6.600000Z" fill="rgb(146,94,51)" stroke="none" stroke-width="1"/><path id="ept5ax9g8d19" d="M71.200000,5.100000C57.400000,22.600000,43.700000,40.100000,29.900000,57.600000C29.400000,57.300000,28.800000,57,28.300000,56.700000C41.900000,39,55.500000,21.300000,69.100000,3.600000L71.200000,5.100000Z" fill="rgb(111,60,33)" stroke="none" stroke-width="1"/><rect id="ept5ax9g8d110" width="66.700000" height="2.300000" rx="0" ry="0" transform="matrix(0.58660000000000 -0.80990000000000 0.80990000000000 0.58660000000000 100.74119999999999 108.91502999999997)" fill="rgb(146,94,51)" stroke="none" stroke-width="1"/><rect id="ept5ax9g8d111" width="66.700000" height="2.300000" rx="0" ry="0" transform="matrix(0.58660000000000 -0.80990000000000 0.80990000000000 0.58660000000000 102.53294999999999 110.25078999999999)" fill="rgb(111,60,33)" stroke="none" stroke-width="1"/><g id="ept5ax9g8d112"><g id="ept5ax9g8d113"><path id="ept5ax9g8d114" d="M69.300000,77.200000L69.400000,76.100000C69.500000,74.100000,69.600000,73.100000,69.900000,71.100000L70,70L73.600000,70.500000L73.500000,70.900000L75.900000,71.200000L75.700000,72.300000C75.600000,72.800000,75.600000,73.200000,75.500000,73.600000L77.500000,73.800000L77.600000,75C77.500000,75.600000,77.500000,75.900000,77.500000,76.600000L77.400000,77.700000L69.300000,77.200000Z" fill="rgb(1,1,1)" stroke="none" stroke-width="1"/><path id="ept5ax9g8d115" d="M76.700000,72.500000L76.900000,71.400000L76.700000,72.500000L69.800000,71.400000L70,70.300000C70.300000,68.300000,70.500000,67.300000,71,65.400000L71.300000,64.300000L74.800000,65.200000L74.700000,65.400000L75.500000,65.600000L75.600000,65.400000L79.100000,66.300000L78.800000,67.400000C78.400000,69,78.200000,69.800000,77.900000,71.500000L77.700000,72.600000L76.700000,72.500000Z" fill="rgb(1,1,1)" stroke="none" stroke-width="1"/><path id="ept5ax9g8d116" d="M70.900000,65.500000L71.200000,64.400000C71.500000,63.300000,71.700000,62.800000,72,61.700000C72.100000,61.300000,72.300000,61,72.500000,60.700000C73.300000,59.300000,74.800000,58.800000,76.200000,59.300000C77,59.600000,77.600000,60.100000,78,60.700000C78.400000,60.600000,78.800000,60.400000,79.400000,60.300000L81.700000,59.600000L80.800000,61.800000C80.500000,62.500000,80.400000,62.900000,80.100000,63.600000L79.900000,64.100000L79.900000,64.100000L79.600000,65.100000C79.400000,65.700000,79.300000,66,79.200000,66.600000L78.900000,67.700000L70.900000,65.500000Z" fill="rgb(1,1,1)" stroke="none" stroke-width="1"/><path id="ept5ax9g8d117" d="M76.800000,59.500000C76.700000,59.700000,76.100000,61.100000,76.100000,61.100000L72.700000,59.700000L73.100000,58.700000C73.900000,56.700000,74.400000,55.600000,75.500000,53.700000L76,52.700000L79.200000,54.400000C79.200000,54.400000,78.500000,55.800000,78.400000,55.900000L82.400000,57.900000L82,59C81.700000,59.500000,81.600000,59.800000,81.400000,60.400000L80.900000,61.400000L76.800000,59.500000Z" fill="rgb(1,1,1)" stroke="none" stroke-width="1"/><path id="ept5ax9g8d118" d="M75.400000,54.100000L75.900000,53.100000C76.200000,52.500000,76.400000,52.200000,76.800000,51.600000L77.400000,50.600000L84.400000,54.800000L83.800000,55.800000C83.500000,56.300000,83.300000,56.600000,83.100000,57.100000L82.600000,58.100000L75.400000,54.100000Z" fill="rgb(1,1,1)" stroke="none" stroke-width="1"/><path id="ept5ax9g8d119" d="M86.500000,51.700000C85.500000,53,85.100000,53.600000,84.300000,54.900000L83.700000,55.900000L76.800000,51.500000L77.400000,50.500000C77.800000,49.900000,78,49.600000,78.400000,49L79,48.100000L82.700000,50.600000C83,50.200000,83.200000,49.900000,83.600000,49.400000L84.300000,48.500000L87.300000,50.800000L86.500000,51.700000Z" fill="rgb(1,1,1)" stroke="none" stroke-width="1"/><path id="ept5ax9g8d120" d="M87.800000,50C87.400000,50.500000,87.200000,50.700000,86.900000,51.200000L86.200000,52.100000L79.800000,47.100000L80.500000,46.200000C80.900000,45.600000,81.200000,45.400000,81.600000,44.800000L82.300000,43.900000L88.500000,49.100000L87.800000,50Z" fill="rgb(1,1,1)" stroke="none" stroke-width="1"/><path id="ept5ax9g8d121" d="M91.400000,46.200000C90.100000,47.400000,89.500000,48.100000,88.300000,49.400000L87.900000,49.900000L86,49.500000L85.800000,48.800000C85.500000,47.800000,85.300000,47,85.100000,46.200000C85,46.300000,84.100000,47.400000,84.100000,47.400000L81.400000,45L82.100000,44.100000C83.400000,42.500000,84.200000,41.800000,85.600000,40.400000L86,40L87.200000,40.200000L88,40.400000L88.100000,41.200000C88.200000,42.300000,88.300000,43.100000,88.500000,43.900000C88.600000,43.800000,89.700000,42.800000,89.700000,42.800000L92.200000,45.500000L91.400000,46.200000Z" fill="rgb(1,1,1)" stroke="none" stroke-width="1"/><path id="ept5ax9g8d122" d="M95.200000,43C93.900000,44,93.200000,44.500000,92,45.700000L91.200000,46.500000L85.700000,40.500000L86.500000,39.700000C87.900000,38.400000,88.700000,37.700000,90.300000,36.500000L91.200000,35.800000L93.400000,38.700000L93.200000,38.800000L93.700000,39.500000L93.900000,39.400000L96.100000,42.300000L95.200000,43Z" fill="rgb(1,1,1)" stroke="none" stroke-width="1"/><path id="ept5ax9g8d123" d="M100.200000,39.700000C99.500000,40.100000,99.200000,40.300000,98.500000,40.700000L98,41L98,41L97.100000,41.600000C96.600000,41.900000,96.300000,42.100000,95.800000,42.500000L94.900000,43.200000L90.100000,36.600000L91,35.900000C91.900000,35.200000,92.400000,34.900000,93.400000,34.300000C94.400000,33.600000,95.500000,33.400000,96.400000,33.600000C97.200000,33.800000,97.800000,34.300000,98.200000,35C98.600000,35.700000,98.800000,36.500000,98.700000,37.200000C99.100000,37.300000,99.500000,37.500000,100,37.700000L102.300000,38.500000L100.200000,39.700000Z" fill="rgb(1,1,1)" stroke="none" stroke-width="1"/></g><path id="ept5ax9g8d124" d="M73,74.600000C73.100000,73.600000,73.100000,73,73.300000,72C73.800000,72.100000,74.100000,72.100000,74.700000,72.200000C74.600000,73.200000,74.500000,73.700000,74.400000,74.700000C75.200000,74.800000,75.600000,74.800000,76.400000,74.900000C76.300000,75.500000,76.300000,75.900000,76.300000,76.500000C73.900000,76.400000,72.800000,76.300000,70.400000,76.200000C70.500000,74.200000,70.600000,73.200000,70.900000,71.300000C71.500000,71.400000,71.700000,71.400000,72.300000,71.500000C72.100000,72.700000,72.100000,73.300000,71.900000,74.500000C72.400000,74.500000,72.600000,74.500000,73,74.600000Z" fill="rgb(255,255,255)" stroke="none" stroke-width="1"/><path id="ept5ax9g8d125" d="M73.700000,69.100000C73.900000,68,74,67.500000,74.300000,66.500000C74.800000,66.600000,75,66.700000,75.500000,66.800000C75.200000,67.800000,75.100000,68.300000,74.900000,69.400000C75.200000,69.500000,75.400000,69.500000,75.800000,69.600000C76,68.500000,76.100000,67.900000,76.400000,66.900000C76.900000,67,77.200000,67.100000,77.800000,67.300000C77.400000,69,77.200000,69.800000,76.900000,71.500000C74.600000,71.100000,73.400000,70.900000,71.100000,70.500000C71.400000,68.600000,71.600000,67.600000,72.100000,65.700000C72.600000,65.800000,72.900000,65.900000,73.400000,66.100000C73.100000,67.300000,73,67.800000,72.700000,69C73.100000,69,73.300000,69,73.700000,69.100000Z" fill="rgb(255,255,255)" stroke="none" stroke-width="1"/><path id="ept5ax9g8d126" d="M76.800000,64C76.800000,64.100000,76.700000,64.200000,76.700000,64.300000C77.400000,64.500000,77.800000,64.600000,78.500000,64.900000C78.300000,65.500000,78.200000,65.800000,78,66.400000C75.700000,65.800000,74.600000,65.400000,72.300000,64.800000C72.600000,63.700000,72.800000,63.200000,73.100000,62.100000C73.600000,60.700000,74.500000,59.900000,75.800000,60.400000C76.800000,60.800000,77.200000,61.500000,77.100000,62.300000C78.100000,61.900000,78.600000,61.800000,79.600000,61.400000C79.300000,62.100000,79.200000,62.500000,78.900000,63.200000C78.100000,63.500000,77.600000,63.700000,76.800000,64ZM75.700000,63C76,62,74.800000,61.500000,74.400000,62.600000C74.300000,63,74.200000,63.200000,74.100000,63.600000C74.600000,63.800000,74.900000,63.800000,75.400000,64C75.600000,63.500000,75.600000,63.300000,75.700000,63Z" fill="rgb(255,255,255)" stroke="none" stroke-width="1"/><path id="ept5ax9g8d127" d="M77,56.500000C78.600000,57.300000,79.400000,57.700000,81,58.500000C80.700000,59.100000,80.600000,59.300000,80.300000,59.900000C78.700000,59.200000,77.800000,58.800000,76.200000,58C75.900000,58.700000,75.800000,59,75.500000,59.600000C75,59.400000,74.700000,59.300000,74.200000,59.100000C75,57.100000,75.500000,56.100000,76.500000,54.200000C77,54.500000,77.200000,54.600000,77.700000,54.900000C77.500000,55.500000,77.300000,55.900000,77,56.500000Z" fill="rgb(255,255,255)" stroke="none" stroke-width="1"/><path id="ept5ax9g8d128" d="M82.800000,55.200000C82.500000,55.700000,82.300000,56,82,56.500000C79.900000,55.400000,78.900000,54.800000,76.900000,53.600000C77.200000,53,77.400000,52.700000,77.800000,52.100000C79.800000,53.300000,80.800000,53.900000,82.800000,55.200000Z" fill="rgb(255,255,255)" stroke="none" stroke-width="1"/><path id="ept5ax9g8d129" d="M78.300000,51.200000C78.700000,50.600000,78.900000,50.300000,79.300000,49.700000C80.800000,50.700000,81.500000,51.200000,83,52.200000C83.600000,51.300000,83.900000,50.900000,84.500000,50.100000C85,50.500000,85.200000,50.600000,85.700000,51C84.700000,52.300000,84.300000,53,83.400000,54.300000C81.300000,53.100000,80.300000,52.400000,78.300000,51.200000Z" fill="rgb(255,255,255)" stroke="none" stroke-width="1"/><path id="ept5ax9g8d130" d="M86.900000,49.300000C86.500000,49.800000,86.300000,50,85.900000,50.500000C84,49,83.100000,48.300000,81.300000,46.900000C81.700000,46.300000,81.900000,46.100000,82.400000,45.500000C84.200000,47,85.100000,47.800000,86.900000,49.300000Z" fill="rgb(255,255,255)" stroke="none" stroke-width="1"/><path id="ept5ax9g8d131" d="M86.400000,41.200000C86.600000,41.200000,86.800000,41.300000,87,41.300000C87.200000,43.300000,87.400000,44.300000,87.800000,46.200000C88.500000,45.400000,88.900000,45.100000,89.600000,44.400000C90,44.800000,90.200000,45,90.500000,45.400000C89.200000,46.700000,88.600000,47.300000,87.400000,48.700000C87.200000,48.600000,87,48.600000,86.800000,48.600000C86.300000,46.800000,86.100000,45.800000,85.700000,43.900000C85,44.700000,84.600000,45.100000,83.900000,45.900000C83.500000,45.500000,83.300000,45.400000,82.900000,45C84.300000,43.300000,85,42.600000,86.400000,41.200000Z" fill="rgb(255,255,255)" stroke="none" stroke-width="1"/><path id="ept5ax9g8d132" d="M90.100000,41C90.900000,40.300000,91.300000,40,92.200000,39.300000C92.500000,39.700000,92.700000,39.900000,93,40.300000C92.200000,40.900000,91.800000,41.300000,91,42C91.200000,42.300000,91.300000,42.400000,91.600000,42.700000C92.500000,42,92.900000,41.600000,93.800000,40.900000C94.100000,41.400000,94.300000,41.600000,94.600000,42C93.200000,43,92.600000,43.600000,91.300000,44.800000C89.700000,43.100000,88.900000,42.200000,87.300000,40.400000C88.700000,39.100000,89.500000,38.500000,91,37.300000C91.300000,37.700000,91.500000,38,91.800000,38.400000C90.800000,39.100000,90.400000,39.500000,89.500000,40.300000C89.700000,40.600000,89.800000,40.800000,90.100000,41Z" fill="rgb(255,255,255)" stroke="none" stroke-width="1"/><path id="ept5ax9g8d133" d="M95.700000,38.900000C95.600000,39,95.600000,39,95.500000,39.100000C95.900000,39.700000,96.100000,40,96.500000,40.700000C96,41.100000,95.700000,41.200000,95.200000,41.600000C93.800000,39.700000,93.100000,38.700000,91.700000,36.800000C92.600000,36.100000,93.100000,35.800000,94,35.200000C95.200000,34.400000,96.500000,34.300000,97.200000,35.500000C97.700000,36.400000,97.600000,37.200000,97.100000,37.800000C98.100000,38.100000,98.600000,38.300000,99.600000,38.700000C98.900000,39.100000,98.600000,39.300000,97.900000,39.700000C97,39.400000,96.600000,39.200000,95.700000,38.900000ZM95.500000,37.500000C96.400000,36.900000,95.700000,35.800000,94.800000,36.400000C94.500000,36.600000,94.300000,36.700000,94,37C94.300000,37.400000,94.500000,37.700000,94.800000,38.100000C95,37.800000,95.200000,37.700000,95.500000,37.500000Z" fill="rgb(255,255,255)" stroke="none" stroke-width="1"/></g></g><g id="ept5ax9g8d134" opacity="0"><circle id="ept5ax9g8d135" r="0.900000" transform="matrix(1 0 0 1 32.40000000000000 70.59999999999999)" fill="rgb(183,112,52)" stroke="none" stroke-width="1"/><circle id="ept5ax9g8d136" r="0.900000" transform="matrix(1 0 0 1 38.90000000000000 70.59999999999999)" fill="rgb(183,112,52)" stroke="none" stroke-width="1"/></g><g id="ept5ax9g8d137" opacity="0"><circle id="ept5ax9g8d138" r="0.900000" transform="matrix(1 0 0 1 32.40000000000000 80.70000000000000)" fill="rgb(183,112,52)" stroke="none" stroke-width="1"/><circle id="ept5ax9g8d139" r="0.900000" transform="matrix(1 0 0 1 38.90000000000000 80.70000000000000)" fill="rgb(183,112,52)" stroke="none" stroke-width="1"/><circle id="ept5ax9g8d140" r="0.900000" transform="matrix(1 0 0 1 36.80000000000000 76.59999999999999)" fill="rgb(183,112,52)" stroke="none" stroke-width="1"/></g><g id="ept5ax9g8d141" opacity="0"><circle id="ept5ax9g8d142" r="0.900000" transform="matrix(1 0 0 1 29.60000000000000 89.59999999999999)" fill="rgb(183,112,52)" stroke="none" stroke-width="1"/><circle id="ept5ax9g8d143" r="0.900000" transform="matrix(1 0 0 1 40.90000000000000 91.50000000000000)" fill="rgb(183,112,52)" stroke="none" stroke-width="1"/><circle id="ept5ax9g8d144" r="0.900000" transform="matrix(1 0 0 1 36.80000000000000 85.40000000000001)" fill="rgb(183,112,52)" stroke="none" stroke-width="1"/></g><g id="ept5ax9g8d145" opacity="0"><circle id="ept5ax9g8d146" r="0.900000" transform="matrix(1 0 0 1 30.10000000000000 97.70000000000000)" fill="rgb(183,112,52)" stroke="none" stroke-width="1"/><circle id="ept5ax9g8d147" r="0.900000" transform="matrix(1 0 0 1 36.60000000000000 96.20000000000000)" fill="rgb(183,112,52)" stroke="none" stroke-width="1"/><circle id="ept5ax9g8d148" r="0.900000" transform="matrix(1 0 0 1 43.10000000000000 96.80000000000000)" fill="rgb(183,112,52)" stroke="none" stroke-width="1"/><circle id="ept5ax9g8d149" r="0.900000" transform="matrix(1 0 0 1 34 92.20000000000000)" fill="rgb(183,112,52)" stroke="none" stroke-width="1"/></g><g id="ept5ax9g8d150" opacity="0"><circle id="ept5ax9g8d151" r="0.900000" transform="matrix(1 0 0 1 29.60000000000000 105.30000000000000)" fill="rgb(183,112,52)" stroke="none" stroke-width="1"/><circle id="ept5ax9g8d152" r="0.900000" transform="matrix(1 0 0 1 39.60000000000000 101.59999999999999)" fill="rgb(183,112,52)" stroke="none" stroke-width="1"/><circle id="ept5ax9g8d153" r="0.900000" transform="matrix(1 0 0 1 36.30000000000000 106)" fill="rgb(183,112,52)" stroke="none" stroke-width="1"/><circle id="ept5ax9g8d154" r="0.900000" transform="matrix(1 0 0 1 47.10000000000000 107.70000000000000)" fill="rgb(183,112,52)" stroke="none" stroke-width="1"/><circle id="ept5ax9g8d155" r="0.900000" transform="matrix(1 0 0 1 42.40000000000000 105.09999999999999)" fill="rgb(183,112,52)" stroke="none" stroke-width="1"/><circle id="ept5ax9g8d156" r="0.900000" transform="matrix(1 0 0 1 33.80000000000000 100.59999999999999)" fill="rgb(183,112,52)" stroke="none" stroke-width="1"/></g><g id="ept5ax9g8d157" opacity="0"><circle id="ept5ax9g8d158" r="0.900000" transform="matrix(1 0 0 1 29.60000000000000 113.20000000000000)" fill="rgb(183,112,52)" stroke="none" stroke-width="1"/><circle id="ept5ax9g8d159" r="0.900000" transform="matrix(1 0 0 1 39.60000000000000 110.90000000000001)" fill="rgb(183,112,52)" stroke="none" stroke-width="1"/><circle id="ept5ax9g8d160" r="0.900000" transform="matrix(1 0 0 1 48.60000000000000 115.90000000000001)" fill="rgb(183,112,52)" stroke="none" stroke-width="1"/><circle id="ept5ax9g8d161" r="0.900000" transform="matrix(1 0 0 1 43.10000000000000 113.50000000000000)" fill="rgb(183,112,52)" stroke="none" stroke-width="1"/><circle id="ept5ax9g8d162" r="0.900000" transform="matrix(1 0 0 1 34.20000000000000 110.59999999999999)" fill="rgb(183,112,52)" stroke="none" stroke-width="1"/></g><g id="ept5ax9g8d163" opacity="0"><circle id="ept5ax9g8d164" r="0.900000" transform="matrix(1 0 0 1 27.40000000000000 119.09999999999999)" fill="rgb(183,112,52)" stroke="none" stroke-width="1"/><circle id="ept5ax9g8d165" r="0.900000" transform="matrix(1 0 0 1 39 118.40000000000001)" fill="rgb(183,112,52)" stroke="none" stroke-width="1"/><circle id="ept5ax9g8d166" r="0.900000" transform="matrix(1 0 0 1 48.60000000000000 122.80000000000000)" fill="rgb(183,112,52)" stroke="none" stroke-width="1"/><circle id="ept5ax9g8d167" r="0.900000" transform="matrix(1 0 0 1 44.50000000000000 121.90000000000001)" fill="rgb(183,112,52)" stroke="none" stroke-width="1"/><circle id="ept5ax9g8d168" r="0.900000" transform="matrix(1 0 0 1 33.50000000000000 117.20000000000000)" fill="rgb(183,112,52)" stroke="none" stroke-width="1"/></g><g id="ept5ax9g8d169" opacity="0"><circle id="ept5ax9g8d170" r="0.900000" transform="matrix(1 0 0 1 25.20000000000000 126.59999999999999)" fill="rgb(183,112,52)" stroke="none" stroke-width="1"/><circle id="ept5ax9g8d171" r="0.900000" transform="matrix(1 0 0 1 37.60000000000000 126)" fill="rgb(183,112,52)" stroke="none" stroke-width="1"/><circle id="ept5ax9g8d172" r="0.900000" transform="matrix(1 0 0 1 31.50000000000000 124.09999999999999)" fill="rgb(183,112,52)" stroke="none" stroke-width="1"/></g><g id="ept5ax9g8d173" opacity="0"><circle id="ept5ax9g8d174" r="0.900000" transform="matrix(1 0 0 1 24.30000000000000 136.50000000000000)" fill="rgb(183,112,52)" stroke="none" stroke-width="1"/><circle id="ept5ax9g8d175" r="0.900000" transform="matrix(1 0 0 1 38 131.50000000000000)" fill="rgb(183,112,52)" stroke="none" stroke-width="1"/><circle id="ept5ax9g8d176" r="0.900000" transform="matrix(1 0 0 1 43.70000000000000 131.30000000000001)" fill="rgb(183,112,52)" stroke="none" stroke-width="1"/><circle id="ept5ax9g8d177" r="0.900000" transform="matrix(1 0 0 1 48.50000000000000 133.19999999999999)" fill="rgb(183,112,52)" stroke="none" stroke-width="1"/><circle id="ept5ax9g8d178" r="0.900000" transform="matrix(1 0 0 1 29.60000000000000 132.80000000000001)" fill="rgb(183,112,52)" stroke="none" stroke-width="1"/></g><g id="ept5ax9g8d179" opacity="0"><circle id="ept5ax9g8d180" r="0.900000" transform="matrix(1 0 0 1 34.10000000000000 139.50000000000000)" fill="rgb(183,112,52)" stroke="none" stroke-width="1"/><circle id="ept5ax9g8d181" r="0.900000" transform="matrix(1 0 0 1 39.90000000000000 140.59999999999999)" fill="rgb(183,112,52)" stroke="none" stroke-width="1"/><circle id="ept5ax9g8d182" r="0.900000" transform="matrix(1 0 0 1 46 141.90000000000001)" fill="rgb(183,112,52)" stroke="none" stroke-width="1"/><circle id="ept5ax9g8d183" r="0.900000" transform="matrix(1 0 0 1 51.10000000000000 139.40000000000001)" fill="rgb(183,112,52)" stroke="none" stroke-width="1"/><circle id="ept5ax9g8d184" r="0.900000" transform="matrix(1 0 0 1 28.90000000000000 142.40000000000001)" fill="rgb(183,112,52)" stroke="none" stroke-width="1"/></g><g id="ept5ax9g8d185" opacity="0"><circle id="ept5ax9g8d186" r="0.900000" transform="matrix(1 0 0 1 24.50000000000000 148.09999999999999)" fill="rgb(183,112,52)" stroke="none" stroke-width="1"/><circle id="ept5ax9g8d187" r="0.900000" transform="matrix(1 0 0 1 33.70000000000000 147.80000000000001)" fill="rgb(183,112,52)" stroke="none" stroke-width="1"/><circle id="ept5ax9g8d188" r="0.900000" transform="matrix(1 0 0 1 42.70000000000000 148.09999999999999)" fill="rgb(183,112,52)" stroke="none" stroke-width="1"/><circle id="ept5ax9g8d189" r="0.900000" transform="matrix(1 0 0 1 49.20000000000000 147.90000000000001)" fill="rgb(183,112,52)" stroke="none" stroke-width="1"/></g></svg>