<svg version="1.1" id="el_u6UYQzgI5P" xmlns="http://www.w3.org/2000/svg" xmlns:xlink="http://www.w3.org/1999/xlink" x="0px" y="0px" viewBox="0 0 150 150" enable-background="new 0 0 150 150" xml:space="preserve"><style>@-webkit-keyframes el_NT3Y49SUYwG_Animation{0%{opacity: 0;}28.57%{opacity: 0;}57.14%{opacity: 0;}85.71%{opacity: 1;}100%{opacity: 1;}}@keyframes el_NT3Y49SUYwG_Animation{0%{opacity: 0;}28.57%{opacity: 0;}57.14%{opacity: 0;}85.71%{opacity: 1;}100%{opacity: 1;}}@-webkit-keyframes el_fUMVaYyZwmT_Animation{0%{opacity: 0;}28.57%{opacity: 0;}57.14%{opacity: 1;}85.71%{opacity: 1;}100%{opacity: 1;}}@keyframes el_fUMVaYyZwmT_Animation{0%{opacity: 0;}28.57%{opacity: 0;}57.14%{opacity: 1;}85.71%{opacity: 1;}100%{opacity: 1;}}@-webkit-keyframes el_9q19smNsO-X_Animation{0%{opacity: 0;}28.57%{opacity: 1;}57.14%{opacity: 1;}85.71%{opacity: 1;}100%{opacity: 1;}}@keyframes el_9q19smNsO-X_Animation{0%{opacity: 0;}28.57%{opacity: 1;}57.14%{opacity: 1;}85.71%{opacity: 1;}100%{opacity: 1;}}#el_u6UYQzgI5P *{-webkit-animation-duration: 1.4s;animation-duration: 1.4s;-webkit-animation-iteration-count: infinite;animation-iteration-count: infinite;-webkit-animation-timing-function: cubic-bezier(0, 0, 1, 1);animation-timing-function: cubic-bezier(0, 0, 1, 1);}#el_jHLiwwmg_3F{fill: #414042;}#el_pI0LKabLAIN{fill: #ED1E25;stroke: #383838;stroke-width: 2.126;}#el_wUjGcP0dL10{fill: #AAA9AB;stroke: #414042;stroke-width: 2.8346;}#el_aEDr0GUaWa4{fill: #AAA9AB;stroke: #414042;stroke-width: 2.8346;}#el_mn0hnZ-I41p{fill: #CCCCCC;stroke: #414042;stroke-width: 2.8346;}#el_ygfUXBj26DV{fill: #ED1E25;stroke: #383838;stroke-width: 1.4173;}#el_2a_119jICmz{fill: #414042;}#el_Vj9GRFFM8wF{fill: #5FA4D2;}#el_pzQxdjUCf1d{fill: #5FA4D2;}#el_5Xl26SU0uQw{fill: #5FA4D2;}#el_rlCCTLi9tBI{fill: #5FA4D2;}#el_QI1YbJa5cGM{fill: #5FA4D2;}#el_RoULCZreijH{fill: #5FA4D2;}#el_A1BGA5lPmYV{fill: #5FA4D2;}#el_T44AlW3bke5{fill: #5FA4D2;}#el_9AWu-eHaxf8{fill: #5FA4D2;}#el_rnB7Ek2MU_N{fill: #5FA4D2;}#el_fKFA4AOhVbN{fill: #5FA4D2;}#el_jxVdI9kuQaZ{fill: #5FA4D2;}#el_9q19smNsO-X{-webkit-animation-name: el_9q19smNsO-X_Animation;animation-name: el_9q19smNsO-X_Animation;opacity: 0;}#el_9q19smNsO-X_mLgIe0Npe{-webkit-transform-origin: 50% 50%;transform-origin: 50% 50%;transform-box: fill-box;-webkit-transform: scale(1, 0.5);transform: scale(1, 0.5);}#el_fUMVaYyZwmT{-webkit-animation-name: el_fUMVaYyZwmT_Animation;animation-name: el_fUMVaYyZwmT_Animation;opacity: 0;}#el_NT3Y49SUYwG{-webkit-animation-name: el_NT3Y49SUYwG_Animation;animation-name: el_NT3Y49SUYwG_Animation;opacity: 0;}</style>
<g id="el_5isDvK-9_zG">
	<path d="M96.9,25.6c0,1.3-1,2.3-2.3,2.3H55.4c-1.3,0-2.3-1-2.3-2.3v-5.3c0-1.3,1-2.3,2.3-2.3h39.1&#10;&#9;&#9;c1.3,0,2.3,1,2.3,2.3V25.6z" id="el_jHLiwwmg_3F"/>
	<path stroke-miterlimit="10" d="M79.2,72.1c0,4.5-0.3,8.2-0.6,8.2h-6.8&#10;&#9;&#9;c-0.3,0-0.6-3.7-0.6-8.2V53.5c0-4.5,0.3-8.2,0.6-8.2h6.8c0.3,0,0.6,3.7,0.6,8.2V72.1z" id="el_pI0LKabLAIN"/>
	<path stroke-miterlimit="10" d="M89.6,45.4c0,1.2-1,2.2-2.2,2.2H64&#10;&#9;&#9;c-1.2,0-2.2-1-2.2-2.2v-4.9c0-1.2,1-2.2,2.2-2.2h23.4c1.2,0,2.2,1,2.2,2.2V45.4z" id="el_wUjGcP0dL10"/>
	<path stroke-miterlimit="10" d="M108.1,35.2L98.9,26H50.6l-8.7,8.7&#10;&#9;&#9;l-0.2,50.8l9.1,9.2l48.7,0.2l8.8-10.1L108.1,35.2z M94.4,87.7l-38.5-0.2l-7.2-7.3l0.2-40.2l52.3,0.1l0.2,39.5L94.4,87.7z" id="el_aEDr0GUaWa4"/>
	<path stroke-miterlimit="10" d="M88.3,99.2c0,1.2-1,2.2-2.2,2.2H64.5&#10;&#9;&#9;c-1.2,0-2.2-1-2.2-2.2v-15c0-1.2,1-2.2,2.2-2.2h21.7c1.2,0,2.2,1,2.2,2.2V99.2z" id="el_mn0hnZ-I41p"/>
	<path stroke-miterlimit="10" d="M101.7,102.7c0,1.1-0.9,2.1-1.9,2.1h-49&#10;&#9;&#9;c-1,0-1.9-0.9-1.9-2.1l0,0c0-1.1,0.9-2.1,1.9-2.1h49C100.8,100.7,101.7,101.6,101.7,102.7L101.7,102.7z" id="el_ygfUXBj26DV"/>
	<path d="M86.8,21.9c0,1.2-0.8,2.2-1.9,2.2H64.6c-1,0-1.9-1-1.9-2.2V10c0-1.2,0.8-2.2,1.9-2.2h20.4&#10;&#9;&#9;c1,0,1.9,1,1.9,2.2V21.9z" id="el_2a_119jICmz"/>
</g>
<g id="el_9q19smNsO-X">
	<path d="M46,108c0,0-8,3.4-4.3,7.2C41.7,115.2,46.2,117.9,46,108z" id="el_Vj9GRFFM8wF"/>
	<path d="M97.8,108.2c0,0,8,3.4,4.3,7.2C102.1,115.5,97.6,118.1,97.8,108.2z" id="el_pzQxdjUCf1d"/>
	<path d="M66.7,110c0,0-8,3.4-4.3,7.2C62.5,117.2,67,119.9,66.7,110z" id="el_5Xl26SU0uQw"/>
	<path d="M78.3,109.7c0,0,8,3.4,4.3,7.2C82.6,117,78.1,119.6,78.3,109.7z" id="el_rlCCTLi9tBI"/>
</g>
<g id="el_fUMVaYyZwmT">
	<path d="M36.9,120.5c0,0-8,3.4-4.3,7.2C32.6,127.7,37.2,130.4,36.9,120.5z" id="el_QI1YbJa5cGM"/>
	<path d="M106.9,120.7c0,0,8,3.4,4.3,7.2C111.2,128,106.6,130.6,106.9,120.7z" id="el_RoULCZreijH"/>
	<path d="M57.6,122.5c0,0-8,3.4-4.3,7.2C53.4,129.7,57.9,132.4,57.6,122.5z" id="el_A1BGA5lPmYV"/>
	<path d="M87.4,122.2c0,0,8,3.4,4.3,7.2C91.7,129.5,87.1,132.1,87.4,122.2z" id="el_T44AlW3bke5"/>
</g>
<g id="el_NT3Y49SUYwG">
	<path d="M30.7,133.8c0,0-7.7,3.9-3.8,7.5C26.9,141.3,31.6,143.7,30.7,133.8z" id="el_9AWu-eHaxf8"/>
	<path d="M113.1,134.1c0,0,7.7,3.9,3.8,7.5C116.9,141.6,112.2,144,113.1,134.1z" id="el_rnB7Ek2MU_N"/>
	<path d="M51.5,135.8c0,0-7.7,3.9-3.8,7.5C47.7,143.3,52.4,145.7,51.5,135.8z" id="el_fKFA4AOhVbN"/>
	<path d="M93.6,135.6c0,0,7.7,3.9,3.8,7.5C97.4,143.1,92.7,145.5,93.6,135.6z" id="el_jxVdI9kuQaZ"/>
</g>
<script>(function(){var a=document.querySelector('#el_u6UYQzgI5P'),b=a.querySelectorAll('style'),c=function(d){b.forEach(function(f){var g=f.textContent;g&amp;&amp;(f.textContent=g.replace(/transform-box:[^;\r\n]*/gi,'transform-box: '+d))})};c('initial'),window.requestAnimationFrame(function(){return c('fill-box')})})();</script></svg>