<?xml version="1.0" encoding="utf-8"?>
<!-- Generator: Adobe Illustrator 16.0.0, SVG Export Plug-In . SVG Version: 6.00 Build 0)  -->
<!DOCTYPE svg PUBLIC "-//W3C//DTD SVG 1.1//EN" "http://www.w3.org/Graphics/SVG/1.1/DTD/svg11.dtd">
<svg version="1.1" id="Layer_1" xmlns="http://www.w3.org/2000/svg" xmlns:xlink="http://www.w3.org/1999/xlink" x="0px" y="0px"
	 width="150px" height="150px" viewBox="0 0 150 150" enable-background="new 0 0 150 150" xml:space="preserve">
<g>
	<path fill="#414042" d="M96.9,25.6c0,1.3-1,2.3-2.3,2.3H55.4c-1.3,0-2.3-1-2.3-2.3v-5.3c0-1.3,1-2.3,2.3-2.3h39.1
		c1.3,0,2.3,1,2.3,2.3V25.6z"/>
	<path fill="#ED1E25" stroke="#383838" stroke-width="2.126" stroke-miterlimit="10" d="M79.2,72.1c0,4.5-0.3,8.2-0.6,8.2h-6.8
		c-0.3,0-0.6-3.7-0.6-8.2V53.5c0-4.5,0.3-8.2,0.6-8.2h6.8c0.3,0,0.6,3.7,0.6,8.2V72.1z"/>
	<path fill="#AAA9AB" stroke="#414042" stroke-width="2.8346" stroke-miterlimit="10" d="M89.6,45.4c0,1.2-1,2.2-2.2,2.2H64
		c-1.2,0-2.2-1-2.2-2.2v-4.9c0-1.2,1-2.2,2.2-2.2h23.4c1.2,0,2.2,1,2.2,2.2V45.4z"/>
	<path fill="#AAA9AB" stroke="#414042" stroke-width="2.8346" stroke-miterlimit="10" d="M108.1,35.2L98.9,26H50.6l-8.7,8.7
		l-0.2,50.8l9.1,9.2l48.7,0.2l8.8-10.1L108.1,35.2z M94.4,87.7l-38.5-0.2l-7.2-7.3l0.2-40.2l52.3,0.1l0.2,39.5L94.4,87.7z"/>
	<path fill="#CCCCCC" stroke="#414042" stroke-width="2.8346" stroke-miterlimit="10" d="M88.3,99.2c0,1.2-1,2.2-2.2,2.2H64.5
		c-1.2,0-2.2-1-2.2-2.2v-15c0-1.2,1-2.2,2.2-2.2h21.7c1.2,0,2.2,1,2.2,2.2V99.2z"/>
	<path fill="#ED1E25" stroke="#383838" stroke-width="1.4173" stroke-miterlimit="10" d="M101.7,102.7c0,1.1-0.9,2.1-1.9,2.1h-49
		c-1,0-1.9-0.9-1.9-2.1l0,0c0-1.1,0.9-2.1,1.9-2.1h49C100.8,100.7,101.7,101.6,101.7,102.7L101.7,102.7z"/>
	<path fill="#414042" d="M86.8,21.9c0,1.2-0.8,2.2-1.9,2.2H64.6c-1,0-1.9-1-1.9-2.2V10c0-1.2,0.8-2.2,1.9-2.2h20.4
		c1,0,1.9,1,1.9,2.2V21.9z"/>
</g>
</svg>
