<svg id="ek57ppnncy61" xmlns="http://www.w3.org/2000/svg" xmlns:xlink="http://www.w3.org/1999/xlink" viewBox="0 0 1417.300000 1417.300000" shape-rendering="geometricPrecision" text-rendering="geometricPrecision"><style><![CDATA[#ek57ppnncy62 {animation: ek57ppnncy62_c_o 1500ms linear infinite normal forwards}@keyframes ek57ppnncy62_c_o { 0% {opacity: 0} 80% {opacity: 0} 100% {opacity: 0.380000} }#ek57ppnncy67 {animation: ek57ppnncy67_c_o 1500ms linear infinite normal forwards}@keyframes ek57ppnncy67_c_o { 0% {opacity: 0} 60% {opacity: 0} 80% {opacity: 0.380000} 100% {opacity: 0} }#ek57ppnncy612 {animation: ek57ppnncy612_c_o 1500ms linear infinite normal forwards}@keyframes ek57ppnncy612_c_o { 0% {opacity: 0} 40% {opacity: 0} 60% {opacity: 0.380000} 80% {opacity: 0} 100% {opacity: 0} }#ek57ppnncy617 {animation: ek57ppnncy617_c_o 1500ms linear infinite normal forwards}@keyframes ek57ppnncy617_c_o { 0% {opacity: 0} 20% {opacity: 0} 40% {opacity: 0.380000} 60% {opacity: 0} 100% {opacity: 0} }#ek57ppnncy622 {animation: ek57ppnncy622_c_o 1500ms linear infinite normal forwards}@keyframes ek57ppnncy622_c_o { 0% {opacity: 0} 20% {opacity: 0.380000} 40% {opacity: 0} 100% {opacity: 0} }#ek57ppnncy627 {animation: ek57ppnncy627_c_o 1500ms linear infinite normal forwards}@keyframes ek57ppnncy627_c_o { 0% {opacity: 0} 80% {opacity: 0} 100% {opacity: 0.380000} }#ek57ppnncy632 {animation: ek57ppnncy632_c_o 1500ms linear infinite normal forwards}@keyframes ek57ppnncy632_c_o { 0% {opacity: 0} 60% {opacity: 0} 80% {opacity: 0.380000} 100% {opacity: 0} }#ek57ppnncy637 {animation: ek57ppnncy637_c_o 1500ms linear infinite normal forwards}@keyframes ek57ppnncy637_c_o { 0% {opacity: 0} 40% {opacity: 0} 60% {opacity: 0.380000} 80% {opacity: 0} 100% {opacity: 0} }#ek57ppnncy642 {animation: ek57ppnncy642_c_o 1500ms linear infinite normal forwards}@keyframes ek57ppnncy642_c_o { 0% {opacity: 0} 20% {opacity: 0} 40% {opacity: 0.380000} 60% {opacity: 0} 100% {opacity: 0} }#ek57ppnncy647 {animation: ek57ppnncy647_c_o 1500ms linear infinite normal forwards}@keyframes ek57ppnncy647_c_o { 0% {opacity: 0} 20% {opacity: 0.380000} 40% {opacity: 0} 100% {opacity: 0} }#ek57ppnncy6113 {animation: ek57ppnncy6113_c_o 1500ms linear infinite normal forwards}@keyframes ek57ppnncy6113_c_o { 0% {opacity: 0} 80% {opacity: 0} 100% {opacity: 0.380000} }#ek57ppnncy6117 {animation: ek57ppnncy6117_c_o 1500ms linear infinite normal forwards}@keyframes ek57ppnncy6117_c_o { 0% {opacity: 0} 60% {opacity: 0} 80% {opacity: 0.380000} 100% {opacity: 0} }#ek57ppnncy6121 {animation: ek57ppnncy6121_c_o 1500ms linear infinite normal forwards}@keyframes ek57ppnncy6121_c_o { 0% {opacity: 0} 40% {opacity: 0} 60% {opacity: 0.380000} 80% {opacity: 0} 100% {opacity: 0} }#ek57ppnncy6125 {animation: ek57ppnncy6125_c_o 1500ms linear infinite normal forwards}@keyframes ek57ppnncy6125_c_o { 0% {opacity: 0} 20% {opacity: 0} 40% {opacity: 0.380000} 60% {opacity: 0} 100% {opacity: 0} }#ek57ppnncy6129 {animation: ek57ppnncy6129_c_o 1500ms linear infinite normal forwards}@keyframes ek57ppnncy6129_c_o { 0% {opacity: 0} 20% {opacity: 0.380000} 40% {opacity: 0} 100% {opacity: 0} }]]></style><g id="ek57ppnncy62" opacity="0"><path id="ek57ppnncy63" d="M1175.100000,1002.100000C1145.500000,991.800000,1129.300000,962.900000,1115.800000,936.400000C1094.800000,940.300000,1076.700000,922.100000,1067.600000,904.100000C1051,871.800000,1047.100000,834,1056.800000,799.300000C1063.400000,774.800000,1076.700000,751.300000,1076,726C1075.100000,700.800000,1060.400000,678,1045,657.200000C1027.400000,633.200000,1003.500000,623,994.600000,618.900000C971.400000,608.200000,950.300000,605.500000,937.600000,604.700000C945.400000,602.600000,953.100000,600.500000,960.900000,598.400000C981.200000,592,998.200000,590.800000,1011,591.500000C1037.100000,592.700000,1050.800000,600.600000,1062.500000,592.900000C1071.400000,587.200000,1074.400000,576.100000,1073.300000,566.200000C1072.300000,556.300000,1067.800000,547,1064.400000,537.500000C1048.800000,493.700000,1055.700000,443.500000,1082.800000,404.800000C1089.400000,395.300000,1097.700000,386.200000,1108.700000,381.300000C1119.700000,376.400000,1134.200000,377,1142.900000,385.100000C1151.600000,343.300000,1182.400000,300.900000,1228,294.500000C1255.600000,290.700000,1285.200000,301.800000,1302.300000,322.400000C1319.400000,343,1323,372.300000,1311.700000,396C1365.700000,410.900000,1410,455.800000,1415.600000,507.700000C1421.200000,559.400000,1384.600000,613.900000,1330.200000,627.900000C1350.300000,638.300000,1378.600000,655.500000,1390.400000,683.900000C1402.400000,712.300000,1396.800000,766.800000,1382.200000,794.200000C1367.600000,821.600000,1332.800000,840.500000,1301,832.500000C1310.400000,877.900000,1315.100000,929.200000,1284.600000,965.700000C1272.900000,979.600000,1256.800000,990.200000,1239.200000,997.200000C1218.900000,1005.500000,1195.600000,1009.200000,1175.100000,1002.100000Z" fill="rgb(217,217,216)" stroke="none" stroke-width="1"/><path id="ek57ppnncy64" d="M1115.800000,936.600000C1094.800000,940.500000,1076.700000,922.300000,1067.600000,904.300000C1051,872,1047.100000,834.200000,1056.800000,799.500000C1063.400000,775,1076.700000,751.500000,1076,726.200000C1075.100000,701,1060.400000,678.200000,1045,657.400000C1037.600000,647.200000,1020.600000,627.900000,994.600000,619.100000C988.700000,617.100000,979.700000,614.800000,974.400000,613.400000C958.400000,609.200000,944.800000,606.500000,935.600000,604.800000C967.900000,593.300000,993.300000,591.400000,1011.100000,591.800000C1022.700000,592.100000,1040.200000,593.800000,1054.400000,583.700000C1057.900000,581.200000,1065.300000,575.100000,1068.300000,565.500000C1072.100000,553.200000,1066.300000,541.900000,1064.500000,537.900000C1045.900000,497.400000,1064.500000,431.500000,1082.900000,405.200000C1089.500000,395.700000,1097.800000,386.600000,1108.800000,381.700000C1119.900000,376.900000,1134.300000,377.400000,1143,385.500000C1150.400000,349.500000,1174.300000,313.200000,1209.900000,299.600000C1200.300000,310.700000,1193.100000,323.600000,1189.300000,337.300000C1181.500000,366,1188.600000,397.900000,1208.200000,421.400000C1179.100000,412.400000,1145.500000,429,1131.700000,454.200000C1117.900000,479.500000,1121.300000,510.600000,1134.200000,536.300000C1139.500000,546.900000,1146.500000,557.200000,1148,568.800000C1149.500000,580.400000,1143.300000,594.100000,1130.900000,596.600000C1117.300000,599.300000,1111.500000,615.500000,1115.500000,627.800000C1119.500000,640.100000,1130.200000,649.300000,1139.900000,658.600000C1149.500000,667.700000,1159.100000,678.500000,1160.100000,691.300000C1161.100000,705.100000,1152,717.600000,1144.500000,729.600000C1133,747.800000,1124.200000,767.500000,1118.600000,788C1113.600000,806.100000,1111.200000,825.400000,1117.600000,843.100000C1124,860.800000,1141.100000,876.100000,1161.300000,876.600000C1163.400000,872.600000,1165.600000,868.600000,1167.700000,864.700000C1173.800000,881.300000,1197.800000,887.400000,1215.400000,880.900000C1233,874.400000,1244.900000,859,1253.200000,843.200000C1253.500000,857.700000,1269.800000,867.200000,1284.900000,870.400000C1292.300000,872,1300.200000,872.900000,1307.600000,874.300000C1310.300000,907.400000,1306.400000,940.500000,1284.900000,966.200000C1273.200000,980.100000,1257.100000,990.700000,1239.500000,997.700000C1219.300000,1005.800000,1196,1009.400000,1175.400000,1002.300000C1145.200000,991.800000,1129.100000,963,1115.800000,936.600000Z" fill="rgb(188,188,187)" stroke="none" stroke-width="1"/><path id="ek57ppnncy65" d="M1373.400000,477.600000C1380.400000,493.100000,1384.500000,535.900000,1358.900000,539.400000C1350.300000,540.600000,1342.500000,534.300000,1338.300000,527.300000C1334.300000,520.300000,1332.600000,512.200000,1328.700000,505C1324.400000,497.200000,1317.400000,490.700000,1308.900000,486.800000C1296.600000,481.100000,1280.500000,479.600000,1273.700000,468.600000C1268.500000,459.900000,1272,448.100000,1280.100000,441.500000C1288.200000,434.900000,1299.500000,432.600000,1310.300000,433C1339.200000,434.100000,1362.700000,453.600000,1373.400000,477.600000Z" fill="rgb(255,255,255)" stroke="none" stroke-width="1"/><path id="ek57ppnncy66" d="M1365.400000,767.500000C1358.500000,774.100000,1344.900000,775.800000,1339.200000,768.300000C1334.100000,761.700000,1337.600000,752.700000,1340.100000,744.800000C1343.500000,734.200000,1344.800000,723,1344,712.100000C1343.600000,707,1342.700000,701.900000,1343.900000,697C1345.100000,692,1348.700000,687.100000,1354.100000,686.200000C1361.500000,684.800000,1368,691.300000,1371.300000,697.500000C1380.300000,714.700000,1380.700000,752.700000,1365.400000,767.500000Z" fill="rgb(255,255,255)" stroke="none" stroke-width="1"/></g><g id="ek57ppnncy67" opacity="0"><path id="ek57ppnncy68" d="M1167.600000,933.400000C1144,925.200000,1131.200000,902.200000,1120.400000,881.100000C1103.700000,884.200000,1089.300000,869.700000,1082,855.400000C1068.800000,829.700000,1065.700000,799.600000,1073.400000,772C1078.700000,752.500000,1089.300000,733.800000,1088.700000,713.700000C1088,693.700000,1076.200000,675.500000,1064,658.900000C1050,639.800000,1031,631.700000,1023.800000,628.400000C1005.300000,619.900000,988.500000,617.700000,978.500000,617.100000C984.700000,615.400000,990.800000,613.800000,997.100000,612.100000C1013.300000,607,1026.800000,606.100000,1036.900000,606.600000C1057.700000,607.500000,1068.500000,613.900000,1077.900000,607.700000C1085,603.100000,1087.300000,594.300000,1086.500000,586.400000C1085.700000,578.500000,1082.100000,571.100000,1079.400000,563.600000C1066.900000,528.700000,1072.400000,488.800000,1094,458C1099.300000,450.400000,1105.800000,443.200000,1114.600000,439.300000C1123.400000,435.500000,1134.900000,435.900000,1141.800000,442.300000C1148.800000,409,1173.200000,375.300000,1209.600000,370.200000C1231.600000,367.200000,1255.200000,376,1268.700000,392.400000C1282.300000,408.800000,1285.200000,432.100000,1276.200000,451C1319.200000,462.800000,1354.400000,498.600000,1358.900000,539.900000C1363.400000,581.100000,1334.200000,624.500000,1290.900000,635.600000C1306.900000,643.900000,1329.400000,657.600000,1338.800000,680.200000C1348.300000,702.800000,1343.900000,746.200000,1332.300000,768C1320.700000,789.800000,1293,804.800000,1267.700000,798.500000C1275.200000,834.600000,1278.900000,875.500000,1254.600000,904.500000C1245.300000,915.600000,1232.500000,924,1218.500000,929.600000C1202.400000,936.100000,1183.800000,939,1167.600000,933.400000Z" fill="rgb(217,217,216)" stroke="none" stroke-width="1"/><path id="ek57ppnncy69" d="M1120.300000,881.200000C1103.600000,884.300000,1089.200000,869.800000,1081.900000,855.500000C1068.700000,829.800000,1065.600000,799.700000,1073.300000,772.100000C1078.600000,752.600000,1089.200000,733.900000,1088.600000,713.800000C1087.900000,693.800000,1076.100000,675.600000,1063.900000,659C1058,650.900000,1044.500000,635.600000,1023.700000,628.500000C1019,626.900000,1011.900000,625.100000,1007.600000,623.900000C994.800000,620.600000,984,618.400000,976.700000,617.100000C1002.400000,608,1022.700000,606.400000,1036.800000,606.700000C1046,606.900000,1059.900000,608.300000,1071.200000,600.300000C1074,598.300000,1079.900000,593.500000,1082.300000,585.800000C1085.300000,576,1080.700000,567,1079.300000,563.800000C1064.500000,531.500000,1079.300000,479.100000,1093.900000,458.200000C1099.200000,450.600000,1105.700000,443.400000,1114.500000,439.500000C1123.300000,435.700000,1134.800000,436.100000,1141.700000,442.500000C1147.600000,413.900000,1166.600000,384.900000,1194.900000,374.100000C1187.200000,382.900000,1181.500000,393.200000,1178.500000,404.100000C1172.300000,426.900000,1178,452.300000,1193.500000,471C1170.400000,463.800000,1143.600000,477,1132.600000,497.100000C1121.600000,517.200000,1124.300000,542,1134.600000,562.500000C1138.900000,570.900000,1144.400000,579.100000,1145.600000,588.300000C1146.800000,597.500000,1141.900000,608.400000,1132,610.400000C1121.200000,612.600000,1116.500000,625.400000,1119.800000,635.200000C1123,645,1131.500000,652.300000,1139.200000,659.700000C1146.900000,667,1154.500000,675.600000,1155.300000,685.700000C1156.100000,696.700000,1148.900000,706.700000,1142.800000,716.200000C1133.700000,730.700000,1126.600000,746.400000,1122.200000,762.700000C1118.300000,777.100000,1116.300000,792.500000,1121.400000,806.600000C1126.500000,820.700000,1140.100000,832.900000,1156.200000,833.300000C1157.900000,830.100000,1159.600000,827,1161.300000,823.900000C1166.200000,837.100000,1185.300000,842,1199.300000,836.800000C1213.300000,831.600000,1222.700000,819.400000,1229.400000,806.800000C1229.600000,818.300000,1242.600000,825.900000,1254.600000,828.500000C1260.500000,829.700000,1266.700000,830.500000,1272.700000,831.600000C1274.900000,858,1271.800000,884.300000,1254.600000,904.800000C1245.300000,915.900000,1232.500000,924.300000,1218.500000,929.900000C1202.400000,936.300000,1183.800000,939.200000,1167.500000,933.500000C1143.800000,925.200000,1130.900000,902.200000,1120.300000,881.200000Z" fill="rgb(188,188,187)" stroke="none" stroke-width="1"/><path id="ek57ppnncy610" d="M1325.400000,515.800000C1331,528.100000,1334.200000,562.200000,1313.900000,565C1307.100000,565.900000,1300.800000,561,1297.500000,555.400000C1294.300000,549.800000,1292.900000,543.400000,1289.800000,537.700000C1286.400000,531.500000,1280.800000,526.300000,1274,523.200000C1264.200000,518.600000,1251.400000,517.500000,1246,508.700000C1241.800000,501.700000,1244.700000,492.400000,1251.100000,487.100000C1257.500000,481.800000,1266.600000,480,1275.200000,480.400000C1298.200000,481.200000,1316.900000,496.700000,1325.400000,515.800000Z" fill="rgb(255,255,255)" stroke="none" stroke-width="1"/><path id="ek57ppnncy611" d="M1319,746.600000C1313.500000,751.900000,1302.700000,753.200000,1298.100000,747.200000C1294.100000,741.900000,1296.900000,734.700000,1298.800000,728.500000C1301.500000,720.100000,1302.500000,711.200000,1301.900000,702.500000C1301.600000,698.500000,1300.900000,694.400000,1301.800000,690.500000C1302.700000,686.600000,1305.600000,682.600000,1309.900000,681.900000C1315.800000,680.800000,1321,685.900000,1323.600000,690.900000C1330.900000,704.600000,1331.200000,734.800000,1319,746.600000Z" fill="rgb(255,255,255)" stroke="none" stroke-width="1"/></g><g id="ek57ppnncy612" opacity="0"><path id="ek57ppnncy613" d="M1112.600000,838.900000C1096,833.100000,1086.900000,816.800000,1079.200000,801.900000C1067.400000,804.100000,1057.200000,793.800000,1052.100000,783.700000C1042.800000,765.500000,1040.600000,744.200000,1046,724.700000C1049.700000,710.900000,1057.200000,697.700000,1056.800000,683.500000C1056.300000,669.300000,1048,656.500000,1039.300000,644.800000C1029.400000,631.300000,1016,625.600000,1010.900000,623.200000C997.800000,617.200000,986,615.600000,978.800000,615.200000C983.200000,614,987.500000,612.900000,991.900000,611.700000C1003.300000,608.100000,1012.900000,607.400000,1020.100000,607.800000C1034.800000,608.500000,1042.500000,612.900000,1049.100000,608.600000C1054.100000,605.400000,1055.800000,599.100000,1055.200000,593.600000C1054.600000,588.100000,1052.100000,582.800000,1050.200000,577.500000C1041.400000,552.900000,1045.300000,524.600000,1060.500000,502.800000C1064.200000,497.400000,1068.900000,492.300000,1075.100000,489.600000C1081.300000,486.900000,1089.500000,487.200000,1094.300000,491.700000C1099.200000,468.200000,1116.500000,444.300000,1142.200000,440.700000C1157.700000,438.600000,1174.400000,444.800000,1184,456.400000C1193.600000,468,1195.700000,484.500000,1189.300000,497.800000C1219.700000,506.200000,1244.600000,531.500000,1247.800000,560.700000C1251,589.800000,1230.300000,620.500000,1199.800000,628.300000C1211.100000,634.200000,1227,643.800000,1233.700000,659.800000C1240.400000,675.800000,1237.300000,706.400000,1229.100000,721.900000C1220.900000,737.400000,1201.300000,747.900000,1183.400000,743.500000C1188.700000,769,1191.300000,797.900000,1174.200000,818.500000C1167.600000,826.300000,1158.600000,832.300000,1148.700000,836.200000C1137.200000,840.800000,1124.100000,842.900000,1112.600000,838.900000Z" fill="rgb(217,217,216)" stroke="none" stroke-width="1"/><path id="ek57ppnncy614" d="M1079.200000,802C1067.400000,804.200000,1057.200000,793.900000,1052.100000,783.800000C1042.800000,765.600000,1040.600000,744.300000,1046,724.800000C1049.700000,711,1057.200000,697.800000,1056.800000,683.600000C1056.300000,669.400000,1048,656.600000,1039.300000,644.900000C1035.100000,639.200000,1025.600000,628.300000,1010.900000,623.300000C1007.600000,622.200000,1002.500000,620.900000,999.500000,620.100000C990.500000,617.800000,982.900000,616.200000,977.600000,615.300000C995.800000,608.800000,1010.100000,607.700000,1020.100000,608C1026.600000,608.100000,1036.500000,609.100000,1044.500000,603.500000C1046.500000,602.100000,1050.700000,598.700000,1052.300000,593.200000C1054.400000,586.300000,1051.200000,579.900000,1050.200000,577.700000C1039.700000,554.900000,1050.200000,517.800000,1060.500000,503C1064.200000,497.600000,1068.900000,492.500000,1075.100000,489.800000C1081.300000,487.100000,1089.500000,487.400000,1094.300000,491.900000C1098.500000,471.700000,1111.900000,451.200000,1131.900000,443.600000C1126.500000,449.800000,1122.400000,457.100000,1120.300000,464.800000C1115.900000,480.900000,1119.900000,498.900000,1130.900000,512.100000C1114.500000,507,1095.600000,516.400000,1087.800000,530.600000C1080,544.800000,1081.900000,562.400000,1089.200000,576.800000C1092.200000,582.700000,1096.100000,588.500000,1097,595.100000C1097.900000,601.600000,1094.400000,609.300000,1087.400000,610.700000C1079.800000,612.200000,1076.500000,621.300000,1078.700000,628.200000C1081,635.100000,1087,640.300000,1092.400000,645.500000C1097.800000,650.600000,1103.200000,656.700000,1103.800000,663.900000C1104.400000,671.700000,1099.300000,678.700000,1095,685.500000C1088.500000,695.800000,1083.600000,706.800000,1080.400000,718.400000C1077.600000,728.600000,1076.200000,739.500000,1079.800000,749.400000C1083.400000,759.400000,1093,768,1104.400000,768.300000C1105.600000,766,1106.800000,763.800000,1108,761.600000C1111.400000,770.900000,1124.900000,774.400000,1134.800000,770.700000C1144.700000,767,1151.400000,758.400000,1156.100000,749.500000C1156.200000,757.600000,1165.400000,763,1173.900000,764.800000C1178.100000,765.700000,1182.500000,766.200000,1186.700000,767C1188.200000,785.600000,1186,804.300000,1173.900000,818.700000C1167.300000,826.500000,1158.300000,832.500000,1148.400000,836.400000C1137,840.900000,1123.900000,843,1112.300000,839C1095.800000,833.100000,1086.700000,816.900000,1079.200000,802Z" fill="rgb(188,188,187)" stroke="none" stroke-width="1"/><path id="ek57ppnncy615" d="M1224.100000,543.800000C1228.100000,552.500000,1230.300000,576.600000,1216,578.600000C1211.200000,579.300000,1206.800000,575.700000,1204.400000,571.800000C1202.100000,567.800000,1201.200000,563.300000,1199,559.300000C1196.600000,554.900000,1192.600000,551.200000,1187.900000,549C1181,545.800000,1171.900000,545,1168.100000,538.700000C1165.200000,533.800000,1167.100000,527.200000,1171.700000,523.400000C1176.200000,519.700000,1182.600000,518.400000,1188.700000,518.600000C1204.900000,519.300000,1218.100000,530.300000,1224.100000,543.800000Z" fill="rgb(255,255,255)" stroke="none" stroke-width="1"/><path id="ek57ppnncy616" d="M1219.600000,706.900000C1215.700000,710.600000,1208.100000,711.600000,1204.900000,707.300000C1202,703.600000,1204,698.500000,1205.400000,694.100000C1207.300000,688.200000,1208,681.900000,1207.600000,675.700000C1207.400000,672.800000,1206.900000,670,1207.500000,667.200000C1208.200000,664.400000,1210.200000,661.600000,1213.200000,661.100000C1217.400000,660.300000,1221,664,1222.900000,667.500000C1228,677.200000,1228.200000,698.500000,1219.600000,706.900000Z" fill="rgb(255,255,255)" stroke="none" stroke-width="1"/></g><g id="ek57ppnncy617" opacity="0"><path id="ek57ppnncy618" d="M1092.700000,772.200000C1081.400000,768.300000,1075.200000,757.200000,1070,747.100000C1062,748.600000,1055.100000,741.600000,1051.600000,734.800000C1045.300000,722.500000,1043.800000,708,1047.500000,694.800000C1050,685.400000,1055.100000,676.500000,1054.800000,666.800000C1054.500000,657.200000,1048.800000,648.500000,1042.900000,640.500000C1036.200000,631.300000,1027.100000,627.500000,1023.600000,625.900000C1014.700000,621.800000,1006.700000,620.800000,1001.800000,620.500000C1004.800000,619.700000,1007.700000,618.900000,1010.700000,618.100000C1018.500000,615.700000,1024.900000,615.200000,1029.800000,615.500000C1039.800000,615.900000,1045,619,1049.500000,616C1052.900000,613.800000,1054,609.600000,1053.600000,605.800000C1053.200000,602,1051.500000,598.500000,1050.200000,594.800000C1044.200000,578.100000,1046.900000,558.900000,1057.200000,544.100000C1059.700000,540.500000,1062.900000,537,1067.100000,535.100000C1071.300000,533.300000,1076.900000,533.500000,1080.100000,536.500000C1083.400000,520.500000,1095.200000,504.300000,1112.600000,501.900000C1123.200000,500.500000,1134.500000,504.700000,1141,512.600000C1147.500000,520.500000,1148.900000,531.700000,1144.600000,540.700000C1165.200000,546.400000,1182.100000,563.600000,1184.300000,583.400000C1186.400000,603.200000,1172.400000,624,1151.700000,629.300000C1159.400000,633.300000,1170.200000,639.900000,1174.700000,650.700000C1179.300000,661.600000,1177.100000,682.400000,1171.600000,692.800000C1166,703.300000,1152.700000,710.500000,1140.600000,707.400000C1144.200000,724.700000,1146,744.300000,1134.300000,758.300000C1129.800000,763.600000,1123.700000,767.700000,1117,770.300000C1109.500000,773.500000,1100.600000,774.900000,1092.700000,772.200000Z" fill="rgb(217,217,216)" stroke="none" stroke-width="1"/><path id="ek57ppnncy619" d="M1070.100000,747.200000C1062.100000,748.700000,1055.200000,741.700000,1051.700000,734.900000C1045.400000,722.600000,1043.900000,708.100000,1047.600000,694.900000C1050.100000,685.500000,1055.200000,676.600000,1054.900000,666.900000C1054.600000,657.300000,1048.900000,648.600000,1043,640.600000C1040.200000,636.700000,1033.700000,629.300000,1023.700000,626C1021.500000,625.300000,1018,624.400000,1016,623.800000C1009.900000,622.200000,1004.700000,621.200000,1001.200000,620.500000C1013.500000,616.100000,1023.300000,615.400000,1030,615.500000C1034.400000,615.600000,1041.100000,616.200000,1046.500000,612.400000C1047.800000,611.500000,1050.700000,609.100000,1051.800000,605.400000C1053.200000,600.700000,1051.100000,596.400000,1050.400000,594.800000C1043.300000,579.300000,1050.400000,554.200000,1057.400000,544.100000C1059.900000,540.500000,1063.100000,537,1067.300000,535.100000C1071.500000,533.300000,1077.100000,533.500000,1080.300000,536.500000C1083.100000,522.800000,1092.300000,508.900000,1105.800000,503.700000C1102.100000,507.900000,1099.400000,512.900000,1097.900000,518.100000C1094.900000,529.100000,1097.700000,541.300000,1105.100000,550.200000C1094,546.800000,1081.100000,553.100000,1075.900000,562.700000C1070.700000,572.300000,1071.900000,584.300000,1076.800000,594.100000C1078.800000,598.100000,1081.500000,602.100000,1082.100000,606.500000C1082.700000,610.900000,1080.300000,616.200000,1075.600000,617.100000C1070.400000,618.100000,1068.200000,624.300000,1069.700000,629C1071.200000,633.700000,1075.300000,637.200000,1079,640.800000C1082.700000,644.300000,1086.300000,648.400000,1086.700000,653.300000C1087.100000,658.600000,1083.600000,663.400000,1080.700000,667.900000C1076.300000,674.900000,1072.900000,682.400000,1070.800000,690.200000C1068.900000,697.100000,1068,704.500000,1070.400000,711.300000C1072.800000,718.100000,1079.400000,723.900000,1087.100000,724.100000C1087.900000,722.600000,1088.700000,721.100000,1089.500000,719.600000C1091.800000,725.900000,1101,728.300000,1107.700000,725.800000C1114.400000,723.300000,1119,717.400000,1122.100000,711.400000C1122.200000,716.900000,1128.400000,720.600000,1134.200000,721.800000C1137,722.400000,1140,722.700000,1142.900000,723.300000C1143.900000,735.900000,1142.500000,748.600000,1134.200000,758.400000C1129.700000,763.700000,1123.600000,767.800000,1116.900000,770.400000C1109.200000,773.500000,1100.300000,774.900000,1092.400000,772.100000C1081.300000,768.300000,1075.200000,757.300000,1070.100000,747.200000Z" fill="rgb(188,188,187)" stroke="none" stroke-width="1"/><path id="ek57ppnncy620" d="M1168.500000,571.900000C1171.200000,577.800000,1172.700000,594.200000,1163,595.500000C1159.700000,595.900000,1156.700000,593.600000,1155.100000,590.900000C1153.600000,588.200000,1152.900000,585.100000,1151.400000,582.400000C1149.800000,579.400000,1147.100000,576.900000,1143.800000,575.400000C1139.100000,573.200000,1132.900000,572.700000,1130.400000,568.400000C1128.400000,565.100000,1129.800000,560.600000,1132.800000,558C1135.900000,555.500000,1140.200000,554.600000,1144.400000,554.800000C1155.400000,555.200000,1164.400000,562.700000,1168.500000,571.900000Z" fill="rgb(255,255,255)" stroke="none" stroke-width="1"/><path id="ek57ppnncy621" d="M1165.400000,682.600000C1162.800000,685.100000,1157.600000,685.800000,1155.400000,682.900000C1153.500000,680.400000,1154.800000,676.900000,1155.700000,673.900000C1157,669.900000,1157.500000,665.600000,1157.200000,661.400000C1157.100000,659.500000,1156.700000,657.500000,1157.200000,655.600000C1157.700000,653.700000,1159,651.800000,1161.100000,651.500000C1163.900000,651,1166.400000,653.400000,1167.700000,655.800000C1171.100000,662.400000,1171.300000,676.900000,1165.400000,682.600000Z" fill="rgb(255,255,255)" stroke="none" stroke-width="1"/></g><g id="ek57ppnncy622" opacity="0"><path id="ek57ppnncy623" d="M1059.700000,697.800000C1053.700000,695.700000,1050.500000,689.900000,1047.800000,684.600000C1043.600000,685.400000,1039.900000,681.700000,1038.100000,678.100000C1034.800000,671.600000,1034,664,1035.900000,657C1037.200000,652.100000,1039.900000,647.300000,1039.800000,642.300000C1039.600000,637.200000,1036.700000,632.600000,1033.600000,628.400000C1030.100000,623.600000,1025.300000,621.500000,1023.400000,620.700000C1018.700000,618.500000,1014.500000,618,1011.900000,617.800000C1013.500000,617.400000,1015,617,1016.600000,616.500000C1020.700000,615.200000,1024.100000,615,1026.700000,615.100000C1031.900000,615.300000,1034.700000,616.900000,1037.100000,615.400000C1038.900000,614.200000,1039.500000,612,1039.300000,610C1039.100000,608,1038.200000,606.100000,1037.500000,604.200000C1034.400000,595.400000,1035.700000,585.300000,1041.200000,577.500000C1042.500000,575.600000,1044.200000,573.700000,1046.400000,572.800000C1048.600000,571.800000,1051.500000,571.900000,1053.300000,573.600000C1055.100000,565.200000,1061.200000,556.700000,1070.400000,555.400000C1076,554.600000,1081.900000,556.900000,1085.400000,561C1088.900000,565.100000,1089.600000,571,1087.300000,575.800000C1098.200000,578.800000,1107.100000,587.800000,1108.200000,598.300000C1109.300000,608.700000,1102,619.700000,1091,622.500000C1095,624.600000,1100.700000,628.100000,1103.100000,633.800000C1105.500000,639.500000,1104.400000,650.500000,1101.400000,656C1098.500000,661.500000,1091.500000,665.300000,1085.100000,663.700000C1087,672.800000,1087.900000,683.200000,1081.800000,690.500000C1079.400000,693.300000,1076.200000,695.400000,1072.700000,696.800000C1068.500000,698.500000,1063.800000,699.300000,1059.700000,697.800000Z" fill="rgb(217,217,216)" stroke="none" stroke-width="1"/><path id="ek57ppnncy624" d="M1047.700000,684.600000C1043.500000,685.400000,1039.800000,681.700000,1038,678.100000C1034.700000,671.600000,1033.900000,664,1035.800000,657C1037.100000,652.100000,1039.800000,647.300000,1039.700000,642.300000C1039.500000,637.200000,1036.600000,632.600000,1033.500000,628.400000C1032,626.400000,1028.600000,622.500000,1023.300000,620.700000C1022.100000,620.300000,1020.300000,619.800000,1019.200000,619.500000C1016,618.700000,1013.200000,618.100000,1011.400000,617.800000C1017.900000,615.500000,1023,615.100000,1026.600000,615.200000C1028.900000,615.300000,1032.500000,615.600000,1035.300000,613.600000C1036,613.100000,1037.500000,611.900000,1038.100000,609.900000C1038.900000,607.400000,1037.700000,605.200000,1037.300000,604.300000C1033.500000,596.100000,1037.300000,582.900000,1041,577.600000C1042.300000,575.700000,1044,573.800000,1046.200000,572.900000C1048.400000,571.900000,1051.300000,572,1053.100000,573.700000C1054.600000,566.500000,1059.400000,559.100000,1066.600000,556.400000C1064.700000,558.600000,1063.200000,561.200000,1062.500000,564C1060.900000,569.800000,1062.400000,576.200000,1066.300000,580.900000C1060.400000,579.100000,1053.700000,582.400000,1050.900000,587.500000C1048.100000,592.600000,1048.800000,598.900000,1051.400000,604C1052.500000,606.100000,1053.900000,608.200000,1054.200000,610.500000C1054.500000,612.800000,1053.300000,615.600000,1050.800000,616.100000C1048.100000,616.700000,1046.900000,619.900000,1047.700000,622.400000C1048.500000,624.900000,1050.700000,626.700000,1052.600000,628.600000C1054.500000,630.400000,1056.500000,632.600000,1056.700000,635.200000C1056.900000,638,1055.100000,640.500000,1053.600000,642.900000C1051.300000,646.600000,1049.500000,650.500000,1048.400000,654.700000C1047.400000,658.300000,1046.900000,662.200000,1048.200000,665.800000C1049.500000,669.400000,1052.900000,672.400000,1057,672.500000C1057.400000,671.700000,1057.900000,670.900000,1058.300000,670.100000C1059.500000,673.400000,1064.400000,674.700000,1067.900000,673.400000C1071.400000,672.100000,1073.800000,669,1075.500000,665.800000C1075.600000,668.700000,1078.800000,670.600000,1081.900000,671.300000C1083.400000,671.600000,1085,671.800000,1086.500000,672.100000C1087.100000,678.800000,1086.300000,685.400000,1081.900000,690.600000C1079.500000,693.400000,1076.300000,695.500000,1072.800000,696.900000C1068.700000,698.500000,1064,699.300000,1059.900000,697.800000C1053.700000,695.800000,1050.400000,690,1047.700000,684.600000Z" fill="rgb(188,188,187)" stroke="none" stroke-width="1"/><path id="ek57ppnncy625" d="M1099.600000,592.300000C1101,595.400000,1101.800000,604,1096.700000,604.700000C1095,604.900000,1093.400000,603.700000,1092.600000,602.300000C1091.800000,600.900000,1091.400000,599.300000,1090.700000,597.800000C1089.800000,596.200000,1088.400000,594.900000,1086.700000,594.100000C1084.200000,592.900000,1081,592.700000,1079.600000,590.400000C1078.600000,588.600000,1079.300000,586.300000,1080.900000,584.900000C1082.500000,583.500000,1084.800000,583.100000,1087,583.200000C1092.700000,583.500000,1097.400000,587.400000,1099.600000,592.300000Z" fill="rgb(255,255,255)" stroke="none" stroke-width="1"/><path id="ek57ppnncy626" d="M1098,650.600000C1096.600000,651.900000,1093.900000,652.300000,1092.700000,650.800000C1091.700000,649.500000,1092.400000,647.700000,1092.900000,646.100000C1093.600000,644,1093.800000,641.700000,1093.700000,639.500000C1093.600000,638.500000,1093.400000,637.500000,1093.700000,636.500000C1093.900000,635.500000,1094.700000,634.500000,1095.700000,634.300000C1097.200000,634,1098.500000,635.300000,1099.200000,636.600000C1101,640,1101,647.600000,1098,650.600000Z" fill="rgb(255,255,255)" stroke="none" stroke-width="1"/></g><g id="ek57ppnncy627" opacity="0"><path id="ek57ppnncy628" d="M178.900000,997.400000C161.300000,990.400000,145.300000,979.800000,133.500000,965.900000C103,929.400000,107.700000,878,117.100000,832.700000C85.300000,840.700000,50.500000,821.800000,35.900000,794.400000C21.300000,767,15.700000,712.500000,27.700000,684.100000C39.600000,655.700000,67.800000,638.500000,87.900000,628.100000C33.500000,614.200000,-3.100000,559.700000,2.500000,507.900000C8.100000,456,52.400000,411,106.400000,396.200000C95.100000,372.500000,98.700000,343.100000,115.800000,322.600000C132.900000,302.100000,162.500000,290.900000,190.100000,294.700000C235.700000,301.100000,266.500000,343.500000,275.200000,385.300000C283.800000,377.200000,298.300000,376.700000,309.400000,381.500000C320.500000,386.300000,328.700000,395.400000,335.300000,405C362.400000,443.700000,369.300000,493.900000,353.700000,537.700000C350.300000,547.200000,345.900000,556.500000,344.800000,566.400000C343.800000,576.300000,346.800000,587.400000,355.600000,593.100000C367.300000,600.800000,381,592.800000,407.100000,591.700000C419.900000,591,436.800000,592.200000,457.200000,598.600000C465,600.700000,472.700000,602.800000,480.500000,604.900000C467.900000,605.700000,446.700000,608.400000,423.500000,619.100000C414.500000,623.300000,390.700000,633.400000,373.100000,657.400000C357.700000,678.300000,343,701.100000,342.100000,726.200000C341.300000,751.500000,354.600000,775,361.300000,799.500000C370.900000,834.200000,367,872,350.500000,904.300000C341.400000,922.300000,323.300000,940.500000,302.300000,936.600000C288.700000,963.100000,272.600000,992,243,1002.300000C222.400000,1009.200000,199.100000,1005.500000,178.900000,997.400000Z" fill="rgb(217,217,216)" stroke="none" stroke-width="1"/><path id="ek57ppnncy629" d="M243,1002.100000C222.400000,1009.300000,199.100000,1005.600000,178.900000,997.500000C161.300000,990.500000,145.300000,979.900000,133.500000,966C112,940.300000,108.100000,907.200000,110.800000,874.100000C118.200000,872.700000,126.100000,871.800000,133.500000,870.200000C148.600000,866.900000,164.900000,857.400000,165.200000,843C173.500000,858.800000,185.400000,874.200000,203,880.700000C220.600000,887.200000,244.600000,881.100000,250.700000,864.500000C252.800000,868.400000,255,872.300000,257.100000,876.400000C277.300000,875.900000,294.400000,860.600000,300.800000,842.900000C307.200000,825.200000,304.700000,805.900000,299.800000,787.800000C294.200000,767.300000,285.300000,747.700000,273.900000,729.400000C266.300000,717.400000,257.200000,704.900000,258.300000,691.100000C259.300000,678.300000,268.900000,667.500000,278.500000,658.400000C288.100000,649.100000,298.800000,639.900000,302.900000,627.600000C306.900000,615.300000,301.100000,599.200000,287.500000,596.400000C275.100000,593.900000,268.900000,580.200000,270.400000,568.600000C271.900000,557,278.900000,546.700000,284.200000,536.100000C297.100000,510.400000,300.500000,479.300000,286.700000,454C272.900000,428.700000,239.300000,412.200000,210.200000,421.200000C229.800000,397.700000,236.900000,365.800000,229.100000,337.100000C225.300000,323.400000,218.200000,310.500000,208.500000,299.400000C244.100000,313,267.900000,349.300000,275.400000,385.300000C284,377.200000,298.500000,376.700000,309.600000,381.500000C320.700000,386.300000,328.900000,395.400000,335.500000,405C353.900000,431.300000,372.500000,497.200000,353.900000,537.700000C352.100000,541.700000,346.300000,553.100000,350.100000,565.300000C353.100000,574.900000,360.500000,581.100000,364,583.500000C378.200000,593.500000,395.700000,591.800000,407.300000,591.600000C425,591.200000,450.400000,593.200000,482.800000,604.600000C473.500000,606.300000,460,609,444,613.200000C438.700000,614.600000,429.700000,617,423.800000,618.900000C397.700000,627.800000,380.800000,647.100000,373.400000,657.200000C358,678.100000,343.300000,700.900000,342.400000,726C341.600000,751.300000,354.900000,774.800000,361.600000,799.300000C371.200000,834,367.300000,871.800000,350.800000,904.100000C341.700000,922.100000,323.600000,940.300000,302.600000,936.400000C288.900000,963,272.700000,991.800000,243,1002.100000Z" fill="rgb(188,188,187)" stroke="none" stroke-width="1"/><path id="ek57ppnncy630" d="M107.700000,432.900000C118.500000,432.500000,129.900000,434.700000,137.900000,441.400000C146,448,149.500000,459.800000,144.300000,468.500000C137.500000,479.600000,121.400000,481,109.100000,486.700000C100.600000,490.600000,93.600000,497.100000,89.300000,504.900000C85.400000,512.100000,83.700000,520.200000,79.700000,527.200000C75.500000,534.200000,67.700000,540.500000,59.100000,539.300000C33.600000,535.800000,37.600000,493,44.600000,477.500000C55.300000,453.600000,78.800000,434.100000,107.700000,432.900000Z" fill="rgb(255,255,255)" stroke="none" stroke-width="1"/><path id="ek57ppnncy631" d="M46.700000,697.500000C50,691.200000,56.500000,684.700000,63.900000,686.200000C69.200000,687.100000,72.900000,692.100000,74.100000,697C75.300000,702,74.400000,707,74,712.100000C73.200000,723,74.500000,734.300000,77.900000,744.800000C80.400000,752.600000,83.900000,761.600000,78.800000,768.300000C73.100000,775.900000,59.500000,774.200000,52.600000,767.500000C37.300000,752.700000,37.700000,714.700000,46.700000,697.500000Z" fill="rgb(255,255,255)" stroke="none" stroke-width="1"/></g><g id="ek57ppnncy632" opacity="0"><path id="ek57ppnncy633" d="M199.500000,929.600000C185.500000,924,172.700000,915.600000,163.400000,904.500000C139.100000,875.400000,142.900000,834.600000,150.300000,798.500000C125,804.800000,97.300000,789.800000,85.700000,768C74.100000,746.200000,69.600000,702.800000,79.200000,680.200000C88.600000,657.600000,111.200000,643.900000,127.100000,635.600000C83.800000,624.500000,54.700000,581.100000,59.100000,539.900000C63.600000,498.600000,98.800000,462.800000,141.800000,451C132.800000,432.100000,135.700000,408.800000,149.300000,392.400000C162.900000,376,186.400000,367.200000,208.400000,370.200000C244.700000,375.300000,269.200000,409,276.200000,442.300000C283,435.900000,294.600000,435.500000,303.400000,439.300000C312.200000,443.100000,318.800000,450.400000,324,458C345.600000,488.800000,351.100000,528.800000,338.600000,563.600000C335.900000,571.200000,332.400000,578.500000,331.500000,586.400000C330.700000,594.300000,333.100000,603.100000,340.100000,607.700000C349.400000,613.800000,360.300000,607.500000,381.100000,606.600000C391.300000,606.100000,404.800000,607,420.900000,612.100000C427.100000,613.800000,433.200000,615.400000,439.500000,617.100000C429.400000,617.700000,412.600000,619.900000,394.200000,628.400000C387,631.700000,368.100000,639.800000,354,658.900000C341.800000,675.500000,330,693.700000,329.300000,713.700000C328.700000,733.800000,339.300000,752.500000,344.600000,772C352.300000,799.600000,349.200000,829.700000,336,855.400000C328.700000,869.700000,314.300000,884.200000,297.600000,881.100000C286.800000,902.200000,273.900000,925.200000,250.400000,933.400000C234.100000,939,215.500000,936.100000,199.500000,929.600000Z" fill="rgb(217,217,216)" stroke="none" stroke-width="1"/><path id="ek57ppnncy634" d="M250.500000,933.400000C234.100000,939.100000,215.500000,936.200000,199.500000,929.800000C185.500000,924.200000,172.700000,915.800000,163.400000,904.700000C146.300000,884.300000,143.200000,857.900000,145.300000,831.500000C151.200000,830.400000,157.400000,829.600000,163.400000,828.400000C175.400000,825.800000,188.400000,818.200000,188.600000,806.700000C195.200000,819.300000,204.700000,831.500000,218.700000,836.700000C232.700000,841.900000,251.800000,837,256.700000,823.800000C258.400000,826.900000,260.100000,830,261.800000,833.200000C277.900000,832.800000,291.500000,820.600000,296.600000,806.500000C301.700000,792.400000,299.700000,777,295.800000,762.600000C291.300000,746.300000,284.300000,730.600000,275.200000,716.100000C269.200000,706.600000,261.900000,696.600000,262.700000,685.600000C263.500000,675.400000,271.100000,666.800000,278.800000,659.600000C286.500000,652.200000,295,644.900000,298.200000,635.100000C301.400000,625.300000,296.700000,612.500000,286,610.300000C276.100000,608.300000,271.200000,597.400000,272.400000,588.200000C273.600000,579,279.100000,570.800000,283.400000,562.400000C293.700000,542,296.400000,517.200000,285.400000,497C274.400000,476.800000,247.600000,463.700000,224.500000,470.900000C240.100000,452.200000,245.800000,426.800000,239.500000,404C236.500000,393.100000,230.800000,382.800000,223.100000,374C251.400000,384.800000,270.400000,413.700000,276.300000,442.400000C283.100000,436,294.700000,435.600000,303.500000,439.400000C312.300000,443.200000,318.900000,450.500000,324.100000,458.100000C338.700000,479.100000,353.600000,531.500000,338.700000,563.700000C337.200000,566.900000,332.700000,575.900000,335.700000,585.700000C338.100000,593.400000,344,598.300000,346.800000,600.200000C358.100000,608.200000,372,606.800000,381.200000,606.600000C395.300000,606.300000,415.500000,607.800000,441.300000,617C433.900000,618.300000,423.100000,620.500000,410.400000,623.800000C406.100000,624.900000,399,626.800000,394.300000,628.400000C373.500000,635.500000,360.100000,650.800000,354.100000,658.900000C341.900000,675.500000,330.100000,693.700000,329.400000,713.700000C328.800000,733.800000,339.400000,752.500000,344.700000,772C352.400000,799.600000,349.300000,829.700000,336.100000,855.400000C328.800000,869.700000,314.400000,884.200000,297.700000,881.100000C287,902.200000,274.200000,925.200000,250.500000,933.400000Z" fill="rgb(188,188,187)" stroke="none" stroke-width="1"/><path id="ek57ppnncy635" d="M142.800000,480.200000C151.400000,479.900000,160.400000,481.700000,166.900000,486.900000C173.400000,492.100000,176.100000,501.500000,172,508.500000C166.600000,517.300000,153.700000,518.500000,144,523C137.300000,526.100000,131.700000,531.300000,128.200000,537.500000C125.100000,543.200000,123.700000,549.600000,120.500000,555.200000C117.200000,560.800000,111,565.800000,104.100000,564.800000C83.800000,562,87,528,92.600000,515.600000C101.100000,496.700000,119.800000,481.200000,142.800000,480.200000Z" fill="rgb(255,255,255)" stroke="none" stroke-width="1"/><path id="ek57ppnncy636" d="M94.200000,690.900000C96.800000,685.900000,102,680.700000,107.900000,681.900000C112.200000,682.600000,115.100000,686.600000,116,690.500000C116.900000,694.400000,116.200000,698.500000,115.900000,702.500000C115.300000,711.200000,116.300000,720.100000,119,728.500000C121,734.700000,123.800000,741.900000,119.700000,747.200000C115.100000,753.200000,104.300000,751.900000,98.800000,746.600000C86.800000,734.800000,87.100000,704.600000,94.200000,690.900000Z" fill="rgb(255,255,255)" stroke="none" stroke-width="1"/></g><g id="ek57ppnncy637" opacity="0"><path id="ek57ppnncy638" d="M269.400000,836.300000C259.500000,832.300000,250.500000,826.400000,243.900000,818.600000C226.700000,798.100000,229.400000,769.200000,234.700000,743.600000C216.800000,748.100000,197.200000,737.400000,189,722C180.800000,706.600000,177.600000,675.900000,184.400000,659.900000C191.100000,643.900000,207,634.200000,218.300000,628.400000C187.700000,620.600000,167.100000,589.900000,170.300000,560.800000C173.500000,531.600000,198.400000,506.300000,228.800000,497.900000C222.400000,484.600000,224.500000,468,234.100000,456.500000C243.700000,444.900000,260.400000,438.700000,275.900000,440.800000C301.600000,444.400000,318.900000,468.200000,323.800000,491.800000C328.600000,487.300000,336.800000,487,343,489.700000C349.200000,492.400000,353.900000,497.500000,357.600000,502.900000C372.900000,524.700000,376.700000,552.900000,367.900000,577.600000C366,583,363.500000,588.200000,362.900000,593.700000C362.300000,599.300000,364,605.500000,369,608.700000C375.600000,613,383.300000,608.600000,398,607.900000C405.200000,607.500000,414.700000,608.200000,426.200000,611.800000C430.600000,613,434.900000,614.100000,439.300000,615.300000C432.200000,615.700000,420.300000,617.300000,407.200000,623.300000C402.100000,625.600000,388.700000,631.400000,378.800000,644.900000C370.100000,656.600000,361.900000,669.500000,361.300000,683.600000C360.900000,697.800000,368.300000,711,372.100000,724.800000C377.500000,744.300000,375.300000,765.600000,366,783.800000C360.900000,793.900000,350.700000,804.200000,338.900000,802C331.300000,816.900000,322.200000,833.200000,305.500000,839C293.900000,842.900000,280.800000,840.800000,269.400000,836.300000Z" fill="rgb(217,217,216)" stroke="none" stroke-width="1"/><path id="ek57ppnncy639" d="M305.500000,838.900000C293.900000,842.900000,280.800000,840.900000,269.400000,836.300000C259.500000,832.300000,250.500000,826.400000,243.900000,818.600000C231.800000,804.200000,229.600000,785.500000,231.100000,766.900000C235.300000,766.100000,239.700000,765.600000,243.900000,764.700000C252.400000,762.900000,261.600000,757.500000,261.700000,749.400000C266.400000,758.300000,273.100000,766.900000,283,770.600000C292.900000,774.300000,306.400000,770.800000,309.800000,761.500000C311,763.700000,312.200000,765.900000,313.400000,768.200000C324.800000,767.900000,334.400000,759.300000,338,749.300000C341.600000,739.300000,340.200000,728.500000,337.400000,718.300000C334.200000,706.800000,329.300000,695.700000,322.800000,685.400000C318.500000,678.700000,313.400000,671.600000,314,663.800000C314.600000,656.600000,319.900000,650.500000,325.400000,645.400000C330.800000,640.200000,336.800000,635,339.100000,628.100000C341.400000,621.200000,338.100000,612.100000,330.400000,610.600000C323.400000,609.200000,319.900000,601.500000,320.800000,595C321.700000,588.500000,325.600000,582.700000,328.600000,576.700000C335.900000,562.300000,337.800000,544.700000,330,530.500000C322.200000,516.300000,303.300000,507,286.900000,512C297.900000,498.800000,301.900000,480.800000,297.500000,464.700000C295.400000,457,291.300000,449.700000,285.900000,443.500000C305.900000,451.100000,319.300000,471.600000,323.500000,491.800000C328.300000,487.300000,336.500000,487,342.700000,489.700000C348.900000,492.400000,353.600000,497.500000,357.300000,502.900000C367.600000,517.700000,378.100000,554.800000,367.600000,577.600000C366.600000,579.900000,363.300000,586.300000,365.500000,593.100000C367.200000,598.500000,371.400000,602,373.300000,603.400000C381.300000,609,391.100000,608.100000,397.700000,607.900000C407.700000,607.700000,422,608.800000,440.200000,615.200000C435,616.200000,427.400000,617.700000,418.300000,620C415.300000,620.800000,410.200000,622.100000,406.900000,623.200000C392.200000,628.200000,382.700000,639,378.500000,644.800000C369.800000,656.500000,361.600000,669.400000,361,683.500000C360.600000,697.700000,368,710.900000,371.800000,724.700000C377.200000,744.200000,375,765.500000,365.700000,783.700000C360.600000,793.800000,350.400000,804.100000,338.600000,801.900000C331.300000,816.900000,322.200000,833.100000,305.500000,838.900000Z" fill="rgb(188,188,187)" stroke="none" stroke-width="1"/><path id="ek57ppnncy640" d="M229.300000,518.600000C235.400000,518.400000,241.800000,519.600000,246.300000,523.400000C250.800000,527.100000,252.800000,533.700000,249.900000,538.700000C246.100000,544.900000,237,545.700000,230.100000,549C225.300000,551.200000,221.400000,554.900000,219,559.300000C216.800000,563.300000,215.800000,567.900000,213.600000,571.800000C211.300000,575.800000,206.900000,579.300000,202,578.600000C187.600000,576.600000,189.900000,552.600000,193.900000,543.800000C199.900000,530.300000,213.100000,519.300000,229.300000,518.600000Z" fill="rgb(255,255,255)" stroke="none" stroke-width="1"/><path id="ek57ppnncy641" d="M195,667.500000C196.800000,664,200.500000,660.300000,204.700000,661.100000C207.700000,661.600000,209.800000,664.400000,210.400000,667.200000C211,670,210.500000,672.800000,210.300000,675.700000C209.900000,681.900000,210.600000,688.200000,212.500000,694.100000C213.900000,698.500000,215.900000,703.600000,213,707.300000C209.800000,711.600000,202.100000,710.600000,198.300000,706.900000C189.700000,698.500000,190,677.200000,195,667.500000Z" fill="rgb(255,255,255)" stroke="none" stroke-width="1"/></g><g id="ek57ppnncy642" opacity="0"><path id="ek57ppnncy643" d="M300.800000,770.400000C294.100000,767.700000,288,763.700000,283.500000,758.400000C271.800000,744.500000,273.600000,724.800000,277.200000,707.500000C265.100000,710.500000,251.800000,703.300000,246.200000,692.900000C240.600000,682.400000,238.500000,661.600000,243.100000,650.800000C247.600000,639.900000,258.400000,633.400000,266.100000,629.400000C245.300000,624.100000,231.300000,603.300000,233.500000,583.500000C235.600000,563.700000,252.600000,546.500000,273.200000,540.800000C268.900000,531.700000,270.300000,520.500000,276.800000,512.700000C283.300000,504.800000,294.600000,500.600000,305.200000,502C322.600000,504.400000,334.400000,520.600000,337.700000,536.600000C341,533.500000,346.500000,533.300000,350.700000,535.200000C354.900000,537,358.100000,540.500000,360.600000,544.200000C371,559,373.600000,578.200000,367.600000,594.900000C366.300000,598.500000,364.600000,602.100000,364.200000,605.900000C363.800000,609.700000,364.900000,613.900000,368.300000,616.100000C372.800000,619,378,616,388,615.600000C392.900000,615.400000,399.400000,615.800000,407.100000,618.200000C410.100000,619,413,619.800000,416,620.600000C411.200000,620.900000,403.100000,621.900000,394.200000,626C390.800000,627.600000,381.700000,631.500000,374.900000,640.600000C369,648.600000,363.400000,657.300000,363,666.900000C362.700000,676.600000,367.800000,685.500000,370.300000,694.900000C374,708.100000,372.500000,722.600000,366.200000,734.900000C362.700000,741.800000,355.800000,748.700000,347.800000,747.200000C342.600000,757.300000,336.400000,768.400000,325.100000,772.300000C317.400000,774.900000,308.500000,773.500000,300.800000,770.400000Z" fill="rgb(217,217,216)" stroke="none" stroke-width="1"/><path id="ek57ppnncy644" d="M325.300000,772.200000C317.400000,774.900000,308.500000,773.500000,300.800000,770.500000C294.100000,767.800000,288,763.800000,283.500000,758.500000C275.300000,748.700000,273.800000,736,274.800000,723.400000C277.600000,722.900000,280.600000,722.500000,283.500000,721.900000C289.300000,720.700000,295.500000,717,295.600000,711.500000C298.800000,717.500000,303.300000,723.400000,310,725.900000C316.700000,728.400000,325.900000,726,328.200000,719.700000C329,721.200000,329.800000,722.700000,330.600000,724.200000C338.300000,724,344.800000,718.200000,347.300000,711.400000C349.700000,704.600000,348.800000,697.300000,346.900000,690.300000C344.800000,682.500000,341.400000,675,337,668C334.100000,663.400000,330.600000,658.600000,331,653.400000C331.400000,648.500000,335,644.400000,338.700000,640.900000C342.400000,637.400000,346.500000,633.800000,348,629.100000C349.500000,624.400000,347.300000,618.200000,342.100000,617.200000C337.400000,616.300000,335,611,335.600000,606.600000C336.200000,602.200000,338.800000,598.200000,340.900000,594.200000C345.800000,584.400000,347.100000,572.500000,341.800000,562.800000C336.500000,553.100000,323.700000,546.800000,312.600000,550.300000C320.100000,541.300000,322.800000,529.100000,319.800000,518.200000C318.400000,513,315.600000,508,311.900000,503.800000C325.500000,509,334.600000,522.900000,337.400000,536.600000C340.700000,533.500000,346.200000,533.300000,350.400000,535.200000C354.600000,537,357.800000,540.500000,360.300000,544.200000C367.300000,554.300000,374.400000,579.400000,367.300000,594.900000C366.600000,596.400000,364.400000,600.800000,365.900000,605.500000C367,609.200000,369.900000,611.500000,371.200000,612.500000C376.600000,616.300000,383.300000,615.700000,387.700000,615.600000C394.500000,615.500000,404.200000,616.200000,416.500000,620.600000C413,621.200000,407.800000,622.300000,401.700000,623.900000C399.700000,624.400000,396.200000,625.300000,394,626.100000C384,629.500000,377.600000,636.900000,374.700000,640.700000C368.800000,648.700000,363.200000,657.400000,362.800000,667C362.500000,676.700000,367.600000,685.600000,370.100000,695C373.800000,708.200000,372.300000,722.700000,366,735C362.500000,741.900000,355.600000,748.800000,347.600000,747.300000C342.800000,757.300000,336.600000,768.300000,325.300000,772.200000Z" fill="rgb(188,188,187)" stroke="none" stroke-width="1"/><path id="ek57ppnncy645" d="M273.600000,554.800000C277.700000,554.700000,282.100000,555.500000,285.200000,558C288.300000,560.500000,289.600000,565,287.600000,568.400000C285,572.600000,278.800000,573.200000,274.200000,575.400000C271,576.900000,268.300000,579.400000,266.600000,582.400000C265.100000,585.100000,264.500000,588.200000,262.900000,590.900000C261.300000,593.600000,258.300000,596,255,595.500000C245.200000,594.200000,246.800000,577.800000,249.500000,571.900000C253.600000,562.700000,262.500000,555.200000,273.600000,554.800000Z" fill="rgb(255,255,255)" stroke="none" stroke-width="1"/><path id="ek57ppnncy646" d="M250.300000,655.900000C251.500000,653.500000,254,651,256.900000,651.600000C258.900000,651.900000,260.300000,653.800000,260.800000,655.700000C261.300000,657.600000,260.900000,659.500000,260.800000,661.500000C260.500000,665.700000,261,670,262.300000,674C263.200000,677,264.600000,680.400000,262.600000,683C260.400000,685.900000,255.200000,685.200000,252.600000,682.700000C246.700000,676.900000,246.800000,662.400000,250.300000,655.900000Z" fill="rgb(255,255,255)" stroke="none" stroke-width="1"/></g><g id="ek57ppnncy647" opacity="0"><path id="ek57ppnncy648" d="M345.400000,696.900000C341.900000,695.500000,338.600000,693.400000,336.300000,690.600000C330.200000,683.300000,331.100000,672.900000,333,663.800000C326.600000,665.400000,319.600000,661.600000,316.700000,656.100000C313.800000,650.600000,312.600000,639.600000,315,633.900000C317.400000,628.200000,323.100000,624.700000,327.100000,622.600000C316.200000,619.800000,308.800000,608.800000,309.900000,598.400000C311,588,319.900000,578.900000,330.800000,575.900000C328.500000,571.100000,329.300000,565.200000,332.700000,561.100000C336.100000,557,342.100000,554.700000,347.700000,555.500000C356.900000,556.800000,363.100000,565.300000,364.800000,573.700000C366.500000,572.100000,369.400000,572,371.700000,572.900000C373.900000,573.900000,375.600000,575.700000,376.900000,577.600000C382.400000,585.400000,383.700000,595.500000,380.600000,604.300000C379.900000,606.200000,379,608.100000,378.800000,610.100000C378.600000,612.100000,379.200000,614.300000,381,615.500000C383.400000,617,386.100000,615.400000,391.400000,615.200000C394,615.100000,397.400000,615.300000,401.500000,616.600000C403.100000,617,404.600000,617.400000,406.200000,617.900000C403.700000,618.100000,399.400000,618.600000,394.700000,620.800000C392.900000,621.600000,388.100000,623.700000,384.500000,628.500000C381.400000,632.700000,378.400000,637.300000,378.300000,642.400000C378.100000,647.500000,380.800000,652.200000,382.200000,657.100000C384.100000,664.100000,383.400000,671.700000,380,678.200000C378.200000,681.800000,374.500000,685.500000,370.300000,684.700000C367.600000,690,364.300000,695.900000,358.400000,697.900000C354.200000,699.300000,349.500000,698.500000,345.400000,696.900000Z" fill="rgb(217,217,216)" stroke="none" stroke-width="1"/><path id="ek57ppnncy649" d="M358.300000,697.800000C354.200000,699.200000,349.500000,698.500000,345.400000,696.900000C341.900000,695.500000,338.600000,693.400000,336.300000,690.600000C332,685.400000,331.200000,678.800000,331.700000,672.100000C333.200000,671.800000,334.800000,671.600000,336.300000,671.300000C339.300000,670.600000,342.600000,668.700000,342.700000,665.800000C344.400000,669,346.800000,672.100000,350.300000,673.400000C353.800000,674.700000,358.700000,673.500000,359.900000,670.100000C360.300000,670.900000,360.800000,671.700000,361.200000,672.500000C365.300000,672.400000,368.700000,669.300000,370,665.800000C371.300000,662.200000,370.800000,658.300000,369.800000,654.700000C368.700000,650.600000,366.900000,646.600000,364.600000,642.900000C363.100000,640.500000,361.200000,638,361.500000,635.200000C361.700000,632.600000,363.600000,630.500000,365.600000,628.600000C367.500000,626.700000,369.700000,624.900000,370.500000,622.400000C371.300000,619.900000,370.100000,616.700000,367.400000,616.100000C364.900000,615.600000,363.600000,612.800000,364,610.500000C364.300000,608.200000,365.700000,606.100000,366.800000,604C369.400000,598.800000,370.100000,592.600000,367.300000,587.500000C364.500000,582.400000,357.700000,579.100000,351.900000,580.900000C355.800000,576.200000,357.300000,569.700000,355.700000,564C354.900000,561.200000,353.500000,558.600000,351.600000,556.400000C358.800000,559.100000,363.600000,566.400000,365.100000,573.700000C366.800000,572.100000,369.700000,572,372,572.900000C374.200000,573.900000,375.900000,575.700000,377.200000,577.600000C380.900000,582.900000,384.700000,596.100000,380.900000,604.300000C380.500000,605.100000,379.400000,607.400000,380.100000,609.900000C380.700000,611.800000,382.200000,613.100000,382.900000,613.600000C385.800000,615.600000,389.300000,615.300000,391.600000,615.200000C395.200000,615.100000,400.300000,615.500000,406.800000,617.800000C404.900000,618.100000,402.200000,618.700000,399,619.500000C397.900000,619.800000,396.100000,620.300000,394.900000,620.700000C389.700000,622.500000,386.200000,626.400000,384.700000,628.400000C381.600000,632.600000,378.600000,637.200000,378.500000,642.300000C378.300000,647.400000,381,652.100000,382.400000,657C384.300000,664,383.600000,671.600000,380.200000,678.100000C378.400000,681.700000,374.700000,685.400000,370.500000,684.600000C367.600000,690,364.300000,695.800000,358.300000,697.800000Z" fill="rgb(188,188,187)" stroke="none" stroke-width="1"/><path id="ek57ppnncy650" d="M331.100000,583.300000C333.300000,583.200000,335.600000,583.700000,337.200000,585C338.800000,586.300000,339.500000,588.700000,338.500000,590.500000C337.100000,592.700000,333.900000,593,331.400000,594.200000C329.700000,595,328.300000,596.300000,327.400000,597.900000C326.600000,599.300000,326.300000,601,325.500000,602.400000C324.700000,603.800000,323.100000,605.100000,321.400000,604.800000C316.300000,604.100000,317.100000,595.500000,318.500000,592.400000C320.500000,587.400000,325.300000,583.500000,331.100000,583.300000Z" fill="rgb(255,255,255)" stroke="none" stroke-width="1"/><path id="ek57ppnncy651" d="M318.800000,636.500000C319.500000,635.200000,320.800000,633.900000,322.300000,634.200000C323.400000,634.400000,324.100000,635.400000,324.300000,636.400000C324.500000,637.400000,324.400000,638.400000,324.300000,639.400000C324.100000,641.600000,324.400000,643.900000,325.100000,646C325.600000,647.600000,326.300000,649.400000,325.300000,650.700000C324.100000,652.200000,321.400000,651.900000,320,650.500000C316.900000,647.600000,317,640,318.800000,636.500000Z" fill="rgb(255,255,255)" stroke="none" stroke-width="1"/></g><g id="ek57ppnncy652"><rect id="ek57ppnncy653" width="110.300000" height="146.800000" rx="0" ry="0" transform="matrix(1 0 0 1 652.39999999999998 416.10000000000002)" fill="rgb(198,196,190)" stroke="none" stroke-width="1"/><rect id="ek57ppnncy654" width="34.600000" height="156.800000" rx="0" ry="0" transform="matrix(1 0 0 1 727.70000000000005 416.50000000000000)" fill="rgb(183,183,183)" stroke="none" stroke-width="1"/><rect id="ek57ppnncy655" width="33.700000" height="156.800000" rx="0" ry="0" transform="matrix(1 0 0 1 652.60000000000002 416.50000000000000)" fill="rgb(183,183,183)" stroke="none" stroke-width="1"/><rect id="ek57ppnncy656" width="110.300000" height="114.100000" rx="0" ry="0" transform="matrix(1 0 0 1 652.39999999999998 219.69999999999999)" fill="rgb(198,196,190)" stroke="none" stroke-width="1"/><rect id="ek57ppnncy657" width="15.800000" height="113.200000" rx="0" ry="0" transform="matrix(1 0 0 1 652.60000000000002 220.59999999999999)" fill="rgb(176,174,174)" stroke="none" stroke-width="1"/><rect id="ek57ppnncy658" width="15.800000" height="113.200000" rx="0" ry="0" transform="matrix(1 0 0 1 746.60000000000002 220.59999999999999)" fill="rgb(176,174,174)" stroke="none" stroke-width="1"/><rect id="ek57ppnncy659" width="64.100000" height="30.500000" rx="0" ry="0" transform="matrix(1 0 0 1 675.50000000000000 385.69999999999999)" fill="rgb(198,196,190)" stroke="none" stroke-width="1"/><rect id="ek57ppnncy660" width="116.700000" height="8.300000" rx="0" ry="0" transform="matrix(1 0 0 1 649.20000000000005 377.30000000000001)" fill="rgb(171,171,171)" stroke="none" stroke-width="1"/><rect id="ek57ppnncy661" width="116.700000" height="8.300000" rx="0" ry="0" transform="matrix(1 0 0 1 649.20000000000005 341.39999999999998)" fill="rgb(171,171,171)" stroke="none" stroke-width="1"/><rect id="ek57ppnncy662" width="104.100000" height="8.300000" rx="0" ry="0" transform="matrix(1 0 0 1 656.10000000000002 333.30000000000001)" fill="rgb(198,196,190)" stroke="none" stroke-width="1"/><rect id="ek57ppnncy663" width="112.800000" height="27.600000" rx="0" ry="0" transform="matrix(1 0 0 1 651.10000000000002 349.80000000000001)" fill="rgb(198,196,190)" stroke="none" stroke-width="1"/><g id="ek57ppnncy664"><rect id="ek57ppnncy665" width="83.700000" height="78.900000" rx="0" ry="0" transform="matrix(1 0 0 1 558.79999999999995 581.50000000000000)" fill="rgb(198,196,190)" stroke="none" stroke-width="1"/><path id="ek57ppnncy666" d="M547.300000,697.900000L453.500000,697.900000C446.900000,697.900000,441.500000,692.500000,441.500000,685.900000L441.500000,552.200000C441.500000,545.600000,446.900000,540.200000,453.500000,540.200000L547.300000,540.200000L547.300000,697.900000Z" fill="rgb(113,119,127)" stroke="none" stroke-width="1"/><rect id="ek57ppnncy667" width="104.800000" height="13.500000" rx="0" ry="0" transform="matrix(1 0 0 1 441.50000000000000 613)" fill="rgb(129,137,140)" stroke="none" stroke-width="1"/><path id="ek57ppnncy668" d="M402.800000,668.100000L441.100000,668.100000L441.100000,566.200000L402.800000,566.200000C393.700000,566.200000,386.300000,573.600000,386.300000,582.700000L386.300000,651.600000C386.300000,660.700000,393.700000,668.100000,402.800000,668.100000Z" fill="rgb(131,137,137)" stroke="none" stroke-width="1"/><rect id="ek57ppnncy669" width="12.200000" height="157.100000" rx="0" ry="0" transform="matrix(1 0 0 1 546.60000000000002 539.89999999999998)" fill="rgb(198,196,190)" stroke="none" stroke-width="1"/><rect id="ek57ppnncy670" width="83.700000" height="3.800000" rx="0" ry="0" transform="matrix(1 0 0 1 558.50000000000000 581.50000000000000)" fill="rgb(183,183,183)" stroke="none" stroke-width="1"/><rect id="ek57ppnncy671" width="83.700000" height="3.800000" rx="0" ry="0" transform="matrix(1 0 0 1 558.50000000000000 656.50000000000000)" fill="rgb(183,183,183)" stroke="none" stroke-width="1"/><rect id="ek57ppnncy672" width="3.800000" height="156.800000" rx="0" ry="0" transform="matrix(1 0 0 1 554.79999999999995 540)" fill="rgb(183,183,183)" stroke="none" stroke-width="1"/></g><g id="ek57ppnncy673"><rect id="ek57ppnncy674" width="88.800000" height="78.900000" rx="0" ry="0" transform="matrix(1 0 0 1 769.79999999999995 581.60000000000002)" fill="rgb(198,196,190)" stroke="none" stroke-width="1"/><path id="ek57ppnncy675" d="M870.100000,697.900000L963.900000,697.900000C970.500000,697.900000,975.900000,692.500000,975.900000,685.900000L975.900000,552.200000C975.900000,545.600000,970.500000,540.200000,963.900000,540.200000L870.100000,540.200000L870.100000,697.900000Z" fill="rgb(113,119,127)" stroke="none" stroke-width="1"/><rect id="ek57ppnncy676" width="104.800000" height="13.500000" rx="0" ry="0" transform="matrix(1 0 0 1 871.10000000000002 612.89999999999998)" fill="rgb(129,137,140)" stroke="none" stroke-width="1"/><path id="ek57ppnncy677" d="M1014.500000,668.100000L976.200000,668.100000L976.200000,566.200000L1014.500000,566.200000C1023.600000,566.200000,1031,573.600000,1031,582.700000L1031,651.600000C1031,660.700000,1023.600000,668.100000,1014.500000,668.100000Z" fill="rgb(131,137,137)" stroke="none" stroke-width="1"/><rect id="ek57ppnncy678" width="12.200000" height="157.100000" rx="0" ry="0" transform="matrix(1 0 0 1 858.50000000000000 539.79999999999995)" fill="rgb(198,196,190)" stroke="none" stroke-width="1"/><rect id="ek57ppnncy679" width="83.700000" height="3.800000" rx="0" ry="0" transform="matrix(1 0 0 1 775.10000000000002 581.50000000000000)" fill="rgb(183,183,183)" stroke="none" stroke-width="1"/><rect id="ek57ppnncy680" width="83.700000" height="3.800000" rx="0" ry="0" transform="matrix(1 0 0 1 775.10000000000002 656.50000000000000)" fill="rgb(183,183,183)" stroke="none" stroke-width="1"/><rect id="ek57ppnncy681" width="3.800000" height="156.800000" rx="0" ry="0" transform="matrix(1 0 0 1 858.70000000000005 540)" fill="rgb(183,183,183)" stroke="none" stroke-width="1"/><rect id="ek57ppnncy682" width="54.300000" height="16.500000" rx="0" ry="0" transform="matrix(1 0 0 1 975.79999999999995 610.39999999999998)" fill="rgb(141,145,145)" stroke="none" stroke-width="1"/><rect id="ek57ppnncy683" width="54.300000" height="16.500000" rx="0" ry="0" transform="matrix(1 0 0 1 388.10000000000002 610.39999999999998)" fill="rgb(141,145,145)" stroke="none" stroke-width="1"/></g><circle id="ek57ppnncy684" r="76.900000" transform="matrix(1 0 0 1 708.79999999999995 618.10000000000002)" fill="rgb(113,119,127)" stroke="none" stroke-width="1"/><rect id="ek57ppnncy685" width="44.900000" height="14.500000" rx="0" ry="0" transform="matrix(1 0 0 1 686.79999999999995 556.10000000000002)" fill="rgb(183,182,178)" stroke="none" stroke-width="1"/><rect id="ek57ppnncy686" width="83.600000" height="95.500000" rx="0" ry="0" transform="matrix(1 0 0 1 664.20000000000005 68.20000000000000)" fill="rgb(198,196,190)" stroke="none" stroke-width="1"/><rect id="ek57ppnncy687" width="11.500000" height="95.600000" rx="0" ry="0" transform="matrix(1 0 0 1 664 68)" fill="rgb(176,174,174)" stroke="none" stroke-width="1"/><rect id="ek57ppnncy688" width="11.500000" height="95.600000" rx="0" ry="0" transform="matrix(1 0 0 1 736 68)" fill="rgb(176,174,174)" stroke="none" stroke-width="1"/><rect id="ek57ppnncy689" width="57" height="65.200000" rx="0" ry="0" transform="matrix(1 0 0 1 677.39999999999998 3.10000000000000)" fill="rgb(198,196,190)" stroke="none" stroke-width="1"/><rect id="ek57ppnncy690" width="44.900000" height="14.500000" rx="0" ry="0" transform="matrix(1 0 0 1 686.79999999999995 666.39999999999998)" fill="rgb(183,182,178)" stroke="none" stroke-width="1"/><circle id="ek57ppnncy691" r="55.800000" transform="matrix(1 0 0 1 708.79999999999995 618.10000000000002)" fill="rgb(131,137,137)" stroke="none" stroke-width="1"/><circle id="ek57ppnncy692" r="4.800000" transform="matrix(1 0 0 1 708.79999999999995 618.10000000000002)" fill="rgb(51,55,54)" stroke="none" stroke-width="1"/><rect id="ek57ppnncy693" width="19.400000" height="13.500000" rx="0" ry="0" transform="matrix(1 0 0 1 784.39999999999998 613)" fill="rgb(129,137,140)" stroke="none" stroke-width="1"/><rect id="ek57ppnncy694" width="19.400000" height="13.500000" rx="0" ry="0" transform="matrix(1 0 0 1 613.50000000000000 613)" fill="rgb(129,137,140)" stroke="none" stroke-width="1"/><rect id="ek57ppnncy695" width="112.900000" height="1.300000" rx="0" ry="0" transform="matrix(1 0 0 1 651.10000000000002 375.89999999999998)" fill="rgb(160,159,159)" stroke="none" stroke-width="1"/><rect id="ek57ppnncy696" width="112.900000" height="1.300000" rx="0" ry="0" transform="matrix(1 0 0 1 651.10000000000002 349.89999999999998)" fill="rgb(160,159,159)" stroke="none" stroke-width="1"/><rect id="ek57ppnncy697" width="31.700000" height="24.800000" rx="0" ry="0" transform="matrix(1 0 0 1 692.50000000000000 351.10000000000002)" fill="rgb(198,196,190)" stroke="none" stroke-width="1"/><rect id="ek57ppnncy698" width="1.300000" height="24.800000" rx="0" ry="0" transform="matrix(1 0 0 1 692.39999999999998 351.10000000000002)" fill="rgb(125,125,125)" stroke="none" stroke-width="1"/><rect id="ek57ppnncy699" width="1.300000" height="24.800000" rx="0" ry="0" transform="matrix(1 0 0 1 722.79999999999995 351.10000000000002)" fill="rgb(125,125,125)" stroke="none" stroke-width="1"/><rect id="ek57ppnncy6100" width="29.100000" height="1.300000" rx="0" ry="0" transform="matrix(1 0 0 1 693.70000000000005 351.10000000000002)" fill="rgb(125,125,125)" stroke="none" stroke-width="1"/><rect id="ek57ppnncy6101" width="29.100000" height="1.300000" rx="0" ry="0" transform="matrix(1 0 0 1 693.79999999999995 374.69999999999999)" fill="rgb(125,125,125)" stroke="none" stroke-width="1"/><g id="ek57ppnncy6102"><path id="ek57ppnncy6103" d="M699.200000,268L642.800000,268C606.900000,268,577.700000,238.900000,577.700000,202.900000L577.700000,202.900000C577.700000,167,606.800000,137.800000,642.800000,137.800000L699.200000,137.800000C735.100000,137.800000,764.300000,166.900000,764.300000,202.900000L764.300000,202.900000C764.300000,238.900000,735.100000,268,699.200000,268Z" fill="rgb(198,196,190)" stroke="rgb(140,140,140)" stroke-width="1.255600" stroke-miterlimit="10"/><rect id="ek57ppnncy6104" width="2.900000" height="126" rx="0" ry="0" transform="matrix(1 0 0 1 630.29999999999995 139.80000000000001)" fill="rgb(156,154,142)" stroke="none" stroke-width="1"/><rect id="ek57ppnncy6105" width="2.900000" height="110" rx="0" ry="0" transform="matrix(1 0 0 1 607.60000000000002 148)" fill="rgb(156,154,142)" stroke="none" stroke-width="1"/><rect id="ek57ppnncy6106" width="2.900000" height="126" rx="0" ry="0" transform="matrix(1 0 0 1 700.79999999999995 139.80000000000001)" fill="rgb(156,154,142)" stroke="none" stroke-width="1"/><rect id="ek57ppnncy6107" width="4.200000" height="6.400000" rx="0" ry="0" transform="matrix(1 0 0 1 575.50000000000000 195.90000000000001)" fill="rgb(127,81,92)" stroke="none" stroke-width="1"/></g><rect id="ek57ppnncy6108" width="110.100000" height="4.100000" rx="0" ry="0" transform="matrix(1 0 0 1 652.39999999999998 416.19999999999999)" fill="rgb(183,183,183)" stroke="none" stroke-width="1"/><rect id="ek57ppnncy6109" width="110.100000" height="4.100000" rx="0" ry="0" transform="matrix(1 0 0 1 652.39999999999998 328.60000000000002)" fill="rgb(183,183,183)" stroke="none" stroke-width="1"/><rect id="ek57ppnncy6110" width="5.800000" height="64.900000" rx="0" ry="0" transform="matrix(1 0 0 1 677.39999999999998 3.20000000000000)" fill="rgb(176,174,174)" stroke="none" stroke-width="1"/><rect id="ek57ppnncy6111" width="5.800000" height="64.900000" rx="0" ry="0" transform="matrix(1 0 0 1 728.50000000000000 3.20000000000000)" fill="rgb(176,174,174)" stroke="none" stroke-width="1"/><rect id="ek57ppnncy6112" width="83.500000" height="3.400000" rx="0" ry="0" transform="matrix(1 0 0 1 664.10000000000002 68.50000000000000)" fill="rgb(176,174,174)" stroke="none" stroke-width="1"/></g><g id="ek57ppnncy6113" opacity="0"><path id="ek57ppnncy6114" d="M783.900000,288.300000C762.100000,280.100000,736.700000,280.100000,716.500000,291C696.300000,301.900000,682.300000,324.900000,684.900000,347.800000C629.800000,324,559.900000,342.500000,524.800000,390.200000C489.600000,437.800000,492.800000,509.800000,532,555.300000C492.600000,559.400000,461.200000,592.300000,449.100000,629.600000C436.900000,666.800000,440.900000,707.700000,449.300000,746.300000C458.800000,790.100000,477.500000,837.200000,518.100000,857C523,859.400000,528.400000,861.600000,531.400000,866.100000C534.200000,870.400000,534,875.700000,534.100000,880.800000C536,935.500000,585.900000,979.300000,638.800000,995C687.700000,1009.600000,742.500000,1005.700000,786.300000,980.400000C829.900000,955.100000,860.700000,907.500000,861.500000,857C872.200000,871.400000,894.300000,873.800000,910.500000,866.300000C926.700000,858.800000,938.100000,843.900000,947,828.500000C984.700000,764.100000,989.700000,679.200000,951,614.400000C993.600000,583.700000,1000.800000,519.100000,976.700000,471.900000C950.100000,419.800000,904.100000,412.200000,863.600000,378C830.600000,350.200000,830.600000,305.900000,783.900000,288.300000Z" fill="rgb(217,217,216)" stroke="none" stroke-width="1"/><path id="ek57ppnncy6115" d="M733,392.300000C771,391.500000,806.400000,426.600000,805.600000,464.300000C820.500000,452,843.100000,452.200000,860.700000,460.700000C878.300000,469.200000,891.300000,485,901.100000,501.900000C919,532.700000,927.300000,570.800000,915.100000,603.900000C902.900000,637,866.800000,661.800000,831.900000,654.100000C850.200000,630.700000,858,597.800000,846.300000,570.200000C834.700000,542.600000,800.900000,524.100000,772.800000,534.300000C785.600000,529.700000,773.900000,482,769.900000,473.900000C757.900000,449.600000,739.500000,442.800000,714.400000,439.100000C701.900000,437.200000,678.200000,444.600000,674.900000,428.800000C670.800000,409.200000,720.200000,392.600000,733,392.300000Z" fill="rgb(255,255,255)" stroke="none" stroke-width="1"/><path id="ek57ppnncy6116" d="M739.900000,611C771,632.700000,780.100000,674.600000,758.600000,697.100000C777.300000,698.400000,795.600000,711.600000,805,727C814.400000,742.400000,816.300000,759.700000,814.900000,775.600000C812.300000,804.700000,797.800000,832.700000,769.800000,845.700000C741.700000,858.800000,698.800000,852.700000,674.900000,827.700000C702.600000,824.100000,727.200000,808.700000,732.900000,785.200000C738.800000,761.600000,721.700000,730.700000,693.500000,720.500000C706.300000,725.100000,723.300000,689.400000,724.500000,682.200000C728.200000,660.500000,717.100000,645.600000,699,628.700000C689.900000,620.200000,666.800000,610.900000,672.800000,599.400000C680.300000,585,729.300000,603.600000,739.900000,611Z" fill="rgb(255,255,255)" stroke="none" stroke-width="1"/></g><g id="ek57ppnncy6117" opacity="0"><path id="ek57ppnncy6118" d="M601.600000,375.200000C584.300000,379.700000,568.500000,391.100000,560.700000,407.100000C552.900000,423.100000,554.300000,443.900000,566,457.300000C521.100000,466.800000,485.500000,509.800000,484.600000,555.800000C483.600000,601.800000,517.400000,646.200000,561.900000,657.500000C539.100000,677.700000,534,712.700000,542.900000,741.800000C551.700000,770.900000,572.300000,795.100000,594.500000,815.900000C619.800000,839.500000,652.300000,861.100000,686.300000,855.500000C690.400000,854.900000,694.700000,853.800000,698.600000,855.400000C702.200000,856.900000,704.400000,860.300000,706.800000,863.500000C732.200000,897.400000,782.700000,902.900000,822.700000,889.200000C859.700000,876.600000,892.300000,849.600000,908.500000,813.900000C924.600000,778.300000,922.900000,734.300000,901.100000,701.800000C914.200000,706.200000,929,697.800000,935.800000,685.800000C942.600000,673.800000,943.200000,659.300000,942,645.500000C937.100000,587.700000,902.800000,531.500000,850,507.600000C863,469,839,424.700000,803,405.500000C763.300000,384.300000,731.300000,400,690.800000,396.400000C658.100000,393.700000,638.500000,365.500000,601.600000,375.200000Z" fill="rgb(217,217,216)" stroke="none" stroke-width="1"/><path id="ek57ppnncy6119" d="M615.600000,464C639,446.500000,676.600000,453,692.800000,477.300000C696.700000,462.800000,710.900000,452.800000,725.600000,450.400000C740.300000,448,755.500000,452.200000,769.100000,458.500000C793.900000,470.100000,815.900000,490.600000,822.900000,517.100000C829.900000,543.600000,818.300000,575.500000,793,586.200000C794.100000,563.200000,784.400000,538.800000,765,526.400000C745.500000,514,716.200000,517.400000,703.200000,536.400000C709.200000,527.700000,680.800000,502.700000,674.700000,499.300000C656.500000,489.200000,642,493.100000,624.700000,502C616.100000,506.400000,604.500000,521.700000,595.500000,513.100000C584.200000,502.600000,607.700000,469.900000,615.600000,464Z" fill="rgb(255,255,255)" stroke="none" stroke-width="1"/><path id="ek57ppnncy6120" d="M716.400000,599.900000C745.400000,599.800000,769.600000,622.400000,766.100000,646.300000C778.400000,638.800000,795.600000,639,808.300000,644.600000C821,650.200000,829.800000,660.300000,835.900000,671.100000C847.100000,690.800000,850.400000,715,838.700000,735.800000C826.900000,756.700000,797.400000,772,771.500000,766.800000C787.200000,752.200000,795.800000,731.400000,789,713.800000C782.300000,696.200000,757.900000,684.100000,735.800000,690.300000C745.900000,687.500000,740.700000,657.200000,738.300000,652.100000C731,636.700000,717.500000,632.100000,698.700000,629.500000C689.300000,628.200000,670.700000,632.600000,669.400000,622.600000C667.700000,610.100000,706.600000,599.900000,716.400000,599.900000Z" fill="rgb(255,255,255)" stroke="none" stroke-width="1"/></g><g id="ek57ppnncy6121" opacity="0"><path id="ek57ppnncy6122" d="M770.100000,436.100000C758.900000,430.900000,745.300000,429.900000,734.100000,435.100000C722.800000,440.200000,714.400000,452,714.700000,464.300000C686.400000,449.500000,648.400000,456.800000,627.600000,481.100000C606.800000,505.300000,605.200000,544,624,569.700000C602.900000,570.500000,584.600000,586.900000,576.500000,606.400000C568.400000,625.900000,568.700000,647.900000,571.400000,668.900000C574.500000,692.700000,582.300000,718.600000,603.100000,730.700000C605.600000,732.200000,608.400000,733.500000,609.700000,736.100000C611,738.500000,610.600000,741.300000,610.500000,744.100000C609.100000,773.500000,633.700000,798.700000,661.200000,809.100000C686.600000,818.700000,716,818.700000,740.400000,806.700000C764.800000,794.800000,783.300000,770.400000,786,743.400000C791,751.500000,802.700000,753.600000,811.700000,750.200000C820.700000,746.800000,827.400000,739.200000,832.800000,731.300000C855.700000,698.200000,862.200000,652.900000,844.500000,616.800000C868.600000,601.900000,875.300000,567.600000,864.500000,541.400000C852.600000,512.500000,828.500000,506.800000,808.500000,486.900000C792.200000,471,794.200000,447.200000,770.100000,436.100000Z" fill="rgb(217,217,216)" stroke="none" stroke-width="1"/><path id="ek57ppnncy6123" d="M738.300000,489.900000C758.600000,490.900000,775.800000,511,773.700000,531.100000C782.200000,525.100000,794.200000,526,803.200000,531.200000C812.200000,536.400000,818.400000,545.400000,822.900000,554.800000C831.100000,572,833.800000,592.700000,825.800000,609.900000C817.800000,627.200000,797.500000,639.100000,779.200000,633.700000C790,621.900000,795.600000,604.500000,790.600000,589.300000C785.600000,574.100000,768.500000,562.900000,753.100000,567.400000C760.100000,565.400000,756,539.400000,754.200000,535C748.900000,521.600000,739.400000,517.200000,726.200000,514.300000C719.600000,512.800000,706.700000,515.900000,705.600000,507.300000C704.500000,496.600000,731.500000,489.500000,738.300000,489.900000Z" fill="rgb(255,255,255)" stroke="none" stroke-width="1"/><path id="ek57ppnncy6124" d="M732.200000,607.200000C747.800000,620,750.800000,642.800000,738.300000,654C748.200000,655.400000,757.300000,663.100000,761.700000,671.700000C766,680.300000,766.300000,689.600000,764.800000,698.100000C762.100000,713.600000,753.200000,728.100000,737.700000,734C722.200000,740,699.600000,735.100000,688,720.900000C702.900000,720,716.700000,712.700000,720.800000,700.300000C725,687.900000,717.300000,670.700000,702.700000,664.200000C709.300000,667.200000,720,648.700000,720.900000,644.800000C723.800000,633.300000,718.600000,624.900000,709.700000,615.200000C705.200000,610.300000,693.400000,604.500000,697,598.600000C701.700000,591.100000,726.900000,602.900000,732.200000,607.200000Z" fill="rgb(255,255,255)" stroke="none" stroke-width="1"/></g><g id="ek57ppnncy6125" opacity="0"><path id="ek57ppnncy6126" d="M668.800000,499.200000C660.500000,500.900000,652.700000,505.900000,648.600000,513.300000C644.500000,520.700000,644.700000,530.600000,649.900000,537.300000C628.400000,540.700000,610.400000,560.300000,608.900000,582.100000C607.300000,603.900000,622.300000,625.800000,643.100000,632.200000C631.800000,641.300000,628.500000,657.700000,632,671.700000C635.500000,685.700000,644.700000,697.700000,654.700000,708.100000C666.100000,719.900000,681,730.900000,697.300000,729.100000C699.300000,728.900000,701.300000,728.500000,703.100000,729.300000C704.800000,730.100000,705.700000,731.800000,706.800000,733.300000C718,750,741.800000,753.800000,761.200000,748.300000C779.100000,743.200000,795.200000,731.200000,803.700000,714.700000C812.200000,698.200000,812.400000,677.300000,802.900000,661.300000C809,663.700000,816.200000,660.100000,819.800000,654.500000C823.300000,649,823.900000,642.100000,823.700000,635.500000C822.800000,608,807.800000,580.500000,783.400000,567.900000C790.500000,549.900000,780.200000,528.300000,763.600000,518.400000C745.300000,507.400000,729.700000,514.100000,710.600000,511.400000C695.200000,509.400000,686.600000,495.500000,668.800000,499.200000Z" fill="rgb(217,217,216)" stroke="none" stroke-width="1"/><path id="ek57ppnncy6127" d="M673.400000,541.700000C684.900000,534,702.600000,537.900000,709.700000,549.900000C711.900000,543.100000,718.900000,538.700000,725.900000,537.900000C732.900000,537.100000,740,539.500000,746.300000,542.800000C757.800000,548.900000,767.700000,559.100000,770.400000,571.900000C773.100000,584.600000,766.800000,599.500000,754.600000,604C755.700000,593.100000,751.700000,581.300000,742.700000,575C733.800000,568.700000,719.800000,569.600000,713.100000,578.300000C716.100000,574.300000,703.300000,561.800000,700.500000,560C692.100000,554.800000,685.100000,556.300000,676.700000,560.100000C672.500000,562,666.600000,569,662.600000,564.700000C657.500000,559.300000,669.500000,544.300000,673.400000,541.700000Z" fill="rgb(255,255,255)" stroke="none" stroke-width="1"/><path id="ek57ppnncy6128" d="M717.900000,608.600000C731.700000,609.200000,742.600000,620.500000,740.400000,631.800000C746.400000,628.500000,754.600000,629,760.500000,632C766.400000,635,770.300000,640,773,645.200000C777.800000,654.800000,778.800000,666.400000,772.800000,676C766.700000,685.600000,752.300000,692.200000,740.200000,689.100000C748,682.500000,752.600000,672.900000,749.800000,664.400000C747,655.900000,735.800000,649.600000,725.100000,652C729.900000,650.900000,728.200000,636.400000,727.200000,633.900000C724.100000,626.400000,717.800000,623.900000,709,622.200000C704.600000,621.400000,695.700000,623,695.300000,618.200000C694.600000,612.300000,713.300000,608.400000,717.900000,608.600000Z" fill="rgb(255,255,255)" stroke="none" stroke-width="1"/></g><g id="ek57ppnncy6129" opacity="0"><path id="ek57ppnncy6130" d="M688.900000,552.100000C684.100000,553.100000,679.600000,556,677.200000,560.300000C674.800000,564.600000,674.900000,570.300000,678,574.200000C665.500000,576.200000,655.200000,587.500000,654.300000,600.100000C653.400000,612.700000,662,625.400000,674.100000,629.100000C667.600000,634.300000,665.700000,643.900000,667.700000,652C669.700000,660.100000,675,667,680.800000,673C687.400000,679.800000,696,686.200000,705.500000,685.100000C706.600000,685,707.800000,684.800000,708.900000,685.200000C709.900000,685.700000,710.400000,686.600000,711,687.500000C717.500000,697.200000,731.300000,699.400000,742.500000,696.200000C752.800000,693.300000,762.200000,686.300000,767.100000,676.700000C772,667.100000,772.200000,655,766.600000,645.800000C770.100000,647.200000,774.300000,645.100000,776.400000,641.900000C778.400000,638.700000,778.800000,634.700000,778.600000,630.900000C778.100000,615,769.400000,599,755.300000,591.800000C759.400000,581.400000,753.400000,568.900000,743.800000,563.100000C733.200000,556.700000,724.200000,560.600000,713.100000,559C704.100000,557.900000,699.100000,549.900000,688.900000,552.100000Z" fill="rgb(217,217,216)" stroke="none" stroke-width="1"/><path id="ek57ppnncy6131" d="M691.500000,576.700000C698.200000,572.200000,708.400000,574.500000,712.500000,581.400000C713.800000,577.500000,717.800000,574.900000,721.900000,574.500000C726,574,730.100000,575.400000,733.700000,577.300000C740.400000,580.800000,746.100000,586.800000,747.700000,594.100000C749.300000,601.500000,745.600000,610.100000,738.500000,612.700000C739.100000,606.400000,736.800000,599.600000,731.600000,595.900000C726.400000,592.200000,718.300000,592.700000,714.500000,597.800000C716.300000,595.500000,708.800000,588.200000,707.200000,587.200000C702.300000,584.200000,698.300000,585,693.400000,587.200000C691,588.300000,687.600000,592.300000,685.200000,589.800000C682.300000,586.800000,689.200000,578.200000,691.500000,576.700000Z" fill="rgb(255,255,255)" stroke="none" stroke-width="1"/><path id="ek57ppnncy6132" d="M717.300000,615.400000C725.300000,615.800000,731.600000,622.300000,730.300000,628.800000C733.800000,626.900000,738.500000,627.200000,741.900000,628.900000C745.300000,630.600000,747.600000,633.500000,749.100000,636.500000C751.900000,642.100000,752.500000,648.800000,749,654.300000C745.500000,659.900000,737.200000,663.700000,730.100000,661.900000C734.600000,658.100000,737.300000,652.500000,735.600000,647.600000C734,642.700000,727.500000,639,721.300000,640.400000C724.100000,639.800000,723.100000,631.400000,722.500000,629.900000C720.700000,625.600000,717.100000,624.100000,712,623.200000C709.400000,622.700000,704.300000,623.700000,704,620.900000C703.800000,617.500000,714.600000,615.200000,717.300000,615.400000Z" fill="rgb(255,255,255)" stroke="none" stroke-width="1"/></g></svg>