<?xml version="1.0" encoding="utf-8"?>
<!-- Generator: Adobe Illustrator 24.1.3, SVG Export Plug-In . SVG Version: 6.00 Build 0)  -->
<svg version="1.1" id="Layer_1" xmlns="http://www.w3.org/2000/svg" xmlns:xlink="http://www.w3.org/1999/xlink" x="0px" y="0px"
	 viewBox="0 0 1417.3 1417.3" style="enable-background:new 0 0 1417.3 1417.3;" xml:space="preserve">
<style type="text/css">
	.st0{fill:#C7C4BE;}
	.st1{fill:#B7B7B8;}
	.st2{fill:#B1AFAF;}
	.st3{fill:#ACACAC;}
	.st4{fill:#727880;}
	.st5{fill:#818A8D;}
	.st6{fill:#838989;}
	.st7{fill:#8D9191;}
	.st8{fill:#B8B7B3;}
	.st9{fill:#343736;}
	.st10{fill:#A09E9F;}
	.st11{fill:#7E7E7E;}
	.st12{fill:#C7C4BE;stroke:#8C8C8C;stroke-width:1.2556;stroke-miterlimit:10;}
	.st13{fill:#9C9A8E;}
	.st14{fill:#7F525D;}
</style>
<g id="foggy">
	<rect x="652.4" y="416.1" class="st0" width="110.3" height="146.8"/>
	<rect x="727.7" y="416.5" class="st1" width="34.6" height="156.8"/>
	<rect x="652.6" y="416.5" class="st1" width="33.7" height="156.8"/>
	<rect x="652.4" y="219.7" class="st0" width="110.3" height="114.1"/>
	<rect x="652.6" y="220.6" class="st2" width="15.8" height="113.2"/>
	<rect x="746.6" y="220.6" class="st2" width="15.8" height="113.2"/>
	<rect x="675.5" y="385.7" class="st0" width="64.1" height="30.5"/>
	<rect x="649.2" y="377.3" class="st3" width="116.7" height="8.3"/>
	<rect x="649.2" y="341.4" class="st3" width="116.7" height="8.3"/>
	<rect x="656.1" y="333.3" class="st0" width="104.1" height="8.3"/>
	<rect x="651.1" y="349.8" class="st0" width="112.8" height="27.6"/>
	<g>
		<rect x="558.8" y="581.5" class="st0" width="83.7" height="78.9"/>
		<path class="st4" d="M547.3,697.9h-93.8c-6.6,0-12-5.4-12-12V552.2c0-6.6,5.4-12,12-12h93.8V697.9z"/>
		<rect x="441.5" y="613" class="st5" width="104.8" height="13.5"/>
		<path class="st6" d="M402.8,668.1h38.3V566.2h-38.3c-9.1,0-16.5,7.4-16.5,16.5v68.9C386.3,660.7,393.7,668.1,402.8,668.1z"/>
		<rect x="546.6" y="539.9" class="st0" width="12.2" height="157.1"/>
		<rect x="558.5" y="581.5" class="st1" width="83.7" height="3.8"/>
		<rect x="558.5" y="656.5" class="st1" width="83.7" height="3.8"/>
		<rect x="554.8" y="540" class="st1" width="3.8" height="156.8"/>
	</g>
	<g>
		<rect x="769.8" y="581.6" class="st0" width="88.8" height="78.9"/>
		<path class="st4" d="M870.1,697.9h93.8c6.6,0,12-5.4,12-12V552.2c0-6.6-5.4-12-12-12h-93.8V697.9z"/>
		<rect x="871.1" y="612.9" class="st5" width="104.8" height="13.5"/>
		<path class="st6" d="M1014.5,668.1h-38.3V566.2h38.3c9.1,0,16.5,7.4,16.5,16.5v68.9C1031,660.7,1023.6,668.1,1014.5,668.1z"/>
		<rect x="858.5" y="539.8" class="st0" width="12.2" height="157.1"/>
		<rect x="775.1" y="581.5" class="st1" width="83.7" height="3.8"/>
		<rect x="775.1" y="656.5" class="st1" width="83.7" height="3.8"/>
		<rect x="858.7" y="540" class="st1" width="3.8" height="156.8"/>
		<rect x="975.8" y="610.4" class="st7" width="54.3" height="16.5"/>
		<rect x="388.1" y="610.4" class="st7" width="54.3" height="16.5"/>
	</g>
	<circle class="st4" cx="708.8" cy="618.1" r="76.9"/>
	<rect x="686.8" y="556.1" class="st8" width="44.9" height="14.5"/>
	<rect x="664.2" y="68.2" class="st0" width="83.6" height="95.5"/>
	<rect x="664" y="68" class="st2" width="11.5" height="95.6"/>
	<rect x="736" y="68" class="st2" width="11.5" height="95.6"/>
	<rect x="677.4" y="3.1" class="st0" width="57" height="65.2"/>
	<rect x="686.8" y="666.4" class="st8" width="44.9" height="14.5"/>
	<circle class="st6" cx="708.8" cy="618.1" r="55.8"/>
	<circle class="st9" cx="708.8" cy="618.1" r="4.8"/>
	<rect x="784.4" y="613" class="st5" width="19.4" height="13.5"/>
	<rect x="613.5" y="613" class="st5" width="19.4" height="13.5"/>
	<rect x="651.1" y="375.9" class="st10" width="112.9" height="1.3"/>
	<rect x="651.1" y="349.9" class="st10" width="112.9" height="1.3"/>
	<rect x="692.5" y="351.1" class="st0" width="31.7" height="24.8"/>
	<rect x="692.4" y="351.1" class="st11" width="1.3" height="24.8"/>
	<rect x="722.8" y="351.1" class="st11" width="1.3" height="24.8"/>
	<rect x="693.7" y="351.1" class="st11" width="29.1" height="1.3"/>
	<rect x="693.8" y="374.7" class="st11" width="29.1" height="1.3"/>
	<g>
		<path class="st12" d="M699.2,268h-56.4c-35.9,0-65.1-29.1-65.1-65.1l0,0c0-35.9,29.1-65.1,65.1-65.1h56.4
			c35.9,0,65.1,29.1,65.1,65.1l0,0C764.3,238.9,735.1,268,699.2,268z"/>
		<rect x="630.3" y="139.8" class="st13" width="2.9" height="126"/>
		<rect x="607.6" y="148" class="st13" width="2.9" height="110"/>
		<rect x="700.8" y="139.8" class="st13" width="2.9" height="126"/>
		<rect x="575.5" y="195.9" class="st14" width="4.2" height="6.4"/>
	</g>
	<rect x="652.4" y="416.2" class="st1" width="110.1" height="4.1"/>
	<rect x="652.4" y="328.6" class="st1" width="110.1" height="4.1"/>
	<rect x="677.4" y="3.2" class="st2" width="5.8" height="64.9"/>
	<rect x="728.5" y="3.2" class="st2" width="5.8" height="64.9"/>
	<rect x="664.1" y="68.5" class="st2" width="83.5" height="3.4"/>
</g>
</svg>
