<?xml version="1.0" encoding="utf-8"?>
<!-- Generator: Adobe Illustrator 23.0.0, SVG Export Plug-In . SVG Version: 6.00 Build 0)  -->
<svg version="1.1" id="Layer_1" xmlns="http://www.w3.org/2000/svg" xmlns:xlink="http://www.w3.org/1999/xlink" x="0px" y="0px"
	 viewBox="0 0 150 150" style="enable-background:new 0 0 150 150;" xml:space="preserve">
<style type="text/css">
	.st0{fill:#459644;}
	.st1{fill:#449343;}
	.st2{fill:#336E36;}
	.st3{fill:#39823E;}
	.st4{fill:#215A2D;}
	.st5{fill:#0D0D0D;}
	.st6{fill:#19151F;}
	.st7{fill:#2E2C30;}
	.st8{display:none;}
	.st9{display:inline;fill:#60A4D2;}
	.st10{fill:none;}
</style>
<g>
	<g id="BODY">
		<g>
			<rect x="41.4" y="94.8" class="st0" width="67.9" height="28"/>
			<path class="st1" d="M109.3,94.9H41.4v-1.4c0-2.4,2-4.4,4.4-4.4h59.1c2.4,0,4.4,2,4.4,4.4V94.9z"/>
			<g>
				<path class="st2" d="M101.6,122.7h-3V96.2c0-0.6,0.5-1.1,1.1-1.1h0.7c0.6,0,1.1,0.5,1.1,1.1V122.7z"/>
				<path class="st3" d="M100.8,122.3h-1.3V95.8c0-0.3,0.2-0.5,0.5-0.5h0.3c0.3,0,0.5,0.2,0.5,0.5V122.3z"/>
			</g>
			<g>
				<path class="st2" d="M86.3,122.7h-3V96.2c0-0.6,0.5-1.1,1.1-1.1h0.7c0.6,0,1.1,0.5,1.1,1.1V122.7z"/>
				<path class="st3" d="M85.5,122.3h-1.3V95.8c0-0.3,0.2-0.5,0.5-0.5H85c0.3,0,0.5,0.2,0.5,0.5V122.3z"/>
			</g>
			<g>
				<path class="st2" d="M71,122.7h-3V96.2c0-0.6,0.5-1.1,1.1-1.1h0.7c0.6,0,1.1,0.5,1.1,1.1V122.7z"/>
				<path class="st3" d="M70.2,122.3h-1.3V95.8c0-0.3,0.2-0.5,0.5-0.5h0.3c0.3,0,0.5,0.2,0.5,0.5V122.3z"/>
			</g>
			<g>
				<path class="st2" d="M55.7,122.7h-3V96.2c0-0.6,0.5-1.1,1.1-1.1h0.7c0.6,0,1.1,0.5,1.1,1.1V122.7z"/>
				<path class="st3" d="M54.9,122.3h-1.3V95.8c0-0.3,0.2-0.5,0.5-0.5h0.3c0.3,0,0.5,0.2,0.5,0.5V122.3z"/>
			</g>
			<path class="st4" d="M110.1,122.5h-0.9V95h0.2c0.4,0,0.7,0.3,0.7,0.7V122.5z"/>
			<path class="st4" d="M41.4,122.5h-0.9V95.8c0-0.4,0.3-0.7,0.7-0.7h0.2V122.5z"/>
			<path class="st5" d="M54.5,93.3H54c-0.4,0-0.7-0.3-0.7-0.7v-1.2c0-0.4,0.3-0.7,0.7-0.7h0.5c0.4,0,0.7,0.3,0.7,0.7v1.2
				C55.2,93,54.9,93.3,54.5,93.3z"/>
			<path class="st5" d="M69.8,93.3h-0.5c-0.4,0-0.7-0.3-0.7-0.7v-1.2c0-0.4,0.3-0.7,0.7-0.7h0.5c0.4,0,0.7,0.3,0.7,0.7v1.2
				C70.5,93,70.2,93.3,69.8,93.3z"/>
			<path class="st5" d="M85.1,93.3h-0.5c-0.4,0-0.7-0.3-0.7-0.7v-1.2c0-0.4,0.3-0.7,0.7-0.7h0.5c0.4,0,0.7,0.3,0.7,0.7v1.2
				C85.8,93,85.5,93.3,85.1,93.3z"/>
			<path class="st5" d="M100.4,93.3H100c-0.4,0-0.7-0.3-0.7-0.7v-1.2c0-0.4,0.3-0.7,0.7-0.7h0.5c0.4,0,0.7,0.3,0.7,0.7v1.2
				C101.2,93,100.8,93.3,100.4,93.3z"/>
		</g>
		<g>
			<path class="st6" d="M107.5,134.2H40.6c-2.4,0-4.3-1.9-4.3-4.3v-2.8c0-2.4,1.9-4.3,4.3-4.3h66.9c2.4,0,4.3,1.9,4.3,4.3v2.8
				C111.8,132.3,109.9,134.2,107.5,134.2z"/>
			<rect x="51.3" y="134.1" class="st6" width="45.5" height="15.2"/>
			<rect x="83.6" y="122.9" class="st7" width="15.9" height="11.2"/>
		</g>
	</g>
	<g id="RD1" class="st8">
		<path class="st9" d="M54.1,86.4c0,0,2.2-12.2-5.2-10.7C48.9,75.6,42.2,78.9,54.1,86.4z"/>
		<path class="st9" d="M104.8,75.5c-7.3-1.9-5.9,10.4-5.9,10.4C111.3,79.1,104.8,75.5,104.8,75.5z"/>
		<path class="st9" d="M68.8,74.4c-7.2,2.2,0.4,11.9,0.4,11.9C76.3,74.1,68.8,74.4,68.8,74.4z"/>
		<path class="st9" d="M84.8,73.8c-7.2,2.2,0.4,11.9,0.4,11.9C92.2,73.6,84.8,73.8,84.8,73.8z"/>
	</g>
	<g id="RD2" class="st8">
		<path class="st9" d="M117.7,70c-3.4-6.7-11.7,2.5-11.7,2.5C119.3,77.3,117.7,70,117.7,70z"/>
		<path class="st9" d="M43.8,72.1c0,0-7.3-10-11.4-3.6C32.5,68.5,30.2,75.6,43.8,72.1z"/>
		<path class="st9" d="M92.4,59.1c-6.7-3.5-8,8.8-8,8.8C97.9,64.2,92.4,59.1,92.4,59.1z"/>
		<path class="st9" d="M67.6,69c0,0-0.1-12.4-7.1-9.6C60.4,59.4,54.4,63.8,67.6,69z"/>
	</g>
	<g id="RD3" class="st8">
		<path class="st9" d="M132.9,81c2.6-7.1-9.7-6.9-9.7-6.9C128.5,87.1,132.9,81,132.9,81z"/>
		<path class="st9" d="M112.8,55.5c-2.2-7.2-11.9,0.5-11.9,0.5C113.1,63,112.8,55.5,112.8,55.5z"/>
		<path class="st9" d="M51.5,58.1c0,0-8.8-8.7-11.8-1.7C39.7,56.4,38.6,63.8,51.5,58.1z"/>
		<path class="st9" d="M30.1,73.8c0,0-12.2,2-8.4,8.5C21.7,82.3,27,87.6,30.1,73.8z"/>
	</g>
	<g id="RD4" class="st8">
		<path class="st9" d="M136.1,99.1c6.3-4.1-3.8-11.3-3.8-11.3C129,101.5,136.1,99.1,136.1,99.1z"/>
		<path class="st9" d="M135.7,61.6c-0.4-7.5-11.7-2.5-11.7-2.5C134.1,68.9,135.7,61.6,135.7,61.6z"/>
		<path class="st9" d="M29.1,57.8c0,0-12.4,0.6-9.3,7.5C19.8,65.3,24.5,71.1,29.1,57.8z"/>
		<path class="st9" d="M19.3,86.8c0,0-9.9,7.4-3.5,11.4C15.8,98.2,22.9,100.4,19.3,86.8z"/>
	</g>
	<g id="RD5" class="st8">
		<path class="st9" d="M146.2,83.1c5.3-5.4-6.1-10.2-6.1-10.2C139.8,86.9,146.2,83.1,146.2,83.1z"/>
		<path class="st9" d="M10.4,74.5c0,0-11.7,4.1-6.8,9.8C3.6,84.3,9.7,88.6,10.4,74.5z"/>
	</g>
</g>
<rect x="0.2" y="-0.3" class="st10" width="150" height="150.2"/>
</svg>
