<svg version="1.1" id="el_KzQhVwlrU" xmlns="http://www.w3.org/2000/svg" xmlns:xlink="http://www.w3.org/1999/xlink" x="0px" y="0px" viewBox="0 0 150 150" style="enable-background:new 0 0 150 150;" xml:space="preserve"><style>@-webkit-keyframes kf_el_dgyoFdcBWYk_an_Mh591I5Bn{80%{opacity: 0;}83.33%{opacity: 1;}0%{opacity: 0;}100%{opacity: 1;}}@keyframes kf_el_dgyoFdcBWYk_an_Mh591I5Bn{80%{opacity: 0;}83.33%{opacity: 1;}0%{opacity: 0;}100%{opacity: 1;}}@-webkit-keyframes kf_el_AywhT-VXqyi_an_oSoJoRija{63.33%{opacity: 0;}66.67%{opacity: 1;}0%{opacity: 0;}100%{opacity: 1;}}@keyframes kf_el_AywhT-VXqyi_an_oSoJoRija{63.33%{opacity: 0;}66.67%{opacity: 1;}0%{opacity: 0;}100%{opacity: 1;}}@-webkit-keyframes kf_el_CBIVqvKGCIN_an_8SgChf_tw{46.67%{opacity: 0;}50%{opacity: 1;}0%{opacity: 0;}100%{opacity: 1;}}@keyframes kf_el_CBIVqvKGCIN_an_8SgChf_tw{46.67%{opacity: 0;}50%{opacity: 1;}0%{opacity: 0;}100%{opacity: 1;}}@-webkit-keyframes kf_el_UiUNYz-5D4X_an_uNiLy_SAB{30%{opacity: 0;}33.33%{opacity: 1;}0%{opacity: 0;}100%{opacity: 1;}}@keyframes kf_el_UiUNYz-5D4X_an_uNiLy_SAB{30%{opacity: 0;}33.33%{opacity: 1;}0%{opacity: 0;}100%{opacity: 1;}}@-webkit-keyframes kf_el_pGGqEV8-bOX_an_x6rYm61n_{13.33%{opacity: 0;}16.67%{opacity: 1;}0%{opacity: 0;}100%{opacity: 1;}}@keyframes kf_el_pGGqEV8-bOX_an_x6rYm61n_{13.33%{opacity: 0;}16.67%{opacity: 1;}0%{opacity: 0;}100%{opacity: 1;}}#el_KzQhVwlrU *{-webkit-animation-duration: 1s;animation-duration: 1s;-webkit-animation-iteration-count: infinite;animation-iteration-count: infinite;-webkit-animation-timing-function: cubic-bezier(0, 0, 1, 1);animation-timing-function: cubic-bezier(0, 0, 1, 1);}#el_L8H3SgUeGE{fill: #459644;}#el_YZOPDO4-K2{fill: #449343;}#el_sTdhP0p4qg{fill: #336E36;}#el_Cpdt4iYvpk{fill: #39823E;}#el_-Z10mz8wax{fill: #336E36;}#el_kw3V4Jv5Or{fill: #39823E;}#el_2yXKAk3o6o{fill: #336E36;}#el_2s8IxIlotS{fill: #39823E;}#el_658Q2CX5lFd{fill: #336E36;}#el_XjqZat1KmLw{fill: #39823E;}#el_mBYgjCO-s9V{fill: #215A2D;}#el__sC6SWqmCqu{fill: #215A2D;}#el_d318nM-Vyse{fill: #0D0D0D;}#el_xOS_cUGs4Dw{fill: #0D0D0D;}#el_u2RDyFBPT-b{fill: #0D0D0D;}#el_eS6lnmyCKw_{fill: #0D0D0D;}#el_iPNeUbWKQRY{fill: #19151F;}#el_IT2bHH8c5B7{fill: #19151F;}#el_mDSzhkzLMsG{fill: #2E2C30;}#el_i5kg0058GD9{fill: #60A4D2;}#el_qk6CaxaDtfw{fill: #60A4D2;}#el_KU2scXEO8F3{fill: #60A4D2;}#el_nfkCyaIkIHy{fill: #60A4D2;}#el_OZKSJ6fxJD2{fill: #60A4D2;}#el_ifxs1cIoKmd{fill: #60A4D2;}#el_AiY2j3qNsqR{fill: #60A4D2;}#el_lrQ1NuoZpVi{fill: #60A4D2;}#el_zgKtDVw_IBu{fill: #60A4D2;}#el_ZEUxyDyXghG{fill: #60A4D2;}#el_0ehxuV_4LaN{fill: #60A4D2;}#el_4FubRdHZftl{fill: #60A4D2;}#el_0_poqh6EDUX{fill: #60A4D2;}#el_X19jFzOqx7s{fill: #60A4D2;}#el_msDjkKllCRC{fill: #60A4D2;}#el_RglS58BvU9Q{fill: #60A4D2;}#el_P4MUQLGbmUC{fill: #60A4D2;}#el_XbYecDihb63{fill: #60A4D2;}#el__Q--Aoe41Ql{fill: none;}#el_pGGqEV8-bOX{-webkit-animation-fill-mode: backwards;animation-fill-mode: backwards;opacity: 0;-webkit-animation-name: kf_el_pGGqEV8-bOX_an_x6rYm61n_;animation-name: kf_el_pGGqEV8-bOX_an_x6rYm61n_;-webkit-animation-timing-function: cubic-bezier(0, 0, 1, 1);animation-timing-function: cubic-bezier(0, 0, 1, 1);}#el_UiUNYz-5D4X{-webkit-animation-fill-mode: backwards;animation-fill-mode: backwards;opacity: 0;-webkit-animation-name: kf_el_UiUNYz-5D4X_an_uNiLy_SAB;animation-name: kf_el_UiUNYz-5D4X_an_uNiLy_SAB;-webkit-animation-timing-function: cubic-bezier(0, 0, 1, 1);animation-timing-function: cubic-bezier(0, 0, 1, 1);}#el_CBIVqvKGCIN{-webkit-animation-fill-mode: backwards;animation-fill-mode: backwards;opacity: 0;-webkit-animation-name: kf_el_CBIVqvKGCIN_an_8SgChf_tw;animation-name: kf_el_CBIVqvKGCIN_an_8SgChf_tw;-webkit-animation-timing-function: cubic-bezier(0, 0, 1, 1);animation-timing-function: cubic-bezier(0, 0, 1, 1);}#el_AywhT-VXqyi{-webkit-animation-fill-mode: backwards;animation-fill-mode: backwards;opacity: 0;-webkit-animation-name: kf_el_AywhT-VXqyi_an_oSoJoRija;animation-name: kf_el_AywhT-VXqyi_an_oSoJoRija;-webkit-animation-timing-function: cubic-bezier(0, 0, 1, 1);animation-timing-function: cubic-bezier(0, 0, 1, 1);}#el_dgyoFdcBWYk{-webkit-animation-fill-mode: backwards;animation-fill-mode: backwards;opacity: 0;-webkit-animation-name: kf_el_dgyoFdcBWYk_an_Mh591I5Bn;animation-name: kf_el_dgyoFdcBWYk_an_Mh591I5Bn;-webkit-animation-timing-function: cubic-bezier(0, 0, 1, 1);animation-timing-function: cubic-bezier(0, 0, 1, 1);}</style>

<g id="el_gwhhYnOwHI">
	<g id="el_9-Uy12syTZ">
		<g id="el_kUiwhYQxB8">
			<rect x="41.4" y="94.8" width="67.9" height="28" id="el_L8H3SgUeGE"/>
			<path d="M109.3,94.9H41.4v-1.4c0-2.4,2-4.4,4.4-4.4h59.1c2.4,0,4.4,2,4.4,4.4V94.9z" id="el_YZOPDO4-K2"/>
			<g id="el_NZm6ht_cmw">
				<path d="M101.6,122.7h-3V96.2c0-0.6,0.5-1.1,1.1-1.1h0.7c0.6,0,1.1,0.5,1.1,1.1V122.7z" id="el_sTdhP0p4qg"/>
				<path d="M100.8,122.3h-1.3V95.8c0-0.3,0.2-0.5,0.5-0.5h0.3c0.3,0,0.5,0.2,0.5,0.5V122.3z" id="el_Cpdt4iYvpk"/>
			</g>
			<g id="el_X1s8mAXcrZ">
				<path d="M86.3,122.7h-3V96.2c0-0.6,0.5-1.1,1.1-1.1h0.7c0.6,0,1.1,0.5,1.1,1.1V122.7z" id="el_-Z10mz8wax"/>
				<path d="M85.5,122.3h-1.3V95.8c0-0.3,0.2-0.5,0.5-0.5H85c0.3,0,0.5,0.2,0.5,0.5V122.3z" id="el_kw3V4Jv5Or"/>
			</g>
			<g id="el_zsSiJM41yH">
				<path d="M71,122.7h-3V96.2c0-0.6,0.5-1.1,1.1-1.1h0.7c0.6,0,1.1,0.5,1.1,1.1V122.7z" id="el_2yXKAk3o6o"/>
				<path d="M70.2,122.3h-1.3V95.8c0-0.3,0.2-0.5,0.5-0.5h0.3c0.3,0,0.5,0.2,0.5,0.5V122.3z" id="el_2s8IxIlotS"/>
			</g>
			<g id="el_RW2jQHX51E">
				<path d="M55.7,122.7h-3V96.2c0-0.6,0.5-1.1,1.1-1.1h0.7c0.6,0,1.1,0.5,1.1,1.1V122.7z" id="el_658Q2CX5lFd"/>
				<path d="M54.9,122.3h-1.3V95.8c0-0.3,0.2-0.5,0.5-0.5h0.3c0.3,0,0.5,0.2,0.5,0.5V122.3z" id="el_XjqZat1KmLw"/>
			</g>
			<path d="M110.1,122.5h-0.9V95h0.2c0.4,0,0.7,0.3,0.7,0.7V122.5z" id="el_mBYgjCO-s9V"/>
			<path d="M41.4,122.5h-0.9V95.8c0-0.4,0.3-0.7,0.7-0.7h0.2V122.5z" id="el__sC6SWqmCqu"/>
			<path d="M54.5,93.3H54c-0.4,0-0.7-0.3-0.7-0.7v-1.2c0-0.4,0.3-0.7,0.7-0.7h0.5c0.4,0,0.7,0.3,0.7,0.7v1.2&#10;&#9;&#9;&#9;&#9;C55.2,93,54.9,93.3,54.5,93.3z" id="el_d318nM-Vyse"/>
			<path d="M69.8,93.3h-0.5c-0.4,0-0.7-0.3-0.7-0.7v-1.2c0-0.4,0.3-0.7,0.7-0.7h0.5c0.4,0,0.7,0.3,0.7,0.7v1.2&#10;&#9;&#9;&#9;&#9;C70.5,93,70.2,93.3,69.8,93.3z" id="el_xOS_cUGs4Dw"/>
			<path d="M85.1,93.3h-0.5c-0.4,0-0.7-0.3-0.7-0.7v-1.2c0-0.4,0.3-0.7,0.7-0.7h0.5c0.4,0,0.7,0.3,0.7,0.7v1.2&#10;&#9;&#9;&#9;&#9;C85.8,93,85.5,93.3,85.1,93.3z" id="el_u2RDyFBPT-b"/>
			<path d="M100.4,93.3H100c-0.4,0-0.7-0.3-0.7-0.7v-1.2c0-0.4,0.3-0.7,0.7-0.7h0.5c0.4,0,0.7,0.3,0.7,0.7v1.2&#10;&#9;&#9;&#9;&#9;C101.2,93,100.8,93.3,100.4,93.3z" id="el_eS6lnmyCKw_"/>
		</g>
		<g id="el_V7x7uVksTeb">
			<path d="M107.5,134.2H40.6c-2.4,0-4.3-1.9-4.3-4.3v-2.8c0-2.4,1.9-4.3,4.3-4.3h66.9c2.4,0,4.3,1.9,4.3,4.3v2.8&#10;&#9;&#9;&#9;&#9;C111.8,132.3,109.9,134.2,107.5,134.2z" id="el_iPNeUbWKQRY"/>
			<rect x="51.3" y="134.1" width="45.5" height="15.2" id="el_IT2bHH8c5B7"/>
			<rect x="83.6" y="122.9" width="15.9" height="11.2" id="el_mDSzhkzLMsG"/>
		</g>
	</g>
	<g id="el_pGGqEV8-bOX">
		<path d="M54.1,86.4c0,0,2.2-12.2-5.2-10.7C48.9,75.6,42.2,78.9,54.1,86.4z" id="el_i5kg0058GD9"/>
		<path d="M104.8,75.5c-7.3-1.9-5.9,10.4-5.9,10.4C111.3,79.1,104.8,75.5,104.8,75.5z" id="el_qk6CaxaDtfw"/>
		<path d="M68.8,74.4c-7.2,2.2,0.4,11.9,0.4,11.9C76.3,74.1,68.8,74.4,68.8,74.4z" id="el_KU2scXEO8F3"/>
		<path d="M84.8,73.8c-7.2,2.2,0.4,11.9,0.4,11.9C92.2,73.6,84.8,73.8,84.8,73.8z" id="el_nfkCyaIkIHy"/>
	</g>
	<g id="el_UiUNYz-5D4X">
		<path d="M117.7,70c-3.4-6.7-11.7,2.5-11.7,2.5C119.3,77.3,117.7,70,117.7,70z" id="el_OZKSJ6fxJD2"/>
		<path d="M43.8,72.1c0,0-7.3-10-11.4-3.6C32.5,68.5,30.2,75.6,43.8,72.1z" id="el_ifxs1cIoKmd"/>
		<path d="M92.4,59.1c-6.7-3.5-8,8.8-8,8.8C97.9,64.2,92.4,59.1,92.4,59.1z" id="el_AiY2j3qNsqR"/>
		<path d="M67.6,69c0,0-0.1-12.4-7.1-9.6C60.4,59.4,54.4,63.8,67.6,69z" id="el_lrQ1NuoZpVi"/>
	</g>
	<g id="el_CBIVqvKGCIN">
		<path d="M132.9,81c2.6-7.1-9.7-6.9-9.7-6.9C128.5,87.1,132.9,81,132.9,81z" id="el_zgKtDVw_IBu"/>
		<path d="M112.8,55.5c-2.2-7.2-11.9,0.5-11.9,0.5C113.1,63,112.8,55.5,112.8,55.5z" id="el_ZEUxyDyXghG"/>
		<path d="M51.5,58.1c0,0-8.8-8.7-11.8-1.7C39.7,56.4,38.6,63.8,51.5,58.1z" id="el_0ehxuV_4LaN"/>
		<path d="M30.1,73.8c0,0-12.2,2-8.4,8.5C21.7,82.3,27,87.6,30.1,73.8z" id="el_4FubRdHZftl"/>
	</g>
	<g id="el_AywhT-VXqyi">
		<path d="M136.1,99.1c6.3-4.1-3.8-11.3-3.8-11.3C129,101.5,136.1,99.1,136.1,99.1z" id="el_0_poqh6EDUX"/>
		<path d="M135.7,61.6c-0.4-7.5-11.7-2.5-11.7-2.5C134.1,68.9,135.7,61.6,135.7,61.6z" id="el_X19jFzOqx7s"/>
		<path d="M29.1,57.8c0,0-12.4,0.6-9.3,7.5C19.8,65.3,24.5,71.1,29.1,57.8z" id="el_msDjkKllCRC"/>
		<path d="M19.3,86.8c0,0-9.9,7.4-3.5,11.4C15.8,98.2,22.9,100.4,19.3,86.8z" id="el_RglS58BvU9Q"/>
	</g>
	<g id="el_dgyoFdcBWYk">
		<path d="M146.2,83.1c5.3-5.4-6.1-10.2-6.1-10.2C139.8,86.9,146.2,83.1,146.2,83.1z" id="el_P4MUQLGbmUC"/>
		<path d="M10.4,74.5c0,0-11.7,4.1-6.8,9.8C3.6,84.3,9.7,88.6,10.4,74.5z" id="el_XbYecDihb63"/>
	</g>
</g>
<rect x="0.2" y="-0.3" width="150" height="150.2" id="el__Q--Aoe41Ql"/>
</svg>