<svg version="1.1" id="el_DhYjPosfN" xmlns="http://www.w3.org/2000/svg" xmlns:xlink="http://www.w3.org/1999/xlink" x="0px" y="0px" viewBox="0 0 1417 1417" style="enable-background:new 0 0 1417.3 1417.3;" xml:space="preserve"><style>@-webkit-keyframes kf_el_FpE3n9KMmEP_an_0Vup9Tetk{80%{opacity: 0;}83.33%{opacity: 1;}0%{opacity: 0;}100%{opacity: 1;}}@keyframes kf_el_FpE3n9KMmEP_an_0Vup9Tetk{80%{opacity: 0;}83.33%{opacity: 1;}0%{opacity: 0;}100%{opacity: 1;}}@-webkit-keyframes kf_el_rvPg1Ca-q4__an_w2tPCVKW_{63.33%{opacity: 0;}66.67%{opacity: 1;}0%{opacity: 0;}100%{opacity: 1;}}@keyframes kf_el_rvPg1Ca-q4__an_w2tPCVKW_{63.33%{opacity: 0;}66.67%{opacity: 1;}0%{opacity: 0;}100%{opacity: 1;}}@-webkit-keyframes kf_el_mGWQnVX3GPM_an_djAzAq3qj{46.67%{opacity: 0;}50%{opacity: 1;}0%{opacity: 0;}100%{opacity: 1;}}@keyframes kf_el_mGWQnVX3GPM_an_djAzAq3qj{46.67%{opacity: 0;}50%{opacity: 1;}0%{opacity: 0;}100%{opacity: 1;}}@-webkit-keyframes kf_el_l3dy6EHFxBo_an_r5wy2L_uw{30%{opacity: 0;}33.33%{opacity: 1;}0%{opacity: 0;}100%{opacity: 1;}}@keyframes kf_el_l3dy6EHFxBo_an_r5wy2L_uw{30%{opacity: 0;}33.33%{opacity: 1;}0%{opacity: 0;}100%{opacity: 1;}}@-webkit-keyframes kf_el_yfhQ_0SKzm5_an_LpuGz3b-P{13.33%{opacity: 0;}16.67%{opacity: 1;}0%{opacity: 0;}100%{opacity: 1;}}@keyframes kf_el_yfhQ_0SKzm5_an_LpuGz3b-P{13.33%{opacity: 0;}16.67%{opacity: 1;}0%{opacity: 0;}100%{opacity: 1;}}#el_DhYjPosfN *{-webkit-animation-duration: 1s;animation-duration: 1s;-webkit-animation-iteration-count: infinite;animation-iteration-count: infinite;-webkit-animation-timing-function: cubic-bezier(0, 0, 1, 1);animation-timing-function: cubic-bezier(0, 0, 1, 1);}#el_2qemCILoOP{fill: #19151F;}#el_UQq46gwl2C{fill: #19151F;}#el_8XyUJFg2y5{fill: #19151F;}#el_QxocTyTHf9{fill: #19151F;}#el_FvEZ1KbMv8{fill: #333535;}#el_RebrllJvnI{fill: #333535;}#el_hYxdAlrBJD{fill: #333535;}#el_Hsh5YcDPOb{fill: #19151F;}#el_OK200IEA6i{fill: #19151F;}#el_eu0TZhMTsS{fill: #19151F;}#el_sltBhJDpAR{fill: #2E2C30;}#el_b0Ub6-C7KM{fill: #53AADF;}#el_pGKwvcuAZU{fill: #1A81C3;}#el_zl7ntakehc{fill: #1453A2;}#el_TLWEL0yeqmi{fill: #1A81C3;}#el_BYurpUCrcTt{fill: #1A81C3;}#el_Bi8U7gs4D6l{fill: #1A81C3;}#el_t_uywMRLtrt{fill: #5CBA49;}#el_m9GajJbeV_P{fill: #5EBB48;}#el_tGvIUI2qEn4{fill: #5EBB48;}#el_W75lwD8YWeA{fill: #4B9643;}#el_b59cY71da3h{fill: #7DC244;}#el_R57T210sSJL{fill: #4B9643;}#el_XsmccCTv-L-{fill: #7DC244;}#el_Lw-TmNCq8rM{fill: #4B9643;}#el_rayVEGC6kfg{fill: #7DC244;}#el_7nrhd6eokWS{fill: #60A4D2;}#el_fSFFPaUfmH6{fill: #60A4D2;}#el_MfJIbtLsI_g{fill: #60A4D2;}#el_cvQdXRwENNY{fill: #60A4D2;}#el_PSmWxt20zQk{fill: #60A4D2;}#el__KXMtpsZGud{fill: #60A4D2;}#el_q1jRF50yL4Q{fill: #60A4D2;}#el_OclGTJKbnYK{fill: #60A4D2;}#el_tZsZkbF3kwZ{fill: #60A4D2;}#el_5e-1BHTlmCh{fill: #60A4D2;}#el_kRd4qvlogPD{fill: #60A4D2;}#el_3IFhwaIqzGQ{fill: #60A4D2;}#el_KMexbK-hRCu{fill: #60A4D2;}#el_6QUT6I2xyRc{fill: #60A4D2;}#el_E5vG-QAWZVm{fill: #60A4D2;}#el_JUJp_jNKjpD{fill: #60A4D2;}#el_lZyMGi9ekvU{fill: #60A4D2;}#el_zIKvACm-jWG{fill: #60A4D2;}#el_yfhQ_0SKzm5{-webkit-animation-fill-mode: backwards;animation-fill-mode: backwards;opacity: 0;-webkit-animation-name: kf_el_yfhQ_0SKzm5_an_LpuGz3b-P;animation-name: kf_el_yfhQ_0SKzm5_an_LpuGz3b-P;-webkit-animation-timing-function: cubic-bezier(0, 0, 1, 1);animation-timing-function: cubic-bezier(0, 0, 1, 1);}#el_l3dy6EHFxBo{-webkit-animation-fill-mode: backwards;animation-fill-mode: backwards;opacity: 0;-webkit-animation-name: kf_el_l3dy6EHFxBo_an_r5wy2L_uw;animation-name: kf_el_l3dy6EHFxBo_an_r5wy2L_uw;-webkit-animation-timing-function: cubic-bezier(0, 0, 1, 1);animation-timing-function: cubic-bezier(0, 0, 1, 1);}#el_mGWQnVX3GPM{-webkit-animation-fill-mode: backwards;animation-fill-mode: backwards;opacity: 0;-webkit-animation-name: kf_el_mGWQnVX3GPM_an_djAzAq3qj;animation-name: kf_el_mGWQnVX3GPM_an_djAzAq3qj;-webkit-animation-timing-function: cubic-bezier(0, 0, 1, 1);animation-timing-function: cubic-bezier(0, 0, 1, 1);}#el_rvPg1Ca-q4_{-webkit-animation-fill-mode: backwards;animation-fill-mode: backwards;opacity: 0;-webkit-animation-name: kf_el_rvPg1Ca-q4__an_w2tPCVKW_;animation-name: kf_el_rvPg1Ca-q4__an_w2tPCVKW_;-webkit-animation-timing-function: cubic-bezier(0, 0, 1, 1);animation-timing-function: cubic-bezier(0, 0, 1, 1);}#el_FpE3n9KMmEP{-webkit-animation-fill-mode: backwards;animation-fill-mode: backwards;opacity: 0;-webkit-animation-name: kf_el_FpE3n9KMmEP_an_0Vup9Tetk;animation-name: kf_el_FpE3n9KMmEP_an_0Vup9Tetk;-webkit-animation-timing-function: cubic-bezier(0, 0, 1, 1);animation-timing-function: cubic-bezier(0, 0, 1, 1);}</style>

<g id="el_DQIlpkX1aB">
	<rect x="557.5" y="1196.6" width="302.4" height="21.2" id="el_2qemCILoOP"/>
	<path d="M836.4,1197.7H580.9v-159.1c0-3.8,3-6.8,6.8-6.8h241.9c3.8,0,6.8,3,6.8,6.8V1197.7z" id="el_UQq46gwl2C"/>
	<path d="M813.9,1032.9H603.4l0,0c0-5.2,4.2-9.4,9.4-9.4h191.6C809.7,1023.4,813.9,1027.7,813.9,1032.9L813.9,1032.9z" id="el_8XyUJFg2y5"/>
	<path d="M792.2,1024.2H625.1v-26.1c0-15.2,12.4-27.6,27.6-27.6h111.9c15.2,0,27.6,12.4,27.6,27.6V1024.2z" id="el_QxocTyTHf9"/>
	<rect x="703.3" y="1035" width="7.9" height="160.4" id="el_FvEZ1KbMv8"/>
	<rect x="790.1" y="1035" width="7.9" height="160.4" id="el_RebrllJvnI"/>
	<rect x="621.1" y="1035" width="7.9" height="160.4" id="el_hYxdAlrBJD"/>
	<rect x="663.6" y="963.7" width="90.1" height="7.4" id="el_Hsh5YcDPOb"/>
	<rect x="663.6" y="885.9" width="90.1" height="7.4" id="el_OK200IEA6i"/>
	<path d="M778.2,963.9H641.4c-7.3,0-13.2-5.9-13.2-13.2v-45c0-7.3,5.9-13.2,13.2-13.2h136.9c7.3,0,13.2,5.9,13.2,13.2&#10;&#9;&#9;v45C791.4,958,785.5,963.9,778.2,963.9z" id="el_eu0TZhMTsS"/>
	<rect x="747" y="1196.8" width="63.5" height="21.2" id="el_sltBhJDpAR"/>
	<rect x="557.8" y="1273.3" width="300.5" height="58.2" id="el_b0Ub6-C7KM"/>
	<rect x="575" y="1330.8" width="268.5" height="85.7" id="el_pGKwvcuAZU"/>
	<rect x="607.4" y="1218.1" width="210.5" height="55.6" id="el_zl7ntakehc"/>
	<g id="el_MX038SyF1Pz">
		<g id="el_IPy0ux3fQZK">
			<path d="M817.4,1235.9l-201.1-7c-5.2-0.2-9.2-4.5-9.1-9.7l0-1c0-0.2,0.2-0.4,0.4-0.4l200.1,6.9&#10;&#9;&#9;&#9;&#9;c5.7,0.2,10.2,5,10,10.7l0,0C817.8,1235.7,817.6,1235.9,817.4,1235.9z" id="el_TLWEL0yeqmi"/>
			<path d="M817.4,1254l-201.1-7c-5.2-0.2-9.2-4.5-9.1-9.7l0-1c0-0.2,0.2-0.4,0.4-0.4l200.1,6.9c5.7,0.2,10.2,5,10,10.7&#10;&#9;&#9;&#9;&#9;l0,0C817.8,1253.9,817.6,1254,817.4,1254z" id="el_BYurpUCrcTt"/>
			<path d="M817.4,1273.3l-201.1-7c-5.2-0.2-9.2-4.5-9.1-9.7l0-1c0-0.2,0.2-0.4,0.4-0.4l200.1,6.9&#10;&#9;&#9;&#9;&#9;c5.7,0.2,10.2,5,10,10.7l0,0C817.8,1273.1,817.6,1273.3,817.4,1273.3z" id="el_Bi8U7gs4D6l"/>
		</g>
	</g>
	<g id="el_K9z0vFQZpGa">
		<path d="M770.8,879.7c0,2.9-2.1,5.3-4.9,5.7c-16.8,2.7-36.6,4.8-59,4.6c-20.9-0.1-39.7-2-55.6-4.6&#10;&#9;&#9;&#9;c-2.8-0.5-4.9-2.9-4.9-5.7V856c0-3.7,3-6.6,6.6-6.6c17.9,0.7,36.3,1,55.4,1c19.2,0,37.7-0.4,55.7-1c0.4,0,2.8,0,4.7,1.9&#10;&#9;&#9;&#9;c1.2,1.2,1.9,2.9,1.9,4.7V879.7z" id="el_t_uywMRLtrt"/>
		<path d="M762.7,851.7H654.4l3.2-36.2c0.3-3,2.7-5.2,5.7-5.2h89.7c2.9,0,5.4,2.2,5.7,5.1L762.7,851.7z" id="el_m9GajJbeV_P"/>
		<path d="M753.9,811.3h-90.7l2.7-36.2c0.2-3,2.3-5.2,4.8-5.2h75.1c2.4,0,4.5,2.2,4.8,5.1L753.9,811.3z" id="el_tGvIUI2qEn4"/>
		<path d="M707.4,769.9h-36.7c-2.5,0-4.6,2.3-4.8,5.2l-2.7,36.2h44.2V769.9z" id="el_W75lwD8YWeA"/>
		<path d="M750.1,775c0.3,1.5-0.5,3-1.6,3.1c-12.9,1-27.2,1.8-41.4,1.8c-13.7,0-26.8-0.6-39.3-1.6&#10;&#9;&#9;&#9;c-0.9-0.1-1.6-1.2-1.6-2.5v-0.6c0-3.8,2.2-6.8,4.8-6.6c11.6,1.1,24,1.8,37.1,1.8c13.6,0,26.5-0.8,38.6-2c1.6-0.2,3,1.7,3,4.1&#10;&#9;&#9;&#9;L750.1,775z" id="el_b59cY71da3h"/>
		<path d="M707.4,810.4h-44c-3,0-5.5,2.2-5.7,5.2l-3.2,35.8h52.9V810.4z" id="el_R57T210sSJL"/>
		<path d="M758.8,816.6c0.3,1.5-0.6,3-1.9,3.1c-15.4,1-32.5,1.8-49.4,1.8c-16.4,0-32-0.6-46.9-1.6&#10;&#9;&#9;&#9;c-1.1-0.1-1.9-1.2-1.9-2.5v-0.6c0-3.8,2.6-6.8,5.7-6.6c13.9,1.1,28.7,1.8,44.2,1.8c16.3,0,31.7-0.8,46.1-2&#10;&#9;&#9;&#9;c1.9-0.2,3.5,1.7,3.5,4.1L758.8,816.6z" id="el_XsmccCTv-L-"/>
		<path d="M707.1,850.5c-18.6,0-36.6-0.4-54.1-1c-3.7,0-6.6,3-6.6,6.6v23.6c0,2.9,2.1,5.3,4.9,5.7&#10;&#9;&#9;&#9;c15.9,2.6,34.7,4.5,55.6,4.6c0.1,0,0.2,0,0.2,0V850.5z" id="el_Lw-TmNCq8rM"/>
		<path d="M770.8,855.9c0.4,1.5-0.7,3-2.3,3.1c-19.2,1-40.4,1.8-61.3,1.8c-20.3,0-39.8-0.6-58.3-1.6&#10;&#9;&#9;&#9;c-1.4-0.1-2.4-1.2-2.4-2.5V856c0-3.8,3.3-6.8,7.1-6.6c17.2,1.1,35.6,1.8,55,1.8c20.2,0,39.4-0.8,57.3-2c2.4-0.2,4.4,1.7,4.4,4.1&#10;&#9;&#9;&#9;L770.8,855.9z" id="el_rayVEGC6kfg"/>
	</g>
</g>
<g id="el_yfhQ_0SKzm5">
	<path d="M657.9,736.2c0,0,9.1-80.7-38.8-68C619.1,668.2,576.5,692.4,657.9,736.2z" id="el_7nrhd6eokWS"/>
	<path d="M802.4,668.2c-47.9-12.7-38.8,68-38.8,68C845,692.4,802.4,668.2,802.4,668.2z" id="el_fSFFPaUfmH6"/>
	<path d="M686.5,659.9c-47.4,14.3,2.6,78.3,2.6,78.3C735.5,658.2,686.5,659.9,686.5,659.9z" id="el_MfJIbtLsI_g"/>
	<path d="M735.2,659.9c-47.4,14.3,2.6,78.3,2.6,78.3C784.2,658.2,735.2,659.9,735.2,659.9z" id="el_cvQdXRwENNY"/>
</g>
<g id="el_l3dy6EHFxBo">
	<path d="M903.8,632.5c-22.4-44.2-76.6,16.3-76.6,16.3C914.1,680.5,903.8,632.5,903.8,632.5z" id="el_PSmWxt20zQk"/>
	<path d="M594.5,645c0,0-49.7-64.2-75.2-21.8C519.3,623.2,505.5,670.3,594.5,645z" id="el__KXMtpsZGud"/>
	<path d="M796,582.6c-44-22.7-52.7,58-52.7,58C832.4,615.5,796,582.6,796,582.6z" id="el_q1jRF50yL4Q"/>
	<path d="M686.7,640c0,0,4.2-81.1-42.8-65.6C643.9,574.4,602.8,601.1,686.7,640z" id="el_OclGTJKbnYK"/>
</g>
<g id="el_FpE3n9KMmEP">
	<path d="M1162.5,750.1c34.6-35.5-40.1-67.3-40.1-67.3C1120.4,775.3,1162.5,750.1,1162.5,750.1z" id="el_tZsZkbF3kwZ"/>
	<path d="M326.7,673.7c0,0-76.7,26.6-44.6,64.4C282.1,738,322.3,766,326.7,673.7z" id="el_5e-1BHTlmCh"/>
</g>
<g id="el_mGWQnVX3GPM">
	<path d="M1028.7,695.1c13.7-47.6-67.2-40.3-67.2-40.3C1003.5,737.2,1028.7,695.1,1028.7,695.1z" id="el_kRd4qvlogPD"/>
	<path d="M955.8,565.1c-14.7-47.3-78.3,3.2-78.3,3.2C958,614.1,955.8,565.1,955.8,565.1z" id="el_3IFhwaIqzGQ"/>
	<path d="M547.5,563.2c0,0-58-56.8-77.5-11.3C469.9,551.9,462.8,600.4,547.5,563.2z" id="el_KMexbK-hRCu"/>
	<path d="M484,648.3c0,0-81,4.9-60.4,49.9C423.6,698.2,454.8,736.1,484,648.3z" id="el_6QUT6I2xyRc"/>
</g>
<g id="el_rvPg1Ca-q4_">
	<path d="M1082.3,823.3c41.4-27.2-24.7-74.3-24.7-74.3C1035.8,838.9,1082.3,823.3,1082.3,823.3z" id="el_E5vG-QAWZVm"/>
	<path d="M1085.3,605.7c-2.5-49.5-76.6-16.3-76.6-16.3C1075.2,653.7,1085.3,605.7,1085.3,605.7z" id="el_JUJp_jNKjpD"/>
	<path d="M433.1,566.7c0,0-81.1,4.1-60.9,49.3C372.2,616,403,654.2,433.1,566.7z" id="el_lZyMGi9ekvU"/>
	<path d="M416.7,740.2c0,0-65.1,48.5-23.2,74.8C393.5,815,440.3,829.6,416.7,740.2z" id="el_zIKvACm-jWG"/>
</g>
</svg>