<?xml version="1.0" encoding="utf-8"?>
<!-- Generator: Adobe Illustrator 23.0.0, SVG Export Plug-In . SVG Version: 6.00 Build 0)  -->
<svg version="1.1" id="Layer_1" xmlns="http://www.w3.org/2000/svg" xmlns:xlink="http://www.w3.org/1999/xlink" x="0px" y="0px"
	 viewBox="0 0 150 150" style="enable-background:new 0 0 150 150;" xml:space="preserve">
<style type="text/css">
	.st0{fill:#19151F;}
	.st1{fill:#333535;}
	.st2{fill:#2E2C30;}
	.st3{fill:#53AADF;}
	.st4{fill:#1A81C3;}
	.st5{fill:#1453A2;}
	.st6{fill:#5CBA49;}
	.st7{fill:#5EBB48;}
	.st8{fill:#4B9643;}
	.st9{fill:#7DC244;}
	.st10{display:none;fill:#CADFEA;}
	.st11{display:none;}
	.st12{display:inline;fill:#60A4D2;}
</style>
<g id="Body">
	<rect x="52.8" y="113.6" class="st0" width="43.2" height="3.5"/>
	<path class="st0" d="M92.6,113.8H56.2V93.3c0-3.8,3-6.8,6.8-6.8h22.9c3.8,0,6.8,3,6.8,6.8V113.8z"/>
	<path class="st0" d="M89.4,86.7H59.4v-1c0-0.3,0.3-0.6,0.6-0.6h28.9c0.3,0,0.6,0.3,0.6,0.6V86.7z"/>
	<path class="st0" d="M86.3,85.3H62.5v-5.5c0-1.8,1.5-3.3,3.3-3.3H83c1.8,0,3.3,1.5,3.3,3.3V85.3z"/>
	<rect x="73.6" y="87" class="st1" width="1.1" height="26.4"/>
	<rect x="86" y="87" class="st1" width="1.1" height="26.4"/>
	<rect x="61.9" y="87" class="st1" width="1.1" height="26.4"/>
	<rect x="68" y="75.3" class="st0" width="12.9" height="1.2"/>
	<rect x="68" y="62.5" class="st0" width="12.9" height="1.2"/>
	<path class="st0" d="M84,75.3H65.1c-1.2,0-2.2-1-2.2-2.2v-7.3c0-1.2,1-2.2,2.2-2.2H84c1.2,0,2.2,1,2.2,2.2v7.3
		C86.2,74.4,85.2,75.3,84,75.3z"/>
	<rect x="79.9" y="113.6" class="st2" width="9.1" height="3.5"/>
	<rect x="52.9" y="126.2" class="st3" width="42.9" height="9.6"/>
	<rect x="55.3" y="135.7" class="st4" width="38.3" height="14.1"/>
	<rect x="59.9" y="117.2" class="st5" width="30.1" height="9.1"/>
	<g>
		<g>
			<path class="st4" d="M89.9,120.1l-28.7-1.1c-0.7,0-1.3-0.7-1.3-1.6l0-0.2c0,0,0-0.1,0.1-0.1l28.6,1.1
				C89.4,118.3,90,119.1,89.9,120.1L89.9,120.1C90,120,90,120.1,89.9,120.1z"/>
			<path class="st4" d="M89.9,123.1l-28.7-1.1c-0.7,0-1.3-0.7-1.3-1.6l0-0.2c0,0,0-0.1,0.1-0.1l28.6,1.1
				C89.4,121.3,90,122.1,89.9,123.1L89.9,123.1C90,123,90,123.1,89.9,123.1z"/>
			<path class="st4" d="M89.9,126.2l-28.7-1.1c-0.7,0-1.3-0.7-1.3-1.6l0-0.2c0,0,0-0.1,0.1-0.1l28.6,1.1
				C89.4,124.4,90,125.2,89.9,126.2L89.9,126.2C90,126.2,90,126.2,89.9,126.2z"/>
		</g>
	</g>
	<g>
		<path class="st6" d="M83.3,61.5c0,0.5-0.3,0.9-0.7,0.9c-2.4,0.5-5.2,0.8-8.4,0.8c-3,0-5.7-0.3-7.9-0.8c-0.4-0.1-0.7-0.5-0.7-0.9
			v-3.9c0-0.6,0.4-1.1,0.9-1.1c2.6,0.1,5.2,0.2,7.9,0.2c2.7,0,5.4-0.1,8-0.2c0.1,0,0.4,0,0.7,0.3c0.2,0.2,0.3,0.5,0.3,0.8V61.5z"/>
		<path class="st7" d="M82.1,56.9H66.7l0.5-5.9c0-0.5,0.4-0.9,0.8-0.9h12.8c0.4,0,0.8,0.4,0.8,0.8L82.1,56.9z"/>
		<path class="st7" d="M80.9,50.2h-13l0.4-5.9c0-0.5,0.3-0.9,0.7-0.9h10.7c0.3,0,0.6,0.4,0.7,0.8L80.9,50.2z"/>
		<path class="st8" d="M74.2,43.4H69c-0.4,0-0.7,0.4-0.7,0.9l-0.4,5.9h6.3V43.4z"/>
		<path class="st9" d="M80.3,44.3c0,0.3-0.1,0.5-0.2,0.5c-1.8,0.2-3.9,0.3-5.9,0.3c-2,0-3.8-0.1-5.6-0.3c-0.1,0-0.2-0.2-0.2-0.4
			v-0.1c0-0.6,0.3-1.1,0.7-1.1c1.7,0.2,3.4,0.3,5.3,0.3c1.9,0,3.8-0.1,5.5-0.3c0.2,0,0.4,0.3,0.4,0.7L80.3,44.3z"/>
		<path class="st8" d="M74.2,50.1h-6.3c-0.4,0-0.8,0.4-0.8,0.8l-0.5,5.9h7.6V50.1z"/>
		<path class="st9" d="M81.5,51.1c0,0.3-0.1,0.5-0.3,0.5c-2.2,0.2-4.6,0.3-7.1,0.3c-2.3,0-4.6-0.1-6.7-0.3c-0.2,0-0.3-0.2-0.3-0.4
			v-0.1c0-0.6,0.4-1.1,0.8-1.1c2,0.2,4.1,0.3,6.3,0.3c2.3,0,4.5-0.1,6.6-0.3c0.3,0,0.5,0.3,0.5,0.7L81.5,51.1z"/>
		<path class="st8" d="M74.2,56.7c-2.7,0-5.2-0.1-7.7-0.2c-0.5,0-0.9,0.5-0.9,1.1v3.9c0,0.5,0.3,0.9,0.7,0.9
			c2.3,0.4,4.9,0.7,7.9,0.8c0,0,0,0,0,0V56.7z"/>
		<path class="st9" d="M83.3,57.6c0.1,0.3-0.1,0.5-0.3,0.5c-2.7,0.2-5.8,0.3-8.8,0.3c-2.9,0-5.7-0.1-8.3-0.3c-0.2,0-0.3-0.2-0.3-0.4
			v-0.1c0-0.6,0.5-1.1,1-1.1c2.5,0.2,5.1,0.3,7.8,0.3c2.9,0,5.6-0.1,8.2-0.3c0.3,0,0.6,0.3,0.6,0.7L83.3,57.6z"/>
	</g>
</g>
<polygon id="Foggy1" class="st10" points="784.6,716.5 -632.2,716.5 32.9,14.1 117.7,14.1 "/>
<polygon id="Foggy2" class="st10" points="710.3,716.5 -639,716.5 33,14.1 117.4,14.2 "/>
<polygon id="Foggy3" class="st10" points="784.6,716.5 -516,716 32.8,14.2 117.9,14.2 "/>
<polygon id="Foggy4" class="st10" points="705.8,716.5 -516.5,716.5 32.8,14.1 117.6,14.2 "/>
<g id="raindrop1_1_" class="st11">
	<path class="st12" d="M67.1,37.9c0,0,1.3-13.3-5.5-11.2C61.6,26.7,55.5,30.7,67.1,37.9z"/>
	<path class="st12" d="M87.8,26.7c-6.8-2.1-5.5,11.2-5.5,11.2C93.9,30.7,87.8,26.7,87.8,26.7z"/>
	<path class="st12" d="M71.2,25.3c-6.8,2.4,0.4,12.9,0.4,12.9C78.2,25,71.2,25.3,71.2,25.3z"/>
	<path class="st12" d="M78.2,25.3c-6.8,2.4,0.4,12.9,0.4,12.9C85.2,25,78.2,25.3,78.2,25.3z"/>
</g>
<g id="raindrop2_1_" class="st11">
	<path class="st12" d="M102.3,20.8c-3.2-7.3-10.9,2.7-10.9,2.7C103.7,28.7,102.3,20.8,102.3,20.8z"/>
	<path class="st12" d="M58.1,22.9c0,0-7.1-10.6-10.7-3.6C47.3,19.3,45.4,27,58.1,22.9z"/>
	<path class="st12" d="M86.9,12.6c-6.3-3.7-7.5,9.5-7.5,9.5C92.1,18,86.9,12.6,86.9,12.6z"/>
	<path class="st12" d="M71.3,22c0,0,0.6-13.3-6.1-10.8C65.1,11.3,59.3,15.6,71.3,22z"/>
</g>
<g id="raindrop3_1_" class="st11">
	<path class="st12" d="M139.2,40.2c4.9-5.8-5.7-11.1-5.7-11.1C133.2,44.3,139.2,40.2,139.2,40.2z"/>
	<path class="st12" d="M19.8,27.6c0,0-11,4.4-6.4,10.6C13.5,38.2,19.2,42.8,19.8,27.6z"/>
</g>
<g id="raindrop4_1_" class="st11">
	<path class="st12" d="M120.1,31.1c2-7.8-9.6-6.6-9.6-6.6C116.5,38,120.1,31.1,120.1,31.1z"/>
	<path class="st12" d="M109.7,9.7c-2.1-7.8-11.2,0.5-11.2,0.5C110,17.8,109.7,9.7,109.7,9.7z"/>
	<path class="st12" d="M51.4,9.4c0,0-8.3-9.3-11.1-1.9C40.3,7.6,39.3,15.5,51.4,9.4z"/>
	<path class="st12" d="M42.3,23.4c0,0-11.6,0.8-8.6,8.2C33.7,31.6,38.1,37.9,42.3,23.4z"/>
</g>
<g id="raindrop5" class="st11">
	<path class="st12" d="M127.7,52.2c5.9-4.5-3.5-12.2-3.5-12.2C121.1,54.8,127.7,52.2,127.7,52.2z"/>
	<path class="st12" d="M128.2,16.4c-0.4-8.1-10.9-2.7-10.9-2.7C126.7,24.3,128.2,16.4,128.2,16.4z"/>
	<path class="st12" d="M35,10c0,0-11.6,0.7-8.7,8.1C26.3,18.1,30.7,24.4,35,10z"/>
	<path class="st12" d="M32.7,38.5c0,0-9.3,8-3.3,12.3C29.4,50.8,36.1,53.2,32.7,38.5z"/>
</g>
</svg>
